0
SECTION
2
HEADER
9
$ACADVER
1
AC1002
9
$INSUNITS
70
4
0
ENDSEC
0
SECTION
2
TABLES
0
TABLE
2
LTYPE
70
1
0
LTYPE
2
DASH
70
0
3
---
72
65
73
2
40
0.6
49
0.3
49
-0.3
0
ENDTAB
0
ENDSEC
0
SECTION
2
ENTITIES
0
POLYLINE
66
1
8
Sketch
62
5
0
VERTEX
8
Sketch
10
66.89
20
6.04
0
VERTEX
8
Sketch
10
66.89
20
4.36
0
VERTEX
8
Sketch
10
67.07
20
4.06
0
VERTEX
8
Sketch
10
67.13
20
4.06
0
SEQEND
0
POLYLINE
66
1
8
Sketch
62
5
0
VERTEX
8
Sketch
10
66.35
20
6.16
0
VERTEX
8
Sketch
10
66.35
20
6.04
0
VERTEX
8
Sketch
10
66.05
20
5.62
0
VERTEX
8
Sketch
10
66.05
20
5.38
0
VERTEX
8
Sketch
10
65.93
20
4.72
0
VERTEX
8
Sketch
10
65.93
20
4.66
0
VERTEX
8
Sketch
10
65.99
20
4.72
0
SEQEND
0
POLYLINE
66
1
8
Sketch
62
5
0
VERTEX
8
Sketch
10
65.45
20
6.28
0
VERTEX
8
Sketch
10
65.45
20
6.04
0
VERTEX
8
Sketch
10
65.51
20
5.68
0
VERTEX
8
Sketch
10
65.51
20
4
0
SEQEND
0
POLYLINE
66
1
8
Sketch
62
5
0
VERTEX
8
Sketch
10
66.89
20
3.76
0
VERTEX
8
Sketch
10
66.89
20
2.98
0
VERTEX
8
Sketch
10
66.83
20
2.62
0
VERTEX
8
Sketch
10
66.83
20
2.26
0
VERTEX
8
Sketch
10
66.95
20
1.9
0
VERTEX
8
Sketch
10
67.01
20
1.84
0
SEQEND
0
POLYLINE
66
1
8
Sketch
62
5
0
VERTEX
8
Sketch
10
66.59
20
3.82
0
VERTEX
8
Sketch
10
66.59
20
2.44
0
SEQEND
0
POLYLINE
66
1
8
Sketch
62
5
0
VERTEX
8
Sketch
10
66.11
20
4
0
VERTEX
8
Sketch
10
66.11
20
3.28
0
VERTEX
8
Sketch
10
66.23
20
2.56
0
VERTEX
8
Sketch
10
66.29
20
2.38
0
VERTEX
8
Sketch
10
66.29
20
2.32
0
SEQEND
0
POLYLINE
66
1
8
Sketch
62
0
0
VERTEX
8
Sketch
10
72.83
20
1.6
0
VERTEX
8
Sketch
10
74.09
20
1
0
VERTEX
8
Sketch
10
74.27
20
0.76
0
VERTEX
8
Sketch
10
74.93
20
0.34
0
VERTEX
8
Sketch
10
75.41
20
0.16
0
VERTEX
8
Sketch
10
75.77
20
-0.08
0
VERTEX
8
Sketch
10
77.93
20
-1.04
0
VERTEX
8
Sketch
10
78.11
20
-1.04
0
VERTEX
8
Sketch
10
78.29
20
-1.1
0
VERTEX
8
Sketch
10
78.41
20
-1.1
0
VERTEX
8
Sketch
10
78.41
20
-1.22
0
VERTEX
8
Sketch
10
77.69
20
-1.52
0
VERTEX
8
Sketch
10
77.21
20
-1.64
0
VERTEX
8
Sketch
10
77.09
20
-1.76
0
VERTEX
8
Sketch
10
76.43
20
-1.76
0
VERTEX
8
Sketch
10
75.77
20
-1.88
0
VERTEX
8
Sketch
10
74.87
20
-1.88
0
VERTEX
8
Sketch
10
74.81
20
-1.82
0
VERTEX
8
Sketch
10
74.63
20
-1.82
0
VERTEX
8
Sketch
10
74.63
20
-1.76
0
VERTEX
8
Sketch
10
74.39
20
-1.76
0
VERTEX
8
Sketch
10
74.27
20
-1.64
0
VERTEX
8
Sketch
10
74.27
20
-1.58
0
SEQEND
0
POLYLINE
66
1
8
Sketch
62
0
0
VERTEX
8
Sketch
10
68.69
20
0.82
0
VERTEX
8
Sketch
10
68.93
20
0.82
0
VERTEX
8
Sketch
10
69.05
20
0.7
0
VERTEX
8
Sketch
10
69.29
20
0.64
0
VERTEX
8
Sketch
10
69.47
20
0.58
0
VERTEX
8
Sketch
10
69.65
20
0.58
0
VERTEX
8
Sketch
10
69.77
20
0.46
0
SEQEND
0
POLYLINE
66
1
8
Sketch
62
0
0
VERTEX
8
Sketch
10
68.45
20
1.72
0
VERTEX
8
Sketch
10
69.11
20
1.72
0
VERTEX
8
Sketch
10
69.47
20
1.66
0
SEQEND
0
POLYLINE
66
1
8
Sketch
62
0
0
VERTEX
8
Sketch
10
68.87
20
2.62
0
VERTEX
8
Sketch
10
68.81
20
2.62
0
VERTEX
8
Sketch
10
68.81
20
2.56
0
VERTEX
8
Sketch
10
68.75
20
2.56
0
VERTEX
8
Sketch
10
68.75
20
2.44
0
VERTEX
8
Sketch
10
69.11
20
2.44
0
VERTEX
8
Sketch
10
69.23
20
2.32
0
VERTEX
8
Sketch
10
69.53
20
2.32
0
SEQEND
0
POLYLINE
66
1
8
Sketch
62
0
0
VERTEX
8
Sketch
10
68.87
20
3.22
0
VERTEX
8
Sketch
10
68.87
20
3.16
0
VERTEX
8
Sketch
10
68.75
20
3.16
0
VERTEX
8
Sketch
10
68.57
20
2.98
0
VERTEX
8
Sketch
10
68.45
20
2.62
0
VERTEX
8
Sketch
10
68.45
20
1.3
0
VERTEX
8
Sketch
10
68.51
20
1.18
0
VERTEX
8
Sketch
10
68.51
20
1.06
0
VERTEX
8
Sketch
10
68.63
20
0.88
0
VERTEX
8
Sketch
10
68.63
20
0.76
0
VERTEX
8
Sketch
10
68.75
20
0.58
0
VERTEX
8
Sketch
10
68.75
20
0.4
0
VERTEX
8
Sketch
10
68.81
20
0.22
0
VERTEX
8
Sketch
10
68.87
20
0.22
0
VERTEX
8
Sketch
10
68.87
20
0.04
0
VERTEX
8
Sketch
10
68.93
20
0.04
0
SEQEND
0
POLYLINE
66
1
8
Sketch
62
0
0
VERTEX
8
Sketch
10
77.51
20
1.06
0
VERTEX
8
Sketch
10
77.57
20
0.88
0
VERTEX
8
Sketch
10
77.63
20
0.88
0
VERTEX
8
Sketch
10
77.63
20
0.82
0
VERTEX
8
Sketch
10
77.75
20
0.76
0
VERTEX
8
Sketch
10
77.75
20
0.64
0
VERTEX
8
Sketch
10
77.93
20
0.46
0
VERTEX
8
Sketch
10
78.11
20
0.46
0
VERTEX
8
Sketch
10
78.35
20
0.1
0
VERTEX
8
Sketch
10
78.83
20
-0.14
0
VERTEX
8
Sketch
10
79.37
20
-0.68
0
VERTEX
8
Sketch
10
80.21
20
-1.22
0
VERTEX
8
Sketch
10
80.51
20
-1.52
0
SEQEND
0
POLYLINE
66
1
8
Sketch
62
0
0
VERTEX
8
Sketch
10
67.73
20
0.28
0
VERTEX
8
Sketch
10
68.33
20
0.28
0
VERTEX
8
Sketch
10
68.93
20
-0.02
0
VERTEX
8
Sketch
10
70.13
20
-0.62
0
VERTEX
8
Sketch
10
70.31
20
-0.62
0
VERTEX
8
Sketch
10
70.85
20
-0.8
0
VERTEX
8
Sketch
10
71.27
20
-0.98
0
VERTEX
8
Sketch
10
71.75
20
-1.04
0
VERTEX
8
Sketch
10
72.53
20
-1.46
0
VERTEX
8
Sketch
10
72.77
20
-1.52
0
VERTEX
8
Sketch
10
72.95
20
-1.64
0
VERTEX
8
Sketch
10
73.07
20
-1.64
0
VERTEX
8
Sketch
10
73.25
20
-1.76
0
VERTEX
8
Sketch
10
73.43
20
-1.76
0
VERTEX
8
Sketch
10
73.73
20
-1.94
0
VERTEX
8
Sketch
10
74.33
20
-2.3
0
VERTEX
8
Sketch
10
74.39
20
-2.42
0
VERTEX
8
Sketch
10
74.69
20
-2.84
0
VERTEX
8
Sketch
10
74.81
20
-2.84
0
VERTEX
8
Sketch
10
74.93
20
-2.96
0
VERTEX
8
Sketch
10
75.05
20
-2.96
0
VERTEX
8
Sketch
10
75.11
20
-3.08
0
VERTEX
8
Sketch
10
75.23
20
-3.08
0
VERTEX
8
Sketch
10
75.53
20
-3.38
0
VERTEX
8
Sketch
10
75.53
20
-3.44
0
VERTEX
8
Sketch
10
75.59
20
-3.44
0
SEQEND
0
POLYLINE
66
1
8
Sketch
62
0
0
VERTEX
8
Sketch
10
68.39
20
3.28
0
VERTEX
8
Sketch
10
68.99
20
3.28
0
VERTEX
8
Sketch
10
69.77
20
3.04
0
VERTEX
8
Sketch
10
70.01
20
3.04
0
VERTEX
8
Sketch
10
70.49
20
2.8
0
VERTEX
8
Sketch
10
71.45
20
2.8
0
VERTEX
8
Sketch
10
71.75
20
2.86
0
VERTEX
8
Sketch
10
71.75
20
2.92
0
VERTEX
8
Sketch
10
71.99
20
2.92
0
VERTEX
8
Sketch
10
72.11
20
2.8
0
VERTEX
8
Sketch
10
72.23
20
2.8
0
VERTEX
8
Sketch
10
72.35
20
2.68
0
VERTEX
8
Sketch
10
73.73
20
2.68
0
VERTEX
8
Sketch
10
74.15
20
2.56
0
VERTEX
8
Sketch
10
74.69
20
2.5
0
VERTEX
8
Sketch
10
75.95
20
2.5
0
VERTEX
8
Sketch
10
76.31
20
2.38
0
VERTEX
8
Sketch
10
76.67
20
2.14
0
VERTEX
8
Sketch
10
76.79
20
1.9
0
VERTEX
8
Sketch
10
76.97
20
1.84
0
VERTEX
8
Sketch
10
76.97
20
1.78
0
VERTEX
8
Sketch
10
77.45
20
1.42
0
VERTEX
8
Sketch
10
77.63
20
1.3
0
VERTEX
8
Sketch
10
77.75
20
1.3
0
VERTEX
8
Sketch
10
77.75
20
1.24
0
VERTEX
8
Sketch
10
77.93
20
1.24
0
VERTEX
8
Sketch
10
77.99
20
1.18
0
SEQEND
0
POLYLINE
66
1
8
Sketch
62
0
0
VERTEX
8
Sketch
10
44.63
20
6.76
0
VERTEX
8
Sketch
10
44.63
20
6.88
0
VERTEX
8
Sketch
10
44.33
20
7.06
0
VERTEX
8
Sketch
10
43.79
20
7.12
0
VERTEX
8
Sketch
10
43.61
20
7.12
0
VERTEX
8
Sketch
10
43.37
20
6.94
0
VERTEX
8
Sketch
10
43.37
20
6.52
0
VERTEX
8
Sketch
10
43.43
20
6.52
0
VERTEX
8
Sketch
10
43.43
20
6.4
0
VERTEX
8
Sketch
10
43.61
20
6.28
0
VERTEX
8
Sketch
10
44.03
20
6.22
0
VERTEX
8
Sketch
10
44.27
20
6.22
0
VERTEX
8
Sketch
10
44.57
20
6.4
0
VERTEX
8
Sketch
10
44.81
20
6.7
0
VERTEX
8
Sketch
10
44.87
20
7
0
VERTEX
8
Sketch
10
44.87
20
7.54
0
VERTEX
8
Sketch
10
44.39
20
7.54
0
VERTEX
8
Sketch
10
44.03
20
7.36
0
VERTEX
8
Sketch
10
43.91
20
7.12
0
SEQEND
0
POLYLINE
66
1
8
Sketch
62
0
0
VERTEX
8
Sketch
10
43.61
20
8.8
0
VERTEX
8
Sketch
10
43.61
20
10.3
0
VERTEX
8
Sketch
10
43.73
20
10.54
0
VERTEX
8
Sketch
10
44.21
20
10.54
0
VERTEX
8
Sketch
10
44.51
20
10.36
0
VERTEX
8
Sketch
10
44.75
20
10.18
0
VERTEX
8
Sketch
10
44.99
20
9.94
0
VERTEX
8
Sketch
10
45.05
20
9.7
0
VERTEX
8
Sketch
10
45.05
20
9.28
0
VERTEX
8
Sketch
10
44.99
20
9.28
0
VERTEX
8
Sketch
10
44.99
20
9.04
0
VERTEX
8
Sketch
10
44.93
20
9.04
0
VERTEX
8
Sketch
10
44.87
20
8.92
0
VERTEX
8
Sketch
10
44.21
20
8.32
0
VERTEX
8
Sketch
10
44.15
20
8.32
0
VERTEX
8
Sketch
10
44.15
20
8.08
0
VERTEX
8
Sketch
10
44.21
20
8.08
0
VERTEX
8
Sketch
10
44.21
20
7.96
0
VERTEX
8
Sketch
10
44.27
20
7.9
0
SEQEND
0
POLYLINE
66
1
8
Sketch
62
0
0
VERTEX
8
Sketch
10
51.71
20
10.24
0
VERTEX
8
Sketch
10
51.41
20
10.24
0
VERTEX
8
Sketch
10
51.41
20
10.18
0
VERTEX
8
Sketch
10
48.95
20
10.18
0
VERTEX
8
Sketch
10
48.29
20
9.76
0
VERTEX
8
Sketch
10
47.93
20
9.64
0
VERTEX
8
Sketch
10
47.63
20
9.4
0
VERTEX
8
Sketch
10
47.51
20
9.28
0
VERTEX
8
Sketch
10
47.93
20
9.28
0
VERTEX
8
Sketch
10
48.35
20
9.1
0
VERTEX
8
Sketch
10
49.79
20
8.68
0
VERTEX
8
Sketch
10
50.51
20
8.44
0
VERTEX
8
Sketch
10
50.69
20
8.44
0
SEQEND
0
POLYLINE
66
1
8
Sketch
62
0
0
VERTEX
8
Sketch
10
56.39
20
8.86
0
VERTEX
8
Sketch
10
56.15
20
8.86
0
VERTEX
8
Sketch
10
54.71
20
9.34
0
VERTEX
8
Sketch
10
53.57
20
9.52
0
VERTEX
8
Sketch
10
51.59
20
9.52
0
VERTEX
8
Sketch
10
50.63
20
9.64
0
VERTEX
8
Sketch
10
50.57
20
9.64
0
SEQEND
0
POLYLINE
66
1
8
Sketch
62
0
0
VERTEX
8
Sketch
10
59.69
20
9.22
0
VERTEX
8
Sketch
10
58.79
20
9.22
0
VERTEX
8
Sketch
10
58.01
20
9.4
0
VERTEX
8
Sketch
10
57.89
20
9.52
0
VERTEX
8
Sketch
10
56.81
20
9.64
0
VERTEX
8
Sketch
10
55.79
20
9.7
0
VERTEX
8
Sketch
10
55.25
20
9.82
0
VERTEX
8
Sketch
10
54.71
20
10.06
0
VERTEX
8
Sketch
10
54.71
20
10.12
0
VERTEX
8
Sketch
10
54.59
20
10.12
0
VERTEX
8
Sketch
10
54.59
20
10.18
0
SEQEND
0
POLYLINE
66
1
8
Sketch
62
0
0
VERTEX
8
Sketch
10
58.85
20
7
0
VERTEX
8
Sketch
10
58.85
20
7
0
VERTEX
8
Sketch
10
58.85
20
7.06
0
VERTEX
8
Sketch
10
58.13
20
7.54
0
VERTEX
8
Sketch
10
57.83
20
7.54
0
VERTEX
8
Sketch
10
56.87
20
8.02
0
VERTEX
8
Sketch
10
56.69
20
8.02
0
VERTEX
8
Sketch
10
56.45
20
8.2
0
VERTEX
8
Sketch
10
56.27
20
8.2
0
VERTEX
8
Sketch
10
55.97
20
8.26
0
VERTEX
8
Sketch
10
55.55
20
8.38
0
VERTEX
8
Sketch
10
55.55
20
8.44
0
VERTEX
8
Sketch
10
55.19
20
8.44
0
SEQEND
0
POLYLINE
66
1
8
Sketch
62
0
0
VERTEX
8
Sketch
10
52.85
20
15.52
0
VERTEX
8
Sketch
10
52.97
20
15.52
0
VERTEX
8
Sketch
10
52.97
20
15.46
0
VERTEX
8
Sketch
10
53.03
20
15.46
0
VERTEX
8
Sketch
10
53.03
20
15.4
0
VERTEX
8
Sketch
10
53.15
20
15.34
0
VERTEX
8
Sketch
10
53.15
20
15.22
0
VERTEX
8
Sketch
10
53.33
20
15.04
0
VERTEX
8
Sketch
10
53.33
20
14.98
0
VERTEX
8
Sketch
10
53.39
20
14.98
0
VERTEX
8
Sketch
10
53.45
20
14.68
0
VERTEX
8
Sketch
10
53.39
20
14.5
0
VERTEX
8
Sketch
10
52.97
20
14.5
0
VERTEX
8
Sketch
10
52.97
20
14.56
0
VERTEX
8
Sketch
10
52.79
20
14.56
0
VERTEX
8
Sketch
10
52.79
20
14.62
0
VERTEX
8
Sketch
10
52.73
20
14.62
0
VERTEX
8
Sketch
10
52.73
20
14.68
0
VERTEX
8
Sketch
10
52.67
20
14.68
0
SEQEND
0
POLYLINE
66
1
8
Sketch
62
0
0
VERTEX
8
Sketch
10
56.33
20
14.8
0
VERTEX
8
Sketch
10
56.45
20
14.74
0
VERTEX
8
Sketch
10
56.99
20
14.32
0
VERTEX
8
Sketch
10
57.35
20
13.84
0
VERTEX
8
Sketch
10
57.47
20
13.78
0
VERTEX
8
Sketch
10
57.47
20
13.66
0
VERTEX
8
Sketch
10
57.59
20
13.42
0
VERTEX
8
Sketch
10
57.59
20
13.24
0
VERTEX
8
Sketch
10
57.35
20
13.12
0
VERTEX
8
Sketch
10
56.39
20
13.12
0
VERTEX
8
Sketch
10
55.97
20
13.24
0
VERTEX
8
Sketch
10
55.37
20
13.54
0
VERTEX
8
Sketch
10
55.25
20
13.66
0
VERTEX
8
Sketch
10
55.13
20
13.66
0
SEQEND
0
POLYLINE
66
1
8
Sketch
62
0
0
VERTEX
8
Sketch
10
58.79
20
12.04
0
VERTEX
8
Sketch
10
58.85
20
11.92
0
VERTEX
8
Sketch
10
59.39
20
11.2
0
VERTEX
8
Sketch
10
59.57
20
10.66
0
VERTEX
8
Sketch
10
59.57
20
10
0
VERTEX
8
Sketch
10
59.39
20
9.94
0
VERTEX
8
Sketch
10
59.27
20
10
0
VERTEX
8
Sketch
10
58.85
20
10.42
0
VERTEX
8
Sketch
10
58.49
20
10.6
0
VERTEX
8
Sketch
10
58.37
20
10.6
0
SEQEND
0
POLYLINE
66
1
8
Sketch
62
0
0
VERTEX
8
Sketch
10
61.13
20
12.76
0
VERTEX
8
Sketch
10
61.13
20
11.92
0
VERTEX
8
Sketch
10
61.01
20
11.68
0
VERTEX
8
Sketch
10
60.89
20
11.32
0
VERTEX
8
Sketch
10
60.83
20
11.32
0
VERTEX
8
Sketch
10
60.83
20
11.26
0
VERTEX
8
Sketch
10
60.77
20
11.26
0
VERTEX
8
Sketch
10
60.77
20
11.38
0
VERTEX
8
Sketch
10
60.65
20
11.38
0
VERTEX
8
Sketch
10
60.65
20
11.5
0
VERTEX
8
Sketch
10
60.41
20
11.56
0
VERTEX
8
Sketch
10
59.69
20
12.04
0
VERTEX
8
Sketch
10
59.51
20
12.04
0
VERTEX
8
Sketch
10
59.15
20
12.4
0
VERTEX
8
Sketch
10
59.03
20
12.4
0
VERTEX
8
Sketch
10
59.03
20
12.46
0
SEQEND
0
POLYLINE
66
1
8
Sketch
62
0
0
VERTEX
8
Sketch
10
52.13
20
14.56
0
VERTEX
8
Sketch
10
52.25
20
14.56
0
VERTEX
8
Sketch
10
52.31
20
14.44
0
VERTEX
8
Sketch
10
52.43
20
14.44
0
VERTEX
8
Sketch
10
52.73
20
14.26
0
VERTEX
8
Sketch
10
52.91
20
14.08
0
VERTEX
8
Sketch
10
53.03
20
14.08
0
VERTEX
8
Sketch
10
53.21
20
13.9
0
VERTEX
8
Sketch
10
53.39
20
13.84
0
VERTEX
8
Sketch
10
53.39
20
13.78
0
VERTEX
8
Sketch
10
53.75
20
13.6
0
VERTEX
8
Sketch
10
53.87
20
13.6
0
VERTEX
8
Sketch
10
54.17
20
13.42
0
VERTEX
8
Sketch
10
54.29
20
13.36
0
VERTEX
8
Sketch
10
54.47
20
13.18
0
VERTEX
8
Sketch
10
54.59
20
13.18
0
VERTEX
8
Sketch
10
54.59
20
13.12
0
VERTEX
8
Sketch
10
54.83
20
13.12
0
VERTEX
8
Sketch
10
55.49
20
12.88
0
VERTEX
8
Sketch
10
55.73
20
12.76
0
VERTEX
8
Sketch
10
55.91
20
12.76
0
VERTEX
8
Sketch
10
55.91
20
12.7
0
VERTEX
8
Sketch
10
56.09
20
12.7
0
VERTEX
8
Sketch
10
56.09
20
12.58
0
VERTEX
8
Sketch
10
56.21
20
12.58
0
VERTEX
8
Sketch
10
56.45
20
12.4
0
VERTEX
8
Sketch
10
56.57
20
12.4
0
VERTEX
8
Sketch
10
56.81
20
12.22
0
VERTEX
8
Sketch
10
56.93
20
12.1
0
VERTEX
8
Sketch
10
57.05
20
12.1
0
VERTEX
8
Sketch
10
57.05
20
12.04
0
VERTEX
8
Sketch
10
57.29
20
11.92
0
VERTEX
8
Sketch
10
57.29
20
11.86
0
VERTEX
8
Sketch
10
57.35
20
11.86
0
VERTEX
8
Sketch
10
57.35
20
11.8
0
VERTEX
8
Sketch
10
57.41
20
11.8
0
VERTEX
8
Sketch
10
57.53
20
11.56
0
VERTEX
8
Sketch
10
57.65
20
11.5
0
VERTEX
8
Sketch
10
57.65
20
11.2
0
VERTEX
8
Sketch
10
57.71
20
11.2
0
VERTEX
8
Sketch
10
57.71
20
11.14
0
VERTEX
8
Sketch
10
57.77
20
11.14
0
VERTEX
8
Sketch
10
57.77
20
11.08
0
VERTEX
8
Sketch
10
57.83
20
11.08
0
VERTEX
8
Sketch
10
57.83
20
10.9
0
VERTEX
8
Sketch
10
58.07
20
10.66
0
VERTEX
8
Sketch
10
58.19
20
10.3
0
VERTEX
8
Sketch
10
58.31
20
10.18
0
VERTEX
8
Sketch
10
58.43
20
10.06
0
VERTEX
8
Sketch
10
58.43
20
9.94
0
VERTEX
8
Sketch
10
58.67
20
9.52
0
VERTEX
8
Sketch
10
58.73
20
9.52
0
VERTEX
8
Sketch
10
58.73
20
9.22
0
VERTEX
8
Sketch
10
58.79
20
9.22
0
VERTEX
8
Sketch
10
58.79
20
9.16
0
VERTEX
8
Sketch
10
58.97
20
8.98
0
VERTEX
8
Sketch
10
58.97
20
8.68
0
SEQEND
0
POLYLINE
66
1
8
Sketch
62
0
0
VERTEX
8
Sketch
10
61.67
20
10.06
0
VERTEX
8
Sketch
10
61.67
20
11.98
0
VERTEX
8
Sketch
10
61.79
20
12.52
0
VERTEX
8
Sketch
10
61.79
20
14.02
0
VERTEX
8
Sketch
10
61.73
20
14.02
0
VERTEX
8
Sketch
10
61.73
20
14.08
0
VERTEX
8
Sketch
10
61.67
20
14.08
0
VERTEX
8
Sketch
10
61.67
20
14.2
0
VERTEX
8
Sketch
10
61.43
20
14.44
0
VERTEX
8
Sketch
10
61.31
20
14.44
0
VERTEX
8
Sketch
10
61.31
20
14.5
0
VERTEX
8
Sketch
10
61.25
20
14.5
0
VERTEX
8
Sketch
10
61.19
20
14.62
0
VERTEX
8
Sketch
10
60.77
20
14.86
0
VERTEX
8
Sketch
10
60.65
20
14.86
0
VERTEX
8
Sketch
10
60.47
20
14.98
0
VERTEX
8
Sketch
10
59.99
20
14.98
0
VERTEX
8
Sketch
10
59.63
20
15.1
0
VERTEX
8
Sketch
10
59.09
20
15.1
0
VERTEX
8
Sketch
10
58.97
20
15.16
0
VERTEX
8
Sketch
10
58.73
20
15.16
0
VERTEX
8
Sketch
10
58.43
20
15.22
0
VERTEX
8
Sketch
10
56.81
20
15.22
0
VERTEX
8
Sketch
10
56.51
20
15.16
0
VERTEX
8
Sketch
10
55.85
20
15.1
0
VERTEX
8
Sketch
10
55.73
20
15.1
0
VERTEX
8
Sketch
10
55.55
20
15.04
0
VERTEX
8
Sketch
10
54.89
20
15.04
0
SEQEND
0
POLYLINE
66
1
8
Sketch
62
0
0
VERTEX
8
Sketch
10
58.19
20
-0.38
0
VERTEX
8
Sketch
10
58.43
20
-0.38
0
VERTEX
8
Sketch
10
59.15
20
-0.14
0
VERTEX
8
Sketch
10
59.33
20
-0.14
0
VERTEX
8
Sketch
10
59.87
20
0.04
0
VERTEX
8
Sketch
10
62.03
20
0.04
0
SEQEND
0
POLYLINE
66
1
8
Sketch
62
0
0
VERTEX
8
Sketch
10
58.19
20
2.38
0
VERTEX
8
Sketch
10
59.03
20
2.38
0
VERTEX
8
Sketch
10
59.51
20
2.2
0
VERTEX
8
Sketch
10
59.75
20
1.96
0
VERTEX
8
Sketch
10
59.75
20
1.9
0
SEQEND
0
POLYLINE
66
1
8
Sketch
62
0
0
VERTEX
8
Sketch
10
58.97
20
5.32
0
VERTEX
8
Sketch
10
59.09
20
5.32
0
VERTEX
8
Sketch
10
59.87
20
4.78
0
VERTEX
8
Sketch
10
60.17
20
4.78
0
VERTEX
8
Sketch
10
60.41
20
4.6
0
VERTEX
8
Sketch
10
60.53
20
4.3
0
VERTEX
8
Sketch
10
60.89
20
4.36
0
VERTEX
8
Sketch
10
61.25
20
4.24
0
VERTEX
8
Sketch
10
61.37
20
4.24
0
SEQEND
0
POLYLINE
66
1
8
Sketch
62
0
0
VERTEX
8
Sketch
10
61.67
20
9.64
0
VERTEX
8
Sketch
10
61.55
20
9.22
0
VERTEX
8
Sketch
10
61.55
20
8.86
0
SEQEND
0
POLYLINE
66
1
8
Sketch
62
0
0
VERTEX
8
Sketch
10
65.33
20
9.22
0
VERTEX
8
Sketch
10
65.33
20
9.04
0
VERTEX
8
Sketch
10
64.97
20
8.62
0
VERTEX
8
Sketch
10
64.85
20
8.38
0
VERTEX
8
Sketch
10
64.79
20
8.38
0
SEQEND
0
POLYLINE
66
1
8
Sketch
62
0
0
VERTEX
8
Sketch
10
67.01
20
8.44
0
VERTEX
8
Sketch
10
67.01
20
8.38
0
VERTEX
8
Sketch
10
66.83
20
8.32
0
VERTEX
8
Sketch
10
66.65
20
7.96
0
VERTEX
8
Sketch
10
66.29
20
7.6
0
VERTEX
8
Sketch
10
65.57
20
6.4
0
VERTEX
8
Sketch
10
65.51
20
6.4
0
SEQEND
0
POLYLINE
66
1
8
Sketch
62
0
0
VERTEX
8
Sketch
10
68.21
20
7.12
0
VERTEX
8
Sketch
10
68.09
20
7.12
0
VERTEX
8
Sketch
10
67.25
20
6.58
0
SEQEND
0
POLYLINE
66
1
8
Sketch
62
0
0
VERTEX
8
Sketch
10
68.27
20
4.96
0
VERTEX
8
Sketch
10
68.09
20
4.9
0
VERTEX
8
Sketch
10
68.03
20
4.9
0
VERTEX
8
Sketch
10
68.03
20
4.84
0
VERTEX
8
Sketch
10
67.85
20
4.84
0
VERTEX
8
Sketch
10
67.61
20
4.78
0
VERTEX
8
Sketch
10
67.49
20
4.78
0
VERTEX
8
Sketch
10
67.31
20
4.72
0
VERTEX
8
Sketch
10
67.31
20
4.6
0
SEQEND
0
POLYLINE
66
1
8
Sketch
62
0
0
VERTEX
8
Sketch
10
60.11
20
8.98
0
VERTEX
8
Sketch
10
60.23
20
8.98
0
VERTEX
8
Sketch
10
60.35
20
9.1
0
VERTEX
8
Sketch
10
60.53
20
9.28
0
VERTEX
8
Sketch
10
60.71
20
9.34
0
VERTEX
8
Sketch
10
60.71
20
9.46
0
VERTEX
8
Sketch
10
61.01
20
9.58
0
VERTEX
8
Sketch
10
61.37
20
9.7
0
VERTEX
8
Sketch
10
61.49
20
9.7
0
VERTEX
8
Sketch
10
61.49
20
9.76
0
VERTEX
8
Sketch
10
64.91
20
9.76
0
VERTEX
8
Sketch
10
65.09
20
9.64
0
VERTEX
8
Sketch
10
65.27
20
9.64
0
VERTEX
8
Sketch
10
65.57
20
9.46
0
VERTEX
8
Sketch
10
65.93
20
9.34
0
VERTEX
8
Sketch
10
66.05
20
9.22
0
VERTEX
8
Sketch
10
66.47
20
9.1
0
VERTEX
8
Sketch
10
66.89
20
8.74
0
VERTEX
8
Sketch
10
67.01
20
8.74
0
VERTEX
8
Sketch
10
67.55
20
8.38
0
VERTEX
8
Sketch
10
67.67
20
8.38
0
VERTEX
8
Sketch
10
67.67
20
8.26
0
VERTEX
8
Sketch
10
67.97
20
8.08
0
VERTEX
8
Sketch
10
67.97
20
8.02
0
VERTEX
8
Sketch
10
68.39
20
7.6
0
VERTEX
8
Sketch
10
68.57
20
7.3
0
VERTEX
8
Sketch
10
68.69
20
7.18
0
VERTEX
8
Sketch
10
68.69
20
7.06
0
VERTEX
8
Sketch
10
68.87
20
6.88
0
VERTEX
8
Sketch
10
68.93
20
6.64
0
VERTEX
8
Sketch
10
68.93
20
6.22
0
VERTEX
8
Sketch
10
68.69
20
5.86
0
VERTEX
8
Sketch
10
68.69
20
5.68
0
VERTEX
8
Sketch
10
68.63
20
5.68
0
VERTEX
8
Sketch
10
68.63
20
5.56
0
VERTEX
8
Sketch
10
68.57
20
5.38
0
VERTEX
8
Sketch
10
68.57
20
5.08
0
VERTEX
8
Sketch
10
68.45
20
4.84
0
VERTEX
8
Sketch
10
68.45
20
4.54
0
VERTEX
8
Sketch
10
68.51
20
4.36
0
VERTEX
8
Sketch
10
68.51
20
3.52
0
VERTEX
8
Sketch
10
68.33
20
3.28
0
SEQEND
0
POLYLINE
66
1
8
Sketch
62
0
0
VERTEX
8
Sketch
10
59.99
20
8.74
0
VERTEX
8
Sketch
10
59.87
20
8.74
0
VERTEX
8
Sketch
10
59.81
20
8.62
0
VERTEX
8
Sketch
10
59.75
20
8.62
0
VERTEX
8
Sketch
10
59.75
20
8.56
0
VERTEX
8
Sketch
10
59.63
20
8.56
0
VERTEX
8
Sketch
10
59.63
20
8.44
0
VERTEX
8
Sketch
10
59.57
20
8.38
0
VERTEX
8
Sketch
10
59.57
20
8.2
0
VERTEX
8
Sketch
10
59.45
20
8.02
0
VERTEX
8
Sketch
10
59.45
20
7.84
0
VERTEX
8
Sketch
10
59.27
20
7.3
0
VERTEX
8
Sketch
10
59.27
20
7.24
0
VERTEX
8
Sketch
10
59.21
20
7.24
0
VERTEX
8
Sketch
10
59.21
20
7
0
VERTEX
8
Sketch
10
59.09
20
6.64
0
VERTEX
8
Sketch
10
59.09
20
6.28
0
VERTEX
8
Sketch
10
58.85
20
5.92
0
VERTEX
8
Sketch
10
58.85
20
5.68
0
VERTEX
8
Sketch
10
58.67
20
5.26
0
VERTEX
8
Sketch
10
58.67
20
5.08
0
VERTEX
8
Sketch
10
58.61
20
4.96
0
VERTEX
8
Sketch
10
58.61
20
4.66
0
VERTEX
8
Sketch
10
58.49
20
4.06
0
VERTEX
8
Sketch
10
58.43
20
3.4
0
VERTEX
8
Sketch
10
58.31
20
2.92
0
VERTEX
8
Sketch
10
58.19
20
2.56
0
VERTEX
8
Sketch
10
58.19
20
2.32
0
VERTEX
8
Sketch
10
58.13
20
2.14
0
VERTEX
8
Sketch
10
58.13
20
1.84
0
VERTEX
8
Sketch
10
58.07
20
1.66
0
VERTEX
8
Sketch
10
58.07
20
1.12
0
VERTEX
8
Sketch
10
58.37
20
0.64
0
VERTEX
8
Sketch
10
58.37
20
0.46
0
VERTEX
8
Sketch
10
58.61
20
0.22
0
VERTEX
8
Sketch
10
58.61
20
0.1
0
VERTEX
8
Sketch
10
58.79
20
0.04
0
VERTEX
8
Sketch
10
58.85
20
-0.08
0
VERTEX
8
Sketch
10
59.09
20
-0.14
0
VERTEX
8
Sketch
10
59.09
20
-0.26
0
VERTEX
8
Sketch
10
59.21
20
-0.26
0
VERTEX
8
Sketch
10
59.45
20
-0.44
0
VERTEX
8
Sketch
10
59.63
20
-0.44
0
VERTEX
8
Sketch
10
59.63
20
-0.5
0
VERTEX
8
Sketch
10
60.35
20
-0.5
0
VERTEX
8
Sketch
10
60.77
20
-0.56
0
VERTEX
8
Sketch
10
62.33
20
-0.56
0
VERTEX
8
Sketch
10
62.33
20
-0.62
0
VERTEX
8
Sketch
10
63.17
20
-0.62
0
VERTEX
8
Sketch
10
63.35
20
-0.68
0
VERTEX
8
Sketch
10
63.35
20
-0.86
0
VERTEX
8
Sketch
10
65.57
20
-0.86
0
VERTEX
8
Sketch
10
65.81
20
-0.8
0
VERTEX
8
Sketch
10
65.81
20
-0.74
0
VERTEX
8
Sketch
10
65.99
20
-0.74
0
VERTEX
8
Sketch
10
66.11
20
-0.62
0
VERTEX
8
Sketch
10
66.41
20
-0.56
0
VERTEX
8
Sketch
10
66.71
20
-0.38
0
VERTEX
8
Sketch
10
66.83
20
-0.38
0
VERTEX
8
Sketch
10
67.19
20
-0.2
0
VERTEX
8
Sketch
10
67.31
20
-0.2
0
VERTEX
8
Sketch
10
67.37
20
-0.08
0
VERTEX
8
Sketch
10
67.49
20
-0.08
0
VERTEX
8
Sketch
10
67.49
20
-0.02
0
VERTEX
8
Sketch
10
67.61
20
-0.02
0
VERTEX
8
Sketch
10
67.73
20
0.1
0
SEQEND
0
POLYLINE
66
1
8
Sketch
62
9
0
VERTEX
8
Sketch
10
52.35
20
17.5
0
VERTEX
8
Sketch
10
52.37
20
17.46
0
VERTEX
8
Sketch
10
52.47
20
17.18
0
VERTEX
8
Sketch
10
52.49
20
17.06
0
VERTEX
8
Sketch
10
52.59
20
16.92
0
VERTEX
8
Sketch
10
52.73
20
16.74
0
VERTEX
8
Sketch
10
52.81
20
16.56
0
VERTEX
8
Sketch
10
52.85
20
16.52
0
VERTEX
8
Sketch
10
52.85
20
16.42
0
VERTEX
8
Sketch
10
52.87
20
16.4
0
VERTEX
8
Sketch
10
52.87
20
16.32
0
VERTEX
8
Sketch
10
52.93
20
16.26
0
VERTEX
8
Sketch
10
52.97
20
16.2
0
VERTEX
8
Sketch
10
52.97
20
16.16
0
VERTEX
8
Sketch
10
53.03
20
16.1
0
VERTEX
8
Sketch
10
53.13
20
15.92
0
VERTEX
8
Sketch
10
53.29
20
15.72
0
VERTEX
8
Sketch
10
53.31
20
15.66
0
VERTEX
8
Sketch
10
53.37
20
15.62
0
VERTEX
8
Sketch
10
53.39
20
15.56
0
VERTEX
8
Sketch
10
53.43
20
15.56
0
VERTEX
8
Sketch
10
53.49
20
15.5
0
VERTEX
8
Sketch
10
53.53
20
15.5
0
VERTEX
8
Sketch
10
53.57
20
15.46
0
VERTEX
8
Sketch
10
53.65
20
15.46
0
VERTEX
8
Sketch
10
53.67
20
15.42
0
VERTEX
8
Sketch
10
53.81
20
15.38
0
VERTEX
8
Sketch
10
53.89
20
15.32
0
VERTEX
8
Sketch
10
53.97
20
15.32
0
VERTEX
8
Sketch
10
54.27
20
15.26
0
VERTEX
8
Sketch
10
54.39
20
15.26
0
VERTEX
8
Sketch
10
54.45
20
15.22
0
VERTEX
8
Sketch
10
54.57
20
15.18
0
VERTEX
8
Sketch
10
54.85
20
15.18
0
VERTEX
8
Sketch
10
54.91
20
15.16
0
VERTEX
8
Sketch
10
54.95
20
15.16
0
VERTEX
8
Sketch
10
54.95
20
15.14
0
VERTEX
8
Sketch
10
55.01
20
15.14
0
VERTEX
8
Sketch
10
55.07
20
15.12
0
VERTEX
8
Sketch
10
55.29
20
15.12
0
SEQEND
0
POLYLINE
66
1
8
Sketch
62
9
0
VERTEX
8
Sketch
10
50.15
20
18.64
0
VERTEX
8
Sketch
10
50.19
20
18.62
0
VERTEX
8
Sketch
10
50.35
20
18.44
0
VERTEX
8
Sketch
10
50.47
20
18.2
0
VERTEX
8
Sketch
10
50.55
20
18.06
0
VERTEX
8
Sketch
10
50.55
20
17.86
0
VERTEX
8
Sketch
10
50.53
20
17.8
0
VERTEX
8
Sketch
10
50.53
20
17.64
0
VERTEX
8
Sketch
10
50.55
20
17.64
0
VERTEX
8
Sketch
10
50.59
20
17.52
0
VERTEX
8
Sketch
10
50.63
20
17.48
0
VERTEX
8
Sketch
10
50.71
20
17.24
0
VERTEX
8
Sketch
10
50.73
20
17.22
0
VERTEX
8
Sketch
10
50.73
20
17.16
0
VERTEX
8
Sketch
10
50.79
20
16.98
0
VERTEX
8
Sketch
10
50.85
20
16.88
0
VERTEX
8
Sketch
10
50.85
20
16.84
0
VERTEX
8
Sketch
10
50.97
20
16.68
0
VERTEX
8
Sketch
10
50.97
20
16.64
0
VERTEX
8
Sketch
10
51.09
20
16.48
0
VERTEX
8
Sketch
10
51.09
20
16.44
0
VERTEX
8
Sketch
10
51.19
20
16.3
0
VERTEX
8
Sketch
10
51.27
20
16.16
0
VERTEX
8
Sketch
10
51.39
20
16
0
VERTEX
8
Sketch
10
51.39
20
15.96
0
VERTEX
8
Sketch
10
51.57
20
15.74
0
VERTEX
8
Sketch
10
51.63
20
15.68
0
VERTEX
8
Sketch
10
51.67
20
15.56
0
VERTEX
8
Sketch
10
51.81
20
15.32
0
VERTEX
8
Sketch
10
51.95
20
15.18
0
VERTEX
8
Sketch
10
52.09
20
14.96
0
VERTEX
8
Sketch
10
52.29
20
14.76
0
VERTEX
8
Sketch
10
52.29
20
14.72
0
VERTEX
8
Sketch
10
52.33
20
14.72
0
VERTEX
8
Sketch
10
52.33
20
14.7
0
VERTEX
8
Sketch
10
52.43
20
14.66
0
VERTEX
8
Sketch
10
52.43
20
14.64
0
VERTEX
8
Sketch
10
52.47
20
14.64
0
VERTEX
8
Sketch
10
52.51
20
14.6
0
VERTEX
8
Sketch
10
52.57
20
14.58
0
VERTEX
8
Sketch
10
52.67
20
14.48
0
VERTEX
8
Sketch
10
52.69
20
14.48
0
VERTEX
8
Sketch
10
52.71
20
14.4
0
VERTEX
8
Sketch
10
52.73
20
14.4
0
VERTEX
8
Sketch
10
52.73
20
14.38
0
SEQEND
0
POLYLINE
66
1
8
Sketch
62
9
0
VERTEX
8
Sketch
10
51.93
20
19.8
0
VERTEX
8
Sketch
10
51.93
20
19.2
0
VERTEX
8
Sketch
10
51.91
20
19.14
0
VERTEX
8
Sketch
10
51.91
20
18.92
0
VERTEX
8
Sketch
10
51.93
20
18.92
0
VERTEX
8
Sketch
10
51.93
20
18.82
0
VERTEX
8
Sketch
10
52.03
20
18.42
0
VERTEX
8
Sketch
10
52.03
20
18.38
0
VERTEX
8
Sketch
10
52.07
20
18.32
0
VERTEX
8
Sketch
10
52.07
20
18.2
0
VERTEX
8
Sketch
10
52.09
20
18.14
0
VERTEX
8
Sketch
10
52.09
20
17.98
0
VERTEX
8
Sketch
10
52.13
20
17.92
0
VERTEX
8
Sketch
10
52.13
20
17.88
0
VERTEX
8
Sketch
10
52.17
20
17.84
0
VERTEX
8
Sketch
10
52.17
20
17.78
0
VERTEX
8
Sketch
10
52.23
20
17.66
0
VERTEX
8
Sketch
10
52.27
20
17.5
0
VERTEX
8
Sketch
10
52.29
20
17.5
0
VERTEX
8
Sketch
10
52.29
20
17.46
0
SEQEND
0
POLYLINE
66
1
8
Sketch
62
0
0
VERTEX
8
Sketch
10
49.33
20
19.54
0
VERTEX
8
Sketch
10
49.47
20
19.46
0
VERTEX
8
Sketch
10
49.49
20
19.42
0
VERTEX
8
Sketch
10
49.73
20
19.3
0
VERTEX
8
Sketch
10
49.81
20
19.22
0
VERTEX
8
Sketch
10
50.03
20
19.1
0
VERTEX
8
Sketch
10
50.17
20
19.02
0
VERTEX
8
Sketch
10
50.17
20
19
0
VERTEX
8
Sketch
10
50.25
20
18.94
0
VERTEX
8
Sketch
10
50.25
20
18.88
0
VERTEX
8
Sketch
10
50.27
20
18.88
0
VERTEX
8
Sketch
10
50.27
20
18.78
0
VERTEX
8
Sketch
10
50.17
20
18.72
0
VERTEX
8
Sketch
10
50.13
20
18.72
0
VERTEX
8
Sketch
10
50.13
20
18.62
0
SEQEND
0
POLYLINE
66
1
8
Sketch
62
0
0
VERTEX
8
Sketch
10
47.37
20
22.54
0
VERTEX
8
Sketch
10
47.41
20
22.46
0
VERTEX
8
Sketch
10
47.77
20
21.9
0
VERTEX
8
Sketch
10
48.03
20
21.6
0
VERTEX
8
Sketch
10
48.15
20
21.42
0
VERTEX
8
Sketch
10
48.17
20
21.42
0
VERTEX
8
Sketch
10
48.17
20
21.38
0
VERTEX
8
Sketch
10
48.01
20
21.38
0
VERTEX
8
Sketch
10
47.91
20
21.44
0
VERTEX
8
Sketch
10
47.77
20
21.54
0
VERTEX
8
Sketch
10
47.69
20
21.56
0
VERTEX
8
Sketch
10
47.63
20
21.62
0
VERTEX
8
Sketch
10
47.21
20
21.8
0
VERTEX
8
Sketch
10
47.09
20
21.82
0
VERTEX
8
Sketch
10
46.97
20
21.88
0
VERTEX
8
Sketch
10
46.65
20
21.96
0
VERTEX
8
Sketch
10
46.53
20
21.98
0
VERTEX
8
Sketch
10
46.47
20
22.02
0
SEQEND
0
POLYLINE
66
1
8
Sketch
62
0
0
VERTEX
8
Sketch
10
48.33
20
22.56
0
VERTEX
8
Sketch
10
48.33
20
22.54
0
VERTEX
8
Sketch
10
48.37
20
22.52
0
VERTEX
8
Sketch
10
48.39
20
22.48
0
VERTEX
8
Sketch
10
48.45
20
22.46
0
VERTEX
8
Sketch
10
48.59
20
22.32
0
VERTEX
8
Sketch
10
49.03
20
22.02
0
VERTEX
8
Sketch
10
49.25
20
21.92
0
VERTEX
8
Sketch
10
49.65
20
21.66
0
VERTEX
8
Sketch
10
50.33
20
21.3
0
VERTEX
8
Sketch
10
50.43
20
21.22
0
VERTEX
8
Sketch
10
50.49
20
21.22
0
VERTEX
8
Sketch
10
50.53
20
21.16
0
VERTEX
8
Sketch
10
50.53
20
21
0
VERTEX
8
Sketch
10
50.57
20
21
0
VERTEX
8
Sketch
10
50.57
20
20.94
0
VERTEX
8
Sketch
10
50.73
20
20.78
0
VERTEX
8
Sketch
10
50.91
20
20.66
0
VERTEX
8
Sketch
10
50.99
20
20.64
0
VERTEX
8
Sketch
10
51.19
20
20.52
0
VERTEX
8
Sketch
10
51.33
20
20.42
0
VERTEX
8
Sketch
10
51.55
20
20.26
0
VERTEX
8
Sketch
10
51.57
20
20.22
0
VERTEX
8
Sketch
10
51.67
20
20.08
0
VERTEX
8
Sketch
10
51.69
20
20.08
0
VERTEX
8
Sketch
10
51.73
20
19.98
0
VERTEX
8
Sketch
10
51.75
20
19.98
0
VERTEX
8
Sketch
10
51.75
20
19.94
0
VERTEX
8
Sketch
10
51.77
20
19.94
0
VERTEX
8
Sketch
10
51.81
20
19.82
0
SEQEND
0
POLYLINE
66
1
8
Sketch
62
0
0
VERTEX
8
Sketch
10
45.81
20
21.6
0
VERTEX
8
Sketch
10
45.91
20
21.54
0
VERTEX
8
Sketch
10
45.97
20
21.48
0
VERTEX
8
Sketch
10
46.03
20
21.48
0
VERTEX
8
Sketch
10
46.13
20
21.42
0
VERTEX
8
Sketch
10
46.17
20
21.36
0
VERTEX
8
Sketch
10
46.23
20
21.34
0
VERTEX
8
Sketch
10
46.25
20
21.3
0
VERTEX
8
Sketch
10
46.69
20
21.14
0
VERTEX
8
Sketch
10
47.27
20
20.84
0
VERTEX
8
Sketch
10
47.39
20
20.8
0
VERTEX
8
Sketch
10
47.63
20
20.68
0
VERTEX
8
Sketch
10
47.81
20
20.64
0
VERTEX
8
Sketch
10
47.87
20
20.58
0
VERTEX
8
Sketch
10
48.21
20
20.44
0
VERTEX
8
Sketch
10
48.37
20
20.32
0
VERTEX
8
Sketch
10
48.43
20
20.26
0
VERTEX
8
Sketch
10
48.47
20
20.26
0
VERTEX
8
Sketch
10
48.59
20
20.14
0
VERTEX
8
Sketch
10
48.67
20
20.12
0
VERTEX
8
Sketch
10
48.83
20
19.94
0
VERTEX
8
Sketch
10
48.87
20
19.86
0
VERTEX
8
Sketch
10
48.99
20
19.78
0
VERTEX
8
Sketch
10
48.99
20
19.76
0
VERTEX
8
Sketch
10
49.07
20
19.72
0
VERTEX
8
Sketch
10
49.07
20
19.7
0
VERTEX
8
Sketch
10
49.11
20
19.7
0
VERTEX
8
Sketch
10
49.21
20
19.64
0
VERTEX
8
Sketch
10
49.21
20
19.62
0
VERTEX
8
Sketch
10
49.23
20
19.62
0
VERTEX
8
Sketch
10
49.23
20
19.6
0
SEQEND
0
POLYLINE
66
1
8
Sketch
62
0
0
VERTEX
8
Sketch
10
45.03
20
22.92
0
VERTEX
8
Sketch
10
45.05
20
22.92
0
VERTEX
8
Sketch
10
45.05
20
22.9
0
VERTEX
8
Sketch
10
45.15
20
22.82
0
VERTEX
8
Sketch
10
45.33
20
22.42
0
VERTEX
8
Sketch
10
45.33
20
22.32
0
VERTEX
8
Sketch
10
45.29
20
22.32
0
VERTEX
8
Sketch
10
45.23
20
22.3
0
VERTEX
8
Sketch
10
44.99
20
22.54
0
SEQEND
0
POLYLINE
66
1
8
Sketch
62
0
0
VERTEX
8
Sketch
10
44.97
20
24.02
0
VERTEX
8
Sketch
10
45.07
20
23.88
0
VERTEX
8
Sketch
10
45.13
20
23.82
0
VERTEX
8
Sketch
10
45.19
20
23.72
0
VERTEX
8
Sketch
10
45.25
20
23.62
0
VERTEX
8
Sketch
10
45.25
20
23.6
0
VERTEX
8
Sketch
10
45.33
20
23.52
0
VERTEX
8
Sketch
10
45.35
20
23.46
0
VERTEX
8
Sketch
10
45.43
20
23.38
0
VERTEX
8
Sketch
10
45.43
20
23.36
0
VERTEX
8
Sketch
10
45.47
20
23.34
0
VERTEX
8
Sketch
10
45.57
20
23.24
0
VERTEX
8
Sketch
10
45.35
20
23.24
0
VERTEX
8
Sketch
10
45.11
20
23.32
0
VERTEX
8
Sketch
10
45.07
20
23.36
0
VERTEX
8
Sketch
10
45.01
20
23.36
0
VERTEX
8
Sketch
10
44.83
20
23.42
0
VERTEX
8
Sketch
10
44.67
20
23.46
0
VERTEX
8
Sketch
10
44.61
20
23.48
0
VERTEX
8
Sketch
10
44.57
20
23.48
0
VERTEX
8
Sketch
10
44.51
20
23.52
0
VERTEX
8
Sketch
10
44.47
20
23.52
0
VERTEX
8
Sketch
10
44.47
20
23.54
0
SEQEND
0
POLYLINE
66
1
8
Sketch
62
0
0
VERTEX
8
Sketch
10
43.83
20
25.26
0
VERTEX
8
Sketch
10
43.91
20
25.24
0
VERTEX
8
Sketch
10
43.99
20
25.18
0
VERTEX
8
Sketch
10
44.05
20
25.18
0
VERTEX
8
Sketch
10
44.07
20
25.12
0
VERTEX
8
Sketch
10
44.19
20
25.1
0
VERTEX
8
Sketch
10
44.25
20
25.04
0
VERTEX
8
Sketch
10
44.31
20
25.04
0
VERTEX
8
Sketch
10
44.41
20
24.98
0
VERTEX
8
Sketch
10
44.57
20
24.94
0
VERTEX
8
Sketch
10
44.99
20
24.7
0
VERTEX
8
Sketch
10
45.09
20
24.66
0
VERTEX
8
Sketch
10
45.29
20
24.54
0
VERTEX
8
Sketch
10
45.53
20
24.4
0
VERTEX
8
Sketch
10
45.77
20
24.32
0
VERTEX
8
Sketch
10
45.99
20
24.2
0
VERTEX
8
Sketch
10
46.05
20
24.2
0
VERTEX
8
Sketch
10
46.17
20
24.12
0
VERTEX
8
Sketch
10
46.17
20
24.1
0
VERTEX
8
Sketch
10
46.19
20
24.1
0
VERTEX
8
Sketch
10
46.23
20
24.06
0
VERTEX
8
Sketch
10
46.27
20
24.04
0
VERTEX
8
Sketch
10
46.45
20
23.94
0
VERTEX
8
Sketch
10
46.45
20
23.92
0
VERTEX
8
Sketch
10
46.51
20
23.92
0
VERTEX
8
Sketch
10
46.65
20
23.82
0
VERTEX
8
Sketch
10
46.75
20
23.78
0
VERTEX
8
Sketch
10
46.75
20
23.76
0
VERTEX
8
Sketch
10
46.79
20
23.76
0
VERTEX
8
Sketch
10
46.79
20
23.74
0
VERTEX
8
Sketch
10
46.81
20
23.74
0
VERTEX
8
Sketch
10
46.83
20
23.7
0
VERTEX
8
Sketch
10
46.93
20
23.56
0
VERTEX
8
Sketch
10
47.17
20
23.34
0
VERTEX
8
Sketch
10
47.31
20
23.28
0
VERTEX
8
Sketch
10
47.43
20
23.18
0
VERTEX
8
Sketch
10
47.47
20
23.18
0
VERTEX
8
Sketch
10
47.47
20
23.16
0
VERTEX
8
Sketch
10
47.49
20
23.16
0
VERTEX
8
Sketch
10
47.51
20
23.12
0
VERTEX
8
Sketch
10
47.53
20
23.12
0
VERTEX
8
Sketch
10
47.53
20
23.08
0
VERTEX
8
Sketch
10
47.55
20
23.08
0
VERTEX
8
Sketch
10
47.55
20
23.06
0
VERTEX
8
Sketch
10
47.59
20
23.06
0
VERTEX
8
Sketch
10
47.59
20
23.04
0
VERTEX
8
Sketch
10
47.63
20
23.02
0
VERTEX
8
Sketch
10
47.67
20
22.94
0
VERTEX
8
Sketch
10
47.69
20
22.94
0
VERTEX
8
Sketch
10
47.71
20
22.9
0
VERTEX
8
Sketch
10
47.75
20
22.82
0
VERTEX
8
Sketch
10
47.77
20
22.76
0
VERTEX
8
Sketch
10
47.79
20
22.76
0
VERTEX
8
Sketch
10
47.81
20
22.72
0
VERTEX
8
Sketch
10
47.89
20
22.68
0
VERTEX
8
Sketch
10
47.91
20
22.68
0
VERTEX
8
Sketch
10
47.93
20
22.64
0
VERTEX
8
Sketch
10
48.05
20
22.58
0
VERTEX
8
Sketch
10
48.11
20
22.58
0
VERTEX
8
Sketch
10
48.19
20
22.54
0
VERTEX
8
Sketch
10
48.23
20
22.54
0
VERTEX
8
Sketch
10
48.23
20
22.52
0
VERTEX
8
Sketch
10
48.27
20
22.52
0
VERTEX
8
Sketch
10
48.27
20
22.5
0
VERTEX
8
Sketch
10
48.31
20
22.5
0
VERTEX
8
Sketch
10
48.31
20
22.48
0
SEQEND
0
POLYLINE
66
1
8
Sketch
62
0
0
VERTEX
8
Sketch
10
42.93
20
23.12
0
VERTEX
8
Sketch
10
42.97
20
23.12
0
VERTEX
8
Sketch
10
43.01
20
23.1
0
VERTEX
8
Sketch
10
43.05
20
23.1
0
VERTEX
8
Sketch
10
43.09
20
23.06
0
VERTEX
8
Sketch
10
43.15
20
23.06
0
VERTEX
8
Sketch
10
43.47
20
22.92
0
VERTEX
8
Sketch
10
43.85
20
22.76
0
VERTEX
8
Sketch
10
43.91
20
22.76
0
VERTEX
8
Sketch
10
43.93
20
22.72
0
VERTEX
8
Sketch
10
43.97
20
22.72
0
VERTEX
8
Sketch
10
43.97
20
22.7
0
VERTEX
8
Sketch
10
44.01
20
22.7
0
VERTEX
8
Sketch
10
44.01
20
22.68
0
VERTEX
8
Sketch
10
44.11
20
22.56
0
VERTEX
8
Sketch
10
44.49
20
22.36
0
VERTEX
8
Sketch
10
44.75
20
22.2
0
VERTEX
8
Sketch
10
45.05
20
22.06
0
VERTEX
8
Sketch
10
45.11
20
22
0
VERTEX
8
Sketch
10
45.45
20
21.82
0
VERTEX
8
Sketch
10
45.47
20
21.78
0
VERTEX
8
Sketch
10
45.51
20
21.78
0
VERTEX
8
Sketch
10
45.51
20
21.76
0
VERTEX
8
Sketch
10
45.55
20
21.76
0
VERTEX
8
Sketch
10
45.57
20
21.72
0
VERTEX
8
Sketch
10
45.63
20
21.72
0
VERTEX
8
Sketch
10
45.63
20
21.7
0
VERTEX
8
Sketch
10
45.69
20
21.68
0
VERTEX
8
Sketch
10
45.69
20
21.66
0
VERTEX
8
Sketch
10
45.71
20
21.66
0
VERTEX
8
Sketch
10
45.71
20
21.64
0
VERTEX
8
Sketch
10
45.73
20
21.64
0
SEQEND
0
POLYLINE
66
1
8
Sketch
62
0
0
VERTEX
8
Sketch
10
44.55
20
21.04
0
VERTEX
8
Sketch
10
44.49
20
21
0
VERTEX
8
Sketch
10
44.43
20
21
0
VERTEX
8
Sketch
10
44.29
20
20.96
0
VERTEX
8
Sketch
10
44.29
20
20.94
0
VERTEX
8
Sketch
10
44.39
20
20.9
0
SEQEND
0
POLYLINE
66
1
8
Sketch
62
0
0
VERTEX
8
Sketch
10
44.33
20
20.92
0
VERTEX
8
Sketch
10
44.33
20
21
0
VERTEX
8
Sketch
10
44.29
20
21.12
0
VERTEX
8
Sketch
10
44.29
20
21.18
0
VERTEX
8
Sketch
10
44.27
20
21.18
0
SEQEND
0
POLYLINE
66
1
8
Sketch
62
0
0
VERTEX
8
Sketch
10
44.05
20
21
0
VERTEX
8
Sketch
10
44.13
20
21
0
VERTEX
8
Sketch
10
44.19
20
20.96
0
SEQEND
0
POLYLINE
66
1
8
Sketch
62
0
0
VERTEX
8
Sketch
10
43.79
20
21.26
0
VERTEX
8
Sketch
10
43.75
20
21.26
0
VERTEX
8
Sketch
10
43.75
20
21.24
0
VERTEX
8
Sketch
10
43.73
20
21.24
0
VERTEX
8
Sketch
10
43.73
20
21.2
0
SEQEND
0
POLYLINE
66
1
8
Sketch
62
0
0
VERTEX
8
Sketch
10
43.65
20
20.98
0
VERTEX
8
Sketch
10
43.69
20
20.98
0
VERTEX
8
Sketch
10
43.69
20
20.9
0
VERTEX
8
Sketch
10
43.71
20
20.9
0
VERTEX
8
Sketch
10
43.71
20
20.88
0
VERTEX
8
Sketch
10
43.75
20
20.88
0
VERTEX
8
Sketch
10
43.81
20
20.86
0
VERTEX
8
Sketch
10
43.91
20
20.86
0
VERTEX
8
Sketch
10
43.97
20
20.92
0
SEQEND
0
POLYLINE
66
1
8
Sketch
62
0
0
VERTEX
8
Sketch
10
43.57
20
21.1
0
VERTEX
8
Sketch
10
43.47
20
21.1
0
VERTEX
8
Sketch
10
43.37
20
21.08
0
VERTEX
8
Sketch
10
43.37
20
21.06
0
VERTEX
8
Sketch
10
43.35
20
21.06
0
VERTEX
8
Sketch
10
43.35
20
20.96
0
VERTEX
8
Sketch
10
43.39
20
20.94
0
VERTEX
8
Sketch
10
43.43
20
20.9
0
VERTEX
8
Sketch
10
43.53
20
20.9
0
VERTEX
8
Sketch
10
43.53
20
20.92
0
VERTEX
8
Sketch
10
43.59
20
20.92
0
VERTEX
8
Sketch
10
43.59
20
20.94
0
SEQEND
0
POLYLINE
66
1
8
Sketch
62
0
0
VERTEX
8
Sketch
10
43.03
20
20.98
0
VERTEX
8
Sketch
10
42.97
20
21
0
VERTEX
8
Sketch
10
42.97
20
21.02
0
VERTEX
8
Sketch
10
42.91
20
21.02
0
VERTEX
8
Sketch
10
42.91
20
21
0
VERTEX
8
Sketch
10
42.89
20
21
0
VERTEX
8
Sketch
10
42.89
20
20.9
0
VERTEX
8
Sketch
10
43.01
20
20.86
0
VERTEX
8
Sketch
10
43.01
20
20.84
0
VERTEX
8
Sketch
10
43.07
20
20.86
0
VERTEX
8
Sketch
10
43.07
20
20.88
0
VERTEX
8
Sketch
10
43.11
20
20.92
0
VERTEX
8
Sketch
10
43.11
20
20.96
0
VERTEX
8
Sketch
10
43.17
20
20.96
0
VERTEX
8
Sketch
10
43.19
20
20.9
0
VERTEX
8
Sketch
10
43.21
20
20.9
0
VERTEX
8
Sketch
10
43.21
20
20.88
0
VERTEX
8
Sketch
10
43.37
20
20.88
0
SEQEND
0
POLYLINE
66
1
8
Sketch
62
0
0
VERTEX
8
Sketch
10
42.41
20
21.08
0
VERTEX
8
Sketch
10
42.43
20
21.08
0
VERTEX
8
Sketch
10
42.45
20
21.12
0
VERTEX
8
Sketch
10
42.55
20
21.18
0
VERTEX
8
Sketch
10
42.55
20
21.2
0
VERTEX
8
Sketch
10
42.59
20
21.2
0
VERTEX
8
Sketch
10
42.59
20
21.14
0
VERTEX
8
Sketch
10
42.61
20
21.08
0
VERTEX
8
Sketch
10
42.61
20
21
0
VERTEX
8
Sketch
10
42.53
20
20.86
0
VERTEX
8
Sketch
10
42.51
20
20.86
0
VERTEX
8
Sketch
10
42.51
20
20.84
0
VERTEX
8
Sketch
10
42.45
20
20.82
0
VERTEX
8
Sketch
10
42.91
20
20.82
0
SEQEND
0
POLYLINE
66
1
8
Sketch
62
0
0
VERTEX
8
Sketch
10
41.11
20
21.22
0
VERTEX
8
Sketch
10
41.25
20
21.22
0
VERTEX
8
Sketch
10
41.33
20
21.2
0
VERTEX
8
Sketch
10
41.37
20
21.16
0
VERTEX
8
Sketch
10
41.87
20
21.02
0
VERTEX
8
Sketch
10
41.97
20
21
0
VERTEX
8
Sketch
10
42.11
20
21
0
VERTEX
8
Sketch
10
42.15
20
20.98
0
SEQEND
0
POLYLINE
66
1
8
Sketch
62
0
0
VERTEX
8
Sketch
10
40.41
20
21.96
0
VERTEX
8
Sketch
10
40.43
20
21.96
0
VERTEX
8
Sketch
10
40.43
20
21.98
0
VERTEX
8
Sketch
10
40.67
20
22.24
0
VERTEX
8
Sketch
10
40.67
20
22.26
0
VERTEX
8
Sketch
10
40.75
20
22.38
0
VERTEX
8
Sketch
10
40.77
20
22.44
0
VERTEX
8
Sketch
10
40.81
20
22.46
0
VERTEX
8
Sketch
10
40.83
20
22.54
0
VERTEX
8
Sketch
10
40.87
20
22.56
0
VERTEX
8
Sketch
10
40.87
20
22.6
0
VERTEX
8
Sketch
10
40.89
20
22.6
0
VERTEX
8
Sketch
10
40.93
20
22.68
0
VERTEX
8
Sketch
10
41.03
20
22.82
0
VERTEX
8
Sketch
10
41.05
20
22.82
0
VERTEX
8
Sketch
10
41.05
20
22.86
0
VERTEX
8
Sketch
10
41.15
20
22.98
0
VERTEX
8
Sketch
10
41.23
20
23.14
0
VERTEX
8
Sketch
10
41.31
20
23.26
0
VERTEX
8
Sketch
10
41.35
20
23.28
0
VERTEX
8
Sketch
10
41.41
20
23.34
0
VERTEX
8
Sketch
10
41.45
20
23.34
0
VERTEX
8
Sketch
10
41.53
20
23.42
0
VERTEX
8
Sketch
10
41.57
20
23.42
0
VERTEX
8
Sketch
10
41.57
20
23.44
0
VERTEX
8
Sketch
10
41.59
20
23.44
0
VERTEX
8
Sketch
10
41.61
20
23.48
0
VERTEX
8
Sketch
10
41.63
20
23.48
0
VERTEX
8
Sketch
10
41.63
20
23.52
0
VERTEX
8
Sketch
10
41.65
20
23.52
0
VERTEX
8
Sketch
10
41.67
20
23.58
0
VERTEX
8
Sketch
10
41.69
20
23.58
0
VERTEX
8
Sketch
10
41.69
20
23.6
0
VERTEX
8
Sketch
10
41.71
20
23.6
0
VERTEX
8
Sketch
10
41.71
20
23.62
0
VERTEX
8
Sketch
10
41.75
20
23.62
0
VERTEX
8
Sketch
10
41.77
20
23.66
0
VERTEX
8
Sketch
10
41.93
20
23.74
0
VERTEX
8
Sketch
10
41.93
20
23.76
0
VERTEX
8
Sketch
10
42.05
20
23.82
0
VERTEX
8
Sketch
10
42.11
20
23.88
0
VERTEX
8
Sketch
10
42.15
20
23.88
0
VERTEX
8
Sketch
10
42.15
20
23.92
0
VERTEX
8
Sketch
10
42.17
20
23.92
0
VERTEX
8
Sketch
10
42.17
20
23.94
0
VERTEX
8
Sketch
10
42.19
20
23.94
0
VERTEX
8
Sketch
10
42.29
20
24.08
0
VERTEX
8
Sketch
10
42.41
20
24.2
0
VERTEX
8
Sketch
10
42.49
20
24.3
0
VERTEX
8
Sketch
10
42.57
20
24.44
0
VERTEX
8
Sketch
10
42.67
20
24.52
0
VERTEX
8
Sketch
10
42.67
20
24.56
0
VERTEX
8
Sketch
10
42.73
20
24.62
0
VERTEX
8
Sketch
10
42.77
20
24.62
0
VERTEX
8
Sketch
10
42.77
20
24.66
0
VERTEX
8
Sketch
10
42.79
20
24.66
0
VERTEX
8
Sketch
10
42.79
20
24.68
0
VERTEX
8
Sketch
10
42.87
20
24.7
0
VERTEX
8
Sketch
10
42.89
20
24.74
0
VERTEX
8
Sketch
10
42.99
20
24.84
0
VERTEX
8
Sketch
10
43.03
20
24.84
0
VERTEX
8
Sketch
10
43.03
20
24.86
0
VERTEX
8
Sketch
10
43.11
20
24.9
0
VERTEX
8
Sketch
10
43.17
20
24.92
0
VERTEX
8
Sketch
10
43.19
20
24.96
0
VERTEX
8
Sketch
10
43.23
20
24.98
0
VERTEX
8
Sketch
10
43.29
20
25
0
VERTEX
8
Sketch
10
43.31
20
25.04
0
VERTEX
8
Sketch
10
43.35
20
25.04
0
VERTEX
8
Sketch
10
43.39
20
25.08
0
VERTEX
8
Sketch
10
43.55
20
25.16
0
VERTEX
8
Sketch
10
43.59
20
25.16
0
VERTEX
8
Sketch
10
43.75
20
25.24
0
VERTEX
8
Sketch
10
43.81
20
25.24
0
VERTEX
8
Sketch
10
43.85
20
25.28
0
VERTEX
8
Sketch
10
43.89
20
25.26
0
VERTEX
8
Sketch
10
43.89
20
25.24
0
VERTEX
8
Sketch
10
43.91
20
25.24
0
VERTEX
8
Sketch
10
43.91
20
25.22
0
SEQEND
0
POLYLINE
66
1
8
Sketch
62
0
0
VERTEX
8
Sketch
10
41.17
20
21.36
0
VERTEX
8
Sketch
10
41.21
20
21.36
0
VERTEX
8
Sketch
10
41.21
20
21.38
0
VERTEX
8
Sketch
10
41.41
20
21.42
0
VERTEX
8
Sketch
10
41.41
20
21.44
0
VERTEX
8
Sketch
10
41.47
20
21.44
0
VERTEX
8
Sketch
10
41.69
20
21.7
0
VERTEX
8
Sketch
10
41.69
20
21.92
0
VERTEX
8
Sketch
10
41.71
20
21.98
0
VERTEX
8
Sketch
10
41.73
20
22.08
0
VERTEX
8
Sketch
10
41.77
20
22.08
0
VERTEX
8
Sketch
10
41.77
20
22.12
0
VERTEX
8
Sketch
10
41.81
20
22.16
0
VERTEX
8
Sketch
10
41.89
20
22.24
0
VERTEX
8
Sketch
10
41.93
20
22.28
0
VERTEX
8
Sketch
10
42.09
20
22.48
0
VERTEX
8
Sketch
10
42.09
20
22.5
0
VERTEX
8
Sketch
10
42.23
20
22.62
0
VERTEX
8
Sketch
10
42.25
20
22.62
0
VERTEX
8
Sketch
10
42.25
20
22.64
0
VERTEX
8
Sketch
10
42.31
20
22.7
0
VERTEX
8
Sketch
10
42.33
20
22.74
0
VERTEX
8
Sketch
10
42.35
20
22.74
0
VERTEX
8
Sketch
10
42.45
20
22.84
0
VERTEX
8
Sketch
10
42.51
20
22.9
0
VERTEX
8
Sketch
10
42.51
20
22.92
0
VERTEX
8
Sketch
10
42.55
20
22.94
0
VERTEX
8
Sketch
10
42.55
20
22.96
0
VERTEX
8
Sketch
10
42.61
20
22.96
0
VERTEX
8
Sketch
10
42.61
20
23
0
VERTEX
8
Sketch
10
42.65
20
23
0
VERTEX
8
Sketch
10
42.75
20
23.06
0
VERTEX
8
Sketch
10
42.75
20
23.08
0
VERTEX
8
Sketch
10
42.79
20
23.08
0
VERTEX
8
Sketch
10
42.79
20
23.1
0
VERTEX
8
Sketch
10
42.81
20
23.1
0
SEQEND
0
POLYLINE
66
1
8
Sketch
62
0
0
VERTEX
8
Sketch
10
40.71
20
21.12
0
VERTEX
8
Sketch
10
40.79
20
21.12
0
VERTEX
8
Sketch
10
40.87
20
21.18
0
VERTEX
8
Sketch
10
40.97
20
21.2
0
VERTEX
8
Sketch
10
41.05
20
21.2
0
SEQEND
0
POLYLINE
66
1
8
Sketch
62
0
0
VERTEX
8
Sketch
10
39.61
20
21.24
0
VERTEX
8
Sketch
10
39.95
20
21.24
0
VERTEX
8
Sketch
10
39.95
20
21.26
0
VERTEX
8
Sketch
10
39.99
20
21.26
0
VERTEX
8
Sketch
10
40.09
20
21.32
0
VERTEX
8
Sketch
10
40.09
20
21.34
0
VERTEX
8
Sketch
10
40.23
20
21.48
0
VERTEX
8
Sketch
10
40.25
20
21.56
0
VERTEX
8
Sketch
10
40.27
20
21.56
0
VERTEX
8
Sketch
10
40.27
20
21.6
0
VERTEX
8
Sketch
10
40.31
20
21.68
0
VERTEX
8
Sketch
10
40.33
20
21.74
0
VERTEX
8
Sketch
10
40.35
20
21.74
0
VERTEX
8
Sketch
10
40.39
20
21.82
0
VERTEX
8
Sketch
10
40.41
20
21.82
0
SEQEND
0
POLYLINE
66
1
8
Sketch
62
0
0
VERTEX
8
Sketch
10
40.39
20
20.68
0
VERTEX
8
Sketch
10
40.37
20
20.68
0
VERTEX
8
Sketch
10
40.37
20
20.76
0
VERTEX
8
Sketch
10
40.41
20
20.8
0
VERTEX
8
Sketch
10
40.45
20
20.88
0
VERTEX
8
Sketch
10
40.53
20
20.94
0
VERTEX
8
Sketch
10
40.61
20
20.94
0
VERTEX
8
Sketch
10
40.61
20
20.98
0
VERTEX
8
Sketch
10
40.73
20
21.02
0
VERTEX
8
Sketch
10
40.73
20
21.04
0
VERTEX
8
Sketch
10
40.75
20
21.04
0
SEQEND
0
POINT
8
Sketch
62
0
10
40.47
20
20.72
0
POLYLINE
66
1
8
Sketch
62
0
0
VERTEX
8
Sketch
10
15.53
20
6.56
0
VERTEX
8
Sketch
10
15.53
20
6.5
0
VERTEX
8
Sketch
10
15.55
20
6.42
0
VERTEX
8
Sketch
10
15.55
20
6.36
0
VERTEX
8
Sketch
10
15.57
20
6.32
0
SEQEND
0
POLYLINE
66
1
8
Sketch
62
0
0
VERTEX
8
Sketch
10
16.13
20
6.5
0
VERTEX
8
Sketch
10
16.21
20
6.34
0
VERTEX
8
Sketch
10
16.23
20
6.26
0
SEQEND
0
POLYLINE
66
1
8
Sketch
62
0
0
VERTEX
8
Sketch
10
15.57
20
6.52
0
VERTEX
8
Sketch
10
15.65
20
6.56
0
VERTEX
8
Sketch
10
15.83
20
6.7
0
VERTEX
8
Sketch
10
15.89
20
6.7
0
VERTEX
8
Sketch
10
15.97
20
6.74
0
VERTEX
8
Sketch
10
16.01
20
6.74
0
VERTEX
8
Sketch
10
16.01
20
6.76
0
VERTEX
8
Sketch
10
16.05
20
6.76
0
VERTEX
8
Sketch
10
15.97
20
6.52
0
VERTEX
8
Sketch
10
15.77
20
6.2
0
VERTEX
8
Sketch
10
15.71
20
6.14
0
VERTEX
8
Sketch
10
15.69
20
6.08
0
VERTEX
8
Sketch
10
15.61
20
6.04
0
VERTEX
8
Sketch
10
15.61
20
6.02
0
VERTEX
8
Sketch
10
15.55
20
5.96
0
VERTEX
8
Sketch
10
15.63
20
5.96
0
VERTEX
8
Sketch
10
15.63
20
5.98
0
VERTEX
8
Sketch
10
15.71
20
6
0
VERTEX
8
Sketch
10
15.73
20
6.04
0
VERTEX
8
Sketch
10
15.77
20
6.04
0
VERTEX
8
Sketch
10
15.85
20
6.1
0
VERTEX
8
Sketch
10
16.13
20
6.22
0
VERTEX
8
Sketch
10
16.19
20
6.24
0
VERTEX
8
Sketch
10
16.21
20
6.24
0
SEQEND
0
POLYLINE
66
1
8
Sketch
62
0
0
VERTEX
8
Sketch
10
32.17
20
15.42
0
VERTEX
8
Sketch
10
32.17
20
15.52
0
VERTEX
8
Sketch
10
31.99
20
15.54
0
VERTEX
8
Sketch
10
31.95
20
15.54
0
VERTEX
8
Sketch
10
31.81
20
15.42
0
VERTEX
8
Sketch
10
31.75
20
15.32
0
VERTEX
8
Sketch
10
31.75
20
15.26
0
VERTEX
8
Sketch
10
31.73
20
15.16
0
VERTEX
8
Sketch
10
31.73
20
15.12
0
VERTEX
8
Sketch
10
31.81
20
15.12
0
VERTEX
8
Sketch
10
31.99
20
15.24
0
VERTEX
8
Sketch
10
32.21
20
15.46
0
VERTEX
8
Sketch
10
32.21
20
15.5
0
VERTEX
8
Sketch
10
32.23
20
15.5
0
VERTEX
8
Sketch
10
32.21
20
15.54
0
VERTEX
8
Sketch
10
32.09
20
15.58
0
VERTEX
8
Sketch
10
31.97
20
15.58
0
SEQEND
0
POLYLINE
66
1
8
Sketch
62
0
0
VERTEX
8
Sketch
10
32.09
20
16.02
0
VERTEX
8
Sketch
10
32.07
20
16.02
0
VERTEX
8
Sketch
10
32.07
20
16.04
0
VERTEX
8
Sketch
10
32.03
20
16.04
0
VERTEX
8
Sketch
10
31.99
20
16.1
0
VERTEX
8
Sketch
10
31.99
20
16.24
0
VERTEX
8
Sketch
10
32.05
20
16.24
0
VERTEX
8
Sketch
10
32.05
20
16.26
0
VERTEX
8
Sketch
10
32.09
20
16.28
0
VERTEX
8
Sketch
10
32.15
20
16.32
0
VERTEX
8
Sketch
10
32.37
20
16.32
0
VERTEX
8
Sketch
10
32.45
20
16.22
0
VERTEX
8
Sketch
10
32.45
20
16.08
0
VERTEX
8
Sketch
10
32.35
20
16.02
0
VERTEX
8
Sketch
10
32.19
20
15.94
0
VERTEX
8
Sketch
10
32.09
20
15.84
0
VERTEX
8
Sketch
10
32.09
20
15.76
0
VERTEX
8
Sketch
10
32.13
20
15.76
0
SEQEND
0
POLYLINE
66
1
8
Sketch
62
0
0
VERTEX
8
Sketch
10
32.65
20
17.2
0
VERTEX
8
Sketch
10
32.65
20
17.18
0
VERTEX
8
Sketch
10
32.63
20
17.18
0
VERTEX
8
Sketch
10
32.61
20
17.14
0
VERTEX
8
Sketch
10
32.43
20
16.96
0
VERTEX
8
Sketch
10
32.39
20
16.96
0
VERTEX
8
Sketch
10
32.37
20
16.92
0
VERTEX
8
Sketch
10
32.35
20
16.92
0
VERTEX
8
Sketch
10
32.35
20
16.88
0
VERTEX
8
Sketch
10
32.25
20
16.8
0
VERTEX
8
Sketch
10
32.25
20
16.76
0
VERTEX
8
Sketch
10
32.17
20
16.66
0
VERTEX
8
Sketch
10
32.17
20
16.62
0
VERTEX
8
Sketch
10
32.13
20
16.56
0
VERTEX
8
Sketch
10
32.19
20
16.6
0
VERTEX
8
Sketch
10
32.27
20
16.62
0
VERTEX
8
Sketch
10
32.41
20
16.68
0
VERTEX
8
Sketch
10
32.71
20
16.78
0
VERTEX
8
Sketch
10
32.73
20
16.78
0
SEQEND
0
POLYLINE
66
1
8
Sketch
62
0
0
VERTEX
8
Sketch
10
33.85
20
17.34
0
VERTEX
8
Sketch
10
33.81
20
17.34
0
VERTEX
8
Sketch
10
33.75
20
17.3
0
VERTEX
8
Sketch
10
33.59
20
17.26
0
VERTEX
8
Sketch
10
33.37
20
17.24
0
VERTEX
8
Sketch
10
33.35
20
17.2
0
VERTEX
8
Sketch
10
33.15
20
17.2
0
VERTEX
8
Sketch
10
33.05
20
17.16
0
VERTEX
8
Sketch
10
32.93
20
17.14
0
VERTEX
8
Sketch
10
32.81
20
17.1
0
VERTEX
8
Sketch
10
32.65
20
17.02
0
VERTEX
8
Sketch
10
32.61
20
17
0
VERTEX
8
Sketch
10
32.51
20
16.94
0
VERTEX
8
Sketch
10
32.51
20
16.92
0
VERTEX
8
Sketch
10
32.47
20
16.92
0
VERTEX
8
Sketch
10
32.47
20
16.9
0
VERTEX
8
Sketch
10
32.45
20
16.9
0
SEQEND
0
POLYLINE
66
1
8
Sketch
62
0
0
VERTEX
8
Sketch
10
34.73
20
18.06
0
VERTEX
8
Sketch
10
34.61
20
18
0
VERTEX
8
Sketch
10
34.61
20
17.98
0
VERTEX
8
Sketch
10
34.59
20
17.98
0
VERTEX
8
Sketch
10
34.57
20
17.94
0
VERTEX
8
Sketch
10
34.53
20
17.94
0
VERTEX
8
Sketch
10
34.51
20
17.9
0
VERTEX
8
Sketch
10
34.31
20
17.8
0
VERTEX
8
Sketch
10
34.15
20
17.8
0
VERTEX
8
Sketch
10
34.09
20
17.78
0
VERTEX
8
Sketch
10
34.05
20
17.78
0
VERTEX
8
Sketch
10
34.05
20
17.76
0
VERTEX
8
Sketch
10
33.99
20
17.76
0
VERTEX
8
Sketch
10
33.85
20
17.72
0
VERTEX
8
Sketch
10
33.81
20
17.72
0
VERTEX
8
Sketch
10
33.81
20
17.7
0
VERTEX
8
Sketch
10
33.69
20
17.68
0
VERTEX
8
Sketch
10
33.69
20
17.66
0
VERTEX
8
Sketch
10
33.63
20
17.66
0
VERTEX
8
Sketch
10
33.57
20
17.64
0
VERTEX
8
Sketch
10
33.55
20
17.64
0
VERTEX
8
Sketch
10
33.55
20
17.62
0
VERTEX
8
Sketch
10
33.47
20
17.62
0
VERTEX
8
Sketch
10
33.47
20
17.6
0
VERTEX
8
Sketch
10
33.39
20
17.6
0
VERTEX
8
Sketch
10
33.39
20
17.58
0
VERTEX
8
Sketch
10
33.37
20
17.58
0
VERTEX
8
Sketch
10
33.37
20
17.56
0
SEQEND
0
POLYLINE
66
1
8
Sketch
62
0
0
VERTEX
8
Sketch
10
34.47
20
16.96
0
VERTEX
8
Sketch
10
34.43
20
16.98
0
VERTEX
8
Sketch
10
34.19
20
17.06
0
VERTEX
8
Sketch
10
33.87
20
17.06
0
VERTEX
8
Sketch
10
33.59
20
17.1
0
VERTEX
8
Sketch
10
33.33
20
17.1
0
VERTEX
8
Sketch
10
33.33
20
17.08
0
VERTEX
8
Sketch
10
33.29
20
17.08
0
VERTEX
8
Sketch
10
33.27
20
17.04
0
VERTEX
8
Sketch
10
33.23
20
17.04
0
VERTEX
8
Sketch
10
33.21
20
17
0
VERTEX
8
Sketch
10
33.19
20
16.98
0
SEQEND
0
POLYLINE
66
1
8
Sketch
62
0
0
VERTEX
8
Sketch
10
35.83
20
17.16
0
VERTEX
8
Sketch
10
35.75
20
17.16
0
VERTEX
8
Sketch
10
35.65
20
17.06
0
VERTEX
8
Sketch
10
35.59
20
17.04
0
VERTEX
8
Sketch
10
35.55
20
16.92
0
VERTEX
8
Sketch
10
35.69
20
16.92
0
VERTEX
8
Sketch
10
35.77
20
16.96
0
VERTEX
8
Sketch
10
35.81
20
16.98
0
VERTEX
8
Sketch
10
35.87
20
17.08
0
SEQEND
0
POLYLINE
66
1
8
Sketch
62
0
0
VERTEX
8
Sketch
10
36.75
20
16.06
0
VERTEX
8
Sketch
10
36.69
20
16.06
0
VERTEX
8
Sketch
10
36.65
20
16.02
0
VERTEX
8
Sketch
10
36.65
20
15.86
0
VERTEX
8
Sketch
10
36.63
20
15.78
0
VERTEX
8
Sketch
10
36.63
20
15.68
0
VERTEX
8
Sketch
10
36.65
20
15.68
0
VERTEX
8
Sketch
10
36.67
20
15.58
0
VERTEX
8
Sketch
10
36.71
20
15.58
0
VERTEX
8
Sketch
10
36.71
20
15.52
0
VERTEX
8
Sketch
10
36.81
20
15.5
0
VERTEX
8
Sketch
10
36.89
20
15.54
0
VERTEX
8
Sketch
10
36.95
20
15.64
0
VERTEX
8
Sketch
10
37.01
20
15.82
0
VERTEX
8
Sketch
10
36.99
20
15.88
0
VERTEX
8
Sketch
10
36.95
20
15.88
0
VERTEX
8
Sketch
10
36.93
20
15.9
0
SEQEND
0
POLYLINE
66
1
8
Sketch
62
0
0
VERTEX
8
Sketch
10
37.43
20
16.68
0
VERTEX
8
Sketch
10
37.19
20
16.68
0
VERTEX
8
Sketch
10
37.09
20
16.64
0
VERTEX
8
Sketch
10
36.95
20
16.48
0
VERTEX
8
Sketch
10
36.89
20
16.26
0
VERTEX
8
Sketch
10
36.89
20
16.24
0
VERTEX
8
Sketch
10
37.05
20
16.2
0
VERTEX
8
Sketch
10
37.19
20
16.16
0
VERTEX
8
Sketch
10
37.27
20
16.16
0
VERTEX
8
Sketch
10
37.41
20
16.32
0
VERTEX
8
Sketch
10
37.43
20
16.38
0
VERTEX
8
Sketch
10
37.51
20
16.48
0
VERTEX
8
Sketch
10
37.55
20
16.58
0
VERTEX
8
Sketch
10
37.63
20
16.66
0
SEQEND
0
POLYLINE
66
1
8
Sketch
62
0
0
VERTEX
8
Sketch
10
37.81
20
17.72
0
VERTEX
8
Sketch
10
37.71
20
17.66
0
VERTEX
8
Sketch
10
37.67
20
17.66
0
VERTEX
8
Sketch
10
37.63
20
17.6
0
VERTEX
8
Sketch
10
37.57
20
17.6
0
VERTEX
8
Sketch
10
37.35
20
17.38
0
VERTEX
8
Sketch
10
37.33
20
17.28
0
VERTEX
8
Sketch
10
37.33
20
17.12
0
VERTEX
8
Sketch
10
37.37
20
17.08
0
VERTEX
8
Sketch
10
37.63
20
17.08
0
VERTEX
8
Sketch
10
37.69
20
17.12
0
VERTEX
8
Sketch
10
37.77
20
17.14
0
VERTEX
8
Sketch
10
37.87
20
17.24
0
VERTEX
8
Sketch
10
37.87
20
17.26
0
VERTEX
8
Sketch
10
37.89
20
17.26
0
VERTEX
8
Sketch
10
37.89
20
17.46
0
VERTEX
8
Sketch
10
37.79
20
17.58
0
VERTEX
8
Sketch
10
37.65
20
17.58
0
VERTEX
8
Sketch
10
37.61
20
17.54
0
SEQEND
0
POLYLINE
66
1
8
Sketch
62
0
0
VERTEX
8
Sketch
10
35.97
20
15.38
0
VERTEX
8
Sketch
10
35.97
20
15.72
0
VERTEX
8
Sketch
10
35.95
20
15.72
0
VERTEX
8
Sketch
10
35.95
20
15.82
0
VERTEX
8
Sketch
10
35.93
20
15.82
0
VERTEX
8
Sketch
10
35.93
20
15.9
0
VERTEX
8
Sketch
10
35.91
20
15.96
0
VERTEX
8
Sketch
10
35.87
20
16.08
0
VERTEX
8
Sketch
10
35.83
20
16.16
0
VERTEX
8
Sketch
10
35.83
20
16.18
0
VERTEX
8
Sketch
10
35.81
20
16.18
0
VERTEX
8
Sketch
10
35.81
20
16.2
0
VERTEX
8
Sketch
10
35.77
20
16.2
0
VERTEX
8
Sketch
10
35.77
20
16.22
0
SEQEND
0
POLYLINE
66
1
8
Sketch
62
0
0
VERTEX
8
Sketch
10
31.93
20
13.04
0
VERTEX
8
Sketch
10
31.97
20
13.16
0
VERTEX
8
Sketch
10
31.97
20
13.22
0
VERTEX
8
Sketch
10
31.87
20
13.24
0
VERTEX
8
Sketch
10
31.87
20
13.22
0
VERTEX
8
Sketch
10
31.83
20
13.22
0
VERTEX
8
Sketch
10
31.71
20
13.02
0
VERTEX
8
Sketch
10
31.71
20
12.94
0
VERTEX
8
Sketch
10
31.73
20
12.92
0
VERTEX
8
Sketch
10
31.73
20
12.86
0
VERTEX
8
Sketch
10
31.79
20
12.86
0
VERTEX
8
Sketch
10
31.85
20
12.84
0
VERTEX
8
Sketch
10
31.87
20
12.84
0
VERTEX
8
Sketch
10
31.97
20
12.94
0
VERTEX
8
Sketch
10
32.01
20
13.02
0
VERTEX
8
Sketch
10
32.19
20
13.2
0
VERTEX
8
Sketch
10
32.21
20
13.3
0
VERTEX
8
Sketch
10
32.21
20
13.32
0
VERTEX
8
Sketch
10
32.17
20
13.32
0
VERTEX
8
Sketch
10
32.09
20
13.28
0
SEQEND
0
POLYLINE
66
1
8
Sketch
62
0
0
VERTEX
8
Sketch
10
31.65
20
13.66
0
VERTEX
8
Sketch
10
31.57
20
13.66
0
VERTEX
8
Sketch
10
31.57
20
13.68
0
VERTEX
8
Sketch
10
31.45
20
13.74
0
VERTEX
8
Sketch
10
31.43
20
13.78
0
VERTEX
8
Sketch
10
31.41
20
13.78
0
VERTEX
8
Sketch
10
31.39
20
13.86
0
VERTEX
8
Sketch
10
31.49
20
13.88
0
VERTEX
8
Sketch
10
31.59
20
13.9
0
VERTEX
8
Sketch
10
31.65
20
13.9
0
VERTEX
8
Sketch
10
31.71
20
13.86
0
VERTEX
8
Sketch
10
31.85
20
13.84
0
VERTEX
8
Sketch
10
31.95
20
13.74
0
VERTEX
8
Sketch
10
31.95
20
13.64
0
VERTEX
8
Sketch
10
31.87
20
13.48
0
VERTEX
8
Sketch
10
31.87
20
13.46
0
VERTEX
8
Sketch
10
31.85
20
13.46
0
VERTEX
8
Sketch
10
31.85
20
13.44
0
SEQEND
0
POLYLINE
66
1
8
Sketch
62
0
0
VERTEX
8
Sketch
10
31.21
20
14.5
0
VERTEX
8
Sketch
10
31.21
20
14.48
0
VERTEX
8
Sketch
10
31.13
20
14.48
0
VERTEX
8
Sketch
10
31.09
20
14.44
0
VERTEX
8
Sketch
10
30.81
20
14.44
0
VERTEX
8
Sketch
10
30.67
20
14.42
0
VERTEX
8
Sketch
10
30.45
20
14.42
0
VERTEX
8
Sketch
10
30.35
20
14.4
0
VERTEX
8
Sketch
10
30.31
20
14.4
0
VERTEX
8
Sketch
10
30.31
20
14.38
0
VERTEX
8
Sketch
10
30.33
20
14.38
0
VERTEX
8
Sketch
10
30.33
20
14.36
0
VERTEX
8
Sketch
10
30.49
20
14.28
0
VERTEX
8
Sketch
10
30.61
20
14.18
0
VERTEX
8
Sketch
10
30.71
20
14.16
0
VERTEX
8
Sketch
10
30.75
20
14.16
0
VERTEX
8
Sketch
10
30.75
20
14.14
0
VERTEX
8
Sketch
10
30.81
20
14.14
0
SEQEND
0
POLYLINE
66
1
8
Sketch
62
0
0
VERTEX
8
Sketch
10
33.43
20
14.56
0
VERTEX
8
Sketch
10
33.33
20
14.56
0
VERTEX
8
Sketch
10
33.25
20
14.52
0
VERTEX
8
Sketch
10
33.19
20
14.52
0
VERTEX
8
Sketch
10
32.89
20
14.44
0
VERTEX
8
Sketch
10
32.67
20
14.44
0
VERTEX
8
Sketch
10
32.41
20
14.42
0
VERTEX
8
Sketch
10
32.15
20
14.36
0
VERTEX
8
Sketch
10
31.53
20
14.32
0
VERTEX
8
Sketch
10
31.39
20
14.3
0
VERTEX
8
Sketch
10
30.93
20
14.3
0
VERTEX
8
Sketch
10
30.95
20
14.28
0
SEQEND
0
POLYLINE
66
1
8
Sketch
62
0
0
VERTEX
8
Sketch
10
36.25
20
15.36
0
VERTEX
8
Sketch
10
36.19
20
15.36
0
VERTEX
8
Sketch
10
36.09
20
15.3
0
VERTEX
8
Sketch
10
36.01
20
15.28
0
VERTEX
8
Sketch
10
35.97
20
15.24
0
VERTEX
8
Sketch
10
35.89
20
15.22
0
VERTEX
8
Sketch
10
35.59
20
15.12
0
VERTEX
8
Sketch
10
35.53
20
15.12
0
VERTEX
8
Sketch
10
35.43
20
15.06
0
VERTEX
8
Sketch
10
35.23
20
15.06
0
VERTEX
8
Sketch
10
35.13
20
15.02
0
VERTEX
8
Sketch
10
34.17
20
15.02
0
VERTEX
8
Sketch
10
34.01
20
14.96
0
VERTEX
8
Sketch
10
33.97
20
14.96
0
VERTEX
8
Sketch
10
33.87
20
14.92
0
VERTEX
8
Sketch
10
33.53
20
14.92
0
VERTEX
8
Sketch
10
33.49
20
14.9
0
VERTEX
8
Sketch
10
33.17
20
14.9
0
VERTEX
8
Sketch
10
33.07
20
14.88
0
VERTEX
8
Sketch
10
32.95
20
14.88
0
VERTEX
8
Sketch
10
32.95
20
14.86
0
VERTEX
8
Sketch
10
32.83
20
14.84
0
VERTEX
8
Sketch
10
32.83
20
14.82
0
VERTEX
8
Sketch
10
32.77
20
14.82
0
VERTEX
8
Sketch
10
32.77
20
14.8
0
VERTEX
8
Sketch
10
32.73
20
14.8
0
SEQEND
0
POLYLINE
66
1
8
Sketch
62
0
0
VERTEX
8
Sketch
10
38.05
20
16.6
0
VERTEX
8
Sketch
10
38.03
20
16.54
0
VERTEX
8
Sketch
10
38.01
20
16.54
0
VERTEX
8
Sketch
10
37.99
20
16.5
0
VERTEX
8
Sketch
10
37.79
20
16.28
0
VERTEX
8
Sketch
10
37.61
20
15.98
0
VERTEX
8
Sketch
10
37.51
20
15.88
0
VERTEX
8
Sketch
10
37.27
20
15.56
0
VERTEX
8
Sketch
10
37.25
20
15.46
0
VERTEX
8
Sketch
10
37.19
20
15.4
0
VERTEX
8
Sketch
10
37.17
20
15.36
0
VERTEX
8
Sketch
10
37.11
20
15.34
0
VERTEX
8
Sketch
10
37.11
20
15.32
0
VERTEX
8
Sketch
10
37.09
20
15.32
0
VERTEX
8
Sketch
10
37.09
20
15.3
0
VERTEX
8
Sketch
10
37.07
20
15.3
0
VERTEX
8
Sketch
10
37.07
20
15.28
0
VERTEX
8
Sketch
10
36.95
20
15.28
0
VERTEX
8
Sketch
10
36.91
20
15.24
0
VERTEX
8
Sketch
10
36.89
20
15.24
0
VERTEX
8
Sketch
10
36.89
20
15.22
0
VERTEX
8
Sketch
10
36.81
20
15.22
0
VERTEX
8
Sketch
10
36.81
20
15.2
0
VERTEX
8
Sketch
10
36.71
20
15.2
0
VERTEX
8
Sketch
10
36.71
20
15.18
0
VERTEX
8
Sketch
10
36.69
20
15.18
0
VERTEX
8
Sketch
10
36.69
20
15.14
0
VERTEX
8
Sketch
10
36.65
20
15.14
0
VERTEX
8
Sketch
10
36.65
20
15.12
0
VERTEX
8
Sketch
10
36.63
20
15.12
0
VERTEX
8
Sketch
10
36.63
20
15.1
0
VERTEX
8
Sketch
10
36.45
20
15.04
0
VERTEX
8
Sketch
10
36.41
20
15.04
0
VERTEX
8
Sketch
10
36.41
20
14.98
0
VERTEX
8
Sketch
10
36.29
20
14.94
0
VERTEX
8
Sketch
10
36.29
20
14.92
0
VERTEX
8
Sketch
10
36.25
20
14.92
0
VERTEX
8
Sketch
10
36.19
20
14.9
0
VERTEX
8
Sketch
10
36.19
20
14.88
0
VERTEX
8
Sketch
10
36.05
20
14.88
0
VERTEX
8
Sketch
10
36.05
20
14.86
0
VERTEX
8
Sketch
10
35.95
20
14.84
0
VERTEX
8
Sketch
10
35.87
20
14.84
0
VERTEX
8
Sketch
10
35.75
20
14.8
0
VERTEX
8
Sketch
10
35.47
20
14.8
0
VERTEX
8
Sketch
10
35.35
20
14.74
0
VERTEX
8
Sketch
10
35.09
20
14.68
0
VERTEX
8
Sketch
10
34.99
20
14.68
0
VERTEX
8
Sketch
10
34.91
20
14.64
0
VERTEX
8
Sketch
10
34.79
20
14.62
0
VERTEX
8
Sketch
10
34.59
20
14.58
0
VERTEX
8
Sketch
10
34.59
20
14.56
0
VERTEX
8
Sketch
10
34.45
20
14.52
0
VERTEX
8
Sketch
10
34.45
20
14.5
0
VERTEX
8
Sketch
10
34.41
20
14.5
0
VERTEX
8
Sketch
10
34.19
20
14.4
0
VERTEX
8
Sketch
10
34.17
20
14.4
0
VERTEX
8
Sketch
10
34.13
20
14.36
0
VERTEX
8
Sketch
10
34.09
20
14.36
0
VERTEX
8
Sketch
10
34.03
20
14.34
0
VERTEX
8
Sketch
10
33.63
20
14.2
0
VERTEX
8
Sketch
10
33.57
20
14.2
0
VERTEX
8
Sketch
10
33.47
20
14.16
0
VERTEX
8
Sketch
10
33.27
20
14.16
0
VERTEX
8
Sketch
10
33.15
20
14.14
0
VERTEX
8
Sketch
10
32.97
20
14.14
0
SEQEND
0
POLYLINE
66
1
8
Sketch
62
0
0
VERTEX
8
Sketch
10
36.05
20
16.6
0
VERTEX
8
Sketch
10
36.05
20
16.46
0
VERTEX
8
Sketch
10
36.07
20
16.4
0
VERTEX
8
Sketch
10
36.09
20
16.4
0
VERTEX
8
Sketch
10
36.09
20
16.38
0
VERTEX
8
Sketch
10
36.11
20
16.38
0
SEQEND
0
POLYLINE
66
1
8
Sketch
62
0
0
VERTEX
8
Sketch
10
35.67
20
16.32
0
VERTEX
8
Sketch
10
35.67
20
16.24
0
VERTEX
8
Sketch
10
35.69
20
16.18
0
VERTEX
8
Sketch
10
35.71
20
16.08
0
VERTEX
8
Sketch
10
35.73
20
16.08
0
SEQEND
0
POLYLINE
66
1
8
Sketch
62
0
0
VERTEX
8
Sketch
10
36.57
20
16.78
0
VERTEX
8
Sketch
10
36.57
20
16.76
0
VERTEX
8
Sketch
10
36.53
20
16.7
0
VERTEX
8
Sketch
10
36.51
20
16.66
0
VERTEX
8
Sketch
10
36.37
20
16.52
0
VERTEX
8
Sketch
10
36.33
20
16.48
0
VERTEX
8
Sketch
10
36.29
20
16.46
0
VERTEX
8
Sketch
10
36.19
20
16.4
0
VERTEX
8
Sketch
10
36.15
20
16.38
0
VERTEX
8
Sketch
10
36.09
20
16.36
0
VERTEX
8
Sketch
10
36.09
20
16.34
0
VERTEX
8
Sketch
10
36.05
20
16.34
0
VERTEX
8
Sketch
10
35.99
20
16.3
0
VERTEX
8
Sketch
10
35.95
20
16.3
0
VERTEX
8
Sketch
10
35.93
20
16.24
0
VERTEX
8
Sketch
10
35.91
20
16.24
0
VERTEX
8
Sketch
10
35.81
20
16.14
0
VERTEX
8
Sketch
10
35.77
20
16.14
0
VERTEX
8
Sketch
10
35.71
20
16.12
0
VERTEX
8
Sketch
10
35.71
20
16.1
0
VERTEX
8
Sketch
10
35.67
20
16.1
0
VERTEX
8
Sketch
10
35.59
20
16.06
0
VERTEX
8
Sketch
10
35.35
20
15.98
0
VERTEX
8
Sketch
10
35.29
20
15.98
0
SEQEND
0
POLYLINE
66
1
8
Sketch
62
0
0
VERTEX
8
Sketch
10
36.29
20
17
0
VERTEX
8
Sketch
10
36.37
20
17
0
VERTEX
8
Sketch
10
36.37
20
16.96
0
SEQEND
0
POLYLINE
66
1
8
Sketch
62
0
0
VERTEX
8
Sketch
10
36.33
20
17.4
0
VERTEX
8
Sketch
10
36.43
20
17.4
0
VERTEX
8
Sketch
10
36.43
20
17.42
0
VERTEX
8
Sketch
10
36.59
20
17.42
0
VERTEX
8
Sketch
10
36.59
20
17.4
0
SEQEND
0
POLYLINE
66
1
8
Sketch
62
0
0
VERTEX
8
Sketch
10
36.07
20
17.84
0
VERTEX
8
Sketch
10
36.11
20
17.84
0
VERTEX
8
Sketch
10
36.15
20
17.88
0
VERTEX
8
Sketch
10
36.21
20
17.88
0
VERTEX
8
Sketch
10
36.29
20
17.92
0
VERTEX
8
Sketch
10
36.35
20
17.92
0
SEQEND
0
POLYLINE
66
1
8
Sketch
62
0
0
VERTEX
8
Sketch
10
35.53
20
18
0
VERTEX
8
Sketch
10
35.57
20
18.16
0
VERTEX
8
Sketch
10
35.61
20
18.26
0
VERTEX
8
Sketch
10
35.63
20
18.26
0
VERTEX
8
Sketch
10
35.63
20
18.3
0
SEQEND
0
POLYLINE
66
1
8
Sketch
62
0
0
VERTEX
8
Sketch
10
34.93
20
17.9
0
VERTEX
8
Sketch
10
34.93
20
18.12
0
SEQEND
0
POLYLINE
66
1
8
Sketch
62
0
0
VERTEX
8
Sketch
10
34.83
20
17.18
0
VERTEX
8
Sketch
10
34.83
20
17.2
0
VERTEX
8
Sketch
10
34.79
20
17.2
0
VERTEX
8
Sketch
10
34.77
20
17.24
0
VERTEX
8
Sketch
10
34.71
20
17.26
0
VERTEX
8
Sketch
10
34.71
20
17.28
0
VERTEX
8
Sketch
10
34.65
20
17.34
0
VERTEX
8
Sketch
10
34.65
20
17.36
0
SEQEND
0
POLYLINE
66
1
8
Sketch
62
0
0
VERTEX
8
Sketch
10
34.91
20
16.88
0
VERTEX
8
Sketch
10
34.61
20
16.88
0
SEQEND
0
POLYLINE
66
1
8
Sketch
62
0
0
VERTEX
8
Sketch
10
35.03
20
16.54
0
VERTEX
8
Sketch
10
34.99
20
16.52
0
VERTEX
8
Sketch
10
34.95
20
16.52
0
VERTEX
8
Sketch
10
34.85
20
16.48
0
VERTEX
8
Sketch
10
34.85
20
16.46
0
VERTEX
8
Sketch
10
34.79
20
16.46
0
VERTEX
8
Sketch
10
34.79
20
16.4
0
VERTEX
8
Sketch
10
34.77
20
16.4
0
VERTEX
8
Sketch
10
34.77
20
16.38
0
SEQEND
0
POLYLINE
66
1
8
Sketch
62
0
0
VERTEX
8
Sketch
10
35.37
20
16.32
0
VERTEX
8
Sketch
10
35.33
20
16.32
0
VERTEX
8
Sketch
10
35.25
20
16.24
0
VERTEX
8
Sketch
10
35.19
20
16.12
0
SEQEND
0
POLYLINE
66
1
8
Sketch
62
0
0
VERTEX
8
Sketch
10
35.41
20
16.08
0
VERTEX
8
Sketch
10
35.15
20
16.08
0
VERTEX
8
Sketch
10
35.15
20
16.1
0
VERTEX
8
Sketch
10
35.09
20
16.1
0
VERTEX
8
Sketch
10
35.01
20
16.18
0
VERTEX
8
Sketch
10
34.95
20
16.2
0
VERTEX
8
Sketch
10
34.95
20
16.22
0
VERTEX
8
Sketch
10
34.91
20
16.22
0
VERTEX
8
Sketch
10
34.91
20
16.24
0
VERTEX
8
Sketch
10
34.89
20
16.24
0
VERTEX
8
Sketch
10
34.85
20
16.28
0
VERTEX
8
Sketch
10
34.83
20
16.28
0
VERTEX
8
Sketch
10
34.83
20
16.3
0
VERTEX
8
Sketch
10
34.79
20
16.32
0
VERTEX
8
Sketch
10
34.75
20
16.4
0
VERTEX
8
Sketch
10
34.73
20
16.4
0
VERTEX
8
Sketch
10
34.73
20
16.44
0
VERTEX
8
Sketch
10
34.69
20
16.5
0
VERTEX
8
Sketch
10
34.69
20
16.54
0
VERTEX
8
Sketch
10
34.63
20
16.72
0
VERTEX
8
Sketch
10
34.63
20
16.78
0
VERTEX
8
Sketch
10
34.59
20
16.9
0
VERTEX
8
Sketch
10
34.59
20
17.88
0
VERTEX
8
Sketch
10
34.63
20
17.9
0
VERTEX
8
Sketch
10
34.63
20
17.96
0
VERTEX
8
Sketch
10
34.65
20
18.02
0
VERTEX
8
Sketch
10
34.67
20
18.02
0
VERTEX
8
Sketch
10
34.67
20
18.04
0
VERTEX
8
Sketch
10
34.69
20
18.04
0
VERTEX
8
Sketch
10
34.69
20
18.06
0
VERTEX
8
Sketch
10
34.71
20
18.06
0
VERTEX
8
Sketch
10
34.73
20
18.1
0
VERTEX
8
Sketch
10
34.75
20
18.1
0
VERTEX
8
Sketch
10
34.75
20
18.12
0
VERTEX
8
Sketch
10
34.77
20
18.12
0
VERTEX
8
Sketch
10
34.77
20
18.14
0
SEQEND
0
POLYLINE
66
1
8
Sketch
62
0
0
VERTEX
8
Sketch
10
36.65
20
16.78
0
VERTEX
8
Sketch
10
36.65
20
16.96
0
VERTEX
8
Sketch
10
36.67
20
17.1
0
VERTEX
8
Sketch
10
36.67
20
17.28
0
VERTEX
8
Sketch
10
36.65
20
17.28
0
VERTEX
8
Sketch
10
36.65
20
17.48
0
VERTEX
8
Sketch
10
36.57
20
17.72
0
VERTEX
8
Sketch
10
36.55
20
17.72
0
VERTEX
8
Sketch
10
36.55
20
17.8
0
VERTEX
8
Sketch
10
36.53
20
17.8
0
VERTEX
8
Sketch
10
36.47
20
17.94
0
VERTEX
8
Sketch
10
36.45
20
17.94
0
VERTEX
8
Sketch
10
36.23
20
18.16
0
VERTEX
8
Sketch
10
36.21
20
18.16
0
VERTEX
8
Sketch
10
36.17
20
18.2
0
VERTEX
8
Sketch
10
36.11
20
18.24
0
VERTEX
8
Sketch
10
36.05
20
18.24
0
VERTEX
8
Sketch
10
35.95
20
18.3
0
VERTEX
8
Sketch
10
35.47
20
18.3
0
VERTEX
8
Sketch
10
35.41
20
18.32
0
VERTEX
8
Sketch
10
35.29
20
18.32
0
VERTEX
8
Sketch
10
35.29
20
18.3
0
VERTEX
8
Sketch
10
35.25
20
18.3
0
VERTEX
8
Sketch
10
35.21
20
18.26
0
VERTEX
8
Sketch
10
35.17
20
18.26
0
VERTEX
8
Sketch
10
35.17
20
18.24
0
VERTEX
8
Sketch
10
35.13
20
18.24
0
VERTEX
8
Sketch
10
35.11
20
18.2
0
VERTEX
8
Sketch
10
35.09
20
18.2
0
VERTEX
8
Sketch
10
35.09
20
18.18
0
VERTEX
8
Sketch
10
35.05
20
18.18
0
VERTEX
8
Sketch
10
35.05
20
18.16
0
VERTEX
8
Sketch
10
35.01
20
18.16
0
VERTEX
8
Sketch
10
35.01
20
18.14
0
VERTEX
8
Sketch
10
34.93
20
18.14
0
VERTEX
8
Sketch
10
34.91
20
18.08
0
VERTEX
8
Sketch
10
34.87
20
18.08
0
VERTEX
8
Sketch
10
34.87
20
18.06
0
VERTEX
8
Sketch
10
34.85
20
18.06
0
VERTEX
8
Sketch
10
34.85
20
18.04
0
VERTEX
8
Sketch
10
34.81
20
18.04
0
VERTEX
8
Sketch
10
34.81
20
18.02
0
VERTEX
8
Sketch
10
34.79
20
18.02
0
SEQEND
0
POLYLINE
66
1
8
Sketch
62
0
0
VERTEX
8
Sketch
10
39.69
20
17.54
0
VERTEX
8
Sketch
10
39.69
20
17.54
0
VERTEX
8
Sketch
10
39.71
20
17.64
0
VERTEX
8
Sketch
10
39.73
20
17.64
0
VERTEX
8
Sketch
10
39.73
20
17.66
0
VERTEX
8
Sketch
10
39.75
20
17.66
0
VERTEX
8
Sketch
10
39.75
20
17.56
0
VERTEX
8
Sketch
10
39.73
20
17.5
0
VERTEX
8
Sketch
10
39.73
20
17.46
0
VERTEX
8
Sketch
10
39.77
20
17.46
0
VERTEX
8
Sketch
10
39.79
20
17.52
0
VERTEX
8
Sketch
10
39.79
20
17.54
0
VERTEX
8
Sketch
10
39.83
20
17.56
0
VERTEX
8
Sketch
10
39.83
20
17.6
0
VERTEX
8
Sketch
10
39.85
20
17.6
0
VERTEX
8
Sketch
10
39.85
20
17.64
0
VERTEX
8
Sketch
10
39.89
20
17.64
0
VERTEX
8
Sketch
10
39.85
20
17.52
0
VERTEX
8
Sketch
10
39.91
20
17.58
0
VERTEX
8
Sketch
10
39.95
20
17.62
0
VERTEX
8
Sketch
10
39.99
20
17.62
0
VERTEX
8
Sketch
10
40.03
20
17.64
0
VERTEX
8
Sketch
10
40.03
20
17.56
0
VERTEX
8
Sketch
10
40.01
20
17.56
0
VERTEX
8
Sketch
10
40.01
20
17.54
0
SEQEND
0
POLYLINE
66
1
8
Sketch
62
0
0
VERTEX
8
Sketch
10
39.15
20
17.48
0
VERTEX
8
Sketch
10
39.07
20
17.52
0
VERTEX
8
Sketch
10
39.01
20
17.52
0
VERTEX
8
Sketch
10
39.01
20
17.46
0
VERTEX
8
Sketch
10
39.07
20
17.44
0
VERTEX
8
Sketch
10
39.07
20
17.42
0
VERTEX
8
Sketch
10
39.11
20
17.42
0
VERTEX
8
Sketch
10
39.11
20
17.44
0
VERTEX
8
Sketch
10
39.13
20
17.44
0
VERTEX
8
Sketch
10
39.13
20
17.52
0
VERTEX
8
Sketch
10
39.07
20
17.52
0
VERTEX
8
Sketch
10
39.05
20
17.48
0
VERTEX
8
Sketch
10
39.07
20
17.48
0
VERTEX
8
Sketch
10
39.07
20
17.44
0
VERTEX
8
Sketch
10
39.13
20
17.42
0
VERTEX
8
Sketch
10
39.13
20
17.44
0
VERTEX
8
Sketch
10
39.07
20
17.46
0
SEQEND
0
POLYLINE
66
1
8
Sketch
62
0
0
VERTEX
8
Sketch
10
39.45
20
17.86
0
VERTEX
8
Sketch
10
39.41
20
17.86
0
VERTEX
8
Sketch
10
39.35
20
17.84
0
VERTEX
8
Sketch
10
39.15
20
17.84
0
VERTEX
8
Sketch
10
39.15
20
17.8
0
VERTEX
8
Sketch
10
39.13
20
17.74
0
VERTEX
8
Sketch
10
39.13
20
17.66
0
VERTEX
8
Sketch
10
39.15
20
17.6
0
VERTEX
8
Sketch
10
39.15
20
17.56
0
VERTEX
8
Sketch
10
39.21
20
17.56
0
VERTEX
8
Sketch
10
39.23
20
17.62
0
VERTEX
8
Sketch
10
39.27
20
17.64
0
VERTEX
8
Sketch
10
39.33
20
17.7
0
VERTEX
8
Sketch
10
39.41
20
17.7
0
VERTEX
8
Sketch
10
39.41
20
17.66
0
VERTEX
8
Sketch
10
39.43
20
17.66
0
VERTEX
8
Sketch
10
39.43
20
17.62
0
VERTEX
8
Sketch
10
39.41
20
17.58
0
VERTEX
8
Sketch
10
39.37
20
17.58
0
VERTEX
8
Sketch
10
39.37
20
17.56
0
VERTEX
8
Sketch
10
39.35
20
17.56
0
VERTEX
8
Sketch
10
39.35
20
17.54
0
VERTEX
8
Sketch
10
39.33
20
17.54
0
VERTEX
8
Sketch
10
39.33
20
17.52
0
VERTEX
8
Sketch
10
39.27
20
17.52
0
SEQEND
0
POINT
8
Sketch
62
0
10
39.11
20
17.52
0
POLYLINE
66
1
8
Sketch
62
0
0
VERTEX
8
Sketch
10
38.75
20
17.66
0
VERTEX
8
Sketch
10
38.79
20
17.68
0
VERTEX
8
Sketch
10
38.85
20
17.74
0
VERTEX
8
Sketch
10
38.85
20
17.76
0
VERTEX
8
Sketch
10
38.91
20
17.78
0
VERTEX
8
Sketch
10
38.91
20
17.82
0
VERTEX
8
Sketch
10
38.93
20
17.82
0
VERTEX
8
Sketch
10
38.93
20
17.84
0
VERTEX
8
Sketch
10
38.99
20
17.86
0
VERTEX
8
Sketch
10
38.99
20
17.82
0
VERTEX
8
Sketch
10
38.97
20
17.82
0
VERTEX
8
Sketch
10
38.97
20
17.8
0
VERTEX
8
Sketch
10
38.93
20
17.78
0
VERTEX
8
Sketch
10
38.93
20
17.5
0
VERTEX
8
Sketch
10
38.91
20
17.5
0
VERTEX
8
Sketch
10
38.91
20
17.48
0
SEQEND
0
POLYLINE
66
1
8
Sketch
62
0
0
VERTEX
8
Sketch
10
38.09
20
18.74
0
VERTEX
8
Sketch
10
38.01
20
18.74
0
VERTEX
8
Sketch
10
37.91
20
18.68
0
VERTEX
8
Sketch
10
37.91
20
18.66
0
VERTEX
8
Sketch
10
37.87
20
18.64
0
VERTEX
8
Sketch
10
37.85
20
18.58
0
SEQEND
0
POLYLINE
66
1
8
Sketch
62
0
0
VERTEX
8
Sketch
10
38.17
20
18.56
0
VERTEX
8
Sketch
10
38.11
20
18.56
0
VERTEX
8
Sketch
10
38.03
20
18.5
0
VERTEX
8
Sketch
10
38.01
20
18.5
0
VERTEX
8
Sketch
10
38.01
20
18.46
0
VERTEX
8
Sketch
10
37.99
20
18.46
0
VERTEX
8
Sketch
10
37.99
20
18.44
0
VERTEX
8
Sketch
10
37.93
20
18.38
0
VERTEX
8
Sketch
10
37.93
20
18.36
0
SEQEND
0
POLYLINE
66
1
8
Sketch
62
0
0
VERTEX
8
Sketch
10
38.33
20
18.36
0
VERTEX
8
Sketch
10
38.33
20
18.34
0
VERTEX
8
Sketch
10
38.31
20
18.34
0
VERTEX
8
Sketch
10
38.31
20
18.32
0
VERTEX
8
Sketch
10
38.27
20
18.32
0
VERTEX
8
Sketch
10
38.27
20
18.3
0
VERTEX
8
Sketch
10
38.23
20
18.3
0
VERTEX
8
Sketch
10
38.23
20
18.26
0
VERTEX
8
Sketch
10
38.21
20
18.26
0
VERTEX
8
Sketch
10
38.21
20
18.24
0
VERTEX
8
Sketch
10
38.17
20
18.24
0
VERTEX
8
Sketch
10
38.17
20
18.22
0
SEQEND
0
POLYLINE
66
1
8
Sketch
62
0
0
VERTEX
8
Sketch
10
38.45
20
18.12
0
VERTEX
8
Sketch
10
38.39
20
18.12
0
VERTEX
8
Sketch
10
38.35
20
18.08
0
VERTEX
8
Sketch
10
38.35
20
18.04
0
VERTEX
8
Sketch
10
38.33
20
17.98
0
VERTEX
8
Sketch
10
38.33
20
17.96
0
SEQEND
0
POLYLINE
66
1
8
Sketch
62
0
0
VERTEX
8
Sketch
10
38.79
20
18.1
0
VERTEX
8
Sketch
10
38.61
20
18.12
0
VERTEX
8
Sketch
10
38.61
20
18.08
0
VERTEX
8
Sketch
10
38.57
20
18.08
0
VERTEX
8
Sketch
10
38.57
20
18.04
0
VERTEX
8
Sketch
10
38.51
20
17.94
0
VERTEX
8
Sketch
10
38.39
20
17.74
0
VERTEX
8
Sketch
10
38.35
20
17.62
0
VERTEX
8
Sketch
10
38.31
20
17.56
0
VERTEX
8
Sketch
10
38.31
20
17.48
0
VERTEX
8
Sketch
10
38.27
20
17.42
0
VERTEX
8
Sketch
10
38.27
20
17.36
0
VERTEX
8
Sketch
10
38.25
20
17.3
0
VERTEX
8
Sketch
10
38.25
20
17.26
0
VERTEX
8
Sketch
10
38.23
20
17.26
0
VERTEX
8
Sketch
10
38.23
20
17.22
0
VERTEX
8
Sketch
10
38.19
20
17.16
0
VERTEX
8
Sketch
10
38.19
20
17.04
0
VERTEX
8
Sketch
10
38.15
20
16.88
0
VERTEX
8
Sketch
10
38.15
20
16.78
0
VERTEX
8
Sketch
10
38.13
20
16.74
0
VERTEX
8
Sketch
10
38.13
20
16.66
0
VERTEX
8
Sketch
10
38.11
20
16.64
0
SEQEND
0
POLYLINE
66
1
8
Sketch
62
0
0
VERTEX
8
Sketch
10
38.01
20
19.04
0
VERTEX
8
Sketch
10
37.99
20
19.04
0
VERTEX
8
Sketch
10
37.95
20
18.88
0
VERTEX
8
Sketch
10
37.83
20
18.8
0
VERTEX
8
Sketch
10
37.77
20
18.7
0
VERTEX
8
Sketch
10
37.67
20
18.56
0
VERTEX
8
Sketch
10
37.67
20
18.54
0
VERTEX
8
Sketch
10
37.65
20
18.54
0
VERTEX
8
Sketch
10
37.65
20
18.48
0
VERTEX
8
Sketch
10
37.57
20
18.32
0
VERTEX
8
Sketch
10
37.57
20
18.28
0
VERTEX
8
Sketch
10
37.53
20
18.24
0
VERTEX
8
Sketch
10
37.53
20
18.2
0
VERTEX
8
Sketch
10
37.51
20
18.14
0
VERTEX
8
Sketch
10
37.47
20
18.1
0
VERTEX
8
Sketch
10
37.47
20
18.04
0
VERTEX
8
Sketch
10
37.45
20
17.98
0
VERTEX
8
Sketch
10
37.43
20
17.98
0
VERTEX
8
Sketch
10
37.43
20
17.88
0
VERTEX
8
Sketch
10
37.39
20
17.8
0
VERTEX
8
Sketch
10
37.37
20
17.8
0
VERTEX
8
Sketch
10
37.37
20
17.76
0
VERTEX
8
Sketch
10
37.29
20
17.66
0
VERTEX
8
Sketch
10
37.25
20
17.58
0
VERTEX
8
Sketch
10
37.13
20
17.42
0
VERTEX
8
Sketch
10
36.99
20
17.28
0
VERTEX
8
Sketch
10
36.99
20
17.26
0
VERTEX
8
Sketch
10
36.97
20
17.26
0
VERTEX
8
Sketch
10
36.95
20
17.2
0
VERTEX
8
Sketch
10
36.93
20
17.2
0
VERTEX
8
Sketch
10
36.91
20
17.12
0
VERTEX
8
Sketch
10
36.89
20
17.12
0
VERTEX
8
Sketch
10
36.89
20
17.1
0
VERTEX
8
Sketch
10
36.81
20
16.98
0
VERTEX
8
Sketch
10
36.77
20
16.88
0
VERTEX
8
Sketch
10
36.75
20
16.88
0
VERTEX
8
Sketch
10
36.69
20
16.74
0
VERTEX
8
Sketch
10
36.65
20
16.7
0
SEQEND
0
POLYLINE
66
1
8
Sketch
62
0
0
VERTEX
8
Sketch
10
38.65
20
18.02
0
VERTEX
8
Sketch
10
38.63
20
18.02
0
VERTEX
8
Sketch
10
38.63
20
18.04
0
VERTEX
8
Sketch
10
38.57
20
18.06
0
VERTEX
8
Sketch
10
38.57
20
18.08
0
VERTEX
8
Sketch
10
38.53
20
18.08
0
VERTEX
8
Sketch
10
38.49
20
18.12
0
VERTEX
8
Sketch
10
38.49
20
18.16
0
VERTEX
8
Sketch
10
38.31
20
18.34
0
VERTEX
8
Sketch
10
38.19
20
18.56
0
VERTEX
8
Sketch
10
38.17
20
18.66
0
VERTEX
8
Sketch
10
38.17
20
18.7
0
VERTEX
8
Sketch
10
38.03
20
18.84
0
VERTEX
8
Sketch
10
37.97
20
18.86
0
VERTEX
8
Sketch
10
37.97
20
18.88
0
VERTEX
8
Sketch
10
37.93
20
18.88
0
VERTEX
8
Sketch
10
37.93
20
18.9
0
VERTEX
8
Sketch
10
37.89
20
18.9
0
SEQEND
0
POLYLINE
66
1
8
Sketch
62
0
0
VERTEX
8
Sketch
10
39.65
20
19.66
0
VERTEX
8
Sketch
10
39.63
20
19.66
0
VERTEX
8
Sketch
10
39.57
20
19.54
0
VERTEX
8
Sketch
10
39.57
20
19.46
0
VERTEX
8
Sketch
10
39.41
20
18.96
0
VERTEX
8
Sketch
10
39.33
20
18.8
0
VERTEX
8
Sketch
10
39.33
20
18.78
0
VERTEX
8
Sketch
10
39.31
20
18.78
0
VERTEX
8
Sketch
10
39.31
20
18.72
0
VERTEX
8
Sketch
10
39.29
20
18.72
0
VERTEX
8
Sketch
10
39.29
20
18.66
0
VERTEX
8
Sketch
10
39.25
20
18.62
0
VERTEX
8
Sketch
10
39.25
20
18.58
0
VERTEX
8
Sketch
10
39.21
20
18.56
0
VERTEX
8
Sketch
10
39.21
20
18.52
0
VERTEX
8
Sketch
10
39.13
20
18.36
0
VERTEX
8
Sketch
10
39.07
20
18.34
0
VERTEX
8
Sketch
10
39.07
20
18.3
0
VERTEX
8
Sketch
10
39.03
20
18.28
0
VERTEX
8
Sketch
10
39.01
20
18.24
0
VERTEX
8
Sketch
10
38.93
20
18.16
0
VERTEX
8
Sketch
10
38.87
20
18.12
0
VERTEX
8
Sketch
10
38.77
20
18.08
0
VERTEX
8
Sketch
10
38.73
20
18.02
0
VERTEX
8
Sketch
10
38.69
20
18.02
0
VERTEX
8
Sketch
10
38.69
20
18
0
VERTEX
8
Sketch
10
38.67
20
18
0
VERTEX
8
Sketch
10
38.67
20
17.96
0
SEQEND
0
POLYLINE
66
1
8
Sketch
62
0
0
VERTEX
8
Sketch
10
38.35
20
20.26
0
VERTEX
8
Sketch
10
38.35
20
19.98
0
VERTEX
8
Sketch
10
38.33
20
19.92
0
VERTEX
8
Sketch
10
38.33
20
19.74
0
VERTEX
8
Sketch
10
38.29
20
19.62
0
VERTEX
8
Sketch
10
38.29
20
19.46
0
VERTEX
8
Sketch
10
38.25
20
19.42
0
VERTEX
8
Sketch
10
38.21
20
19.3
0
VERTEX
8
Sketch
10
38.19
20
19.3
0
VERTEX
8
Sketch
10
38.15
20
19.22
0
VERTEX
8
Sketch
10
38.11
20
19.22
0
VERTEX
8
Sketch
10
38.11
20
19.2
0
VERTEX
8
Sketch
10
38.09
20
19.2
0
VERTEX
8
Sketch
10
38.09
20
19.16
0
VERTEX
8
Sketch
10
38.07
20
19.16
0
VERTEX
8
Sketch
10
38.07
20
19.14
0
VERTEX
8
Sketch
10
38.05
20
19.14
0
VERTEX
8
Sketch
10
38.05
20
19.1
0
VERTEX
8
Sketch
10
38.03
20
19.1
0
VERTEX
8
Sketch
10
38.03
20
19.04
0
VERTEX
8
Sketch
10
38.01
20
19.04
0
VERTEX
8
Sketch
10
38.01
20
19
0
SEQEND
0
POLYLINE
66
1
8
Sketch
62
0
0
VERTEX
8
Sketch
10
56.39
20
21.92
0
VERTEX
8
Sketch
10
56.47
20
22.02
0
VERTEX
8
Sketch
10
56.47
20
22.06
0
VERTEX
8
Sketch
10
56.13
20
22.06
0
VERTEX
8
Sketch
10
56.05
20
21.96
0
VERTEX
8
Sketch
10
56.05
20
21.82
0
VERTEX
8
Sketch
10
56.11
20
21.74
0
VERTEX
8
Sketch
10
56.15
20
21.74
0
VERTEX
8
Sketch
10
56.15
20
21.72
0
VERTEX
8
Sketch
10
56.25
20
21.7
0
VERTEX
8
Sketch
10
56.31
20
21.7
0
VERTEX
8
Sketch
10
56.55
20
21.8
0
VERTEX
8
Sketch
10
56.67
20
21.92
0
VERTEX
8
Sketch
10
56.67
20
21.96
0
VERTEX
8
Sketch
10
56.57
20
21.96
0
VERTEX
8
Sketch
10
56.51
20
21.98
0
SEQEND
0
POLYLINE
66
1
8
Sketch
62
0
0
VERTEX
8
Sketch
10
56.11
20
22.58
0
VERTEX
8
Sketch
10
56.11
20
22.92
0
VERTEX
8
Sketch
10
56.23
20
23.06
0
VERTEX
8
Sketch
10
56.31
20
23.06
0
VERTEX
8
Sketch
10
56.31
20
23.08
0
VERTEX
8
Sketch
10
56.39
20
23.1
0
VERTEX
8
Sketch
10
56.43
20
23.1
0
VERTEX
8
Sketch
10
56.49
20
23.12
0
VERTEX
8
Sketch
10
56.57
20
23.12
0
VERTEX
8
Sketch
10
56.63
20
23.08
0
VERTEX
8
Sketch
10
56.67
20
23.08
0
VERTEX
8
Sketch
10
56.81
20
22.94
0
VERTEX
8
Sketch
10
56.81
20
22.76
0
VERTEX
8
Sketch
10
56.75
20
22.7
0
VERTEX
8
Sketch
10
56.63
20
22.62
0
VERTEX
8
Sketch
10
56.59
20
22.62
0
VERTEX
8
Sketch
10
56.45
20
22.56
0
VERTEX
8
Sketch
10
56.41
20
22.56
0
VERTEX
8
Sketch
10
56.41
20
22.54
0
VERTEX
8
Sketch
10
56.37
20
22.52
0
VERTEX
8
Sketch
10
56.35
20
22.46
0
VERTEX
8
Sketch
10
56.35
20
22.42
0
VERTEX
8
Sketch
10
56.37
20
22.4
0
SEQEND
0
POLYLINE
66
1
8
Sketch
62
0
0
VERTEX
8
Sketch
10
55.55
20
22.24
0
VERTEX
8
Sketch
10
55.55
20
22.24
0
VERTEX
8
Sketch
10
55.55
20
22.22
0
VERTEX
8
Sketch
10
55.53
20
22.22
0
VERTEX
8
Sketch
10
55.53
20
22.2
0
VERTEX
8
Sketch
10
55.47
20
22.2
0
VERTEX
8
Sketch
10
55.47
20
22.16
0
VERTEX
8
Sketch
10
55.41
20
22.16
0
VERTEX
8
Sketch
10
55.27
20
22.1
0
VERTEX
8
Sketch
10
55.25
20
22.06
0
VERTEX
8
Sketch
10
55.17
20
22.04
0
VERTEX
8
Sketch
10
54.95
20
21.92
0
VERTEX
8
Sketch
10
54.89
20
21.86
0
VERTEX
8
Sketch
10
54.85
20
21.84
0
VERTEX
8
Sketch
10
54.79
20
21.8
0
VERTEX
8
Sketch
10
54.77
20
21.8
0
SEQEND
0
POLYLINE
66
1
8
Sketch
62
0
0
VERTEX
8
Sketch
10
55.51
20
22.22
0
VERTEX
8
Sketch
10
55.55
20
22.22
0
VERTEX
8
Sketch
10
55.55
20
22.24
0
SEQEND
0
POLYLINE
66
1
8
Sketch
62
0
0
VERTEX
8
Sketch
10
55.67
20
22.28
0
VERTEX
8
Sketch
10
55.67
20
22.24
0
VERTEX
8
Sketch
10
55.61
20
22.2
0
VERTEX
8
Sketch
10
55.59
20
22.2
0
VERTEX
8
Sketch
10
55.59
20
22.16
0
VERTEX
8
Sketch
10
55.51
20
22.04
0
VERTEX
8
Sketch
10
55.51
20
22
0
VERTEX
8
Sketch
10
55.49
20
22
0
VERTEX
8
Sketch
10
55.49
20
21.92
0
VERTEX
8
Sketch
10
55.47
20
21.86
0
VERTEX
8
Sketch
10
55.45
20
21.86
0
VERTEX
8
Sketch
10
55.45
20
21.82
0
VERTEX
8
Sketch
10
55.43
20
21.76
0
VERTEX
8
Sketch
10
55.43
20
21.62
0
VERTEX
8
Sketch
10
55.41
20
21.62
0
VERTEX
8
Sketch
10
55.41
20
21.6
0
VERTEX
8
Sketch
10
55.37
20
21.6
0
VERTEX
8
Sketch
10
55.35
20
21.52
0
VERTEX
8
Sketch
10
55.33
20
21.52
0
VERTEX
8
Sketch
10
55.29
20
21.4
0
VERTEX
8
Sketch
10
55.25
20
21.4
0
VERTEX
8
Sketch
10
55.25
20
21.38
0
SEQEND
0
POLYLINE
66
1
8
Sketch
62
0
0
VERTEX
8
Sketch
10
54.43
20
20.64
0
VERTEX
8
Sketch
10
54.49
20
20.74
0
VERTEX
8
Sketch
10
54.57
20
20.82
0
VERTEX
8
Sketch
10
54.83
20
21.14
0
VERTEX
8
Sketch
10
54.99
20
21.42
0
VERTEX
8
Sketch
10
55.01
20
21.42
0
VERTEX
8
Sketch
10
55.07
20
21.56
0
VERTEX
8
Sketch
10
55.11
20
21.58
0
VERTEX
8
Sketch
10
55.11
20
21.6
0
VERTEX
8
Sketch
10
55.15
20
21.62
0
VERTEX
8
Sketch
10
55.15
20
21.66
0
VERTEX
8
Sketch
10
55.19
20
21.66
0
VERTEX
8
Sketch
10
55.21
20
21.74
0
VERTEX
8
Sketch
10
55.47
20
21.98
0
VERTEX
8
Sketch
10
55.49
20
21.98
0
SEQEND
0
POLYLINE
66
1
8
Sketch
62
0
0
VERTEX
8
Sketch
10
48.83
20
15.5
0
VERTEX
8
Sketch
10
48.83
20
15.52
0
VERTEX
8
Sketch
10
48.85
20
15.52
0
VERTEX
8
Sketch
10
48.85
20
15.54
0
VERTEX
8
Sketch
10
48.97
20
15.56
0
VERTEX
8
Sketch
10
48.99
20
15.6
0
VERTEX
8
Sketch
10
49.19
20
15.74
0
VERTEX
8
Sketch
10
49.41
20
16.04
0
VERTEX
8
Sketch
10
49.51
20
16.14
0
VERTEX
8
Sketch
10
49.53
20
16.18
0
VERTEX
8
Sketch
10
49.59
20
16.22
0
VERTEX
8
Sketch
10
49.59
20
16.26
0
VERTEX
8
Sketch
10
49.61
20
16.26
0
VERTEX
8
Sketch
10
49.61
20
16.32
0
VERTEX
8
Sketch
10
49.65
20
16.32
0
VERTEX
8
Sketch
10
49.65
20
16.34
0
VERTEX
8
Sketch
10
49.69
20
16.36
0
VERTEX
8
Sketch
10
49.89
20
16.5
0
VERTEX
8
Sketch
10
49.91
20
16.5
0
VERTEX
8
Sketch
10
49.91
20
16.52
0
VERTEX
8
Sketch
10
49.93
20
16.52
0
VERTEX
8
Sketch
10
49.95
20
16.56
0
VERTEX
8
Sketch
10
49.99
20
16.58
0
VERTEX
8
Sketch
10
50.05
20
16.6
0
VERTEX
8
Sketch
10
50.13
20
16.62
0
VERTEX
8
Sketch
10
50.15
20
16.68
0
VERTEX
8
Sketch
10
50.17
20
16.68
0
VERTEX
8
Sketch
10
50.17
20
16.7
0
VERTEX
8
Sketch
10
50.27
20
16.74
0
VERTEX
8
Sketch
10
50.33
20
16.8
0
VERTEX
8
Sketch
10
50.41
20
16.82
0
VERTEX
8
Sketch
10
50.51
20
16.9
0
VERTEX
8
Sketch
10
50.53
20
16.9
0
VERTEX
8
Sketch
10
50.53
20
16.94
0
VERTEX
8
Sketch
10
50.55
20
16.94
0
VERTEX
8
Sketch
10
50.57
20
16.98
0
VERTEX
8
Sketch
10
50.59
20
16.98
0
VERTEX
8
Sketch
10
50.59
20
17.04
0
VERTEX
8
Sketch
10
50.67
20
17.12
0
VERTEX
8
Sketch
10
50.67
20
17.14
0
VERTEX
8
Sketch
10
50.69
20
17.14
0
VERTEX
8
Sketch
10
50.73
20
17.26
0
VERTEX
8
Sketch
10
50.75
20
17.26
0
VERTEX
8
Sketch
10
50.75
20
17.3
0
VERTEX
8
Sketch
10
50.77
20
17.3
0
VERTEX
8
Sketch
10
50.77
20
17.34
0
VERTEX
8
Sketch
10
50.79
20
17.34
0
VERTEX
8
Sketch
10
50.79
20
17.38
0
VERTEX
8
Sketch
10
50.83
20
17.42
0
VERTEX
8
Sketch
10
50.85
20
17.42
0
VERTEX
8
Sketch
10
50.89
20
17.5
0
VERTEX
8
Sketch
10
50.91
20
17.5
0
VERTEX
8
Sketch
10
50.91
20
17.58
0
VERTEX
8
Sketch
10
50.97
20
17.64
0
VERTEX
8
Sketch
10
50.97
20
17.68
0
VERTEX
8
Sketch
10
51.01
20
17.7
0
VERTEX
8
Sketch
10
51.03
20
17.78
0
VERTEX
8
Sketch
10
51.07
20
17.78
0
VERTEX
8
Sketch
10
51.07
20
17.84
0
VERTEX
8
Sketch
10
51.09
20
17.84
0
VERTEX
8
Sketch
10
51.13
20
17.96
0
VERTEX
8
Sketch
10
51.17
20
18
0
VERTEX
8
Sketch
10
51.17
20
18.04
0
VERTEX
8
Sketch
10
51.19
20
18.04
0
VERTEX
8
Sketch
10
51.23
20
18.08
0
VERTEX
8
Sketch
10
51.27
20
18.08
0
VERTEX
8
Sketch
10
51.27
20
18.1
0
VERTEX
8
Sketch
10
51.33
20
18.1
0
VERTEX
8
Sketch
10
51.35
20
18.16
0
VERTEX
8
Sketch
10
51.39
20
18.16
0
VERTEX
8
Sketch
10
51.41
20
18.22
0
VERTEX
8
Sketch
10
51.45
20
18.24
0
VERTEX
8
Sketch
10
51.47
20
18.3
0
VERTEX
8
Sketch
10
51.55
20
18.36
0
VERTEX
8
Sketch
10
51.57
20
18.36
0
VERTEX
8
Sketch
10
51.57
20
18.4
0
VERTEX
8
Sketch
10
51.59
20
18.4
0
VERTEX
8
Sketch
10
51.61
20
18.46
0
VERTEX
8
Sketch
10
51.63
20
18.46
0
VERTEX
8
Sketch
10
51.63
20
18.48
0
VERTEX
8
Sketch
10
51.65
20
18.48
0
VERTEX
8
Sketch
10
51.67
20
18.54
0
VERTEX
8
Sketch
10
51.71
20
18.54
0
VERTEX
8
Sketch
10
51.73
20
18.6
0
VERTEX
8
Sketch
10
51.81
20
18.68
0
VERTEX
8
Sketch
10
51.81
20
18.7
0
VERTEX
8
Sketch
10
51.83
20
18.7
0
VERTEX
8
Sketch
10
51.83
20
18.74
0
VERTEX
8
Sketch
10
51.85
20
18.74
0
VERTEX
8
Sketch
10
51.85
20
18.76
0
VERTEX
8
Sketch
10
51.87
20
18.76
0
VERTEX
8
Sketch
10
51.87
20
18.8
0
VERTEX
8
Sketch
10
51.93
20
18.82
0
VERTEX
8
Sketch
10
51.95
20
18.86
0
VERTEX
8
Sketch
10
51.97
20
18.86
0
VERTEX
8
Sketch
10
51.97
20
18.88
0
VERTEX
8
Sketch
10
51.99
20
18.88
0
VERTEX
8
Sketch
10
52.05
20
18.98
0
VERTEX
8
Sketch
10
52.09
20
18.98
0
VERTEX
8
Sketch
10
52.11
20
19.04
0
VERTEX
8
Sketch
10
52.31
20
19.26
0
VERTEX
8
Sketch
10
52.33
20
19.32
0
VERTEX
8
Sketch
10
52.37
20
19.34
0
VERTEX
8
Sketch
10
52.41
20
19.42
0
VERTEX
8
Sketch
10
52.45
20
19.46
0
VERTEX
8
Sketch
10
52.45
20
19.5
0
VERTEX
8
Sketch
10
52.47
20
19.5
0
VERTEX
8
Sketch
10
52.53
20
19.68
0
VERTEX
8
Sketch
10
52.63
20
19.76
0
VERTEX
8
Sketch
10
52.63
20
19.8
0
VERTEX
8
Sketch
10
52.67
20
19.8
0
VERTEX
8
Sketch
10
52.99
20
20.12
0
VERTEX
8
Sketch
10
52.99
20
20.16
0
VERTEX
8
Sketch
10
53.03
20
20.16
0
VERTEX
8
Sketch
10
53.21
20
20.34
0
VERTEX
8
Sketch
10
53.25
20
20.34
0
VERTEX
8
Sketch
10
53.27
20
20.38
0
VERTEX
8
Sketch
10
53.35
20
20.4
0
VERTEX
8
Sketch
10
53.35
20
20.42
0
VERTEX
8
Sketch
10
53.39
20
20.44
0
VERTEX
8
Sketch
10
53.51
20
20.52
0
VERTEX
8
Sketch
10
53.51
20
20.54
0
VERTEX
8
Sketch
10
53.53
20
20.54
0
VERTEX
8
Sketch
10
53.59
20
20.6
0
VERTEX
8
Sketch
10
53.63
20
20.6
0
VERTEX
8
Sketch
10
53.73
20
20.7
0
VERTEX
8
Sketch
10
53.77
20
20.72
0
VERTEX
8
Sketch
10
53.83
20
20.82
0
VERTEX
8
Sketch
10
53.87
20
20.82
0
VERTEX
8
Sketch
10
53.87
20
20.86
0
VERTEX
8
Sketch
10
53.89
20
20.86
0
VERTEX
8
Sketch
10
53.89
20
20.88
0
VERTEX
8
Sketch
10
53.93
20
20.88
0
VERTEX
8
Sketch
10
53.95
20
20.92
0
VERTEX
8
Sketch
10
53.97
20
20.92
0
VERTEX
8
Sketch
10
53.97
20
20.94
0
VERTEX
8
Sketch
10
54.01
20
20.94
0
VERTEX
8
Sketch
10
54.01
20
20.96
0
VERTEX
8
Sketch
10
54.05
20
20.98
0
VERTEX
8
Sketch
10
54.13
20
21.02
0
VERTEX
8
Sketch
10
54.15
20
21.06
0
VERTEX
8
Sketch
10
54.23
20
21.14
0
SEQEND
0
POLYLINE
66
1
8
Sketch
62
0
0
VERTEX
8
Sketch
10
47.57
20
14.86
0
VERTEX
8
Sketch
10
47.73
20
14.86
0
VERTEX
8
Sketch
10
47.77
20
14.84
0
VERTEX
8
Sketch
10
47.73
20
14.82
0
VERTEX
8
Sketch
10
47.97
20
14.74
0
VERTEX
8
Sketch
10
48.05
20
14.74
0
VERTEX
8
Sketch
10
48.21
20
14.7
0
VERTEX
8
Sketch
10
48.39
20
14.7
0
VERTEX
8
Sketch
10
48.43
20
14.68
0
VERTEX
8
Sketch
10
48.81
20
14.68
0
VERTEX
8
Sketch
10
48.97
20
14.72
0
VERTEX
8
Sketch
10
48.99
20
14.72
0
VERTEX
8
Sketch
10
48.99
20
14.74
0
VERTEX
8
Sketch
10
49.07
20
14.74
0
VERTEX
8
Sketch
10
49.41
20
14.94
0
VERTEX
8
Sketch
10
49.41
20
14.96
0
VERTEX
8
Sketch
10
49.53
20
15.02
0
VERTEX
8
Sketch
10
49.53
20
15.04
0
VERTEX
8
Sketch
10
49.55
20
15.04
0
VERTEX
8
Sketch
10
49.55
20
15.06
0
VERTEX
8
Sketch
10
49.57
20
15.06
0
VERTEX
8
Sketch
10
49.57
20
15.08
0
VERTEX
8
Sketch
10
49.59
20
15.08
0
VERTEX
8
Sketch
10
49.63
20
15.18
0
VERTEX
8
Sketch
10
49.65
20
15.18
0
VERTEX
8
Sketch
10
49.71
20
15.24
0
VERTEX
8
Sketch
10
49.73
20
15.24
0
VERTEX
8
Sketch
10
49.73
20
15.26
0
VERTEX
8
Sketch
10
49.77
20
15.26
0
VERTEX
8
Sketch
10
49.87
20
15.34
0
VERTEX
8
Sketch
10
49.93
20
15.36
0
VERTEX
8
Sketch
10
49.95
20
15.4
0
VERTEX
8
Sketch
10
49.99
20
15.4
0
VERTEX
8
Sketch
10
50.01
20
15.44
0
VERTEX
8
Sketch
10
50.07
20
15.46
0
VERTEX
8
Sketch
10
50.07
20
15.48
0
VERTEX
8
Sketch
10
50.15
20
15.52
0
VERTEX
8
Sketch
10
50.21
20
15.58
0
VERTEX
8
Sketch
10
50.33
20
15.7
0
VERTEX
8
Sketch
10
50.35
20
15.74
0
VERTEX
8
Sketch
10
50.41
20
15.82
0
VERTEX
8
Sketch
10
50.47
20
15.84
0
VERTEX
8
Sketch
10
50.51
20
15.88
0
VERTEX
8
Sketch
10
50.51
20
15.92
0
VERTEX
8
Sketch
10
50.55
20
15.92
0
VERTEX
8
Sketch
10
50.67
20
16.08
0
VERTEX
8
Sketch
10
50.71
20
16.1
0
VERTEX
8
Sketch
10
50.77
20
16.22
0
VERTEX
8
Sketch
10
50.83
20
16.26
0
VERTEX
8
Sketch
10
50.83
20
16.3
0
VERTEX
8
Sketch
10
50.87
20
16.3
0
VERTEX
8
Sketch
10
50.87
20
16.32
0
VERTEX
8
Sketch
10
50.91
20
16.32
0
VERTEX
8
Sketch
10
50.91
20
16.36
0
VERTEX
8
Sketch
10
51.17
20
16.56
0
VERTEX
8
Sketch
10
51.21
20
16.64
0
VERTEX
8
Sketch
10
51.23
20
16.64
0
VERTEX
8
Sketch
10
51.25
20
16.7
0
VERTEX
8
Sketch
10
51.37
20
16.76
0
VERTEX
8
Sketch
10
51.37
20
16.78
0
VERTEX
8
Sketch
10
51.41
20
16.78
0
VERTEX
8
Sketch
10
51.47
20
16.8
0
VERTEX
8
Sketch
10
51.53
20
16.86
0
VERTEX
8
Sketch
10
51.77
20
17.02
0
VERTEX
8
Sketch
10
51.85
20
17.1
0
VERTEX
8
Sketch
10
51.89
20
17.1
0
VERTEX
8
Sketch
10
52.07
20
17.3
0
VERTEX
8
Sketch
10
52.09
20
17.34
0
VERTEX
8
Sketch
10
52.13
20
17.34
0
VERTEX
8
Sketch
10
52.25
20
17.46
0
VERTEX
8
Sketch
10
52.25
20
17.52
0
VERTEX
8
Sketch
10
52.29
20
17.52
0
VERTEX
8
Sketch
10
52.41
20
17.68
0
VERTEX
8
Sketch
10
52.57
20
17.8
0
VERTEX
8
Sketch
10
52.69
20
17.98
0
VERTEX
8
Sketch
10
52.71
20
17.98
0
VERTEX
8
Sketch
10
52.81
20
18.18
0
VERTEX
8
Sketch
10
52.83
20
18.26
0
VERTEX
8
Sketch
10
52.89
20
18.32
0
VERTEX
8
Sketch
10
52.97
20
18.46
0
VERTEX
8
Sketch
10
53.01
20
18.5
0
VERTEX
8
Sketch
10
53.01
20
18.54
0
VERTEX
8
Sketch
10
53.07
20
18.64
0
VERTEX
8
Sketch
10
53.11
20
18.66
0
VERTEX
8
Sketch
10
53.11
20
18.7
0
VERTEX
8
Sketch
10
53.15
20
18.78
0
VERTEX
8
Sketch
10
53.15
20
18.82
0
VERTEX
8
Sketch
10
53.19
20
18.82
0
VERTEX
8
Sketch
10
53.23
20
18.9
0
VERTEX
8
Sketch
10
53.31
20
19
0
VERTEX
8
Sketch
10
53.37
20
19.1
0
VERTEX
8
Sketch
10
53.39
20
19.1
0
VERTEX
8
Sketch
10
53.39
20
19.14
0
VERTEX
8
Sketch
10
53.43
20
19.16
0
VERTEX
8
Sketch
10
53.51
20
19.24
0
VERTEX
8
Sketch
10
53.51
20
19.3
0
VERTEX
8
Sketch
10
53.63
20
19.42
0
VERTEX
8
Sketch
10
53.65
20
19.42
0
VERTEX
8
Sketch
10
53.65
20
19.46
0
VERTEX
8
Sketch
10
53.69
20
19.5
0
VERTEX
8
Sketch
10
53.69
20
19.54
0
VERTEX
8
Sketch
10
53.73
20
19.54
0
VERTEX
8
Sketch
10
53.73
20
19.58
0
VERTEX
8
Sketch
10
53.79
20
19.64
0
VERTEX
8
Sketch
10
53.81
20
19.68
0
VERTEX
8
Sketch
10
53.89
20
19.78
0
VERTEX
8
Sketch
10
53.99
20
19.92
0
VERTEX
8
Sketch
10
54.07
20
20.12
0
VERTEX
8
Sketch
10
54.11
20
20.12
0
VERTEX
8
Sketch
10
54.13
20
20.16
0
VERTEX
8
Sketch
10
54.21
20
20.2
0
VERTEX
8
Sketch
10
54.21
20
20.22
0
VERTEX
8
Sketch
10
54.23
20
20.22
0
VERTEX
8
Sketch
10
54.23
20
20.24
0
VERTEX
8
Sketch
10
54.25
20
20.24
0
VERTEX
8
Sketch
10
54.27
20
20.28
0
VERTEX
8
Sketch
10
54.31
20
20.3
0
VERTEX
8
Sketch
10
54.41
20
20.38
0
VERTEX
8
Sketch
10
54.45
20
20.38
0
VERTEX
8
Sketch
10
54.49
20
20.44
0
VERTEX
8
Sketch
10
54.53
20
20.44
0
VERTEX
8
Sketch
10
54.59
20
20.5
0
SEQEND
0
POLYLINE
66
1
8
Sketch
62
0
0
VERTEX
8
Sketch
10
42.57
20
20.4
0
VERTEX
8
Sketch
10
42.65
20
20.4
0
VERTEX
8
Sketch
10
42.65
20
20.38
0
VERTEX
8
Sketch
10
42.67
20
20.38
0
VERTEX
8
Sketch
10
42.71
20
20.3
0
VERTEX
8
Sketch
10
42.89
20
20.14
0
VERTEX
8
Sketch
10
42.91
20
20.14
0
VERTEX
8
Sketch
10
42.99
20
20.04
0
VERTEX
8
Sketch
10
43.01
20
20
0
VERTEX
8
Sketch
10
43.09
20
19.88
0
VERTEX
8
Sketch
10
43.09
20
19.84
0
VERTEX
8
Sketch
10
43.17
20
19.72
0
VERTEX
8
Sketch
10
43.19
20
19.72
0
VERTEX
8
Sketch
10
43.19
20
19.68
0
VERTEX
8
Sketch
10
43.23
20
19.66
0
VERTEX
8
Sketch
10
43.23
20
19.58
0
VERTEX
8
Sketch
10
43.27
20
19.58
0
VERTEX
8
Sketch
10
43.37
20
19.38
0
VERTEX
8
Sketch
10
43.39
20
19.38
0
VERTEX
8
Sketch
10
43.39
20
19.34
0
VERTEX
8
Sketch
10
43.41
20
19.34
0
VERTEX
8
Sketch
10
43.41
20
19.3
0
VERTEX
8
Sketch
10
43.45
20
19.28
0
VERTEX
8
Sketch
10
43.45
20
19.22
0
VERTEX
8
Sketch
10
43.47
20
19.22
0
VERTEX
8
Sketch
10
43.47
20
19.18
0
VERTEX
8
Sketch
10
43.59
20
18.98
0
VERTEX
8
Sketch
10
43.67
20
18.86
0
VERTEX
8
Sketch
10
43.69
20
18.86
0
VERTEX
8
Sketch
10
43.69
20
18.82
0
VERTEX
8
Sketch
10
43.79
20
18.72
0
VERTEX
8
Sketch
10
43.81
20
18.68
0
VERTEX
8
Sketch
10
43.91
20
18.62
0
VERTEX
8
Sketch
10
44.25
20
18.26
0
VERTEX
8
Sketch
10
44.29
20
18.26
0
VERTEX
8
Sketch
10
44.35
20
18.12
0
VERTEX
8
Sketch
10
44.51
20
17.86
0
VERTEX
8
Sketch
10
44.61
20
17.76
0
VERTEX
8
Sketch
10
44.73
20
17.6
0
VERTEX
8
Sketch
10
44.73
20
17.56
0
VERTEX
8
Sketch
10
44.83
20
17.44
0
VERTEX
8
Sketch
10
44.83
20
17.42
0
VERTEX
8
Sketch
10
44.99
20
17.26
0
VERTEX
8
Sketch
10
45.03
20
17.18
0
VERTEX
8
Sketch
10
45.07
20
17.18
0
VERTEX
8
Sketch
10
45.07
20
17.14
0
VERTEX
8
Sketch
10
45.17
20
17.04
0
VERTEX
8
Sketch
10
45.21
20
16.96
0
VERTEX
8
Sketch
10
45.27
20
16.86
0
VERTEX
8
Sketch
10
45.31
20
16.84
0
VERTEX
8
Sketch
10
45.33
20
16.8
0
VERTEX
8
Sketch
10
45.39
20
16.74
0
VERTEX
8
Sketch
10
45.39
20
16.7
0
VERTEX
8
Sketch
10
45.41
20
16.7
0
VERTEX
8
Sketch
10
45.43
20
16.66
0
VERTEX
8
Sketch
10
45.49
20
16.56
0
VERTEX
8
Sketch
10
45.51
20
16.56
0
VERTEX
8
Sketch
10
45.51
20
16.54
0
VERTEX
8
Sketch
10
45.53
20
16.54
0
VERTEX
8
Sketch
10
45.53
20
16.52
0
VERTEX
8
Sketch
10
45.57
20
16.5
0
VERTEX
8
Sketch
10
45.57
20
16.48
0
VERTEX
8
Sketch
10
45.63
20
16.46
0
VERTEX
8
Sketch
10
45.63
20
16.44
0
VERTEX
8
Sketch
10
45.67
20
16.44
0
VERTEX
8
Sketch
10
45.67
20
16.42
0
VERTEX
8
Sketch
10
45.69
20
16.42
0
VERTEX
8
Sketch
10
45.73
20
16.38
0
VERTEX
8
Sketch
10
45.83
20
16.36
0
VERTEX
8
Sketch
10
45.83
20
16.32
0
VERTEX
8
Sketch
10
45.85
20
16.32
0
VERTEX
8
Sketch
10
45.85
20
16.3
0
VERTEX
8
Sketch
10
45.89
20
16.3
0
VERTEX
8
Sketch
10
45.89
20
16.28
0
VERTEX
8
Sketch
10
46.01
20
16.24
0
VERTEX
8
Sketch
10
46.01
20
16.22
0
VERTEX
8
Sketch
10
46.07
20
16.22
0
VERTEX
8
Sketch
10
46.27
20
16.12
0
VERTEX
8
Sketch
10
46.31
20
16.12
0
VERTEX
8
Sketch
10
46.31
20
16.1
0
VERTEX
8
Sketch
10
46.39
20
16.1
0
VERTEX
8
Sketch
10
46.47
20
16.06
0
VERTEX
8
Sketch
10
46.51
20
16.06
0
VERTEX
8
Sketch
10
46.67
20
15.98
0
VERTEX
8
Sketch
10
46.79
20
15.98
0
VERTEX
8
Sketch
10
46.91
20
15.92
0
VERTEX
8
Sketch
10
46.97
20
15.9
0
VERTEX
8
Sketch
10
46.97
20
15.88
0
VERTEX
8
Sketch
10
47.07
20
15.88
0
VERTEX
8
Sketch
10
47.07
20
15.86
0
VERTEX
8
Sketch
10
47.21
20
15.86
0
VERTEX
8
Sketch
10
47.37
20
15.78
0
VERTEX
8
Sketch
10
47.41
20
15.78
0
VERTEX
8
Sketch
10
47.59
20
15.7
0
VERTEX
8
Sketch
10
47.67
20
15.7
0
VERTEX
8
Sketch
10
47.81
20
15.62
0
VERTEX
8
Sketch
10
47.85
20
15.62
0
VERTEX
8
Sketch
10
47.85
20
15.6
0
VERTEX
8
Sketch
10
47.89
20
15.6
0
VERTEX
8
Sketch
10
47.91
20
15.56
0
VERTEX
8
Sketch
10
47.99
20
15.56
0
VERTEX
8
Sketch
10
48.05
20
15.54
0
VERTEX
8
Sketch
10
48.05
20
15.52
0
VERTEX
8
Sketch
10
48.07
20
15.52
0
VERTEX
8
Sketch
10
48.07
20
15.5
0
VERTEX
8
Sketch
10
48.09
20
15.5
0
VERTEX
8
Sketch
10
48.09
20
15.48
0
VERTEX
8
Sketch
10
48.13
20
15.48
0
VERTEX
8
Sketch
10
48.13
20
15.46
0
VERTEX
8
Sketch
10
48.25
20
15.46
0
VERTEX
8
Sketch
10
48.35
20
15.44
0
VERTEX
8
Sketch
10
48.85
20
15.44
0
VERTEX
8
Sketch
10
48.85
20
15.48
0
VERTEX
8
Sketch
10
48.91
20
15.48
0
VERTEX
8
Sketch
10
48.91
20
15.52
0
VERTEX
8
Sketch
10
48.89
20
15.52
0
SEQEND
0
POLYLINE
66
1
8
Sketch
62
0
0
VERTEX
8
Sketch
10
39.61
20
19.66
0
VERTEX
8
Sketch
10
39.81
20
19.66
0
VERTEX
8
Sketch
10
39.91
20
19.64
0
VERTEX
8
Sketch
10
40.01
20
19.62
0
VERTEX
8
Sketch
10
40.11
20
19.62
0
VERTEX
8
Sketch
10
40.19
20
19.6
0
VERTEX
8
Sketch
10
41.17
20
19.6
0
VERTEX
8
Sketch
10
41.27
20
19.62
0
VERTEX
8
Sketch
10
41.35
20
19.62
0
VERTEX
8
Sketch
10
41.45
20
19.64
0
VERTEX
8
Sketch
10
41.81
20
19.64
0
VERTEX
8
Sketch
10
41.81
20
19.66
0
VERTEX
8
Sketch
10
42.05
20
19.66
0
VERTEX
8
Sketch
10
42.05
20
19.68
0
VERTEX
8
Sketch
10
42.23
20
19.68
0
VERTEX
8
Sketch
10
42.23
20
19.66
0
VERTEX
8
Sketch
10
42.29
20
19.66
0
VERTEX
8
Sketch
10
42.29
20
19.64
0
VERTEX
8
Sketch
10
42.37
20
19.6
0
VERTEX
8
Sketch
10
42.51
20
19.5
0
VERTEX
8
Sketch
10
42.51
20
19.48
0
VERTEX
8
Sketch
10
42.57
20
19.46
0
VERTEX
8
Sketch
10
42.61
20
19.38
0
VERTEX
8
Sketch
10
42.65
20
19.34
0
VERTEX
8
Sketch
10
42.65
20
19.3
0
VERTEX
8
Sketch
10
42.69
20
19.3
0
VERTEX
8
Sketch
10
42.75
20
19.24
0
VERTEX
8
Sketch
10
42.81
20
19.14
0
VERTEX
8
Sketch
10
42.81
20
19.1
0
VERTEX
8
Sketch
10
42.85
20
19.1
0
VERTEX
8
Sketch
10
42.85
20
19.04
0
VERTEX
8
Sketch
10
42.91
20
18.98
0
VERTEX
8
Sketch
10
42.91
20
18.94
0
VERTEX
8
Sketch
10
42.99
20
18.82
0
VERTEX
8
Sketch
10
42.99
20
18.78
0
VERTEX
8
Sketch
10
43.01
20
18.78
0
VERTEX
8
Sketch
10
43.05
20
18.64
0
VERTEX
8
Sketch
10
43.09
20
18.52
0
VERTEX
8
Sketch
10
43.11
20
18.48
0
VERTEX
8
Sketch
10
43.13
20
18.44
0
VERTEX
8
Sketch
10
43.13
20
18.4
0
VERTEX
8
Sketch
10
43.15
20
18.4
0
VERTEX
8
Sketch
10
43.23
20
18.2
0
VERTEX
8
Sketch
10
43.23
20
18.16
0
VERTEX
8
Sketch
10
43.27
20
18.14
0
VERTEX
8
Sketch
10
43.29
20
18.06
0
VERTEX
8
Sketch
10
43.31
20
18.06
0
VERTEX
8
Sketch
10
43.31
20
18
0
VERTEX
8
Sketch
10
43.33
20
17.94
0
VERTEX
8
Sketch
10
43.33
20
17.92
0
VERTEX
8
Sketch
10
43.39
20
17.86
0
VERTEX
8
Sketch
10
43.39
20
17.82
0
VERTEX
8
Sketch
10
43.43
20
17.72
0
VERTEX
8
Sketch
10
43.55
20
17.52
0
VERTEX
8
Sketch
10
43.63
20
17.4
0
VERTEX
8
Sketch
10
43.63
20
17.36
0
VERTEX
8
Sketch
10
43.83
20
17.1
0
VERTEX
8
Sketch
10
43.83
20
17.06
0
VERTEX
8
Sketch
10
43.87
20
17.02
0
VERTEX
8
Sketch
10
43.95
20
16.88
0
VERTEX
8
Sketch
10
44.05
20
16.74
0
VERTEX
8
Sketch
10
44.07
20
16.74
0
VERTEX
8
Sketch
10
44.07
20
16.72
0
VERTEX
8
Sketch
10
44.15
20
16.66
0
VERTEX
8
Sketch
10
44.17
20
16.6
0
VERTEX
8
Sketch
10
44.21
20
16.6
0
VERTEX
8
Sketch
10
44.25
20
16.56
0
VERTEX
8
Sketch
10
44.31
20
16.52
0
VERTEX
8
Sketch
10
44.31
20
16.48
0
VERTEX
8
Sketch
10
44.57
20
16.28
0
VERTEX
8
Sketch
10
44.61
20
16.24
0
VERTEX
8
Sketch
10
44.69
20
16.2
0
VERTEX
8
Sketch
10
44.69
20
16.18
0
VERTEX
8
Sketch
10
44.71
20
16.18
0
VERTEX
8
Sketch
10
44.71
20
16.14
0
VERTEX
8
Sketch
10
44.77
20
16.12
0
VERTEX
8
Sketch
10
44.81
20
16.08
0
VERTEX
8
Sketch
10
44.81
20
16.04
0
VERTEX
8
Sketch
10
44.87
20
16.04
0
VERTEX
8
Sketch
10
44.89
20
16
0
VERTEX
8
Sketch
10
44.93
20
15.98
0
VERTEX
8
Sketch
10
44.95
20
15.94
0
VERTEX
8
Sketch
10
44.99
20
15.94
0
VERTEX
8
Sketch
10
44.99
20
15.9
0
VERTEX
8
Sketch
10
45.03
20
15.86
0
VERTEX
8
Sketch
10
45.05
20
15.86
0
VERTEX
8
Sketch
10
45.05
20
15.84
0
VERTEX
8
Sketch
10
45.09
20
15.84
0
VERTEX
8
Sketch
10
45.09
20
15.82
0
VERTEX
8
Sketch
10
45.13
20
15.82
0
VERTEX
8
Sketch
10
45.13
20
15.8
0
VERTEX
8
Sketch
10
45.23
20
15.76
0
VERTEX
8
Sketch
10
45.23
20
15.74
0
VERTEX
8
Sketch
10
45.33
20
15.72
0
VERTEX
8
Sketch
10
45.37
20
15.68
0
VERTEX
8
Sketch
10
45.45
20
15.66
0
VERTEX
8
Sketch
10
45.59
20
15.6
0
VERTEX
8
Sketch
10
45.69
20
15.58
0
VERTEX
8
Sketch
10
45.75
20
15.58
0
VERTEX
8
Sketch
10
45.87
20
15.52
0
VERTEX
8
Sketch
10
45.97
20
15.5
0
VERTEX
8
Sketch
10
46.01
20
15.46
0
VERTEX
8
Sketch
10
46.05
20
15.46
0
VERTEX
8
Sketch
10
46.07
20
15.42
0
VERTEX
8
Sketch
10
46.21
20
15.42
0
VERTEX
8
Sketch
10
46.49
20
15.32
0
VERTEX
8
Sketch
10
46.53
20
15.32
0
VERTEX
8
Sketch
10
46.67
20
15.22
0
VERTEX
8
Sketch
10
46.77
20
15.2
0
VERTEX
8
Sketch
10
46.77
20
15.16
0
VERTEX
8
Sketch
10
46.81
20
15.16
0
VERTEX
8
Sketch
10
46.89
20
15.12
0
VERTEX
8
Sketch
10
46.91
20
15.08
0
VERTEX
8
Sketch
10
46.95
20
15.04
0
VERTEX
8
Sketch
10
47.05
20
15.04
0
VERTEX
8
Sketch
10
47.09
20
15.02
0
VERTEX
8
Sketch
10
47.13
20
15.02
0
VERTEX
8
Sketch
10
47.25
20
14.94
0
VERTEX
8
Sketch
10
47.37
20
14.94
0
VERTEX
8
Sketch
10
47.45
20
14.9
0
VERTEX
8
Sketch
10
47.49
20
14.86
0
VERTEX
8
Sketch
10
47.53
20
14.84
0
VERTEX
8
Sketch
10
47.53
20
14.82
0
VERTEX
8
Sketch
10
47.49
20
14.82
0
VERTEX
8
Sketch
10
47.49
20
14.8
0
VERTEX
8
Sketch
10
47.45
20
14.8
0
SEQEND
0
POLYLINE
66
1
8
Sketch
62
0
0
VERTEX
8
Sketch
10
40.39
20
20.58
0
VERTEX
8
Sketch
10
40.45
20
20.58
0
VERTEX
8
Sketch
10
40.51
20
20.56
0
VERTEX
8
Sketch
10
40.51
20
20.54
0
VERTEX
8
Sketch
10
40.59
20
20.54
0
VERTEX
8
Sketch
10
40.59
20
20.52
0
VERTEX
8
Sketch
10
40.69
20
20.5
0
VERTEX
8
Sketch
10
40.69
20
20.48
0
VERTEX
8
Sketch
10
42.19
20
20.48
0
VERTEX
8
Sketch
10
42.25
20
20.46
0
VERTEX
8
Sketch
10
42.25
20
20.44
0
VERTEX
8
Sketch
10
42.43
20
20.44
0
VERTEX
8
Sketch
10
42.43
20
20.42
0
VERTEX
8
Sketch
10
42.47
20
20.42
0
VERTEX
8
Sketch
10
42.47
20
20.4
0
VERTEX
8
Sketch
10
42.51
20
20.4
0
VERTEX
8
Sketch
10
42.57
20
20.38
0
VERTEX
8
Sketch
10
42.57
20
20.36
0
SEQEND
0
POLYLINE
66
1
8
Sketch
62
0
0
VERTEX
8
Sketch
10
36.29
20
21.3
0
VERTEX
8
Sketch
10
36.27
20
21.3
0
VERTEX
8
Sketch
10
36.27
20
21.28
0
VERTEX
8
Sketch
10
36.23
20
21.28
0
VERTEX
8
Sketch
10
36.17
20
21.26
0
VERTEX
8
Sketch
10
36.13
20
21.26
0
VERTEX
8
Sketch
10
36.05
20
21.22
0
VERTEX
8
Sketch
10
35.99
20
21.2
0
VERTEX
8
Sketch
10
35.99
20
21.18
0
VERTEX
8
Sketch
10
35.97
20
21.18
0
VERTEX
8
Sketch
10
35.97
20
21.16
0
SEQEND
0
POLYLINE
66
1
8
Sketch
62
0
0
VERTEX
8
Sketch
10
36.23
20
21.24
0
VERTEX
8
Sketch
10
36.19
20
21.22
0
VERTEX
8
Sketch
10
36.17
20
21.18
0
VERTEX
8
Sketch
10
36.11
20
21.02
0
VERTEX
8
Sketch
10
36.09
20
21.02
0
VERTEX
8
Sketch
10
36.09
20
20.96
0
VERTEX
8
Sketch
10
36.05
20
20.92
0
VERTEX
8
Sketch
10
36.05
20
20.74
0
VERTEX
8
Sketch
10
36.03
20
20.74
0
VERTEX
8
Sketch
10
36.03
20
20.74
0
SEQEND
0
POLYLINE
66
1
8
Sketch
62
0
0
VERTEX
8
Sketch
10
35.59
20
20.42
0
VERTEX
8
Sketch
10
35.51
20
20.42
0
VERTEX
8
Sketch
10
35.45
20
20.4
0
VERTEX
8
Sketch
10
35.27
20
20.32
0
VERTEX
8
Sketch
10
35.27
20
20.3
0
VERTEX
8
Sketch
10
35.21
20
20.3
0
VERTEX
8
Sketch
10
35.15
20
20.24
0
VERTEX
8
Sketch
10
35.05
20
20.2
0
SEQEND
0
POLYLINE
66
1
8
Sketch
62
0
0
VERTEX
8
Sketch
10
35.73
20
20.42
0
VERTEX
8
Sketch
10
35.65
20
20.4
0
VERTEX
8
Sketch
10
35.59
20
20.36
0
VERTEX
8
Sketch
10
35.57
20
20.36
0
VERTEX
8
Sketch
10
35.57
20
20.32
0
VERTEX
8
Sketch
10
35.55
20
20.32
0
VERTEX
8
Sketch
10
35.55
20
20.3
0
VERTEX
8
Sketch
10
35.49
20
20.22
0
VERTEX
8
Sketch
10
35.49
20
20.12
0
VERTEX
8
Sketch
10
35.47
20
20.06
0
VERTEX
8
Sketch
10
35.47
20
20
0
VERTEX
8
Sketch
10
35.41
20
19.92
0
SEQEND
0
POLYLINE
66
1
8
Sketch
62
0
0
VERTEX
8
Sketch
10
37.01
20
22.14
0
VERTEX
8
Sketch
10
37.05
20
22.14
0
VERTEX
8
Sketch
10
37.13
20
22.08
0
VERTEX
8
Sketch
10
37.17
20
22.08
0
VERTEX
8
Sketch
10
37.19
20
22.04
0
VERTEX
8
Sketch
10
37.27
20
22.02
0
VERTEX
8
Sketch
10
37.39
20
21.94
0
VERTEX
8
Sketch
10
37.41
20
21.9
0
VERTEX
8
Sketch
10
37.49
20
21.88
0
VERTEX
8
Sketch
10
37.51
20
21.84
0
VERTEX
8
Sketch
10
37.57
20
21.82
0
VERTEX
8
Sketch
10
37.65
20
21.74
0
VERTEX
8
Sketch
10
37.75
20
21.58
0
VERTEX
8
Sketch
10
37.75
20
21.52
0
VERTEX
8
Sketch
10
37.83
20
21.28
0
VERTEX
8
Sketch
10
37.87
20
21.22
0
VERTEX
8
Sketch
10
37.87
20
21.14
0
VERTEX
8
Sketch
10
37.95
20
21
0
VERTEX
8
Sketch
10
37.99
20
20.98
0
VERTEX
8
Sketch
10
38.03
20
20.88
0
VERTEX
8
Sketch
10
38.05
20
20.88
0
VERTEX
8
Sketch
10
38.19
20
20.72
0
VERTEX
8
Sketch
10
38.25
20
20.58
0
VERTEX
8
Sketch
10
38.25
20
20.44
0
VERTEX
8
Sketch
10
38.29
20
20.4
0
VERTEX
8
Sketch
10
38.29
20
20.38
0
VERTEX
8
Sketch
10
38.31
20
20.38
0
VERTEX
8
Sketch
10
38.33
20
20.3
0
VERTEX
8
Sketch
10
38.35
20
20.3
0
VERTEX
8
Sketch
10
38.35
20
20.28
0
VERTEX
8
Sketch
10
38.37
20
20.28
0
VERTEX
8
Sketch
10
38.37
20
20.24
0
VERTEX
8
Sketch
10
38.41
20
20.24
0
SEQEND
0
POLYLINE
66
1
8
Sketch
62
0
0
VERTEX
8
Sketch
10
35.27
20
20.36
0
VERTEX
8
Sketch
10
35.29
20
20.36
0
VERTEX
8
Sketch
10
35.29
20
20.4
0
VERTEX
8
Sketch
10
35.37
20
20.5
0
VERTEX
8
Sketch
10
35.39
20
20.58
0
VERTEX
8
Sketch
10
35.43
20
20.58
0
VERTEX
8
Sketch
10
35.43
20
20.62
0
VERTEX
8
Sketch
10
35.47
20
20.68
0
VERTEX
8
Sketch
10
35.47
20
20.72
0
VERTEX
8
Sketch
10
35.49
20
20.72
0
VERTEX
8
Sketch
10
35.49
20
20.76
0
VERTEX
8
Sketch
10
35.51
20
20.76
0
VERTEX
8
Sketch
10
35.53
20
20.8
0
VERTEX
8
Sketch
10
35.55
20
20.8
0
VERTEX
8
Sketch
10
35.55
20
20.82
0
VERTEX
8
Sketch
10
35.57
20
20.82
0
VERTEX
8
Sketch
10
35.59
20
20.86
0
VERTEX
8
Sketch
10
35.61
20
20.86
0
VERTEX
8
Sketch
10
35.61
20
20.88
0
VERTEX
8
Sketch
10
35.63
20
20.88
0
VERTEX
8
Sketch
10
35.63
20
20.92
0
VERTEX
8
Sketch
10
35.67
20
20.94
0
VERTEX
8
Sketch
10
35.81
20
21.1
0
VERTEX
8
Sketch
10
35.81
20
21.12
0
VERTEX
8
Sketch
10
35.83
20
21.12
0
VERTEX
8
Sketch
10
35.85
20
21.16
0
VERTEX
8
Sketch
10
35.89
20
21.2
0
VERTEX
8
Sketch
10
35.89
20
21.22
0
VERTEX
8
Sketch
10
35.91
20
21.22
0
VERTEX
8
Sketch
10
35.91
20
21.24
0
VERTEX
8
Sketch
10
35.93
20
21.24
0
VERTEX
8
Sketch
10
35.95
20
21.3
0
VERTEX
8
Sketch
10
35.97
20
21.3
0
VERTEX
8
Sketch
10
35.97
20
21.32
0
VERTEX
8
Sketch
10
35.99
20
21.32
0
VERTEX
8
Sketch
10
36.01
20
21.36
0
VERTEX
8
Sketch
10
36.03
20
21.42
0
VERTEX
8
Sketch
10
36.07
20
21.44
0
VERTEX
8
Sketch
10
36.13
20
21.54
0
VERTEX
8
Sketch
10
36.15
20
21.54
0
VERTEX
8
Sketch
10
36.15
20
21.58
0
VERTEX
8
Sketch
10
36.17
20
21.58
0
VERTEX
8
Sketch
10
36.23
20
21.7
0
VERTEX
8
Sketch
10
36.33
20
21.88
0
VERTEX
8
Sketch
10
36.37
20
21.98
0
VERTEX
8
Sketch
10
36.39
20
22.02
0
VERTEX
8
Sketch
10
36.39
20
22.06
0
VERTEX
8
Sketch
10
36.41
20
22.06
0
VERTEX
8
Sketch
10
36.41
20
22.1
0
VERTEX
8
Sketch
10
36.45
20
22.14
0
VERTEX
8
Sketch
10
36.45
20
22.2
0
VERTEX
8
Sketch
10
36.47
20
22.2
0
VERTEX
8
Sketch
10
36.47
20
22.24
0
VERTEX
8
Sketch
10
36.49
20
22.24
0
VERTEX
8
Sketch
10
36.53
20
22.36
0
VERTEX
8
Sketch
10
36.55
20
22.36
0
VERTEX
8
Sketch
10
36.55
20
22.4
0
VERTEX
8
Sketch
10
36.57
20
22.4
0
VERTEX
8
Sketch
10
36.59
20
22.5
0
VERTEX
8
Sketch
10
36.63
20
22.52
0
VERTEX
8
Sketch
10
36.67
20
22.6
0
VERTEX
8
Sketch
10
36.73
20
22.72
0
VERTEX
8
Sketch
10
36.75
20
22.72
0
VERTEX
8
Sketch
10
36.77
20
22.8
0
VERTEX
8
Sketch
10
36.83
20
22.9
0
VERTEX
8
Sketch
10
36.85
20
22.9
0
VERTEX
8
Sketch
10
36.89
20
22.98
0
VERTEX
8
Sketch
10
37.03
20
23.1
0
VERTEX
8
Sketch
10
37.05
20
23.1
0
VERTEX
8
Sketch
10
37.07
20
23.14
0
VERTEX
8
Sketch
10
37.11
20
23.14
0
VERTEX
8
Sketch
10
37.13
20
23.18
0
VERTEX
8
Sketch
10
37.19
20
23.18
0
VERTEX
8
Sketch
10
37.25
20
23.2
0
VERTEX
8
Sketch
10
37.27
20
23.2
0
VERTEX
8
Sketch
10
37.27
20
23.22
0
VERTEX
8
Sketch
10
37.39
20
23.26
0
VERTEX
8
Sketch
10
37.39
20
23.28
0
VERTEX
8
Sketch
10
37.49
20
23.28
0
VERTEX
8
Sketch
10
37.49
20
23.26
0
VERTEX
8
Sketch
10
37.53
20
23.24
0
VERTEX
8
Sketch
10
37.53
20
23.22
0
VERTEX
8
Sketch
10
37.57
20
23.22
0
VERTEX
8
Sketch
10
37.57
20
23.2
0
VERTEX
8
Sketch
10
37.59
20
23.2
0
VERTEX
8
Sketch
10
37.61
20
23.14
0
VERTEX
8
Sketch
10
37.63
20
23.14
0
VERTEX
8
Sketch
10
37.75
20
22.96
0
VERTEX
8
Sketch
10
37.79
20
22.94
0
VERTEX
8
Sketch
10
37.79
20
22.9
0
VERTEX
8
Sketch
10
37.81
20
22.9
0
VERTEX
8
Sketch
10
37.83
20
22.84
0
VERTEX
8
Sketch
10
37.85
20
22.84
0
VERTEX
8
Sketch
10
37.85
20
22.8
0
VERTEX
8
Sketch
10
37.87
20
22.8
0
VERTEX
8
Sketch
10
37.89
20
22.74
0
VERTEX
8
Sketch
10
37.91
20
22.74
0
VERTEX
8
Sketch
10
37.91
20
22.7
0
VERTEX
8
Sketch
10
37.93
20
22.7
0
VERTEX
8
Sketch
10
37.93
20
22.68
0
VERTEX
8
Sketch
10
37.95
20
22.68
0
VERTEX
8
Sketch
10
37.97
20
22.62
0
VERTEX
8
Sketch
10
37.99
20
22.62
0
VERTEX
8
Sketch
10
38.01
20
22.56
0
VERTEX
8
Sketch
10
38.05
20
22.54
0
VERTEX
8
Sketch
10
38.07
20
22.48
0
VERTEX
8
Sketch
10
38.11
20
22.48
0
VERTEX
8
Sketch
10
38.11
20
22.46
0
VERTEX
8
Sketch
10
38.13
20
22.46
0
VERTEX
8
Sketch
10
38.13
20
22.44
0
VERTEX
8
Sketch
10
38.15
20
22.44
0
VERTEX
8
Sketch
10
38.17
20
22.38
0
VERTEX
8
Sketch
10
38.21
20
22.36
0
VERTEX
8
Sketch
10
38.53
20
22.12
0
VERTEX
8
Sketch
10
38.55
20
22.08
0
VERTEX
8
Sketch
10
38.59
20
22.08
0
VERTEX
8
Sketch
10
38.65
20
22.02
0
VERTEX
8
Sketch
10
38.73
20
21.98
0
VERTEX
8
Sketch
10
38.89
20
21.84
0
VERTEX
8
Sketch
10
38.91
20
21.84
0
VERTEX
8
Sketch
10
38.91
20
21.8
0
VERTEX
8
Sketch
10
38.95
20
21.78
0
VERTEX
8
Sketch
10
38.97
20
21.7
0
VERTEX
8
Sketch
10
39.01
20
21.68
0
VERTEX
8
Sketch
10
39.09
20
21.6
0
VERTEX
8
Sketch
10
39.09
20
21.56
0
VERTEX
8
Sketch
10
39.11
20
21.56
0
VERTEX
8
Sketch
10
39.17
20
21.46
0
VERTEX
8
Sketch
10
39.29
20
21.36
0
VERTEX
8
Sketch
10
39.31
20
21.36
0
VERTEX
8
Sketch
10
39.31
20
21.34
0
VERTEX
8
Sketch
10
39.35
20
21.34
0
VERTEX
8
Sketch
10
39.35
20
21.32
0
VERTEX
8
Sketch
10
39.43
20
21.3
0
VERTEX
8
Sketch
10
39.43
20
21.26
0
VERTEX
8
Sketch
10
39.49
20
21.26
0
VERTEX
8
Sketch
10
39.49
20
21.24
0
VERTEX
8
Sketch
10
39.53
20
21.24
0
VERTEX
8
Sketch
10
39.53
20
21.22
0
VERTEX
8
Sketch
10
39.57
20
21.22
0
VERTEX
8
Sketch
10
39.57
20
21.18
0
SEQEND
0
POLYLINE
66
1
8
Sketch
62
0
0
VERTEX
8
Sketch
10
35.73
20
21.22
0
VERTEX
8
Sketch
10
35.75
20
21.22
0
VERTEX
8
Sketch
10
35.73
20
21.16
0
VERTEX
8
Sketch
10
35.71
20
21.16
0
VERTEX
8
Sketch
10
35.71
20
21.14
0
VERTEX
8
Sketch
10
35.67
20
21.14
0
VERTEX
8
Sketch
10
35.59
20
21.06
0
VERTEX
8
Sketch
10
35.59
20
20.96
0
SEQEND
0
POLYLINE
66
1
8
Sketch
62
0
0
VERTEX
8
Sketch
10
35.79
20
21.34
0
VERTEX
8
Sketch
10
35.79
20
21.26
0
VERTEX
8
Sketch
10
35.77
20
21.26
0
VERTEX
8
Sketch
10
35.77
20
21.24
0
SEQEND
0
POLYLINE
66
1
8
Sketch
62
0
0
VERTEX
8
Sketch
10
30.49
20
15.54
0
VERTEX
8
Sketch
10
30.51
20
15.54
0
VERTEX
8
Sketch
10
30.59
20
15.62
0
VERTEX
8
Sketch
10
30.63
20
15.72
0
VERTEX
8
Sketch
10
30.69
20
15.82
0
VERTEX
8
Sketch
10
30.73
20
15.86
0
VERTEX
8
Sketch
10
30.75
20
15.92
0
VERTEX
8
Sketch
10
30.77
20
15.92
0
VERTEX
8
Sketch
10
30.77
20
15.96
0
VERTEX
8
Sketch
10
30.85
20
16.04
0
VERTEX
8
Sketch
10
30.93
20
16.18
0
VERTEX
8
Sketch
10
31.25
20
16.62
0
VERTEX
8
Sketch
10
31.29
20
16.7
0
VERTEX
8
Sketch
10
31.35
20
16.76
0
VERTEX
8
Sketch
10
31.35
20
16.78
0
VERTEX
8
Sketch
10
31.37
20
16.78
0
VERTEX
8
Sketch
10
31.37
20
16.8
0
VERTEX
8
Sketch
10
31.39
20
16.8
0
VERTEX
8
Sketch
10
31.39
20
16.82
0
VERTEX
8
Sketch
10
31.41
20
16.82
0
VERTEX
8
Sketch
10
31.43
20
16.86
0
VERTEX
8
Sketch
10
31.53
20
16.94
0
VERTEX
8
Sketch
10
31.57
20
16.96
0
VERTEX
8
Sketch
10
31.73
20
17.06
0
VERTEX
8
Sketch
10
31.77
20
17.06
0
VERTEX
8
Sketch
10
31.81
20
17.1
0
VERTEX
8
Sketch
10
31.85
20
17.1
0
VERTEX
8
Sketch
10
31.95
20
17.18
0
VERTEX
8
Sketch
10
32.01
20
17.2
0
VERTEX
8
Sketch
10
32.07
20
17.26
0
VERTEX
8
Sketch
10
32.17
20
17.32
0
VERTEX
8
Sketch
10
32.17
20
17.34
0
VERTEX
8
Sketch
10
32.21
20
17.34
0
VERTEX
8
Sketch
10
32.21
20
17.38
0
VERTEX
8
Sketch
10
32.25
20
17.38
0
VERTEX
8
Sketch
10
32.25
20
17.4
0
VERTEX
8
Sketch
10
32.33
20
17.46
0
VERTEX
8
Sketch
10
32.39
20
17.5
0
VERTEX
8
Sketch
10
32.41
20
17.5
0
VERTEX
8
Sketch
10
32.41
20
17.52
0
VERTEX
8
Sketch
10
32.43
20
17.52
0
VERTEX
8
Sketch
10
32.43
20
17.54
0
VERTEX
8
Sketch
10
32.47
20
17.56
0
VERTEX
8
Sketch
10
32.61
20
17.68
0
VERTEX
8
Sketch
10
32.63
20
17.68
0
VERTEX
8
Sketch
10
32.99
20
18.02
0
VERTEX
8
Sketch
10
33.03
20
18.04
0
VERTEX
8
Sketch
10
33.19
20
18.16
0
VERTEX
8
Sketch
10
33.23
20
18.16
0
VERTEX
8
Sketch
10
33.33
20
18.22
0
VERTEX
8
Sketch
10
33.35
20
18.22
0
VERTEX
8
Sketch
10
33.39
20
18.26
0
VERTEX
8
Sketch
10
33.55
20
18.34
0
VERTEX
8
Sketch
10
33.67
20
18.4
0
VERTEX
8
Sketch
10
33.71
20
18.44
0
VERTEX
8
Sketch
10
33.79
20
18.48
0
VERTEX
8
Sketch
10
33.79
20
18.5
0
VERTEX
8
Sketch
10
33.83
20
18.5
0
VERTEX
8
Sketch
10
33.83
20
18.52
0
VERTEX
8
Sketch
10
33.87
20
18.52
0
VERTEX
8
Sketch
10
33.89
20
18.56
0
VERTEX
8
Sketch
10
33.97
20
18.6
0
VERTEX
8
Sketch
10
34.03
20
18.64
0
VERTEX
8
Sketch
10
34.05
20
18.64
0
VERTEX
8
Sketch
10
34.07
20
18.7
0
VERTEX
8
Sketch
10
34.11
20
18.72
0
VERTEX
8
Sketch
10
34.13
20
18.76
0
VERTEX
8
Sketch
10
34.17
20
18.76
0
VERTEX
8
Sketch
10
34.19
20
18.8
0
VERTEX
8
Sketch
10
34.27
20
18.82
0
VERTEX
8
Sketch
10
34.27
20
18.84
0
VERTEX
8
Sketch
10
34.29
20
18.84
0
VERTEX
8
Sketch
10
34.29
20
18.86
0
VERTEX
8
Sketch
10
34.33
20
18.86
0
VERTEX
8
Sketch
10
34.37
20
18.9
0
VERTEX
8
Sketch
10
34.41
20
18.92
0
VERTEX
8
Sketch
10
34.53
20
18.98
0
VERTEX
8
Sketch
10
34.61
20
18.98
0
VERTEX
8
Sketch
10
34.71
20
19.02
0
VERTEX
8
Sketch
10
34.71
20
19.04
0
VERTEX
8
Sketch
10
34.77
20
19.04
0
VERTEX
8
Sketch
10
34.79
20
19.1
0
VERTEX
8
Sketch
10
34.79
20
19.12
0
VERTEX
8
Sketch
10
34.83
20
19.12
0
VERTEX
8
Sketch
10
34.83
20
19.16
0
VERTEX
8
Sketch
10
34.87
20
19.16
0
VERTEX
8
Sketch
10
34.87
20
19.18
0
VERTEX
8
Sketch
10
34.97
20
19.18
0
VERTEX
8
Sketch
10
34.97
20
19.2
0
VERTEX
8
Sketch
10
35.05
20
19.2
0
VERTEX
8
Sketch
10
35.05
20
19.26
0
VERTEX
8
Sketch
10
35.07
20
19.26
0
VERTEX
8
Sketch
10
35.07
20
19.3
0
VERTEX
8
Sketch
10
35.09
20
19.3
0
VERTEX
8
Sketch
10
35.09
20
19.34
0
VERTEX
8
Sketch
10
35.23
20
19.44
0
VERTEX
8
Sketch
10
35.43
20
19.66
0
VERTEX
8
Sketch
10
35.45
20
19.7
0
VERTEX
8
Sketch
10
35.47
20
19.74
0
VERTEX
8
Sketch
10
35.51
20
19.82
0
VERTEX
8
Sketch
10
35.55
20
19.88
0
VERTEX
8
Sketch
10
35.59
20
19.88
0
VERTEX
8
Sketch
10
35.75
20
20.08
0
VERTEX
8
Sketch
10
35.75
20
20.1
0
VERTEX
8
Sketch
10
35.85
20
20.2
0
VERTEX
8
Sketch
10
35.85
20
20.22
0
VERTEX
8
Sketch
10
36.17
20
20.58
0
VERTEX
8
Sketch
10
36.23
20
20.7
0
VERTEX
8
Sketch
10
36.29
20
20.76
0
VERTEX
8
Sketch
10
36.29
20
20.78
0
VERTEX
8
Sketch
10
36.33
20
20.8
0
VERTEX
8
Sketch
10
36.33
20
20.84
0
VERTEX
8
Sketch
10
36.35
20
20.84
0
VERTEX
8
Sketch
10
36.35
20
20.88
0
VERTEX
8
Sketch
10
36.45
20
21.02
0
VERTEX
8
Sketch
10
36.47
20
21.08
0
VERTEX
8
Sketch
10
36.51
20
21.12
0
VERTEX
8
Sketch
10
36.55
20
21.2
0
VERTEX
8
Sketch
10
36.61
20
21.26
0
VERTEX
8
Sketch
10
36.65
20
21.36
0
VERTEX
8
Sketch
10
36.69
20
21.4
0
VERTEX
8
Sketch
10
36.69
20
21.44
0
VERTEX
8
Sketch
10
36.77
20
21.62
0
VERTEX
8
Sketch
10
36.79
20
21.7
0
VERTEX
8
Sketch
10
36.81
20
21.7
0
VERTEX
8
Sketch
10
36.81
20
21.76
0
VERTEX
8
Sketch
10
36.85
20
21.82
0
VERTEX
8
Sketch
10
36.87
20
21.86
0
VERTEX
8
Sketch
10
36.89
20
21.92
0
VERTEX
8
Sketch
10
36.91
20
21.92
0
VERTEX
8
Sketch
10
36.91
20
21.96
0
VERTEX
8
Sketch
10
36.97
20
22.06
0
VERTEX
8
Sketch
10
36.99
20
22.06
0
VERTEX
8
Sketch
10
36.99
20
22.08
0
VERTEX
8
Sketch
10
37.03
20
22.08
0
VERTEX
8
Sketch
10
37.05
20
22.12
0
VERTEX
8
Sketch
10
37.07
20
22.12
0
VERTEX
8
Sketch
10
37.07
20
22.14
0
VERTEX
8
Sketch
10
37.09
20
22.14
0
VERTEX
8
Sketch
10
37.09
20
22.18
0
VERTEX
8
Sketch
10
37.11
20
22.18
0
VERTEX
8
Sketch
10
37.11
20
22.2
0
SEQEND
0
POLYLINE
66
1
8
Sketch
62
0
0
VERTEX
8
Sketch
10
27.51
20
14.04
0
VERTEX
8
Sketch
10
27.55
20
14.12
0
VERTEX
8
Sketch
10
27.65
20
14.22
0
VERTEX
8
Sketch
10
27.67
20
14.28
0
VERTEX
8
Sketch
10
27.97
20
14.52
0
VERTEX
8
Sketch
10
28.03
20
14.52
0
VERTEX
8
Sketch
10
28.11
20
14.6
0
VERTEX
8
Sketch
10
28.17
20
14.6
0
VERTEX
8
Sketch
10
28.43
20
14.74
0
VERTEX
8
Sketch
10
28.75
20
14.86
0
VERTEX
8
Sketch
10
28.87
20
14.88
0
VERTEX
8
Sketch
10
28.95
20
14.9
0
VERTEX
8
Sketch
10
29.05
20
14.9
0
VERTEX
8
Sketch
10
29.17
20
14.92
0
VERTEX
8
Sketch
10
29.45
20
14.98
0
VERTEX
8
Sketch
10
29.63
20
15.06
0
VERTEX
8
Sketch
10
29.73
20
15.06
0
VERTEX
8
Sketch
10
29.73
20
15.08
0
VERTEX
8
Sketch
10
29.89
20
15.14
0
VERTEX
8
Sketch
10
29.99
20
15.2
0
VERTEX
8
Sketch
10
30.03
20
15.2
0
VERTEX
8
Sketch
10
30.07
20
15.24
0
VERTEX
8
Sketch
10
30.11
20
15.24
0
VERTEX
8
Sketch
10
30.17
20
15.28
0
VERTEX
8
Sketch
10
30.21
20
15.28
0
VERTEX
8
Sketch
10
30.21
20
15.3
0
VERTEX
8
Sketch
10
30.29
20
15.34
0
VERTEX
8
Sketch
10
30.41
20
15.38
0
VERTEX
8
Sketch
10
30.41
20
15.4
0
VERTEX
8
Sketch
10
30.47
20
15.42
0
VERTEX
8
Sketch
10
30.47
20
15.44
0
VERTEX
8
Sketch
10
30.49
20
15.44
0
VERTEX
8
Sketch
10
30.49
20
15.46
0
VERTEX
8
Sketch
10
30.53
20
15.46
0
VERTEX
8
Sketch
10
30.53
20
15.48
0
VERTEX
8
Sketch
10
30.55
20
15.48
0
VERTEX
8
Sketch
10
30.55
20
15.5
0
VERTEX
8
Sketch
10
30.55
20
15.5
0
VERTEX
8
Sketch
10
30.55
20
15.52
0
VERTEX
8
Sketch
10
30.51
20
15.52
0
SEQEND
0
POLYLINE
66
1
8
Sketch
62
0
0
VERTEX
8
Sketch
10
38.09
20
27.28
0
VERTEX
8
Sketch
10
37.99
20
27.28
0
VERTEX
8
Sketch
10
37.93
20
27.3
0
VERTEX
8
Sketch
10
37.83
20
27.3
0
VERTEX
8
Sketch
10
37.81
20
27.26
0
VERTEX
8
Sketch
10
37.77
20
27.24
0
VERTEX
8
Sketch
10
37.77
20
27.18
0
VERTEX
8
Sketch
10
37.75
20
27.12
0
VERTEX
8
Sketch
10
37.75
20
27.06
0
VERTEX
8
Sketch
10
37.79
20
27.02
0
VERTEX
8
Sketch
10
37.89
20
27
0
VERTEX
8
Sketch
10
37.93
20
27
0
VERTEX
8
Sketch
10
37.93
20
26.98
0
VERTEX
8
Sketch
10
38.05
20
26.98
0
VERTEX
8
Sketch
10
38.17
20
27.06
0
VERTEX
8
Sketch
10
38.19
20
27.16
0
VERTEX
8
Sketch
10
38.19
20
27.24
0
VERTEX
8
Sketch
10
38.17
20
27.24
0
VERTEX
8
Sketch
10
38.15
20
27.3
0
SEQEND
0
POLYLINE
66
1
8
Sketch
62
0
0
VERTEX
8
Sketch
10
37.77
20
28.16
0
VERTEX
8
Sketch
10
37.75
20
28.26
0
VERTEX
8
Sketch
10
37.75
20
28.32
0
VERTEX
8
Sketch
10
37.77
20
28.38
0
VERTEX
8
Sketch
10
37.79
20
28.38
0
VERTEX
8
Sketch
10
37.79
20
28.42
0
VERTEX
8
Sketch
10
37.91
20
28.54
0
VERTEX
8
Sketch
10
37.91
20
28.56
0
VERTEX
8
Sketch
10
37.95
20
28.56
0
VERTEX
8
Sketch
10
37.95
20
28.58
0
VERTEX
8
Sketch
10
38.17
20
28.58
0
VERTEX
8
Sketch
10
38.23
20
28.48
0
VERTEX
8
Sketch
10
38.25
20
28.48
0
VERTEX
8
Sketch
10
38.25
20
28.46
0
VERTEX
8
Sketch
10
38.27
20
28.46
0
VERTEX
8
Sketch
10
38.27
20
28.44
0
VERTEX
8
Sketch
10
38.33
20
28.38
0
VERTEX
8
Sketch
10
38.33
20
28.22
0
VERTEX
8
Sketch
10
38.11
20
28
0
VERTEX
8
Sketch
10
37.99
20
27.96
0
VERTEX
8
Sketch
10
37.93
20
27.9
0
VERTEX
8
Sketch
10
37.87
20
27.9
0
VERTEX
8
Sketch
10
37.83
20
27.84
0
VERTEX
8
Sketch
10
37.77
20
27.84
0
VERTEX
8
Sketch
10
37.71
20
27.78
0
VERTEX
8
Sketch
10
37.71
20
27.68
0
VERTEX
8
Sketch
10
37.73
20
27.68
0
VERTEX
8
Sketch
10
37.73
20
27.62
0
VERTEX
8
Sketch
10
37.75
20
27.62
0
VERTEX
8
Sketch
10
37.75
20
27.58
0
VERTEX
8
Sketch
10
37.77
20
27.58
0
VERTEX
8
Sketch
10
37.77
20
27.56
0
VERTEX
8
Sketch
10
37.83
20
27.56
0
SEQEND
0
POLYLINE
66
1
8
Sketch
62
0
0
VERTEX
8
Sketch
10
37.47
20
27.48
0
VERTEX
8
Sketch
10
37.37
20
27.36
0
VERTEX
8
Sketch
10
37.29
20
27.32
0
VERTEX
8
Sketch
10
37.25
20
27.24
0
VERTEX
8
Sketch
10
37.19
20
27.22
0
VERTEX
8
Sketch
10
36.93
20
27.02
0
VERTEX
8
Sketch
10
36.55
20
26.84
0
VERTEX
8
Sketch
10
36.47
20
26.78
0
VERTEX
8
Sketch
10
36.33
20
26.74
0
VERTEX
8
Sketch
10
36.21
20
26.68
0
VERTEX
8
Sketch
10
36.21
20
26.68
0
SEQEND
0
POLYLINE
66
1
8
Sketch
62
0
0
VERTEX
8
Sketch
10
37.47
20
27.44
0
VERTEX
8
Sketch
10
37.47
20
27.36
0
VERTEX
8
Sketch
10
37.51
20
27.18
0
VERTEX
8
Sketch
10
37.51
20
27
0
VERTEX
8
Sketch
10
37.55
20
26.72
0
VERTEX
8
Sketch
10
37.55
20
26.36
0
VERTEX
8
Sketch
10
37.59
20
26.36
0
SEQEND
0
POLYLINE
66
1
8
Sketch
62
0
0
VERTEX
8
Sketch
10
37.41
20
27.02
0
VERTEX
8
Sketch
10
37.41
20
27
0
VERTEX
8
Sketch
10
37.39
20
27
0
VERTEX
8
Sketch
10
37.39
20
26.92
0
VERTEX
8
Sketch
10
37.33
20
26.8
0
VERTEX
8
Sketch
10
37.33
20
26.74
0
VERTEX
8
Sketch
10
37.27
20
26.62
0
VERTEX
8
Sketch
10
37.25
20
26.52
0
VERTEX
8
Sketch
10
37.21
20
26.46
0
VERTEX
8
Sketch
10
37.21
20
26.4
0
VERTEX
8
Sketch
10
37.07
20
25.98
0
VERTEX
8
Sketch
10
37.01
20
25.84
0
VERTEX
8
Sketch
10
37.01
20
25.76
0
VERTEX
8
Sketch
10
36.97
20
25.7
0
VERTEX
8
Sketch
10
36.97
20
25.46
0
VERTEX
8
Sketch
10
36.95
20
25.4
0
VERTEX
8
Sketch
10
36.95
20
25.34
0
VERTEX
8
Sketch
10
36.93
20
25.28
0
VERTEX
8
Sketch
10
36.91
20
25.28
0
VERTEX
8
Sketch
10
36.91
20
25.26
0
SEQEND
0
POLYLINE
66
1
8
Sketch
62
0
0
VERTEX
8
Sketch
10
35.75
20
21.22
0
VERTEX
8
Sketch
10
35.75
20
21.24
0
VERTEX
8
Sketch
10
35.77
20
21.24
0
VERTEX
8
Sketch
10
35.77
20
21.28
0
VERTEX
8
Sketch
10
35.79
20
21.28
0
VERTEX
8
Sketch
10
35.79
20
21.32
0
VERTEX
8
Sketch
10
35.81
20
21.38
0
VERTEX
8
Sketch
10
35.83
20
21.42
0
VERTEX
8
Sketch
10
35.85
20
21.48
0
VERTEX
8
Sketch
10
35.87
20
21.56
0
VERTEX
8
Sketch
10
35.89
20
21.66
0
VERTEX
8
Sketch
10
35.91
20
21.82
0
VERTEX
8
Sketch
10
35.93
20
21.82
0
VERTEX
8
Sketch
10
35.93
20
21.86
0
VERTEX
8
Sketch
10
35.97
20
21.94
0
VERTEX
8
Sketch
10
35.99
20
22
0
VERTEX
8
Sketch
10
36.01
20
22
0
VERTEX
8
Sketch
10
36.01
20
22.06
0
VERTEX
8
Sketch
10
36.03
20
22.06
0
VERTEX
8
Sketch
10
36.05
20
22.16
0
VERTEX
8
Sketch
10
36.09
20
22.26
0
VERTEX
8
Sketch
10
36.11
20
22.34
0
VERTEX
8
Sketch
10
36.13
20
22.4
0
VERTEX
8
Sketch
10
36.17
20
22.4
0
VERTEX
8
Sketch
10
36.17
20
22.5
0
VERTEX
8
Sketch
10
36.19
20
22.5
0
VERTEX
8
Sketch
10
36.19
20
22.54
0
VERTEX
8
Sketch
10
36.21
20
22.54
0
VERTEX
8
Sketch
10
36.23
20
22.6
0
VERTEX
8
Sketch
10
36.25
20
22.6
0
VERTEX
8
Sketch
10
36.25
20
22.64
0
VERTEX
8
Sketch
10
36.27
20
22.64
0
VERTEX
8
Sketch
10
36.29
20
22.68
0
VERTEX
8
Sketch
10
36.43
20
22.82
0
VERTEX
8
Sketch
10
36.43
20
22.86
0
VERTEX
8
Sketch
10
36.45
20
22.86
0
VERTEX
8
Sketch
10
36.51
20
23.02
0
VERTEX
8
Sketch
10
36.55
20
23.06
0
VERTEX
8
Sketch
10
36.57
20
23.14
0
VERTEX
8
Sketch
10
36.59
20
23.2
0
VERTEX
8
Sketch
10
36.59
20
23.24
0
VERTEX
8
Sketch
10
36.61
20
23.3
0
VERTEX
8
Sketch
10
36.61
20
23.32
0
VERTEX
8
Sketch
10
36.63
20
23.32
0
VERTEX
8
Sketch
10
36.63
20
23.36
0
VERTEX
8
Sketch
10
36.67
20
23.4
0
VERTEX
8
Sketch
10
36.67
20
23.48
0
VERTEX
8
Sketch
10
36.69
20
23.48
0
VERTEX
8
Sketch
10
36.73
20
23.6
0
VERTEX
8
Sketch
10
36.73
20
23.64
0
VERTEX
8
Sketch
10
36.77
20
23.7
0
VERTEX
8
Sketch
10
36.79
20
23.86
0
VERTEX
8
Sketch
10
36.83
20
23.92
0
VERTEX
8
Sketch
10
36.83
20
23.96
0
VERTEX
8
Sketch
10
36.85
20
24.02
0
VERTEX
8
Sketch
10
36.85
20
24.04
0
VERTEX
8
Sketch
10
36.87
20
24.04
0
VERTEX
8
Sketch
10
36.87
20
24.12
0
VERTEX
8
Sketch
10
36.93
20
24.34
0
VERTEX
8
Sketch
10
36.93
20
24.38
0
VERTEX
8
Sketch
10
36.99
20
24.52
0
VERTEX
8
Sketch
10
37.01
20
24.62
0
VERTEX
8
Sketch
10
37.03
20
24.7
0
VERTEX
8
Sketch
10
37.05
20
24.7
0
VERTEX
8
Sketch
10
37.05
20
24.82
0
VERTEX
8
Sketch
10
37.07
20
24.82
0
VERTEX
8
Sketch
10
37.11
20
24.96
0
VERTEX
8
Sketch
10
37.13
20
24.96
0
VERTEX
8
Sketch
10
37.13
20
25.02
0
VERTEX
8
Sketch
10
37.15
20
25.02
0
VERTEX
8
Sketch
10
37.15
20
25.08
0
VERTEX
8
Sketch
10
37.17
20
25.08
0
VERTEX
8
Sketch
10
37.17
20
25.1
0
VERTEX
8
Sketch
10
37.19
20
25.1
0
SEQEND
0
POLYLINE
66
1
8
Sketch
62
0
0
VERTEX
8
Sketch
10
36.15
20
23.78
0
VERTEX
8
Sketch
10
36.19
20
23.9
0
VERTEX
8
Sketch
10
36.23
20
23.92
0
VERTEX
8
Sketch
10
36.23
20
24
0
VERTEX
8
Sketch
10
36.27
20
24.08
0
VERTEX
8
Sketch
10
36.29
20
24.08
0
VERTEX
8
Sketch
10
36.29
20
24.1
0
VERTEX
8
Sketch
10
36.33
20
24.12
0
VERTEX
8
Sketch
10
36.35
20
24.18
0
VERTEX
8
Sketch
10
36.41
20
24.28
0
VERTEX
8
Sketch
10
36.41
20
24.3
0
VERTEX
8
Sketch
10
36.43
20
24.3
0
VERTEX
8
Sketch
10
36.43
20
24.36
0
VERTEX
8
Sketch
10
36.47
20
24.42
0
VERTEX
8
Sketch
10
36.51
20
24.54
0
VERTEX
8
Sketch
10
36.53
20
24.54
0
VERTEX
8
Sketch
10
36.53
20
24.6
0
VERTEX
8
Sketch
10
36.57
20
24.66
0
VERTEX
8
Sketch
10
36.57
20
24.7
0
VERTEX
8
Sketch
10
36.63
20
24.8
0
VERTEX
8
Sketch
10
36.63
20
24.86
0
VERTEX
8
Sketch
10
36.65
20
24.92
0
VERTEX
8
Sketch
10
36.69
20
25.16
0
VERTEX
8
Sketch
10
36.71
20
25.16
0
VERTEX
8
Sketch
10
36.73
20
25.24
0
VERTEX
8
Sketch
10
36.75
20
25.24
0
VERTEX
8
Sketch
10
36.75
20
25.32
0
VERTEX
8
Sketch
10
36.79
20
25.36
0
VERTEX
8
Sketch
10
36.79
20
25.42
0
VERTEX
8
Sketch
10
36.81
20
25.42
0
VERTEX
8
Sketch
10
36.81
20
25.48
0
VERTEX
8
Sketch
10
36.83
20
25.48
0
SEQEND
0
POLYLINE
66
1
8
Sketch
62
0
0
VERTEX
8
Sketch
10
32.21
20
18.44
0
VERTEX
8
Sketch
10
32.33
20
18.56
0
VERTEX
8
Sketch
10
32.37
20
18.64
0
VERTEX
8
Sketch
10
32.49
20
18.8
0
VERTEX
8
Sketch
10
32.49
20
18.84
0
VERTEX
8
Sketch
10
32.53
20
18.84
0
VERTEX
8
Sketch
10
32.57
20
18.96
0
VERTEX
8
Sketch
10
32.61
20
18.96
0
VERTEX
8
Sketch
10
32.61
20
19
0
VERTEX
8
Sketch
10
32.65
20
19
0
VERTEX
8
Sketch
10
32.65
20
19.04
0
VERTEX
8
Sketch
10
32.69
20
19.04
0
VERTEX
8
Sketch
10
32.73
20
19.12
0
VERTEX
8
Sketch
10
32.77
20
19.12
0
VERTEX
8
Sketch
10
32.77
20
19.16
0
VERTEX
8
Sketch
10
32.89
20
19.2
0
VERTEX
8
Sketch
10
32.89
20
19.24
0
VERTEX
8
Sketch
10
32.97
20
19.24
0
VERTEX
8
Sketch
10
32.97
20
19.28
0
VERTEX
8
Sketch
10
33.09
20
19.32
0
VERTEX
8
Sketch
10
33.09
20
19.36
0
VERTEX
8
Sketch
10
33.13
20
19.36
0
VERTEX
8
Sketch
10
33.13
20
19.32
0
VERTEX
8
Sketch
10
33.25
20
19.32
0
VERTEX
8
Sketch
10
33.25
20
19.36
0
VERTEX
8
Sketch
10
33.37
20
19.36
0
VERTEX
8
Sketch
10
33.37
20
19.4
0
VERTEX
8
Sketch
10
33.53
20
19.4
0
VERTEX
8
Sketch
10
33.53
20
19.44
0
VERTEX
8
Sketch
10
33.89
20
19.44
0
VERTEX
8
Sketch
10
34.01
20
19.52
0
VERTEX
8
Sketch
10
34.17
20
19.56
0
VERTEX
8
Sketch
10
34.29
20
19.6
0
VERTEX
8
Sketch
10
34.29
20
19.64
0
VERTEX
8
Sketch
10
34.33
20
19.64
0
VERTEX
8
Sketch
10
34.33
20
19.68
0
VERTEX
8
Sketch
10
34.49
20
19.72
0
VERTEX
8
Sketch
10
34.53
20
19.8
0
VERTEX
8
Sketch
10
34.57
20
19.92
0
VERTEX
8
Sketch
10
34.61
20
19.92
0
VERTEX
8
Sketch
10
34.61
20
20.16
0
VERTEX
8
Sketch
10
34.65
20
20.28
0
VERTEX
8
Sketch
10
34.69
20
20.44
0
VERTEX
8
Sketch
10
34.77
20
20.48
0
VERTEX
8
Sketch
10
34.77
20
20.56
0
VERTEX
8
Sketch
10
34.81
20
20.56
0
VERTEX
8
Sketch
10
34.81
20
20.64
0
VERTEX
8
Sketch
10
34.89
20
20.68
0
VERTEX
8
Sketch
10
34.89
20
20.76
0
VERTEX
8
Sketch
10
34.93
20
20.76
0
VERTEX
8
Sketch
10
34.93
20
20.8
0
VERTEX
8
Sketch
10
34.97
20
20.8
0
VERTEX
8
Sketch
10
34.97
20
20.92
0
VERTEX
8
Sketch
10
35.01
20
20.92
0
VERTEX
8
Sketch
10
35.01
20
20.96
0
VERTEX
8
Sketch
10
35.05
20
20.96
0
VERTEX
8
Sketch
10
35.05
20
21.04
0
VERTEX
8
Sketch
10
35.09
20
21.04
0
VERTEX
8
Sketch
10
35.09
20
21.12
0
VERTEX
8
Sketch
10
35.13
20
21.12
0
VERTEX
8
Sketch
10
35.21
20
21.36
0
VERTEX
8
Sketch
10
35.25
20
21.36
0
VERTEX
8
Sketch
10
35.29
20
21.56
0
VERTEX
8
Sketch
10
35.37
20
21.64
0
VERTEX
8
Sketch
10
35.37
20
21.72
0
VERTEX
8
Sketch
10
35.45
20
21.8
0
VERTEX
8
Sketch
10
35.45
20
21.84
0
VERTEX
8
Sketch
10
35.49
20
21.84
0
VERTEX
8
Sketch
10
35.49
20
21.92
0
VERTEX
8
Sketch
10
35.53
20
21.92
0
VERTEX
8
Sketch
10
35.53
20
22.04
0
VERTEX
8
Sketch
10
35.57
20
22.04
0
VERTEX
8
Sketch
10
35.57
20
22.08
0
VERTEX
8
Sketch
10
35.61
20
22.08
0
VERTEX
8
Sketch
10
35.61
20
22.2
0
VERTEX
8
Sketch
10
35.65
20
22.2
0
VERTEX
8
Sketch
10
35.65
20
22.28
0
VERTEX
8
Sketch
10
35.73
20
22.4
0
VERTEX
8
Sketch
10
35.73
20
22.48
0
VERTEX
8
Sketch
10
35.77
20
22.48
0
VERTEX
8
Sketch
10
35.77
20
22.56
0
VERTEX
8
Sketch
10
35.81
20
22.68
0
VERTEX
8
Sketch
10
35.81
20
22.72
0
VERTEX
8
Sketch
10
35.85
20
22.72
0
VERTEX
8
Sketch
10
35.89
20
22.92
0
VERTEX
8
Sketch
10
35.93
20
22.92
0
VERTEX
8
Sketch
10
35.93
20
23.04
0
VERTEX
8
Sketch
10
35.97
20
23.16
0
VERTEX
8
Sketch
10
36.01
20
23.16
0
VERTEX
8
Sketch
10
36.01
20
23.4
0
VERTEX
8
Sketch
10
36.05
20
23.4
0
VERTEX
8
Sketch
10
36.05
20
23.56
0
VERTEX
8
Sketch
10
36.09
20
23.68
0
VERTEX
8
Sketch
10
36.09
20
23.8
0
VERTEX
8
Sketch
10
36.13
20
23.8
0
SEQEND
0
POLYLINE
66
1
8
Sketch
62
0
0
VERTEX
8
Sketch
10
26.41
20
15.68
0
VERTEX
8
Sketch
10
26.53
20
15.68
0
VERTEX
8
Sketch
10
26.53
20
15.72
0
VERTEX
8
Sketch
10
26.73
20
15.72
0
VERTEX
8
Sketch
10
26.89
20
15.8
0
VERTEX
8
Sketch
10
27.09
20
15.8
0
VERTEX
8
Sketch
10
27.21
20
15.84
0
VERTEX
8
Sketch
10
28.05
20
15.84
0
VERTEX
8
Sketch
10
28.33
20
15.92
0
VERTEX
8
Sketch
10
28.45
20
15.92
0
VERTEX
8
Sketch
10
28.69
20
16
0
VERTEX
8
Sketch
10
28.81
20
16.04
0
VERTEX
8
Sketch
10
28.81
20
16.08
0
VERTEX
8
Sketch
10
28.97
20
16.08
0
VERTEX
8
Sketch
10
28.97
20
16.12
0
VERTEX
8
Sketch
10
29.05
20
16.12
0
VERTEX
8
Sketch
10
29.05
20
16.16
0
VERTEX
8
Sketch
10
29.21
20
16.16
0
VERTEX
8
Sketch
10
29.29
20
16.2
0
VERTEX
8
Sketch
10
29.41
20
16.2
0
VERTEX
8
Sketch
10
29.53
20
16.24
0
VERTEX
8
Sketch
10
29.61
20
16.24
0
VERTEX
8
Sketch
10
29.61
20
16.28
0
VERTEX
8
Sketch
10
29.69
20
16.28
0
VERTEX
8
Sketch
10
29.69
20
16.32
0
VERTEX
8
Sketch
10
29.93
20
16.4
0
VERTEX
8
Sketch
10
30.01
20
16.48
0
VERTEX
8
Sketch
10
30.29
20
16.76
0
VERTEX
8
Sketch
10
30.29
20
16.8
0
VERTEX
8
Sketch
10
30.33
20
16.8
0
VERTEX
8
Sketch
10
30.33
20
16.88
0
VERTEX
8
Sketch
10
30.37
20
16.88
0
VERTEX
8
Sketch
10
30.37
20
16.96
0
VERTEX
8
Sketch
10
30.45
20
17.04
0
VERTEX
8
Sketch
10
30.45
20
17.08
0
VERTEX
8
Sketch
10
30.53
20
17.08
0
VERTEX
8
Sketch
10
30.53
20
17.12
0
VERTEX
8
Sketch
10
30.69
20
17.2
0
VERTEX
8
Sketch
10
31.17
20
17.44
0
VERTEX
8
Sketch
10
31.37
20
17.56
0
VERTEX
8
Sketch
10
31.37
20
17.6
0
VERTEX
8
Sketch
10
31.45
20
17.6
0
VERTEX
8
Sketch
10
31.69
20
17.84
0
VERTEX
8
Sketch
10
31.77
20
17.84
0
VERTEX
8
Sketch
10
31.77
20
17.88
0
VERTEX
8
Sketch
10
32.01
20
18.04
0
VERTEX
8
Sketch
10
32.05
20
18.12
0
VERTEX
8
Sketch
10
32.25
20
18.36
0
VERTEX
8
Sketch
10
32.25
20
18.4
0
SEQEND
0
POLYLINE
66
1
8
Sketch
62
0
0
VERTEX
8
Sketch
10
3.81
20
1
0
VERTEX
8
Sketch
10
3.49
20
1
0
VERTEX
8
Sketch
10
3.21
20
0.8
0
VERTEX
8
Sketch
10
3.13
20
0.68
0
VERTEX
8
Sketch
10
3.13
20
0.48
0
VERTEX
8
Sketch
10
3.33
20
0.28
0
VERTEX
8
Sketch
10
3.93
20
0.28
0
VERTEX
8
Sketch
10
4.09
20
0.44
0
VERTEX
8
Sketch
10
4.17
20
0.84
0
VERTEX
8
Sketch
10
4.17
20
1.36
0
VERTEX
8
Sketch
10
4.13
20
1.6
0
SEQEND
0
POLYLINE
66
1
8
Sketch
62
0
0
VERTEX
8
Sketch
10
14.17
20
4.6
0
VERTEX
8
Sketch
10
14.13
20
4.6
0
VERTEX
8
Sketch
10
14.13
20
4.64
0
VERTEX
8
Sketch
10
14.01
20
4.64
0
VERTEX
8
Sketch
10
13.85
20
4.56
0
VERTEX
8
Sketch
10
13.85
20
4.44
0
VERTEX
8
Sketch
10
13.77
20
4.32
0
VERTEX
8
Sketch
10
13.77
20
4.2
0
VERTEX
8
Sketch
10
13.73
20
4.12
0
VERTEX
8
Sketch
10
13.73
20
4
0
VERTEX
8
Sketch
10
13.89
20
4
0
VERTEX
8
Sketch
10
13.97
20
4.04
0
SEQEND
0
POLYLINE
66
1
8
Sketch
62
0
0
VERTEX
8
Sketch
10
12.97
20
3.4
0
VERTEX
8
Sketch
10
12.81
20
3.4
0
VERTEX
8
Sketch
10
12.65
20
3.32
0
VERTEX
8
Sketch
10
12.65
20
3.12
0
VERTEX
8
Sketch
10
12.85
20
3.12
0
VERTEX
8
Sketch
10
12.97
20
3.24
0
VERTEX
8
Sketch
10
12.97
20
3.28
0
VERTEX
8
Sketch
10
13.05
20
3.4
0
VERTEX
8
Sketch
10
13.09
20
3.56
0
SEQEND
0
POLYLINE
66
1
8
Sketch
62
0
0
VERTEX
8
Sketch
10
12.17
20
2.6
0
VERTEX
8
Sketch
10
12.09
20
2.6
0
VERTEX
8
Sketch
10
11.85
20
2.28
0
VERTEX
8
Sketch
10
11.69
20
2.12
0
VERTEX
8
Sketch
10
11.65
20
1.92
0
VERTEX
8
Sketch
10
11.81
20
1.96
0
VERTEX
8
Sketch
10
12.25
20
2.24
0
SEQEND
0
POLYLINE
66
1
8
Sketch
62
0
0
VERTEX
8
Sketch
10
11.13
20
1.24
0
VERTEX
8
Sketch
10
10.81
20
1.24
0
VERTEX
8
Sketch
10
10.69
20
1.12
0
VERTEX
8
Sketch
10
10.69
20
0.84
0
VERTEX
8
Sketch
10
10.77
20
0.84
0
VERTEX
8
Sketch
10
10.89
20
0.88
0
VERTEX
8
Sketch
10
11.21
20
1.28
0
VERTEX
8
Sketch
10
11.37
20
1.36
0
VERTEX
8
Sketch
10
11.45
20
1.44
0
SEQEND
0
POLYLINE
66
1
8
Sketch
62
0
0
VERTEX
8
Sketch
10
20.57
20
7.76
0
VERTEX
8
Sketch
10
20.21
20
7.76
0
VERTEX
8
Sketch
10
20.01
20
7.64
0
VERTEX
8
Sketch
10
20.01
20
7.6
0
VERTEX
8
Sketch
10
19.89
20
7.56
0
VERTEX
8
Sketch
10
19.89
20
7.52
0
VERTEX
8
Sketch
10
19.61
20
7.32
0
VERTEX
8
Sketch
10
19.61
20
7.28
0
VERTEX
8
Sketch
10
19.57
20
7.28
0
VERTEX
8
Sketch
10
19.57
20
7.04
0
VERTEX
8
Sketch
10
19.85
20
7.04
0
VERTEX
8
Sketch
10
20.29
20
7.24
0
SEQEND
0
POLYLINE
66
1
8
Sketch
62
0
0
VERTEX
8
Sketch
10
22.25
20
9.24
0
VERTEX
8
Sketch
10
22.17
20
9.24
0
VERTEX
8
Sketch
10
21.97
20
9.08
0
VERTEX
8
Sketch
10
21.81
20
9.04
0
VERTEX
8
Sketch
10
21.69
20
8.92
0
VERTEX
8
Sketch
10
21.57
20
8.92
0
VERTEX
8
Sketch
10
21.33
20
8.76
0
VERTEX
8
Sketch
10
21.25
20
8.72
0
VERTEX
8
Sketch
10
21.13
20
8.6
0
VERTEX
8
Sketch
10
21.09
20
8.4
0
VERTEX
8
Sketch
10
21.09
20
8.16
0
VERTEX
8
Sketch
10
21.13
20
8.16
0
VERTEX
8
Sketch
10
21.33
20
7.96
0
VERTEX
8
Sketch
10
21.65
20
7.96
0
VERTEX
8
Sketch
10
21.89
20
8.2
0
VERTEX
8
Sketch
10
22.01
20
8.4
0
VERTEX
8
Sketch
10
22.01
20
8.8
0
VERTEX
8
Sketch
10
21.97
20
8.88
0
SEQEND
0
POLYLINE
66
1
8
Sketch
62
0
0
VERTEX
8
Sketch
10
23.25
20
9.72
0
VERTEX
8
Sketch
10
23.25
20
9.8
0
VERTEX
8
Sketch
10
23.05
20
9.8
0
VERTEX
8
Sketch
10
22.81
20
9.64
0
VERTEX
8
Sketch
10
22.61
20
9.4
0
VERTEX
8
Sketch
10
22.57
20
9.04
0
VERTEX
8
Sketch
10
22.57
20
8.8
0
VERTEX
8
Sketch
10
22.65
20
8.68
0
VERTEX
8
Sketch
10
22.93
20
8.68
0
VERTEX
8
Sketch
10
23.37
20
8.84
0
VERTEX
8
Sketch
10
23.45
20
8.84
0
VERTEX
8
Sketch
10
23.61
20
8.92
0
VERTEX
8
Sketch
10
23.73
20
9.16
0
VERTEX
8
Sketch
10
23.77
20
9.48
0
VERTEX
8
Sketch
10
23.65
20
9.84
0
VERTEX
8
Sketch
10
23.45
20
10.12
0
SEQEND
0
POLYLINE
66
1
8
Sketch
62
0
0
VERTEX
8
Sketch
10
24.77
20
11.16
0
VERTEX
8
Sketch
10
24.37
20
11.16
0
VERTEX
8
Sketch
10
23.89
20
10.92
0
VERTEX
8
Sketch
10
23.73
20
10.72
0
VERTEX
8
Sketch
10
23.73
20
10.48
0
VERTEX
8
Sketch
10
23.81
20
10.4
0
VERTEX
8
Sketch
10
23.85
20
10.4
0
VERTEX
8
Sketch
10
23.85
20
10.32
0
VERTEX
8
Sketch
10
23.97
20
10.32
0
VERTEX
8
Sketch
10
24.09
20
10.28
0
VERTEX
8
Sketch
10
24.29
20
10.28
0
VERTEX
8
Sketch
10
24.45
20
10.4
0
VERTEX
8
Sketch
10
24.81
20
10.48
0
VERTEX
8
Sketch
10
25.13
20
10.64
0
VERTEX
8
Sketch
10
25.13
20
10.96
0
VERTEX
8
Sketch
10
25.09
20
11.08
0
SEQEND
0
POLYLINE
66
1
8
Sketch
62
0
0
VERTEX
8
Sketch
10
14.29
20
6.24
0
VERTEX
8
Sketch
10
14.09
20
6.24
0
VERTEX
8
Sketch
10
14.09
20
6.2
0
VERTEX
8
Sketch
10
14.05
20
6.2
0
VERTEX
8
Sketch
10
13.97
20
5.92
0
VERTEX
8
Sketch
10
13.97
20
5.88
0
VERTEX
8
Sketch
10
13.93
20
5.88
0
VERTEX
8
Sketch
10
13.93
20
5.84
0
VERTEX
8
Sketch
10
13.89
20
5.84
0
VERTEX
8
Sketch
10
13.89
20
5.48
0
VERTEX
8
Sketch
10
13.81
20
5.4
0
VERTEX
8
Sketch
10
13.73
20
5.4
0
VERTEX
8
Sketch
10
13.73
20
5.32
0
VERTEX
8
Sketch
10
13.69
20
5.32
0
VERTEX
8
Sketch
10
13.69
20
5.28
0
VERTEX
8
Sketch
10
13.53
20
5.2
0
VERTEX
8
Sketch
10
13.53
20
5.12
0
VERTEX
8
Sketch
10
13.49
20
5.12
0
VERTEX
8
Sketch
10
13.45
20
5
0
VERTEX
8
Sketch
10
13.41
20
5
0
VERTEX
8
Sketch
10
13.41
20
4.92
0
VERTEX
8
Sketch
10
13.37
20
4.92
0
VERTEX
8
Sketch
10
13.33
20
4.84
0
VERTEX
8
Sketch
10
13.25
20
4.68
0
VERTEX
8
Sketch
10
13.21
20
4.68
0
VERTEX
8
Sketch
10
13.21
20
4.64
0
VERTEX
8
Sketch
10
13.17
20
4.64
0
VERTEX
8
Sketch
10
13.17
20
4.56
0
VERTEX
8
Sketch
10
13.05
20
4.36
0
VERTEX
8
Sketch
10
13.01
20
4.36
0
VERTEX
8
Sketch
10
13.01
20
4.32
0
VERTEX
8
Sketch
10
12.97
20
4.32
0
VERTEX
8
Sketch
10
12.93
20
4.24
0
VERTEX
8
Sketch
10
12.21
20
3.52
0
VERTEX
8
Sketch
10
12.13
20
3.52
0
VERTEX
8
Sketch
10
12.01
20
3.4
0
VERTEX
8
Sketch
10
11.97
20
3.4
0
VERTEX
8
Sketch
10
11.97
20
3.36
0
VERTEX
8
Sketch
10
11.73
20
3.28
0
VERTEX
8
Sketch
10
11.69
20
3.2
0
VERTEX
8
Sketch
10
11.41
20
3.08
0
VERTEX
8
Sketch
10
11.41
20
3.04
0
VERTEX
8
Sketch
10
11.33
20
3
0
VERTEX
8
Sketch
10
11.33
20
2.96
0
VERTEX
8
Sketch
10
11.05
20
2.8
0
VERTEX
8
Sketch
10
10.61
20
2.48
0
VERTEX
8
Sketch
10
10.57
20
2.4
0
VERTEX
8
Sketch
10
10.29
20
2.16
0
VERTEX
8
Sketch
10
10.25
20
2.16
0
VERTEX
8
Sketch
10
10.21
20
2.08
0
VERTEX
8
Sketch
10
10.13
20
2.04
0
VERTEX
8
Sketch
10
9.69
20
1.56
0
VERTEX
8
Sketch
10
9.65
20
1.48
0
VERTEX
8
Sketch
10
9.61
20
1.4
0
VERTEX
8
Sketch
10
9.53
20
1.4
0
VERTEX
8
Sketch
10
9.53
20
1.28
0
VERTEX
8
Sketch
10
9.41
20
1.04
0
VERTEX
8
Sketch
10
9.37
20
1.04
0
VERTEX
8
Sketch
10
9.37
20
1
0
VERTEX
8
Sketch
10
9.33
20
1
0
VERTEX
8
Sketch
10
9.25
20
0.8
0
VERTEX
8
Sketch
10
9.17
20
0.72
0
VERTEX
8
Sketch
10
9.17
20
0.68
0
VERTEX
8
Sketch
10
9.05
20
0.64
0
VERTEX
8
Sketch
10
9.05
20
0.6
0
VERTEX
8
Sketch
10
9.01
20
0.6
0
VERTEX
8
Sketch
10
9.01
20
0.56
0
VERTEX
8
Sketch
10
8.65
20
0.44
0
VERTEX
8
Sketch
10
8.57
20
0.44
0
VERTEX
8
Sketch
10
8.57
20
0.4
0
VERTEX
8
Sketch
10
7.21
20
0.4
0
VERTEX
8
Sketch
10
7.21
20
0.36
0
VERTEX
8
Sketch
10
7.09
20
0.36
0
VERTEX
8
Sketch
10
7.09
20
0.32
0
VERTEX
8
Sketch
10
6.97
20
0.32
0
SEQEND
0
POLYLINE
66
1
8
Sketch
62
0
0
VERTEX
8
Sketch
10
15.45
20
5.8
0
VERTEX
8
Sketch
10
15.33
20
5.8
0
VERTEX
8
Sketch
10
15.09
20
5.88
0
VERTEX
8
Sketch
10
14.97
20
5.96
0
VERTEX
8
Sketch
10
14.73
20
6
0
VERTEX
8
Sketch
10
14.61
20
6.08
0
VERTEX
8
Sketch
10
14.53
20
6.12
0
VERTEX
8
Sketch
10
14.53
20
6.16
0
VERTEX
8
Sketch
10
14.45
20
6.16
0
VERTEX
8
Sketch
10
14.33
20
6.28
0
VERTEX
8
Sketch
10
14.29
20
6.28
0
VERTEX
8
Sketch
10
14.29
20
6.32
0
VERTEX
8
Sketch
10
13.97
20
6.36
0
VERTEX
8
Sketch
10
13.85
20
6.36
0
SEQEND
0
POLYLINE
66
1
8
Sketch
62
0
0
VERTEX
8
Sketch
10
17.21
20
5.88
0
VERTEX
8
Sketch
10
17.21
20
5.84
0
VERTEX
8
Sketch
10
17.09
20
5.84
0
VERTEX
8
Sketch
10
16.97
20
5.8
0
VERTEX
8
Sketch
10
16.65
20
5.8
0
SEQEND
0
POLYLINE
66
1
8
Sketch
62
0
0
VERTEX
8
Sketch
10
16.97
20
5.08
0
VERTEX
8
Sketch
10
16.93
20
5.08
0
VERTEX
8
Sketch
10
16.93
20
5.12
0
VERTEX
8
Sketch
10
16.81
20
5.12
0
VERTEX
8
Sketch
10
16.81
20
5.16
0
VERTEX
8
Sketch
10
16.61
20
5.2
0
VERTEX
8
Sketch
10
16.53
20
5.2
0
SEQEND
0
POLYLINE
66
1
8
Sketch
62
0
0
VERTEX
8
Sketch
10
16.33
20
4.48
0
VERTEX
8
Sketch
10
16.41
20
4.6
0
VERTEX
8
Sketch
10
16.41
20
4.8
0
SEQEND
0
POLYLINE
66
1
8
Sketch
62
0
0
VERTEX
8
Sketch
10
15.53
20
4.4
0
VERTEX
8
Sketch
10
15.77
20
4.52
0
VERTEX
8
Sketch
10
15.97
20
4.68
0
SEQEND
0
POLYLINE
66
1
8
Sketch
62
0
0
VERTEX
8
Sketch
10
15.41
20
5.08
0
VERTEX
8
Sketch
10
15.41
20
5.04
0
VERTEX
8
Sketch
10
15.45
20
5.04
0
VERTEX
8
Sketch
10
15.45
20
5
0
VERTEX
8
Sketch
10
15.61
20
5
0
VERTEX
8
Sketch
10
15.61
20
4.96
0
VERTEX
8
Sketch
10
15.65
20
4.96
0
SEQEND
0
POLYLINE
66
1
8
Sketch
62
0
0
VERTEX
8
Sketch
10
15.69
20
5.52
0
VERTEX
8
Sketch
10
15.69
20
5.4
0
VERTEX
8
Sketch
10
15.77
20
5.28
0
SEQEND
0
POLYLINE
66
1
8
Sketch
62
0
0
VERTEX
8
Sketch
10
16.41
20
5.76
0
VERTEX
8
Sketch
10
16.41
20
5.68
0
VERTEX
8
Sketch
10
16.33
20
5.56
0
VERTEX
8
Sketch
10
16.33
20
5.44
0
VERTEX
8
Sketch
10
16.29
20
5.44
0
VERTEX
8
Sketch
10
16.29
20
5.4
0
SEQEND
0
POLYLINE
66
1
8
Sketch
62
0
0
VERTEX
8
Sketch
10
17.05
20
5.2
0
VERTEX
8
Sketch
10
17.01
20
5.2
0
VERTEX
8
Sketch
10
17.01
20
5.28
0
VERTEX
8
Sketch
10
16.77
20
5.64
0
VERTEX
8
Sketch
10
16.69
20
5.68
0
VERTEX
8
Sketch
10
16.57
20
5.72
0
VERTEX
8
Sketch
10
16.57
20
5.76
0
VERTEX
8
Sketch
10
16.01
20
5.76
0
VERTEX
8
Sketch
10
15.77
20
5.68
0
VERTEX
8
Sketch
10
15.57
20
5.6
0
VERTEX
8
Sketch
10
15.41
20
5.52
0
VERTEX
8
Sketch
10
15.41
20
5.48
0
VERTEX
8
Sketch
10
15.37
20
5.48
0
VERTEX
8
Sketch
10
15.37
20
5.24
0
VERTEX
8
Sketch
10
15.33
20
5.12
0
VERTEX
8
Sketch
10
15.33
20
4.88
0
VERTEX
8
Sketch
10
15.37
20
4.88
0
VERTEX
8
Sketch
10
15.37
20
4.8
0
VERTEX
8
Sketch
10
15.49
20
4.6
0
VERTEX
8
Sketch
10
15.61
20
4.4
0
VERTEX
8
Sketch
10
15.69
20
4.4
0
VERTEX
8
Sketch
10
15.69
20
4.36
0
VERTEX
8
Sketch
10
15.73
20
4.36
0
VERTEX
8
Sketch
10
15.73
20
4.32
0
VERTEX
8
Sketch
10
15.77
20
4.32
0
VERTEX
8
Sketch
10
15.77
20
4.28
0
VERTEX
8
Sketch
10
15.85
20
4.28
0
VERTEX
8
Sketch
10
15.97
20
4.24
0
VERTEX
8
Sketch
10
16.65
20
4.24
0
VERTEX
8
Sketch
10
16.85
20
4.36
0
VERTEX
8
Sketch
10
16.85
20
4.44
0
VERTEX
8
Sketch
10
16.97
20
4.8
0
VERTEX
8
Sketch
10
16.97
20
5.16
0
VERTEX
8
Sketch
10
16.93
20
5.16
0
VERTEX
8
Sketch
10
16.89
20
5.36
0
VERTEX
8
Sketch
10
16.85
20
5.48
0
VERTEX
8
Sketch
10
16.77
20
5.52
0
VERTEX
8
Sketch
10
16.77
20
5.68
0
SEQEND
0
POLYLINE
66
1
8
Sketch
62
0
0
VERTEX
8
Sketch
10
8.25
20
0.08
0
VERTEX
8
Sketch
10
8.17
20
-0.08
0
VERTEX
8
Sketch
10
8.25
20
-0.32
0
VERTEX
8
Sketch
10
8.49
20
-0.64
0
VERTEX
8
Sketch
10
8.69
20
-0.64
0
VERTEX
8
Sketch
10
8.93
20
-0.48
0
VERTEX
8
Sketch
10
8.93
20
-0.44
0
VERTEX
8
Sketch
10
9.05
20
-0.24
0
VERTEX
8
Sketch
10
9.05
20
0.4
0
VERTEX
8
Sketch
10
8.97
20
0.44
0
VERTEX
8
Sketch
10
8.89
20
0.44
0
VERTEX
8
Sketch
10
8.77
20
0.56
0
VERTEX
8
Sketch
10
8.65
20
0.6
0
SEQEND
0
POLYLINE
66
1
8
Sketch
62
0
0
VERTEX
8
Sketch
10
8.85
20
-1.2
0
VERTEX
8
Sketch
10
8.81
20
-1.12
0
VERTEX
8
Sketch
10
8.45
20
-1.08
0
VERTEX
8
Sketch
10
8.29
20
-1.08
0
VERTEX
8
Sketch
10
8.29
20
-1.12
0
VERTEX
8
Sketch
10
8.21
20
-1.12
0
VERTEX
8
Sketch
10
8.21
20
-1.48
0
VERTEX
8
Sketch
10
8.33
20
-1.68
0
VERTEX
8
Sketch
10
8.61
20
-1.68
0
VERTEX
8
Sketch
10
8.81
20
-1.56
0
VERTEX
8
Sketch
10
8.89
20
-1.56
0
VERTEX
8
Sketch
10
9.09
20
-1.28
0
VERTEX
8
Sketch
10
9.13
20
-1.12
0
VERTEX
8
Sketch
10
9.09
20
-1.08
0
SEQEND
0
POLYLINE
66
1
8
Sketch
62
0
0
VERTEX
8
Sketch
10
7.81
20
-0.96
0
VERTEX
8
Sketch
10
7.81
20
-1
0
VERTEX
8
Sketch
10
7.65
20
-1.08
0
VERTEX
8
Sketch
10
7.65
20
-1.12
0
VERTEX
8
Sketch
10
7.49
20
-1.2
0
VERTEX
8
Sketch
10
7.41
20
-1.32
0
VERTEX
8
Sketch
10
7.41
20
-1.48
0
VERTEX
8
Sketch
10
7.49
20
-1.56
0
VERTEX
8
Sketch
10
7.69
20
-1.6
0
VERTEX
8
Sketch
10
7.81
20
-1.64
0
VERTEX
8
Sketch
10
7.89
20
-1.6
0
VERTEX
8
Sketch
10
8.01
20
-1.4
0
VERTEX
8
Sketch
10
8.05
20
-1.32
0
VERTEX
8
Sketch
10
8.09
20
-1.2
0
VERTEX
8
Sketch
10
8.09
20
-0.92
0
VERTEX
8
Sketch
10
8.05
20
-0.92
0
VERTEX
8
Sketch
10
8.05
20
-0.84
0
VERTEX
8
Sketch
10
7.57
20
-0.84
0
SEQEND
0
POLYLINE
66
1
8
Sketch
62
0
0
VERTEX
8
Sketch
10
5.13
20
-1.04
0
VERTEX
8
Sketch
10
5.13
20
-1
0
VERTEX
8
Sketch
10
5.41
20
-1
0
VERTEX
8
Sketch
10
5.73
20
-1.08
0
VERTEX
8
Sketch
10
5.77
20
-1.08
0
VERTEX
8
Sketch
10
5.77
20
-1.12
0
VERTEX
8
Sketch
10
5.85
20
-1.12
0
VERTEX
8
Sketch
10
5.97
20
-1.2
0
VERTEX
8
Sketch
10
6.05
20
-1.2
0
VERTEX
8
Sketch
10
6.13
20
-1.28
0
VERTEX
8
Sketch
10
6.33
20
-1.28
0
VERTEX
8
Sketch
10
6.33
20
-1.32
0
VERTEX
8
Sketch
10
6.41
20
-1.32
0
VERTEX
8
Sketch
10
6.41
20
-1.36
0
VERTEX
8
Sketch
10
6.29
20
-1.36
0
VERTEX
8
Sketch
10
6.17
20
-1.4
0
VERTEX
8
Sketch
10
5.97
20
-1.44
0
VERTEX
8
Sketch
10
5.85
20
-1.44
0
VERTEX
8
Sketch
10
5.61
20
-1.52
0
VERTEX
8
Sketch
10
5.33
20
-1.52
0
SEQEND
0
POLYLINE
66
1
8
Sketch
62
0
0
VERTEX
8
Sketch
10
5.29
20
0.24
0
VERTEX
8
Sketch
10
5.29
20
0.16
0
VERTEX
8
Sketch
10
5.33
20
0.16
0
VERTEX
8
Sketch
10
5.33
20
0.12
0
VERTEX
8
Sketch
10
5.37
20
0.12
0
VERTEX
8
Sketch
10
5.37
20
0.08
0
VERTEX
8
Sketch
10
5.49
20
0.04
0
VERTEX
8
Sketch
10
5.53
20
-0.04
0
VERTEX
8
Sketch
10
5.61
20
-0.04
0
VERTEX
8
Sketch
10
5.61
20
-0.08
0
VERTEX
8
Sketch
10
5.69
20
-0.12
0
VERTEX
8
Sketch
10
5.81
20
-0.2
0
VERTEX
8
Sketch
10
5.85
20
-0.2
0
VERTEX
8
Sketch
10
5.85
20
-0.28
0
VERTEX
8
Sketch
10
5.93
20
-0.28
0
VERTEX
8
Sketch
10
6.21
20
-0.44
0
VERTEX
8
Sketch
10
6.21
20
-0.48
0
VERTEX
8
Sketch
10
5.97
20
-0.52
0
VERTEX
8
Sketch
10
5.21
20
-0.52
0
VERTEX
8
Sketch
10
5.21
20
-0.56
0
VERTEX
8
Sketch
10
5.17
20
-0.56
0
SEQEND
0
POLYLINE
66
1
8
Sketch
62
0
0
VERTEX
8
Sketch
10
4.33
20
-0.6
0
VERTEX
8
Sketch
10
4.17
20
-0.64
0
VERTEX
8
Sketch
10
4.01
20
-0.8
0
VERTEX
8
Sketch
10
3.93
20
-0.8
0
VERTEX
8
Sketch
10
3.93
20
-0.88
0
VERTEX
8
Sketch
10
3.85
20
-0.92
0
VERTEX
8
Sketch
10
3.85
20
-1.08
0
VERTEX
8
Sketch
10
3.81
20
-1.08
0
VERTEX
8
Sketch
10
3.81
20
-1.36
0
VERTEX
8
Sketch
10
4.13
20
-1.36
0
VERTEX
8
Sketch
10
4.53
20
-1.28
0
VERTEX
8
Sketch
10
4.61
20
-1.24
0
VERTEX
8
Sketch
10
4.65
20
-1.04
0
VERTEX
8
Sketch
10
4.65
20
-0.68
0
VERTEX
8
Sketch
10
4.53
20
-0.52
0
VERTEX
8
Sketch
10
4.45
20
-0.52
0
VERTEX
8
Sketch
10
4.33
20
-0.4
0
VERTEX
8
Sketch
10
4.17
20
-0.36
0
SEQEND
0
POLYLINE
66
1
8
Sketch
62
0
0
VERTEX
8
Sketch
10
3.45
20
0.08
0
VERTEX
8
Sketch
10
3.45
20
0.12
0
VERTEX
8
Sketch
10
3.33
20
0.12
0
VERTEX
8
Sketch
10
2.77
20
-0.44
0
VERTEX
8
Sketch
10
2.65
20
-0.68
0
VERTEX
8
Sketch
10
2.61
20
-0.8
0
VERTEX
8
Sketch
10
2.57
20
-0.8
0
VERTEX
8
Sketch
10
2.57
20
-1.04
0
VERTEX
8
Sketch
10
2.61
20
-1.12
0
VERTEX
8
Sketch
10
2.69
20
-1.12
0
VERTEX
8
Sketch
10
2.73
20
-1.16
0
VERTEX
8
Sketch
10
2.85
20
-1.16
0
VERTEX
8
Sketch
10
3.01
20
-1.2
0
VERTEX
8
Sketch
10
3.21
20
-1.16
0
VERTEX
8
Sketch
10
3.65
20
-0.76
0
VERTEX
8
Sketch
10
3.65
20
-0.56
0
VERTEX
8
Sketch
10
3.73
20
-0.32
0
VERTEX
8
Sketch
10
3.73
20
0.04
0
SEQEND
0
POLYLINE
66
1
8
Sketch
62
0
0
VERTEX
8
Sketch
10
2.93
20
0.36
0
VERTEX
8
Sketch
10
2.85
20
0.36
0
VERTEX
8
Sketch
10
2.85
20
0.32
0
VERTEX
8
Sketch
10
2.69
20
0.24
0
VERTEX
8
Sketch
10
2.37
20
0.04
0
VERTEX
8
Sketch
10
2.25
20
-0.24
0
VERTEX
8
Sketch
10
2.25
20
-0.28
0
VERTEX
8
Sketch
10
2.21
20
-0.28
0
VERTEX
8
Sketch
10
2.21
20
-0.32
0
VERTEX
8
Sketch
10
2.37
20
-0.44
0
VERTEX
8
Sketch
10
2.45
20
-0.44
0
VERTEX
8
Sketch
10
2.57
20
-0.52
0
VERTEX
8
Sketch
10
2.73
20
-0.52
0
VERTEX
8
Sketch
10
2.85
20
-0.32
0
VERTEX
8
Sketch
10
2.85
20
0.56
0
VERTEX
8
Sketch
10
2.81
20
0.56
0
VERTEX
8
Sketch
10
2.81
20
0.64
0
VERTEX
8
Sketch
10
2.77
20
0.64
0
VERTEX
8
Sketch
10
2.77
20
0.6
0
VERTEX
8
Sketch
10
2.69
20
0.52
0
SEQEND
0
POLYLINE
66
1
8
Sketch
62
0
0
VERTEX
8
Sketch
10
5.69
20
-2.04
0
VERTEX
8
Sketch
10
5.61
20
-2
0
VERTEX
8
Sketch
10
5.57
20
-1.92
0
SEQEND
0
POLYLINE
66
1
8
Sketch
62
0
0
VERTEX
8
Sketch
10
4.97
20
-2.32
0
VERTEX
8
Sketch
10
4.97
20
-2.28
0
VERTEX
8
Sketch
10
4.93
20
-2.28
0
VERTEX
8
Sketch
10
4.93
20
-2.12
0
SEQEND
0
POLYLINE
66
1
8
Sketch
62
0
0
VERTEX
8
Sketch
10
4.29
20
-2.84
0
VERTEX
8
Sketch
10
4.29
20
-2.72
0
VERTEX
8
Sketch
10
4.25
20
-2.64
0
VERTEX
8
Sketch
10
4.25
20
-2.48
0
VERTEX
8
Sketch
10
4.21
20
-2.36
0
VERTEX
8
Sketch
10
4.21
20
-2.24
0
SEQEND
0
POLYLINE
66
1
8
Sketch
62
0
0
VERTEX
8
Sketch
10
3.25
20
-2.84
0
VERTEX
8
Sketch
10
3.25
20
-2.88
0
VERTEX
8
Sketch
10
3.25
20
-2.8
0
VERTEX
8
Sketch
10
3.33
20
-2.56
0
VERTEX
8
Sketch
10
3.37
20
-2.4
0
VERTEX
8
Sketch
10
3.41
20
-2.24
0
VERTEX
8
Sketch
10
3.45
20
-2.24
0
VERTEX
8
Sketch
10
3.45
20
-2.16
0
VERTEX
8
Sketch
10
3.49
20
-2.12
0
SEQEND
0
POLYLINE
66
1
8
Sketch
62
0
0
VERTEX
8
Sketch
10
2.01
20
-2.8
0
VERTEX
8
Sketch
10
2.01
20
-2.72
0
VERTEX
8
Sketch
10
2.25
20
-2.32
0
VERTEX
8
Sketch
10
2.25
20
-2.24
0
VERTEX
8
Sketch
10
2.29
20
-2.16
0
SEQEND
0
POLYLINE
66
1
8
Sketch
62
0
0
VERTEX
8
Sketch
10
0.89
20
-2.52
0
VERTEX
8
Sketch
10
0.89
20
-2.48
0
VERTEX
8
Sketch
10
0.93
20
-2.48
0
VERTEX
8
Sketch
10
0.97
20
-2.4
0
VERTEX
8
Sketch
10
1.05
20
-2.32
0
VERTEX
8
Sketch
10
1.09
20
-2.24
0
VERTEX
8
Sketch
10
1.21
20
-2
0
VERTEX
8
Sketch
10
1.25
20
-2
0
VERTEX
8
Sketch
10
1.25
20
-1.96
0
SEQEND
0
POLYLINE
66
1
8
Sketch
62
0
0
VERTEX
8
Sketch
10
-0.03
20
-1.64
0
VERTEX
8
Sketch
10
0.13
20
-1.64
0
VERTEX
8
Sketch
10
0.33
20
-1.52
0
VERTEX
8
Sketch
10
0.41
20
-1.52
0
VERTEX
8
Sketch
10
0.57
20
-1.36
0
VERTEX
8
Sketch
10
0.65
20
-1.36
0
VERTEX
8
Sketch
10
0.65
20
-1.32
0
SEQEND
0
POLYLINE
66
1
8
Sketch
62
0
0
VERTEX
8
Sketch
10
-0.03
20
-0.48
0
VERTEX
8
Sketch
10
0.53
20
-0.48
0
VERTEX
8
Sketch
10
0.77
20
-0.52
0
VERTEX
8
Sketch
10
0.85
20
-0.52
0
SEQEND
0
POLYLINE
66
1
8
Sketch
62
0
0
VERTEX
8
Sketch
10
0.65
20
0.88
0
VERTEX
8
Sketch
10
0.65
20
0.84
0
VERTEX
8
Sketch
10
0.73
20
0.8
0
VERTEX
8
Sketch
10
1.09
20
0.64
0
VERTEX
8
Sketch
10
1.09
20
0.6
0
VERTEX
8
Sketch
10
1.13
20
0.6
0
SEQEND
0
POLYLINE
66
1
8
Sketch
62
0
0
VERTEX
8
Sketch
10
1.05
20
1.52
0
VERTEX
8
Sketch
10
1.29
20
1.36
0
VERTEX
8
Sketch
10
1.29
20
1.32
0
VERTEX
8
Sketch
10
1.37
20
1.28
0
VERTEX
8
Sketch
10
1.37
20
1.24
0
VERTEX
8
Sketch
10
1.49
20
1.2
0
SEQEND
0
POLYLINE
66
1
8
Sketch
62
0
0
VERTEX
8
Sketch
10
1.57
20
2.24
0
VERTEX
8
Sketch
10
1.61
20
2.04
0
VERTEX
8
Sketch
10
1.73
20
1.88
0
VERTEX
8
Sketch
10
1.81
20
1.56
0
SEQEND
0
POLYLINE
66
1
8
Sketch
62
0
0
VERTEX
8
Sketch
10
3.17
20
2.32
0
VERTEX
8
Sketch
10
3.17
20
2.28
0
VERTEX
8
Sketch
10
3.21
20
2.28
0
VERTEX
8
Sketch
10
3.21
20
1.84
0
SEQEND
0
POLYLINE
66
1
8
Sketch
62
0
0
VERTEX
8
Sketch
10
4.21
20
2.2
0
VERTEX
8
Sketch
10
4.21
20
2.04
0
VERTEX
8
Sketch
10
4.17
20
1.96
0
VERTEX
8
Sketch
10
4.17
20
1.88
0
VERTEX
8
Sketch
10
4.09
20
1.72
0
VERTEX
8
Sketch
10
4.09
20
1.56
0
SEQEND
0
POLYLINE
66
1
8
Sketch
62
0
0
VERTEX
8
Sketch
10
5.05
20
1.88
0
VERTEX
8
Sketch
10
5.05
20
1.8
0
VERTEX
8
Sketch
10
5.01
20
1.8
0
VERTEX
8
Sketch
10
5.01
20
1.68
0
VERTEX
8
Sketch
10
4.97
20
1.68
0
VERTEX
8
Sketch
10
4.97
20
1.4
0
SEQEND
0
POLYLINE
66
1
8
Sketch
62
0
0
VERTEX
8
Sketch
10
6.01
20
1.32
0
VERTEX
8
Sketch
10
5.93
20
1.32
0
VERTEX
8
Sketch
10
5.89
20
1.12
0
VERTEX
8
Sketch
10
5.81
20
1.08
0
VERTEX
8
Sketch
10
5.81
20
1.04
0
SEQEND
0
POLYLINE
66
1
8
Sketch
62
0
0
VERTEX
8
Sketch
10
9.37
20
16.76
0
VERTEX
8
Sketch
10
9.37
20
16.68
0
SEQEND
0
POLYLINE
66
1
8
Sketch
62
0
0
VERTEX
8
Sketch
10
6.41
20
-1.88
0
VERTEX
8
Sketch
10
6.95
20
-1.88
0
VERTEX
8
Sketch
10
6.95
20
-1.94
0
VERTEX
8
Sketch
10
7.73
20
-1.94
0
VERTEX
8
Sketch
10
7.91
20
-2
0
VERTEX
8
Sketch
10
9.41
20
-2
0
VERTEX
8
Sketch
10
9.41
20
-1.94
0
VERTEX
8
Sketch
10
9.47
20
-1.94
0
VERTEX
8
Sketch
10
9.47
20
-1.88
0
VERTEX
8
Sketch
10
9.53
20
-1.88
0
VERTEX
8
Sketch
10
9.53
20
-1.7
0
VERTEX
8
Sketch
10
9.65
20
-1.64
0
VERTEX
8
Sketch
10
9.65
20
-1.58
0
VERTEX
8
Sketch
10
9.71
20
-1.58
0
VERTEX
8
Sketch
10
9.71
20
-1.46
0
VERTEX
8
Sketch
10
9.95
20
-1.1
0
VERTEX
8
Sketch
10
10.01
20
-1.1
0
VERTEX
8
Sketch
10
10.07
20
-0.98
0
VERTEX
8
Sketch
10
10.25
20
-0.74
0
VERTEX
8
Sketch
10
10.25
20
-0.68
0
VERTEX
8
Sketch
10
10.31
20
-0.68
0
VERTEX
8
Sketch
10
10.31
20
-0.62
0
VERTEX
8
Sketch
10
10.43
20
-0.56
0
VERTEX
8
Sketch
10
10.43
20
-0.5
0
VERTEX
8
Sketch
10
10.49
20
-0.5
0
VERTEX
8
Sketch
10
10.55
20
-0.38
0
VERTEX
8
Sketch
10
11.03
20
0.04
0
VERTEX
8
Sketch
10
11.09
20
0.04
0
VERTEX
8
Sketch
10
11.09
20
0.1
0
VERTEX
8
Sketch
10
11.27
20
0.16
0
VERTEX
8
Sketch
10
11.27
20
0.22
0
VERTEX
8
Sketch
10
11.45
20
0.28
0
VERTEX
8
Sketch
10
11.45
20
0.34
0
VERTEX
8
Sketch
10
11.57
20
0.4
0
VERTEX
8
Sketch
10
11.69
20
0.52
0
VERTEX
8
Sketch
10
11.75
20
0.64
0
VERTEX
8
Sketch
10
12.05
20
1
0
VERTEX
8
Sketch
10
12.11
20
1.12
0
VERTEX
8
Sketch
10
12.17
20
1.3
0
VERTEX
8
Sketch
10
12.23
20
1.3
0
VERTEX
8
Sketch
10
12.41
20
1.72
0
VERTEX
8
Sketch
10
12.47
20
1.72
0
VERTEX
8
Sketch
10
12.47
20
1.78
0
VERTEX
8
Sketch
10
12.53
20
1.78
0
VERTEX
8
Sketch
10
12.53
20
1.96
0
VERTEX
8
Sketch
10
12.89
20
2.38
0
VERTEX
8
Sketch
10
12.89
20
2.44
0
VERTEX
8
Sketch
10
12.95
20
2.44
0
VERTEX
8
Sketch
10
12.95
20
2.5
0
VERTEX
8
Sketch
10
13.01
20
2.5
0
VERTEX
8
Sketch
10
13.01
20
2.56
0
VERTEX
8
Sketch
10
13.07
20
2.56
0
VERTEX
8
Sketch
10
13.07
20
2.68
0
VERTEX
8
Sketch
10
13.19
20
2.74
0
VERTEX
8
Sketch
10
13.37
20
2.98
0
VERTEX
8
Sketch
10
13.37
20
3.04
0
VERTEX
8
Sketch
10
13.43
20
3.04
0
VERTEX
8
Sketch
10
13.43
20
3.1
0
VERTEX
8
Sketch
10
13.55
20
3.1
0
VERTEX
8
Sketch
10
13.55
20
3.16
0
VERTEX
8
Sketch
10
13.61
20
3.16
0
VERTEX
8
Sketch
10
13.61
20
3.28
0
VERTEX
8
Sketch
10
13.67
20
3.28
0
VERTEX
8
Sketch
10
13.73
20
3.4
0
VERTEX
8
Sketch
10
13.79
20
3.4
0
VERTEX
8
Sketch
10
13.79
20
3.52
0
VERTEX
8
Sketch
10
13.85
20
3.52
0
VERTEX
8
Sketch
10
13.85
20
3.64
0
VERTEX
8
Sketch
10
14.03
20
3.64
0
VERTEX
8
Sketch
10
14.03
20
3.7
0
VERTEX
8
Sketch
10
14.15
20
3.7
0
VERTEX
8
Sketch
10
14.33
20
3.82
0
VERTEX
8
Sketch
10
14.45
20
3.82
0
VERTEX
8
Sketch
10
14.45
20
3.88
0
VERTEX
8
Sketch
10
14.63
20
3.88
0
VERTEX
8
Sketch
10
14.63
20
3.94
0
VERTEX
8
Sketch
10
14.75
20
3.94
0
VERTEX
8
Sketch
10
14.75
20
4
0
VERTEX
8
Sketch
10
14.81
20
4
0
VERTEX
8
Sketch
10
14.81
20
4.06
0
VERTEX
8
Sketch
10
14.87
20
4.06
0
VERTEX
8
Sketch
10
14.87
20
4.12
0
VERTEX
8
Sketch
10
15.05
20
4.12
0
VERTEX
8
Sketch
10
15.05
20
4.18
0
VERTEX
8
Sketch
10
16.61
20
4.18
0
VERTEX
8
Sketch
10
16.61
20
4.12
0
VERTEX
8
Sketch
10
16.67
20
4.12
0
SEQEND
0
POLYLINE
66
1
8
Sketch
62
0
0
VERTEX
8
Sketch
10
26.81
20
11.56
0
VERTEX
8
Sketch
10
26.81
20
11.38
0
VERTEX
8
Sketch
10
26.69
20
11.14
0
VERTEX
8
Sketch
10
26.51
20
11.08
0
VERTEX
8
Sketch
10
26.51
20
11.02
0
VERTEX
8
Sketch
10
26.15
20
10.72
0
VERTEX
8
Sketch
10
26.03
20
10.66
0
VERTEX
8
Sketch
10
26.03
20
10.6
0
VERTEX
8
Sketch
10
25.91
20
10.6
0
VERTEX
8
Sketch
10
25.91
20
10.54
0
VERTEX
8
Sketch
10
25.79
20
10.48
0
VERTEX
8
Sketch
10
25.49
20
10.24
0
VERTEX
8
Sketch
10
25.37
20
10.18
0
VERTEX
8
Sketch
10
25.37
20
10.06
0
VERTEX
8
Sketch
10
25.25
20
10.06
0
VERTEX
8
Sketch
10
25.19
20
9.82
0
VERTEX
8
Sketch
10
24.65
20
9.34
0
VERTEX
8
Sketch
10
24.59
20
9.34
0
VERTEX
8
Sketch
10
24.53
20
9.22
0
VERTEX
8
Sketch
10
24.47
20
9.22
0
VERTEX
8
Sketch
10
24.35
20
9.1
0
VERTEX
8
Sketch
10
24.29
20
9.1
0
VERTEX
8
Sketch
10
24.05
20
8.92
0
VERTEX
8
Sketch
10
23.87
20
8.8
0
VERTEX
8
Sketch
10
23.75
20
8.74
0
VERTEX
8
Sketch
10
23.75
20
8.68
0
VERTEX
8
Sketch
10
23.63
20
8.68
0
VERTEX
8
Sketch
10
23.63
20
8.62
0
VERTEX
8
Sketch
10
23.39
20
8.5
0
VERTEX
8
Sketch
10
23.39
20
8.44
0
VERTEX
8
Sketch
10
23.27
20
8.44
0
VERTEX
8
Sketch
10
23.27
20
8.38
0
VERTEX
8
Sketch
10
23.15
20
8.38
0
VERTEX
8
Sketch
10
22.85
20
8.08
0
VERTEX
8
Sketch
10
22.73
20
8.08
0
VERTEX
8
Sketch
10
22.49
20
7.84
0
VERTEX
8
Sketch
10
22.37
20
7.84
0
VERTEX
8
Sketch
10
22.31
20
7.72
0
VERTEX
8
Sketch
10
22.19
20
7.66
0
VERTEX
8
Sketch
10
21.47
20
7.3
0
VERTEX
8
Sketch
10
21.35
20
7.3
0
VERTEX
8
Sketch
10
21.23
20
7.18
0
VERTEX
8
Sketch
10
21.11
20
7.18
0
VERTEX
8
Sketch
10
21.11
20
7.12
0
VERTEX
8
Sketch
10
20.99
20
7.12
0
VERTEX
8
Sketch
10
20.81
20
7
0
VERTEX
8
Sketch
10
20.75
20
7
0
VERTEX
8
Sketch
10
20.75
20
6.94
0
VERTEX
8
Sketch
10
20.63
20
6.94
0
VERTEX
8
Sketch
10
20.63
20
6.88
0
VERTEX
8
Sketch
10
20.21
20
6.7
0
VERTEX
8
Sketch
10
19.85
20
6.46
0
VERTEX
8
Sketch
10
19.85
20
6.4
0
VERTEX
8
Sketch
10
19.73
20
6.4
0
VERTEX
8
Sketch
10
19.73
20
6.34
0
VERTEX
8
Sketch
10
19.49
20
6.28
0
VERTEX
8
Sketch
10
19.43
20
6.16
0
VERTEX
8
Sketch
10
19.31
20
6.16
0
VERTEX
8
Sketch
10
19.31
20
6.1
0
VERTEX
8
Sketch
10
18.89
20
5.68
0
VERTEX
8
Sketch
10
18.89
20
5.62
0
VERTEX
8
Sketch
10
18.77
20
5.56
0
VERTEX
8
Sketch
10
18.77
20
5.5
0
VERTEX
8
Sketch
10
18.71
20
5.5
0
VERTEX
8
Sketch
10
18.65
20
5.38
0
VERTEX
8
Sketch
10
18.53
20
5.38
0
VERTEX
8
Sketch
10
18.53
20
5.32
0
VERTEX
8
Sketch
10
18.29
20
5.08
0
VERTEX
8
Sketch
10
18.17
20
5.08
0
VERTEX
8
Sketch
10
18.17
20
5.02
0
VERTEX
8
Sketch
10
17.93
20
4.9
0
VERTEX
8
Sketch
10
17.87
20
4.9
0
VERTEX
8
Sketch
10
17.87
20
4.84
0
VERTEX
8
Sketch
10
17.75
20
4.84
0
VERTEX
8
Sketch
10
17.75
20
4.78
0
VERTEX
8
Sketch
10
17.57
20
4.78
0
VERTEX
8
Sketch
10
17.57
20
4.72
0
VERTEX
8
Sketch
10
17.51
20
4.72
0
VERTEX
8
Sketch
10
17.51
20
4.66
0
VERTEX
8
Sketch
10
17.33
20
4.66
0
VERTEX
8
Sketch
10
17.33
20
4.6
0
VERTEX
8
Sketch
10
17.15
20
4.6
0
VERTEX
8
Sketch
10
17.15
20
4.54
0
VERTEX
8
Sketch
10
17.03
20
4.54
0
VERTEX
8
Sketch
10
17.03
20
4.48
0
VERTEX
8
Sketch
10
16.85
20
4.48
0
VERTEX
8
Sketch
10
16.85
20
4.42
0
VERTEX
8
Sketch
10
16.67
20
4.42
0
VERTEX
8
Sketch
10
16.67
20
4.36
0
VERTEX
8
Sketch
10
16.49
20
4.36
0
VERTEX
8
Sketch
10
16.49
20
4.3
0
VERTEX
8
Sketch
10
16.43
20
4.3
0
VERTEX
8
Sketch
10
16.43
20
4.24
0
VERTEX
8
Sketch
10
16.13
20
4.18
0
VERTEX
8
Sketch
10
16.07
20
4.06
0
VERTEX
8
Sketch
10
16.01
20
4.06
0
VERTEX
8
Sketch
10
16.01
20
4
0
VERTEX
8
Sketch
10
15.95
20
4
0
SEQEND
0
POLYLINE
66
1
8
Sketch
62
0
0
VERTEX
8
Sketch
10
24.71
20
13.42
0
VERTEX
8
Sketch
10
24.71
20
12.76
0
VERTEX
8
Sketch
10
24.77
20
12.76
0
VERTEX
8
Sketch
10
24.77
20
12.4
0
VERTEX
8
Sketch
10
24.83
20
12.4
0
VERTEX
8
Sketch
10
24.83
20
11.86
0
VERTEX
8
Sketch
10
24.71
20
11.86
0
VERTEX
8
Sketch
10
24.71
20
11.8
0
VERTEX
8
Sketch
10
24.65
20
11.8
0
VERTEX
8
Sketch
10
24.65
20
11.74
0
VERTEX
8
Sketch
10
24.35
20
11.68
0
VERTEX
8
Sketch
10
24.35
20
11.62
0
VERTEX
8
Sketch
10
24.11
20
11.5
0
VERTEX
8
Sketch
10
24.05
20
11.5
0
VERTEX
8
Sketch
10
24.05
20
11.38
0
VERTEX
8
Sketch
10
23.93
20
11.38
0
VERTEX
8
Sketch
10
23.93
20
11.32
0
VERTEX
8
Sketch
10
23.87
20
11.32
0
VERTEX
8
Sketch
10
23.87
20
11.26
0
VERTEX
8
Sketch
10
23.75
20
11.26
0
VERTEX
8
Sketch
10
23.75
20
11.2
0
VERTEX
8
Sketch
10
23.69
20
11.2
0
VERTEX
8
Sketch
10
23.69
20
11.14
0
VERTEX
8
Sketch
10
23.57
20
11.14
0
VERTEX
8
Sketch
10
23.57
20
11.08
0
VERTEX
8
Sketch
10
23.51
20
11.08
0
VERTEX
8
Sketch
10
23.51
20
11.02
0
VERTEX
8
Sketch
10
23.45
20
11.02
0
VERTEX
8
Sketch
10
23.45
20
10.96
0
VERTEX
8
Sketch
10
23.21
20
10.84
0
VERTEX
8
Sketch
10
23.21
20
10.78
0
VERTEX
8
Sketch
10
23.15
20
10.78
0
VERTEX
8
Sketch
10
23.15
20
10.72
0
VERTEX
8
Sketch
10
23.03
20
10.72
0
VERTEX
8
Sketch
10
23.03
20
10.6
0
VERTEX
8
Sketch
10
22.97
20
10.6
0
VERTEX
8
Sketch
10
22.97
20
10.54
0
VERTEX
8
Sketch
10
22.85
20
10.48
0
VERTEX
8
Sketch
10
22.61
20
10.24
0
VERTEX
8
Sketch
10
22.49
20
10.24
0
VERTEX
8
Sketch
10
22.49
20
10.18
0
VERTEX
8
Sketch
10
22.43
20
10.18
0
VERTEX
8
Sketch
10
22.07
20
9.82
0
VERTEX
8
Sketch
10
22.01
20
9.82
0
VERTEX
8
Sketch
10
22.01
20
9.76
0
VERTEX
8
Sketch
10
21.53
20
9.28
0
VERTEX
8
Sketch
10
21.53
20
9.22
0
VERTEX
8
Sketch
10
21.47
20
9.22
0
VERTEX
8
Sketch
10
21.47
20
9.16
0
VERTEX
8
Sketch
10
21.41
20
9.16
0
VERTEX
8
Sketch
10
21.41
20
9.1
0
VERTEX
8
Sketch
10
21.23
20
9.04
0
VERTEX
8
Sketch
10
21.23
20
8.98
0
VERTEX
8
Sketch
10
21.17
20
8.98
0
VERTEX
8
Sketch
10
21.17
20
8.86
0
VERTEX
8
Sketch
10
20.75
20
8.62
0
VERTEX
8
Sketch
10
20.33
20
8.2
0
VERTEX
8
Sketch
10
20.27
20
8.2
0
VERTEX
8
Sketch
10
20.27
20
8.14
0
VERTEX
8
Sketch
10
20.15
20
8.14
0
VERTEX
8
Sketch
10
19.97
20
8.08
0
VERTEX
8
Sketch
10
19.91
20
7.96
0
VERTEX
8
Sketch
10
19.61
20
7.78
0
VERTEX
8
Sketch
10
19.61
20
7.72
0
VERTEX
8
Sketch
10
19.43
20
7.66
0
VERTEX
8
Sketch
10
19.43
20
7.6
0
VERTEX
8
Sketch
10
19.37
20
7.6
0
VERTEX
8
Sketch
10
19.37
20
7.54
0
VERTEX
8
Sketch
10
19.25
20
7.48
0
VERTEX
8
Sketch
10
19.25
20
7.42
0
VERTEX
8
Sketch
10
19.19
20
7.42
0
VERTEX
8
Sketch
10
19.13
20
7.3
0
VERTEX
8
Sketch
10
19.07
20
7.3
0
VERTEX
8
Sketch
10
19.01
20
7.12
0
VERTEX
8
Sketch
10
18.89
20
7.06
0
VERTEX
8
Sketch
10
18.89
20
7
0
VERTEX
8
Sketch
10
18.83
20
7
0
VERTEX
8
Sketch
10
18.77
20
6.82
0
VERTEX
8
Sketch
10
18.71
20
6.82
0
VERTEX
8
Sketch
10
18.71
20
6.76
0
VERTEX
8
Sketch
10
18.65
20
6.76
0
VERTEX
8
Sketch
10
18.59
20
6.64
0
VERTEX
8
Sketch
10
18.53
20
6.64
0
VERTEX
8
Sketch
10
18.53
20
6.52
0
VERTEX
8
Sketch
10
18.41
20
6.52
0
VERTEX
8
Sketch
10
18.41
20
6.46
0
VERTEX
8
Sketch
10
18.35
20
6.46
0
VERTEX
8
Sketch
10
18.29
20
6.34
0
VERTEX
8
Sketch
10
18.23
20
6.34
0
VERTEX
8
Sketch
10
18.23
20
6.28
0
VERTEX
8
Sketch
10
18.17
20
6.28
0
VERTEX
8
Sketch
10
18.17
20
6.22
0
VERTEX
8
Sketch
10
18.11
20
6.22
0
VERTEX
8
Sketch
10
18.11
20
6.16
0
VERTEX
8
Sketch
10
18.05
20
6.16
0
VERTEX
8
Sketch
10
18.05
20
6.1
0
VERTEX
8
Sketch
10
17.75
20
5.98
0
VERTEX
8
Sketch
10
17.75
20
5.92
0
VERTEX
8
Sketch
10
17.69
20
5.92
0
VERTEX
8
Sketch
10
17.69
20
5.86
0
VERTEX
8
Sketch
10
17.57
20
5.86
0
VERTEX
8
Sketch
10
17.57
20
5.8
0
VERTEX
8
Sketch
10
17.51
20
5.8
0
VERTEX
8
Sketch
10
17.51
20
5.74
0
VERTEX
8
Sketch
10
17.39
20
5.74
0
VERTEX
8
Sketch
10
17.15
20
5.5
0
VERTEX
8
Sketch
10
17.15
20
5.44
0
VERTEX
8
Sketch
10
16.97
20
5.38
0
VERTEX
8
Sketch
10
16.97
20
5.32
0
SEQEND
0
POLYLINE
66
1
8
Sketch
62
0
0
VERTEX
8
Sketch
10
26.87
20
11.56
0
VERTEX
8
Sketch
10
26.87
20
11.8
0
VERTEX
8
Sketch
10
26.93
20
11.98
0
VERTEX
8
Sketch
10
26.93
20
13.12
0
VERTEX
8
Sketch
10
26.99
20
13.3
0
VERTEX
8
Sketch
10
26.99
20
13.36
0
VERTEX
8
Sketch
10
27.05
20
13.36
0
VERTEX
8
Sketch
10
27.05
20
13.42
0
VERTEX
8
Sketch
10
27.11
20
13.42
0
VERTEX
8
Sketch
10
27.11
20
13.54
0
VERTEX
8
Sketch
10
27.23
20
13.54
0
VERTEX
8
Sketch
10
27.23
20
13.6
0
VERTEX
8
Sketch
10
27.29
20
13.6
0
VERTEX
8
Sketch
10
27.29
20
13.66
0
VERTEX
8
Sketch
10
27.35
20
13.66
0
VERTEX
8
Sketch
10
27.35
20
13.72
0
VERTEX
8
Sketch
10
27.41
20
13.72
0
VERTEX
8
Sketch
10
27.41
20
13.84
0
VERTEX
8
Sketch
10
27.47
20
13.84
0
VERTEX
8
Sketch
10
27.47
20
13.96
0
SEQEND
0
POLYLINE
66
1
8
Sketch
62
0
0
VERTEX
8
Sketch
10
26.27
20
15.52
0
VERTEX
8
Sketch
10
26.15
20
15.52
0
VERTEX
8
Sketch
10
25.97
20
15.4
0
VERTEX
8
Sketch
10
25.97
20
15.28
0
VERTEX
8
Sketch
10
25.85
20
15.22
0
VERTEX
8
Sketch
10
25.85
20
15.1
0
VERTEX
8
Sketch
10
25.79
20
15.1
0
VERTEX
8
Sketch
10
25.79
20
14.92
0
VERTEX
8
Sketch
10
25.73
20
14.74
0
VERTEX
8
Sketch
10
25.67
20
14.74
0
VERTEX
8
Sketch
10
25.67
20
14.68
0
VERTEX
8
Sketch
10
25.61
20
14.68
0
VERTEX
8
Sketch
10
25.61
20
14.44
0
VERTEX
8
Sketch
10
25.55
20
14.44
0
VERTEX
8
Sketch
10
25.49
20
14.32
0
VERTEX
8
Sketch
10
25.25
20
14.02
0
VERTEX
8
Sketch
10
25.19
20
13.9
0
VERTEX
8
Sketch
10
25.13
20
13.9
0
VERTEX
8
Sketch
10
25.13
20
13.84
0
VERTEX
8
Sketch
10
25.01
20
13.84
0
VERTEX
8
Sketch
10
24.95
20
13.72
0
VERTEX
8
Sketch
10
24.71
20
13.42
0
VERTEX
8
Sketch
10
24.71
20
13.24
0
SEQEND
0
POLYLINE
66
1
8
Sketch
62
0
0
VERTEX
8
Sketch
10
6.6
20
-1.85
0
VERTEX
8
Sketch
10
4.11
20
-2.99
0
SEQEND
0
POLYLINE
66
1
8
Sketch
62
0
0
VERTEX
8
Sketch
10
-0.06
20
0.04
0
VERTEX
8
Sketch
10
-0.06
20
-0.05
0
VERTEX
8
Sketch
10
-0.09
20
-0.11
0
VERTEX
8
Sketch
10
-0.09
20
-1.19
0
VERTEX
8
Sketch
10
-0.15
20
-1.37
0
VERTEX
8
Sketch
10
-0.15
20
-1.61
0
VERTEX
8
Sketch
10
-0.09
20
-1.82
0
VERTEX
8
Sketch
10
0.09
20
-2.03
0
VERTEX
8
Sketch
10
0.12
20
-2.12
0
VERTEX
8
Sketch
10
0.42
20
-2.36
0
VERTEX
8
Sketch
10
1.02
20
-2.72
0
VERTEX
8
Sketch
10
1.11
20
-2.72
0
VERTEX
8
Sketch
10
1.29
20
-2.78
0
VERTEX
8
Sketch
10
2.01
20
-2.81
0
VERTEX
8
Sketch
10
2.19
20
-2.81
0
VERTEX
8
Sketch
10
2.25
20
-2.9
0
VERTEX
8
Sketch
10
2.37
20
-2.96
0
VERTEX
8
Sketch
10
3
20
-3.02
0
VERTEX
8
Sketch
10
3
20
-3.05
0
VERTEX
8
Sketch
10
3.03
20
-3.05
0
VERTEX
8
Sketch
10
3.06
20
-3.08
0
VERTEX
8
Sketch
10
4.14
20
-3.08
0
VERTEX
8
Sketch
10
6.12
20
-2.27
0
SEQEND
0
POLYLINE
66
1
8
Sketch
62
0
0
VERTEX
8
Sketch
10
0
20
0.07
0
VERTEX
8
Sketch
10
0
20
0.1
0
VERTEX
8
Sketch
10
0.03
20
0.1
0
VERTEX
8
Sketch
10
0.12
20
0.22
0
VERTEX
8
Sketch
10
0.12
20
0.25
0
VERTEX
8
Sketch
10
0.18
20
0.34
0
VERTEX
8
Sketch
10
0.21
20
0.34
0
VERTEX
8
Sketch
10
0.24
20
0.43
0
VERTEX
8
Sketch
10
0.33
20
0.55
0
VERTEX
8
Sketch
10
0.33
20
0.64
0
VERTEX
8
Sketch
10
0.36
20
0.64
0
VERTEX
8
Sketch
10
0.39
20
0.67
0
VERTEX
8
Sketch
10
0.39
20
0.73
0
VERTEX
8
Sketch
10
0.6
20
1.03
0
VERTEX
8
Sketch
10
0.72
20
1.18
0
VERTEX
8
Sketch
10
0.9
20
1.45
0
VERTEX
8
Sketch
10
1.02
20
1.63
0
VERTEX
8
Sketch
10
1.23
20
1.75
0
VERTEX
8
Sketch
10
1.38
20
1.87
0
VERTEX
8
Sketch
10
1.71
20
2.02
0
VERTEX
8
Sketch
10
1.74
20
2.02
0
VERTEX
8
Sketch
10
1.86
20
2.11
0
VERTEX
8
Sketch
10
1.89
20
2.11
0
VERTEX
8
Sketch
10
1.92
20
2.17
0
VERTEX
8
Sketch
10
2.19
20
2.35
0
VERTEX
8
Sketch
10
2.7
20
2.44
0
VERTEX
8
Sketch
10
2.94
20
2.44
0
VERTEX
8
Sketch
10
3.36
20
2.32
0
VERTEX
8
Sketch
10
3.45
20
2.32
0
VERTEX
8
Sketch
10
3.51
20
2.29
0
VERTEX
8
Sketch
10
4.44
20
2.29
0
VERTEX
8
Sketch
10
4.68
20
2.2
0
VERTEX
8
Sketch
10
4.92
20
1.96
0
VERTEX
8
Sketch
10
4.98
20
1.96
0
VERTEX
8
Sketch
10
5.13
20
1.84
0
VERTEX
8
Sketch
10
5.22
20
1.84
0
VERTEX
8
Sketch
10
5.31
20
1.78
0
VERTEX
8
Sketch
10
5.4
20
1.78
0
VERTEX
8
Sketch
10
5.43
20
1.75
0
VERTEX
8
Sketch
10
5.52
20
1.75
0
VERTEX
8
Sketch
10
5.85
20
1.57
0
VERTEX
8
Sketch
10
5.94
20
1.54
0
VERTEX
8
Sketch
10
6.12
20
1.39
0
VERTEX
8
Sketch
10
6.45
20
1.21
0
VERTEX
8
Sketch
10
6.51
20
1.12
0
VERTEX
8
Sketch
10
6.81
20
0.91
0
VERTEX
8
Sketch
10
6.81
20
0.85
0
VERTEX
8
Sketch
10
6.72
20
0.73
0
VERTEX
8
Sketch
10
6.72
20
0.61
0
VERTEX
8
Sketch
10
6.81
20
0.49
0
VERTEX
8
Sketch
10
7.05
20
0.4
0
VERTEX
8
Sketch
10
7.11
20
0.31
0
VERTEX
8
Sketch
10
7.11
20
0.25
0
SEQEND
0
LINE
8
Shots
62
1
10
74.858
20
0.646
11
81.364
21
-5.586
0
CIRCLE
8
Shots
62
1
10
81.364
20
-5.586
40
0.1
0
LINE
8
Shots
62
1
10
65.906
20
0.976
11
74.858
21
0.646
0
CIRCLE
8
Shots
62
1
10
74.858
20
0.646
40
0.1
0
LINE
8
Shots
62
1
10
60.132
20
8.534
11
65.906
21
0.976
0
CIRCLE
8
Shots
62
1
10
65.906
20
0.976
40
0.1
0
LINE
8
XSect
62
1
6
DASH
10
65.906
20
0.976
11
59.834
21
8.182
0
LINE
8
Shots
62
1
10
60.378
20
13.862
11
60.132
21
8.534
0
CIRCLE
8
Shots
62
1
10
60.132
20
8.534
40
0.1
0
LINE
8
Shots
62
1
10
57.03
20
13.4
11
60.378
21
13.862
0
CIRCLE
8
Shots
62
1
10
60.378
20
13.862
40
0.1
0
LINE
8
Shots
62
1
10
53.522
20
14.476
11
57.03
21
13.4
0
CIRCLE
8
Shots
62
1
10
57.03
20
13.4
40
0.1
0
LINE
8
Shots
62
1
10
50.616
20
17.704
11
53.522
21
14.476
0
CIRCLE
8
Shots
62
1
10
53.522
20
14.476
40
0.1
0
LINE
8
Shots
62
1
10
51.346
20
19.252
11
50.616
21
17.704
0
CIRCLE
8
Shots
62
1
10
50.616
20
17.704
40
0.1
0
LINE
8
Shots
62
1
10
43.432
20
24.562
11
51.346
21
19.252
0
CIRCLE
8
Shots
62
1
10
51.346
20
19.252
40
0.1
0
LINE
8
Shots
62
1
10
39.498
20
19.9
11
43.432
21
24.562
0
CIRCLE
8
Shots
62
1
10
43.432
20
24.562
40
0.1
0
LINE
8
Shots
62
1
10
48.664
20
14.724
11
54.294
21
20.934
0
CIRCLE
8
Shots
62
1
10
54.294
20
20.934
40
0.1
0
LINE
8
Shots
62
1
10
45.224
20
16.066
11
48.664
21
14.724
0
CIRCLE
8
Shots
62
1
10
48.664
20
14.724
40
0.1
0
LINE
8
Shots
62
1
10
42.45
20
19.952
11
45.224
21
16.066
0
CIRCLE
8
Shots
62
1
10
45.224
20
16.066
40
0.1
0
LINE
8
Shots
62
1
10
39.498
20
19.9
11
42.45
21
19.952
0
CIRCLE
8
Shots
62
1
10
42.45
20
19.952
40
0.1
0
LINE
8
Shots
62
1
10
35.502
20
17.894
11
29.736
21
16.388
0
CIRCLE
8
Shots
62
1
10
29.736
20
16.388
40
0.1
0
LINE
8
Shots
62
1
10
36.346
20
15.034
11
35.502
21
17.894
0
CIRCLE
8
Shots
62
1
10
35.502
20
17.894
40
0.1
0
LINE
8
Shots
62
1
10
36.346
20
15.034
11
31.904
21
14.396
0
CIRCLE
8
Shots
62
1
10
31.904
20
14.396
40
0.1
0
LINE
8
Shots
62
1
10
39.498
20
19.9
11
36.346
21
15.034
0
CIRCLE
8
Shots
62
1
10
36.346
20
15.034
40
0.1
0
LINE
8
Shots
62
1
10
37.166
20
23.094
11
39.498
21
19.9
0
CIRCLE
8
Shots
62
1
10
39.498
20
19.9
40
0.1
0
LINE
8
Shots
62
1
10
34.83
20
19.348
11
37.166
21
23.094
0
CIRCLE
8
Shots
62
1
10
37.166
20
23.094
40
0.1
0
LINE
8
Shots
62
1
10
34.83
20
19.348
11
37.298
21
25.68
0
CIRCLE
8
Shots
62
1
10
37.298
20
25.68
40
0.1
0
LINE
8
Shots
62
1
10
33.478
20
19.294
11
34.83
21
19.348
0
CIRCLE
8
Shots
62
1
10
34.83
20
19.348
40
0.1
0
LINE
8
Shots
62
1
10
30.084
20
15.744
11
33.478
21
19.294
0
CIRCLE
8
Shots
62
1
10
33.478
20
19.294
40
0.1
0
LINE
8
Shots
62
1
10
26.266
20
15.432
11
30.084
21
15.744
0
CIRCLE
8
Shots
62
1
10
30.084
20
15.744
40
0.1
0
LINE
8
Shots
62
1
10
26.716
20
11.686
11
26.266
21
15.432
0
CIRCLE
8
Shots
62
1
10
26.266
20
15.432
40
0.1
0
LINE
8
Shots
62
1
10
17.112
20
5.184
11
26.716
21
11.686
0
CIRCLE
8
Shots
62
1
10
26.716
20
11.686
40
0.1
0
LINE
8
Shots
62
1
10
15.598
20
4.628
11
17.112
21
5.184
0
CIRCLE
8
Shots
62
1
10
17.112
20
5.184
40
0.1
0
LINE
8
Shots
62
1
10
14.376
20
5.752
11
15.598
21
4.628
0
CIRCLE
8
Shots
62
1
10
15.598
20
4.628
40
0.1
0
LINE
8
Shots
62
1
10
8.672
20
-1.214
11
14.376
21
5.752
0
CIRCLE
8
Shots
62
1
10
14.376
20
5.752
40
0.1
0
LINE
8
Shots
62
1
10
0
20
0
11
8.672
21
-1.214
0
CIRCLE
8
Shots
62
1
10
8.672
20
-1.214
40
0.1
0
ENDSEC
0
EOF
