0
SECTION
2
HEADER
9
$ACADVER
1
AC1002
9
$INSUNITS
70
4
0
ENDSEC
0
SECTION
2
TABLES
0
TABLE
2
LTYPE
70
1
0
LTYPE
2
DASH
70
0
3
---
72
65
73
2
40
0.6
49
0.3
49
-0.3
0
ENDTAB
0
ENDSEC
0
SECTION
2
ENTITIES
0
POLYLINE
66
1
8
Sketch
62
0
0
VERTEX
8
Sketch
10
16.7
20
-11.98
0
VERTEX
8
Sketch
10
16.58
20
-11.98
0
SEQEND
0
POLYLINE
66
1
8
Sketch
62
0
0
VERTEX
8
Sketch
10
14.66
20
-10.42
0
VERTEX
8
Sketch
10
14.9
20
-10.42
0
VERTEX
8
Sketch
10
14.66
20
-10.78
0
VERTEX
8
Sketch
10
14.66
20
-11.26
0
VERTEX
8
Sketch
10
15.38
20
-11.74
0
VERTEX
8
Sketch
10
16.22
20
-11.98
0
VERTEX
8
Sketch
10
16.46
20
-11.98
0
VERTEX
8
Sketch
10
16.58
20
-11.38
0
VERTEX
8
Sketch
10
16.58
20
-11.26
0
SEQEND
0
POLYLINE
66
1
8
Sketch
62
0
0
VERTEX
8
Sketch
10
11.9
20
-8.5
0
VERTEX
8
Sketch
10
11.9
20
-8.5
0
VERTEX
8
Sketch
10
11.3
20
-8.5
0
VERTEX
8
Sketch
10
10.94
20
-8.98
0
VERTEX
8
Sketch
10
10.94
20
-9.34
0
VERTEX
8
Sketch
10
10.82
20
-9.7
0
VERTEX
8
Sketch
10
11.18
20
-9.7
0
VERTEX
8
Sketch
10
11.3
20
-9.46
0
VERTEX
8
Sketch
10
11.54
20
-9.46
0
SEQEND
0
POLYLINE
66
1
8
Sketch
62
0
0
VERTEX
8
Sketch
10
12.86
20
-9.82
0
VERTEX
8
Sketch
10
12.86
20
-9.7
0
VERTEX
8
Sketch
10
12.5
20
-9.46
0
VERTEX
8
Sketch
10
12.38
20
-9.46
0
VERTEX
8
Sketch
10
12.38
20
-9.7
0
VERTEX
8
Sketch
10
12.98
20
-10.18
0
VERTEX
8
Sketch
10
13.22
20
-10.18
0
VERTEX
8
Sketch
10
13.22
20
-10.3
0
VERTEX
8
Sketch
10
13.82
20
-10.3
0
VERTEX
8
Sketch
10
13.94
20
-9.7
0
VERTEX
8
Sketch
10
13.94
20
-9.46
0
VERTEX
8
Sketch
10
12.62
20
-9.46
0
SEQEND
0
POLYLINE
66
1
8
Sketch
62
0
0
VERTEX
8
Sketch
10
5.06
20
-5.62
0
VERTEX
8
Sketch
10
5.18
20
-5.62
0
VERTEX
8
Sketch
10
5.18
20
-5.38
0
VERTEX
8
Sketch
10
4.7
20
-4.9
0
VERTEX
8
Sketch
10
4.34
20
-4.9
0
VERTEX
8
Sketch
10
3.98
20
-6.34
0
VERTEX
8
Sketch
10
4.1
20
-6.58
0
VERTEX
8
Sketch
10
4.46
20
-6.58
0
VERTEX
8
Sketch
10
5.78
20
-5.74
0
VERTEX
8
Sketch
10
5.78
20
-5.38
0
SEQEND
0
POLYLINE
66
1
8
Sketch
62
0
0
VERTEX
8
Sketch
10
5.78
20
-5.14
0
VERTEX
8
Sketch
10
5.54
20
-5.14
0
VERTEX
8
Sketch
10
5.42
20
-5.26
0
VERTEX
8
Sketch
10
5.06
20
-5.26
0
VERTEX
8
Sketch
10
4.1
20
-5.62
0
VERTEX
8
Sketch
10
3.74
20
-5.62
0
VERTEX
8
Sketch
10
3.02
20
-5.86
0
VERTEX
8
Sketch
10
3.38
20
-5.98
0
VERTEX
8
Sketch
10
3.38
20
-6.1
0
VERTEX
8
Sketch
10
3.86
20
-6.1
0
SEQEND
0
POLYLINE
66
1
8
Sketch
62
5
0
VERTEX
8
Sketch
10
-7.06
20
-32.38
0
VERTEX
8
Sketch
10
-7.06
20
-32.5
0
SEQEND
0
POLYLINE
66
1
8
Sketch
62
5
0
VERTEX
8
Sketch
10
98.42
20
-86.98
0
VERTEX
8
Sketch
10
98.54
20
-86.98
0
VERTEX
8
Sketch
10
98.54
20
-88.3
0
VERTEX
8
Sketch
10
98.42
20
-88.78
0
VERTEX
8
Sketch
10
98.06
20
-89.02
0
VERTEX
8
Sketch
10
98.06
20
-89.5
0
SEQEND
0
POLYLINE
66
1
8
Sketch
62
5
0
VERTEX
8
Sketch
10
96.98
20
-86.14
0
VERTEX
8
Sketch
10
96.98
20
-87.34
0
VERTEX
8
Sketch
10
96.74
20
-88.66
0
VERTEX
8
Sketch
10
96.5
20
-89.26
0
VERTEX
8
Sketch
10
96.62
20
-89.14
0
SEQEND
0
POLYLINE
66
1
8
Sketch
62
5
0
VERTEX
8
Sketch
10
95.9
20
-86.26
0
VERTEX
8
Sketch
10
95.9
20
-86.86
0
VERTEX
8
Sketch
10
95.66
20
-87.82
0
VERTEX
8
Sketch
10
95.66
20
-88.18
0
SEQEND
0
POLYLINE
66
1
8
Sketch
62
5
0
VERTEX
8
Sketch
10
97.94
20
-93.82
0
VERTEX
8
Sketch
10
98.06
20
-96.1
0
VERTEX
8
Sketch
10
98.18
20
-97.9
0
VERTEX
8
Sketch
10
98.42
20
-97.78
0
VERTEX
8
Sketch
10
98.42
20
-97.66
0
SEQEND
0
POLYLINE
66
1
8
Sketch
62
5
0
VERTEX
8
Sketch
10
96.5
20
-93.34
0
VERTEX
8
Sketch
10
96.5
20
-96.22
0
VERTEX
8
Sketch
10
96.62
20
-96.22
0
VERTEX
8
Sketch
10
96.62
20
-96.1
0
VERTEX
8
Sketch
10
96.74
20
-96.1
0
SEQEND
0
POLYLINE
66
1
8
Sketch
62
5
0
VERTEX
8
Sketch
10
96.14
20
-90.34
0
VERTEX
8
Sketch
10
96.26
20
-90.7
0
VERTEX
8
Sketch
10
96.26
20
-92.38
0
VERTEX
8
Sketch
10
95.9
20
-93.7
0
VERTEX
8
Sketch
10
95.78
20
-94.66
0
VERTEX
8
Sketch
10
95.18
20
-96.58
0
VERTEX
8
Sketch
10
95.06
20
-96.58
0
VERTEX
8
Sketch
10
95.06
20
-96.7
0
VERTEX
8
Sketch
10
94.94
20
-96.7
0
SEQEND
0
POLYLINE
66
1
8
Sketch
62
9
0
VERTEX
8
Sketch
10
133.94
20
-136.9
0
VERTEX
8
Sketch
10
135.02
20
-136.54
0
VERTEX
8
Sketch
10
135.5
20
-135.82
0
VERTEX
8
Sketch
10
135.5
20
-135.46
0
SEQEND
0
POLYLINE
66
1
8
Sketch
62
9
0
VERTEX
8
Sketch
10
131.78
20
-132.58
0
VERTEX
8
Sketch
10
131.78
20
-131.74
0
VERTEX
8
Sketch
10
133.7
20
-128.14
0
VERTEX
8
Sketch
10
134.06
20
-127.3
0
VERTEX
8
Sketch
10
134.3
20
-127.3
0
VERTEX
8
Sketch
10
134.3
20
-127.18
0
VERTEX
8
Sketch
10
134.78
20
-127.18
0
VERTEX
8
Sketch
10
135.14
20
-127.42
0
VERTEX
8
Sketch
10
135.38
20
-127.42
0
VERTEX
8
Sketch
10
135.98
20
-127.78
0
VERTEX
8
Sketch
10
136.34
20
-128.86
0
VERTEX
8
Sketch
10
136.34
20
-132.22
0
VERTEX
8
Sketch
10
135.98
20
-133.18
0
VERTEX
8
Sketch
10
135.74
20
-133.18
0
VERTEX
8
Sketch
10
135.74
20
-133.3
0
VERTEX
8
Sketch
10
135.26
20
-133.3
0
SEQEND
0
POLYLINE
66
1
8
Sketch
62
9
0
VERTEX
8
Sketch
10
125.18
20
-124.54
0
VERTEX
8
Sketch
10
125.18
20
-124.9
0
VERTEX
8
Sketch
10
125.78
20
-126.58
0
VERTEX
8
Sketch
10
125.78
20
-126.94
0
VERTEX
8
Sketch
10
126.74
20
-128.14
0
VERTEX
8
Sketch
10
127.1
20
-128.74
0
VERTEX
8
Sketch
10
127.58
20
-129.22
0
VERTEX
8
Sketch
10
127.82
20
-129.34
0
VERTEX
8
Sketch
10
126.86
20
-129.34
0
VERTEX
8
Sketch
10
126.5
20
-129.1
0
VERTEX
8
Sketch
10
125.66
20
-128.98
0
VERTEX
8
Sketch
10
123.26
20
-128.14
0
VERTEX
8
Sketch
10
122.54
20
-128.14
0
VERTEX
8
Sketch
10
121.22
20
-127.9
0
VERTEX
8
Sketch
10
119.9
20
-127.9
0
VERTEX
8
Sketch
10
119.78
20
-127.54
0
VERTEX
8
Sketch
10
119.78
20
-127.18
0
VERTEX
8
Sketch
10
119.66
20
-127.18
0
SEQEND
0
POLYLINE
66
1
8
Sketch
62
9
0
VERTEX
8
Sketch
10
119.9
20
-120.46
0
VERTEX
8
Sketch
10
120.14
20
-120.82
0
VERTEX
8
Sketch
10
120.14
20
-121.18
0
VERTEX
8
Sketch
10
120.5
20
-121.42
0
VERTEX
8
Sketch
10
121.58
20
-123.34
0
VERTEX
8
Sketch
10
123.14
20
-124.9
0
VERTEX
8
Sketch
10
124.22
20
-125.62
0
VERTEX
8
Sketch
10
124.7
20
-126.1
0
VERTEX
8
Sketch
10
124.7
20
-126.34
0
VERTEX
8
Sketch
10
124.82
20
-126.34
0
VERTEX
8
Sketch
10
124.94
20
-126.58
0
SEQEND
0
POLYLINE
66
1
8
Sketch
62
9
0
VERTEX
8
Sketch
10
109.82
20
-105.22
0
VERTEX
8
Sketch
10
109.82
20
-105.7
0
VERTEX
8
Sketch
10
110.06
20
-105.94
0
VERTEX
8
Sketch
10
110.06
20
-106.3
0
VERTEX
8
Sketch
10
110.42
20
-107.02
0
VERTEX
8
Sketch
10
110.42
20
-107.5
0
VERTEX
8
Sketch
10
110.9
20
-108.1
0
VERTEX
8
Sketch
10
110.9
20
-108.34
0
VERTEX
8
Sketch
10
111.74
20
-109.9
0
VERTEX
8
Sketch
10
112.46
20
-110.5
0
VERTEX
8
Sketch
10
112.82
20
-111.58
0
VERTEX
8
Sketch
10
113.06
20
-111.7
0
VERTEX
8
Sketch
10
113.06
20
-112.06
0
VERTEX
8
Sketch
10
113.9
20
-112.9
0
VERTEX
8
Sketch
10
113.9
20
-113.14
0
VERTEX
8
Sketch
10
114.02
20
-113.14
0
VERTEX
8
Sketch
10
114.02
20
-113.5
0
VERTEX
8
Sketch
10
114.86
20
-114.94
0
VERTEX
8
Sketch
10
115.94
20
-116.26
0
VERTEX
8
Sketch
10
116.42
20
-116.98
0
VERTEX
8
Sketch
10
116.54
20
-116.98
0
VERTEX
8
Sketch
10
116.54
20
-117.1
0
SEQEND
0
POLYLINE
66
1
8
Sketch
62
9
0
VERTEX
8
Sketch
10
98.18
20
-102.22
0
VERTEX
8
Sketch
10
98.3
20
-102.22
0
VERTEX
8
Sketch
10
98.42
20
-102.46
0
VERTEX
8
Sketch
10
99.38
20
-103.42
0
VERTEX
8
Sketch
10
99.5
20
-103.78
0
VERTEX
8
Sketch
10
100.34
20
-104.14
0
VERTEX
8
Sketch
10
102.5
20
-105.94
0
VERTEX
8
Sketch
10
104.78
20
-107.38
0
VERTEX
8
Sketch
10
105.02
20
-107.74
0
VERTEX
8
Sketch
10
105.62
20
-107.98
0
VERTEX
8
Sketch
10
106.34
20
-108.46
0
VERTEX
8
Sketch
10
106.7
20
-108.94
0
VERTEX
8
Sketch
10
106.7
20
-109.18
0
VERTEX
8
Sketch
10
107.18
20
-109.66
0
VERTEX
8
Sketch
10
107.78
20
-110.86
0
VERTEX
8
Sketch
10
108.02
20
-111.1
0
VERTEX
8
Sketch
10
108.02
20
-111.34
0
VERTEX
8
Sketch
10
108.38
20
-111.94
0
VERTEX
8
Sketch
10
108.5
20
-112.42
0
VERTEX
8
Sketch
10
108.74
20
-112.66
0
VERTEX
8
Sketch
10
108.74
20
-113.02
0
VERTEX
8
Sketch
10
109.46
20
-113.98
0
VERTEX
8
Sketch
10
109.46
20
-114.1
0
VERTEX
8
Sketch
10
109.7
20
-114.22
0
VERTEX
8
Sketch
10
109.7
20
-114.46
0
VERTEX
8
Sketch
10
109.82
20
-114.46
0
VERTEX
8
Sketch
10
110.06
20
-115.18
0
VERTEX
8
Sketch
10
110.06
20
-115.3
0
SEQEND
0
POLYLINE
66
1
8
Sketch
62
9
0
VERTEX
8
Sketch
10
90.5
20
-75.58
0
VERTEX
8
Sketch
10
90.98
20
-75.58
0
VERTEX
8
Sketch
10
91.46
20
-75.7
0
VERTEX
8
Sketch
10
91.94
20
-76.3
0
VERTEX
8
Sketch
10
92.9
20
-76.78
0
VERTEX
8
Sketch
10
95.9
20
-79.06
0
VERTEX
8
Sketch
10
97.7
20
-81.1
0
VERTEX
8
Sketch
10
98.3
20
-81.46
0
VERTEX
8
Sketch
10
98.78
20
-82.54
0
VERTEX
8
Sketch
10
99.38
20
-83.38
0
VERTEX
8
Sketch
10
99.5
20
-83.86
0
VERTEX
8
Sketch
10
99.74
20
-84.7
0
VERTEX
8
Sketch
10
99.74
20
-86.02
0
VERTEX
8
Sketch
10
99.98
20
-86.74
0
VERTEX
8
Sketch
10
99.98
20
-90.34
0
VERTEX
8
Sketch
10
100.22
20
-91.18
0
VERTEX
8
Sketch
10
100.46
20
-91.78
0
VERTEX
8
Sketch
10
100.46
20
-92.74
0
VERTEX
8
Sketch
10
100.58
20
-92.74
0
VERTEX
8
Sketch
10
100.58
20
-92.98
0
VERTEX
8
Sketch
10
100.7
20
-93.34
0
VERTEX
8
Sketch
10
100.82
20
-93.94
0
VERTEX
8
Sketch
10
100.82
20
-94.66
0
VERTEX
8
Sketch
10
100.94
20
-94.66
0
VERTEX
8
Sketch
10
100.94
20
-95.02
0
VERTEX
8
Sketch
10
101.06
20
-95.02
0
VERTEX
8
Sketch
10
101.06
20
-96.22
0
VERTEX
8
Sketch
10
101.18
20
-96.22
0
VERTEX
8
Sketch
10
101.18
20
-99.1
0
VERTEX
8
Sketch
10
101.54
20
-99.46
0
VERTEX
8
Sketch
10
101.78
20
-99.46
0
VERTEX
8
Sketch
10
101.78
20
-99.58
0
VERTEX
8
Sketch
10
102.26
20
-99.7
0
VERTEX
8
Sketch
10
102.86
20
-100.3
0
VERTEX
8
Sketch
10
104.18
20
-100.78
0
VERTEX
8
Sketch
10
104.42
20
-101.02
0
VERTEX
8
Sketch
10
104.66
20
-101.02
0
VERTEX
8
Sketch
10
104.78
20
-101.38
0
VERTEX
8
Sketch
10
106.46
20
-102.34
0
VERTEX
8
Sketch
10
106.7
20
-102.34
0
VERTEX
8
Sketch
10
107.66
20
-102.94
0
VERTEX
8
Sketch
10
107.9
20
-102.94
0
VERTEX
8
Sketch
10
108.26
20
-103.3
0
VERTEX
8
Sketch
10
108.62
20
-103.3
0
VERTEX
8
Sketch
10
108.62
20
-103.42
0
VERTEX
8
Sketch
10
111.38
20
-105.1
0
VERTEX
8
Sketch
10
111.38
20
-105.58
0
VERTEX
8
Sketch
10
111.26
20
-105.7
0
SEQEND
0
POLYLINE
66
1
8
Sketch
62
9
0
VERTEX
8
Sketch
10
88.46
20
-85.66
0
VERTEX
8
Sketch
10
88.46
20
-86.26
0
VERTEX
8
Sketch
10
88.58
20
-86.86
0
VERTEX
8
Sketch
10
88.46
20
-87.34
0
VERTEX
8
Sketch
10
87.62
20
-88.66
0
VERTEX
8
Sketch
10
87.38
20
-89.26
0
VERTEX
8
Sketch
10
87.02
20
-89.62
0
VERTEX
8
Sketch
10
86.66
20
-90.46
0
VERTEX
8
Sketch
10
85.94
20
-91.54
0
VERTEX
8
Sketch
10
85.58
20
-91.9
0
VERTEX
8
Sketch
10
85.22
20
-92.26
0
VERTEX
8
Sketch
10
84.98
20
-92.38
0
VERTEX
8
Sketch
10
84.98
20
-92.5
0
VERTEX
8
Sketch
10
84.74
20
-92.62
0
VERTEX
8
Sketch
10
84.74
20
-93.1
0
VERTEX
8
Sketch
10
84.62
20
-93.46
0
VERTEX
8
Sketch
10
84.62
20
-94.06
0
VERTEX
8
Sketch
10
84.38
20
-95.02
0
VERTEX
8
Sketch
10
84.26
20
-95.62
0
VERTEX
8
Sketch
10
84.26
20
-96.82
0
VERTEX
8
Sketch
10
84.38
20
-96.94
0
VERTEX
8
Sketch
10
84.38
20
-97.3
0
VERTEX
8
Sketch
10
84.5
20
-97.78
0
VERTEX
8
Sketch
10
84.62
20
-98.62
0
VERTEX
8
Sketch
10
84.86
20
-99.1
0
VERTEX
8
Sketch
10
84.98
20
-99.7
0
VERTEX
8
Sketch
10
85.34
20
-100.3
0
VERTEX
8
Sketch
10
85.46
20
-100.3
0
VERTEX
8
Sketch
10
86.3
20
-100.9
0
VERTEX
8
Sketch
10
86.42
20
-101.26
0
VERTEX
8
Sketch
10
86.66
20
-101.5
0
VERTEX
8
Sketch
10
86.9
20
-101.5
0
VERTEX
8
Sketch
10
86.9
20
-101.62
0
VERTEX
8
Sketch
10
87.26
20
-101.62
0
VERTEX
8
Sketch
10
87.26
20
-101.74
0
VERTEX
8
Sketch
10
87.74
20
-101.86
0
VERTEX
8
Sketch
10
88.46
20
-102.46
0
VERTEX
8
Sketch
10
89.18
20
-102.82
0
VERTEX
8
Sketch
10
89.54
20
-102.82
0
VERTEX
8
Sketch
10
89.78
20
-102.94
0
VERTEX
8
Sketch
10
89.78
20
-103.18
0
VERTEX
8
Sketch
10
90.38
20
-103.3
0
VERTEX
8
Sketch
10
90.62
20
-103.54
0
VERTEX
8
Sketch
10
90.98
20
-103.54
0
VERTEX
8
Sketch
10
91.34
20
-103.78
0
VERTEX
8
Sketch
10
91.82
20
-103.78
0
VERTEX
8
Sketch
10
92.54
20
-104.02
0
VERTEX
8
Sketch
10
93.98
20
-104.02
0
VERTEX
8
Sketch
10
93.98
20
-103.9
0
VERTEX
8
Sketch
10
94.94
20
-103.9
0
VERTEX
8
Sketch
10
95.18
20
-103.66
0
VERTEX
8
Sketch
10
95.54
20
-103.66
0
VERTEX
8
Sketch
10
96.74
20
-102.94
0
VERTEX
8
Sketch
10
97.7
20
-102.58
0
VERTEX
8
Sketch
10
97.7
20
-102.46
0
VERTEX
8
Sketch
10
97.94
20
-102.46
0
VERTEX
8
Sketch
10
97.94
20
-102.34
0
VERTEX
8
Sketch
10
98.18
20
-102.34
0
VERTEX
8
Sketch
10
98.54
20
-102.22
0
VERTEX
8
Sketch
10
99.38
20
-102.22
0
SEQEND
0
POLYLINE
66
1
8
Sketch
62
9
0
VERTEX
8
Sketch
10
84.86
20
-77.74
0
VERTEX
8
Sketch
10
84.98
20
-77.74
0
VERTEX
8
Sketch
10
84.98
20
-77.86
0
VERTEX
8
Sketch
10
85.22
20
-77.86
0
VERTEX
8
Sketch
10
85.34
20
-78.1
0
VERTEX
8
Sketch
10
85.7
20
-78.1
0
VERTEX
8
Sketch
10
85.7
20
-78.22
0
VERTEX
8
Sketch
10
85.94
20
-78.22
0
VERTEX
8
Sketch
10
86.18
20
-78.46
0
VERTEX
8
Sketch
10
86.78
20
-78.58
0
VERTEX
8
Sketch
10
86.78
20
-78.7
0
VERTEX
8
Sketch
10
86.9
20
-78.7
0
VERTEX
8
Sketch
10
87.62
20
-79.42
0
VERTEX
8
Sketch
10
87.98
20
-79.42
0
VERTEX
8
Sketch
10
87.98
20
-79.66
0
VERTEX
8
Sketch
10
88.22
20
-80.02
0
VERTEX
8
Sketch
10
88.22
20
-81.1
0
VERTEX
8
Sketch
10
88.34
20
-81.58
0
VERTEX
8
Sketch
10
88.34
20
-82.3
0
VERTEX
8
Sketch
10
88.46
20
-82.66
0
VERTEX
8
Sketch
10
88.46
20
-83.38
0
VERTEX
8
Sketch
10
88.7
20
-83.62
0
VERTEX
8
Sketch
10
88.7
20
-83.86
0
VERTEX
8
Sketch
10
88.82
20
-83.86
0
VERTEX
8
Sketch
10
88.82
20
-84.22
0
VERTEX
8
Sketch
10
88.94
20
-84.22
0
VERTEX
8
Sketch
10
88.94
20
-84.58
0
VERTEX
8
Sketch
10
89.06
20
-84.58
0
VERTEX
8
Sketch
10
89.06
20
-86.02
0
VERTEX
8
Sketch
10
89.18
20
-86.02
0
VERTEX
8
Sketch
10
89.18
20
-86.5
0
VERTEX
8
Sketch
10
88.94
20
-86.62
0
VERTEX
8
Sketch
10
88.94
20
-86.74
0
VERTEX
8
Sketch
10
88.82
20
-86.74
0
SEQEND
0
POLYLINE
66
1
8
Sketch
62
9
0
VERTEX
8
Sketch
10
81.74
20
-64.06
0
VERTEX
8
Sketch
10
81.98
20
-64.18
0
VERTEX
8
Sketch
10
82.58
20
-64.78
0
VERTEX
8
Sketch
10
82.58
20
-65.02
0
VERTEX
8
Sketch
10
83.18
20
-65.98
0
VERTEX
8
Sketch
10
83.9
20
-67.3
0
VERTEX
8
Sketch
10
84.38
20
-68.02
0
VERTEX
8
Sketch
10
84.38
20
-68.26
0
VERTEX
8
Sketch
10
86.42
20
-71.14
0
VERTEX
8
Sketch
10
87.14
20
-72.58
0
VERTEX
8
Sketch
10
87.26
20
-72.94
0
VERTEX
8
Sketch
10
87.38
20
-72.94
0
VERTEX
8
Sketch
10
87.38
20
-73.06
0
VERTEX
8
Sketch
10
87.62
20
-73.06
0
VERTEX
8
Sketch
10
87.74
20
-73.3
0
VERTEX
8
Sketch
10
87.98
20
-73.42
0
VERTEX
8
Sketch
10
87.98
20
-73.66
0
VERTEX
8
Sketch
10
89.06
20
-74.86
0
VERTEX
8
Sketch
10
89.3
20
-74.86
0
VERTEX
8
Sketch
10
90.02
20
-75.34
0
VERTEX
8
Sketch
10
90.14
20
-75.34
0
VERTEX
8
Sketch
10
90.14
20
-75.46
0
VERTEX
8
Sketch
10
90.38
20
-75.46
0
VERTEX
8
Sketch
10
90.5
20
-75.7
0
VERTEX
8
Sketch
10
90.74
20
-75.7
0
VERTEX
8
Sketch
10
90.74
20
-75.82
0
VERTEX
8
Sketch
10
90.98
20
-75.94
0
VERTEX
8
Sketch
10
91.34
20
-76.06
0
VERTEX
8
Sketch
10
91.46
20
-76.06
0
VERTEX
8
Sketch
10
91.46
20
-76.18
0
VERTEX
8
Sketch
10
91.82
20
-76.18
0
SEQEND
0
POLYLINE
66
1
8
Sketch
62
9
0
VERTEX
8
Sketch
10
66.98
20
-51.34
0
VERTEX
8
Sketch
10
67.58
20
-51.94
0
VERTEX
8
Sketch
10
67.94
20
-52.54
0
VERTEX
8
Sketch
10
68.78
20
-53.98
0
VERTEX
8
Sketch
10
69.26
20
-54.7
0
VERTEX
8
Sketch
10
69.26
20
-54.94
0
VERTEX
8
Sketch
10
69.62
20
-55.42
0
VERTEX
8
Sketch
10
69.62
20
-55.9
0
VERTEX
8
Sketch
10
69.98
20
-56.26
0
VERTEX
8
Sketch
10
69.98
20
-56.86
0
VERTEX
8
Sketch
10
70.34
20
-57.34
0
VERTEX
8
Sketch
10
70.7
20
-57.94
0
VERTEX
8
Sketch
10
71.18
20
-59.26
0
VERTEX
8
Sketch
10
72.02
20
-60.34
0
VERTEX
8
Sketch
10
72.38
20
-61.54
0
VERTEX
8
Sketch
10
72.74
20
-62.14
0
VERTEX
8
Sketch
10
72.74
20
-62.38
0
VERTEX
8
Sketch
10
72.98
20
-62.5
0
VERTEX
8
Sketch
10
73.22
20
-63.1
0
VERTEX
8
Sketch
10
73.82
20
-63.7
0
VERTEX
8
Sketch
10
74.78
20
-65.02
0
VERTEX
8
Sketch
10
75.14
20
-65.26
0
VERTEX
8
Sketch
10
75.74
20
-66.34
0
VERTEX
8
Sketch
10
76.1
20
-66.82
0
VERTEX
8
Sketch
10
76.82
20
-68.14
0
VERTEX
8
Sketch
10
76.82
20
-68.38
0
VERTEX
8
Sketch
10
77.06
20
-68.74
0
VERTEX
8
Sketch
10
77.06
20
-69.1
0
VERTEX
8
Sketch
10
77.18
20
-69.22
0
VERTEX
8
Sketch
10
77.18
20
-69.58
0
VERTEX
8
Sketch
10
77.42
20
-69.82
0
VERTEX
8
Sketch
10
77.42
20
-70.42
0
VERTEX
8
Sketch
10
77.78
20
-71.02
0
VERTEX
8
Sketch
10
77.78
20
-71.38
0
VERTEX
8
Sketch
10
78.14
20
-71.5
0
VERTEX
8
Sketch
10
78.14
20
-71.62
0
VERTEX
8
Sketch
10
78.38
20
-71.98
0
VERTEX
8
Sketch
10
78.5
20
-72.34
0
VERTEX
8
Sketch
10
78.62
20
-72.34
0
VERTEX
8
Sketch
10
78.74
20
-72.82
0
VERTEX
8
Sketch
10
78.98
20
-72.94
0
VERTEX
8
Sketch
10
78.98
20
-73.18
0
VERTEX
8
Sketch
10
79.22
20
-73.3
0
VERTEX
8
Sketch
10
79.34
20
-73.54
0
VERTEX
8
Sketch
10
79.7
20
-73.9
0
VERTEX
8
Sketch
10
79.94
20
-73.9
0
VERTEX
8
Sketch
10
80.3
20
-74.5
0
VERTEX
8
Sketch
10
80.42
20
-74.5
0
VERTEX
8
Sketch
10
81.02
20
-75.1
0
VERTEX
8
Sketch
10
81.02
20
-75.22
0
VERTEX
8
Sketch
10
81.26
20
-75.46
0
VERTEX
8
Sketch
10
81.5
20
-75.94
0
VERTEX
8
Sketch
10
81.74
20
-75.94
0
VERTEX
8
Sketch
10
81.74
20
-76.18
0
VERTEX
8
Sketch
10
81.86
20
-76.18
0
VERTEX
8
Sketch
10
82.1
20
-76.42
0
VERTEX
8
Sketch
10
83.06
20
-77.14
0
VERTEX
8
Sketch
10
83.3
20
-77.26
0
VERTEX
8
Sketch
10
84.02
20
-77.74
0
VERTEX
8
Sketch
10
84.14
20
-77.74
0
VERTEX
8
Sketch
10
84.38
20
-77.98
0
VERTEX
8
Sketch
10
84.74
20
-78.1
0
VERTEX
8
Sketch
10
84.74
20
-78.22
0
VERTEX
8
Sketch
10
84.98
20
-78.22
0
VERTEX
8
Sketch
10
84.98
20
-78.34
0
VERTEX
8
Sketch
10
85.22
20
-78.34
0
VERTEX
8
Sketch
10
85.22
20
-78.58
0
VERTEX
8
Sketch
10
85.7
20
-78.58
0
VERTEX
8
Sketch
10
85.7
20
-78.82
0
VERTEX
8
Sketch
10
85.82
20
-78.82
0
SEQEND
0
POLYLINE
66
1
8
Sketch
62
9
0
VERTEX
8
Sketch
10
64.1
20
-36.58
0
VERTEX
8
Sketch
10
64.46
20
-37.3
0
VERTEX
8
Sketch
10
64.46
20
-37.54
0
VERTEX
8
Sketch
10
66.02
20
-39.46
0
VERTEX
8
Sketch
10
66.38
20
-39.82
0
VERTEX
8
Sketch
10
66.86
20
-39.94
0
VERTEX
8
Sketch
10
67.58
20
-41.02
0
VERTEX
8
Sketch
10
70.46
20
-43.78
0
VERTEX
8
Sketch
10
70.82
20
-43.9
0
VERTEX
8
Sketch
10
71.78
20
-44.86
0
VERTEX
8
Sketch
10
71.9
20
-45.22
0
VERTEX
8
Sketch
10
72.14
20
-45.34
0
VERTEX
8
Sketch
10
72.5
20
-46.18
0
VERTEX
8
Sketch
10
72.86
20
-46.42
0
VERTEX
8
Sketch
10
72.98
20
-46.9
0
VERTEX
8
Sketch
10
74.66
20
-48.94
0
VERTEX
8
Sketch
10
75.98
20
-51.1
0
VERTEX
8
Sketch
10
76.94
20
-52.42
0
VERTEX
8
Sketch
10
77.18
20
-53.14
0
VERTEX
8
Sketch
10
77.42
20
-53.26
0
VERTEX
8
Sketch
10
77.54
20
-53.98
0
VERTEX
8
Sketch
10
77.9
20
-54.46
0
VERTEX
8
Sketch
10
78.14
20
-55.78
0
VERTEX
8
Sketch
10
78.38
20
-56.02
0
VERTEX
8
Sketch
10
78.38
20
-56.38
0
VERTEX
8
Sketch
10
78.98
20
-57.58
0
VERTEX
8
Sketch
10
79.34
20
-58.18
0
VERTEX
8
Sketch
10
81.14
20
-61.18
0
VERTEX
8
Sketch
10
82.1
20
-62.62
0
VERTEX
8
Sketch
10
82.22
20
-62.98
0
VERTEX
8
Sketch
10
82.34
20
-62.98
0
VERTEX
8
Sketch
10
82.58
20
-63.34
0
VERTEX
8
Sketch
10
82.58
20
-63.58
0
VERTEX
8
Sketch
10
82.82
20
-63.58
0
VERTEX
8
Sketch
10
83.3
20
-64.42
0
VERTEX
8
Sketch
10
83.42
20
-64.54
0
SEQEND
0
POLYLINE
66
1
8
Sketch
62
9
0
VERTEX
8
Sketch
10
55.1
20
-35.02
0
VERTEX
8
Sketch
10
55.46
20
-35.02
0
VERTEX
8
Sketch
10
55.82
20
-35.14
0
VERTEX
8
Sketch
10
55.94
20
-35.14
0
VERTEX
8
Sketch
10
55.94
20
-35.26
0
VERTEX
8
Sketch
10
57.02
20
-35.26
0
VERTEX
8
Sketch
10
57.02
20
-35.38
0
VERTEX
8
Sketch
10
57.62
20
-35.38
0
VERTEX
8
Sketch
10
57.98
20
-35.5
0
VERTEX
8
Sketch
10
58.82
20
-35.5
0
VERTEX
8
Sketch
10
59.06
20
-35.74
0
VERTEX
8
Sketch
10
59.54
20
-35.74
0
VERTEX
8
Sketch
10
59.9
20
-35.86
0
VERTEX
8
Sketch
10
59.9
20
-35.98
0
VERTEX
8
Sketch
10
60.26
20
-35.98
0
VERTEX
8
Sketch
10
61.46
20
-36.58
0
VERTEX
8
Sketch
10
61.46
20
-36.7
0
VERTEX
8
Sketch
10
61.58
20
-36.7
0
VERTEX
8
Sketch
10
61.58
20
-36.94
0
VERTEX
8
Sketch
10
61.94
20
-37.54
0
VERTEX
8
Sketch
10
62.06
20
-38.62
0
VERTEX
8
Sketch
10
62.06
20
-39.1
0
VERTEX
8
Sketch
10
62.18
20
-39.46
0
VERTEX
8
Sketch
10
62.18
20
-40.78
0
VERTEX
8
Sketch
10
62.42
20
-41.02
0
VERTEX
8
Sketch
10
62.42
20
-42.46
0
VERTEX
8
Sketch
10
62.78
20
-43.54
0
VERTEX
8
Sketch
10
62.9
20
-43.78
0
VERTEX
8
Sketch
10
63.38
20
-44.74
0
VERTEX
8
Sketch
10
63.62
20
-44.86
0
VERTEX
8
Sketch
10
63.62
20
-45.1
0
VERTEX
8
Sketch
10
63.98
20
-45.58
0
VERTEX
8
Sketch
10
64.22
20
-46.18
0
VERTEX
8
Sketch
10
64.82
20
-47.02
0
VERTEX
8
Sketch
10
64.94
20
-47.02
0
VERTEX
8
Sketch
10
64.94
20
-47.5
0
VERTEX
8
Sketch
10
65.3
20
-48.46
0
VERTEX
8
Sketch
10
65.42
20
-48.46
0
VERTEX
8
Sketch
10
65.42
20
-48.7
0
VERTEX
8
Sketch
10
66.26
20
-50.26
0
VERTEX
8
Sketch
10
66.38
20
-50.74
0
VERTEX
8
Sketch
10
66.74
20
-51.82
0
VERTEX
8
Sketch
10
66.74
20
-51.94
0
VERTEX
8
Sketch
10
66.86
20
-51.94
0
SEQEND
0
POLYLINE
66
1
8
Sketch
62
9
0
VERTEX
8
Sketch
10
54.26
20
-34.18
0
VERTEX
8
Sketch
10
59.54
20
-34.18
0
VERTEX
8
Sketch
10
59.78
20
-34.3
0
VERTEX
8
Sketch
10
60.86
20
-34.3
0
VERTEX
8
Sketch
10
61.22
20
-34.42
0
VERTEX
8
Sketch
10
61.46
20
-34.42
0
VERTEX
8
Sketch
10
61.58
20
-34.66
0
VERTEX
8
Sketch
10
62.66
20
-34.66
0
VERTEX
8
Sketch
10
63.02
20
-34.9
0
VERTEX
8
Sketch
10
63.14
20
-34.9
0
VERTEX
8
Sketch
10
63.14
20
-35.02
0
VERTEX
8
Sketch
10
63.38
20
-35.14
0
VERTEX
8
Sketch
10
63.62
20
-35.38
0
VERTEX
8
Sketch
10
63.74
20
-35.38
0
VERTEX
8
Sketch
10
63.74
20
-35.5
0
VERTEX
8
Sketch
10
63.86
20
-35.5
0
VERTEX
8
Sketch
10
63.86
20
-35.62
0
VERTEX
8
Sketch
10
64.46
20
-36.22
0
VERTEX
8
Sketch
10
64.46
20
-36.46
0
VERTEX
8
Sketch
10
64.7
20
-36.58
0
VERTEX
8
Sketch
10
64.7
20
-36.82
0
VERTEX
8
Sketch
10
64.82
20
-36.82
0
VERTEX
8
Sketch
10
64.82
20
-36.94
0
VERTEX
8
Sketch
10
64.94
20
-36.94
0
VERTEX
8
Sketch
10
64.94
20
-37.18
0
SEQEND
0
POLYLINE
66
1
8
Sketch
62
0
0
VERTEX
8
Sketch
10
56.3
20
-27.82
0
VERTEX
8
Sketch
10
56.78
20
-27.82
0
VERTEX
8
Sketch
10
56.78
20
-27.7
0
SEQEND
0
POLYLINE
66
1
8
Sketch
62
0
0
VERTEX
8
Sketch
10
55.58
20
-24.34
0
VERTEX
8
Sketch
10
56.06
20
-24.1
0
VERTEX
8
Sketch
10
56.06
20
-23.98
0
VERTEX
8
Sketch
10
56.3
20
-23.98
0
VERTEX
8
Sketch
10
56.3
20
-23.86
0
VERTEX
8
Sketch
10
57.14
20
-23.74
0
VERTEX
8
Sketch
10
57.14
20
-23.86
0
VERTEX
8
Sketch
10
57.26
20
-23.86
0
VERTEX
8
Sketch
10
57.38
20
-24.46
0
VERTEX
8
Sketch
10
57.38
20
-25.3
0
VERTEX
8
Sketch
10
57.26
20
-25.66
0
VERTEX
8
Sketch
10
57.14
20
-25.66
0
VERTEX
8
Sketch
10
57.14
20
-25.9
0
VERTEX
8
Sketch
10
57.02
20
-25.9
0
VERTEX
8
Sketch
10
57.02
20
-26.02
0
VERTEX
8
Sketch
10
56.9
20
-26.02
0
VERTEX
8
Sketch
10
56.78
20
-26.26
0
VERTEX
8
Sketch
10
56.66
20
-26.26
0
SEQEND
0
POLYLINE
66
1
8
Sketch
62
0
0
VERTEX
8
Sketch
10
49.46
20
-28.06
0
VERTEX
8
Sketch
10
52.34
20
-28.06
0
VERTEX
8
Sketch
10
52.7
20
-27.94
0
VERTEX
8
Sketch
10
53.54
20
-27.94
0
VERTEX
8
Sketch
10
53.9
20
-27.82
0
VERTEX
8
Sketch
10
54.86
20
-27.82
0
SEQEND
0
POLYLINE
66
1
8
Sketch
62
0
0
VERTEX
8
Sketch
10
73.34
20
-44.14
0
VERTEX
8
Sketch
10
73.58
20
-44.14
0
VERTEX
8
Sketch
10
73.94
20
-43.9
0
VERTEX
8
Sketch
10
73.94
20
-43.66
0
VERTEX
8
Sketch
10
74.66
20
-43.06
0
VERTEX
8
Sketch
10
74.9
20
-43.06
0
VERTEX
8
Sketch
10
74.9
20
-43.66
0
VERTEX
8
Sketch
10
73.22
20
-43.66
0
VERTEX
8
Sketch
10
73.22
20
-43.78
0
VERTEX
8
Sketch
10
72.98
20
-43.78
0
VERTEX
8
Sketch
10
72.98
20
-44.02
0
VERTEX
8
Sketch
10
72.86
20
-44.02
0
VERTEX
8
Sketch
10
72.86
20
-44.14
0
VERTEX
8
Sketch
10
73.58
20
-44.14
0
VERTEX
8
Sketch
10
74.06
20
-43.9
0
VERTEX
8
Sketch
10
74.06
20
-43.78
0
SEQEND
0
POLYLINE
66
1
8
Sketch
62
0
0
VERTEX
8
Sketch
10
73.58
20
-40.54
0
VERTEX
8
Sketch
10
73.58
20
-40.3
0
VERTEX
8
Sketch
10
73.7
20
-40.3
0
VERTEX
8
Sketch
10
73.7
20
-40.18
0
VERTEX
8
Sketch
10
73.82
20
-40.18
0
VERTEX
8
Sketch
10
73.94
20
-39.7
0
VERTEX
8
Sketch
10
74.18
20
-39.58
0
VERTEX
8
Sketch
10
74.18
20
-39.22
0
VERTEX
8
Sketch
10
74.3
20
-39.22
0
VERTEX
8
Sketch
10
74.9
20
-38.86
0
VERTEX
8
Sketch
10
75.14
20
-38.86
0
VERTEX
8
Sketch
10
75.26
20
-39.46
0
VERTEX
8
Sketch
10
75.26
20
-40.42
0
VERTEX
8
Sketch
10
74.54
20
-41.14
0
VERTEX
8
Sketch
10
74.06
20
-41.26
0
VERTEX
8
Sketch
10
74.06
20
-41.5
0
VERTEX
8
Sketch
10
73.7
20
-42.1
0
SEQEND
0
POLYLINE
66
1
8
Sketch
62
0
0
VERTEX
8
Sketch
10
87.98
20
-33.1
0
VERTEX
8
Sketch
10
88.22
20
-33.1
0
VERTEX
8
Sketch
10
88.7
20
-32.86
0
VERTEX
8
Sketch
10
88.34
20
-32.74
0
VERTEX
8
Sketch
10
87.74
20
-32.74
0
VERTEX
8
Sketch
10
87.02
20
-32.98
0
VERTEX
8
Sketch
10
87.02
20
-33.46
0
VERTEX
8
Sketch
10
87.74
20
-33.34
0
VERTEX
8
Sketch
10
88.34
20
-33.1
0
VERTEX
8
Sketch
10
88.34
20
-32.74
0
SEQEND
0
POLYLINE
66
1
8
Sketch
62
0
0
VERTEX
8
Sketch
10
88.1
20
-28.9
0
VERTEX
8
Sketch
10
88.1
20
-28.78
0
VERTEX
8
Sketch
10
88.34
20
-28.78
0
VERTEX
8
Sketch
10
88.34
20
-28.66
0
VERTEX
8
Sketch
10
88.46
20
-28.66
0
VERTEX
8
Sketch
10
88.46
20
-28.54
0
VERTEX
8
Sketch
10
88.7
20
-28.54
0
VERTEX
8
Sketch
10
89.06
20
-28.18
0
VERTEX
8
Sketch
10
89.18
20
-27.58
0
VERTEX
8
Sketch
10
89.42
20
-27.58
0
VERTEX
8
Sketch
10
89.54
20
-28.18
0
VERTEX
8
Sketch
10
89.42
20
-28.9
0
VERTEX
8
Sketch
10
89.06
20
-29.5
0
VERTEX
8
Sketch
10
88.7
20
-30.22
0
VERTEX
8
Sketch
10
88.7
20
-30.46
0
VERTEX
8
Sketch
10
88.58
20
-30.58
0
VERTEX
8
Sketch
10
88.58
20
-30.94
0
VERTEX
8
Sketch
10
88.34
20
-31.3
0
VERTEX
8
Sketch
10
88.34
20
-31.78
0
SEQEND
0
POLYLINE
66
1
8
Sketch
62
0
0
VERTEX
8
Sketch
10
81.14
20
-28.42
0
VERTEX
8
Sketch
10
81.38
20
-28.42
0
VERTEX
8
Sketch
10
81.62
20
-28.66
0
VERTEX
8
Sketch
10
82.34
20
-28.78
0
VERTEX
8
Sketch
10
83.54
20
-29.02
0
VERTEX
8
Sketch
10
86.54
20
-29.02
0
VERTEX
8
Sketch
10
86.78
20
-29.38
0
VERTEX
8
Sketch
10
86.78
20
-29.74
0
VERTEX
8
Sketch
10
86.06
20
-30.1
0
VERTEX
8
Sketch
10
85.34
20
-30.1
0
VERTEX
8
Sketch
10
84.86
20
-30.46
0
VERTEX
8
Sketch
10
84.5
20
-30.46
0
VERTEX
8
Sketch
10
84.14
20
-30.7
0
VERTEX
8
Sketch
10
83.66
20
-30.7
0
VERTEX
8
Sketch
10
83.06
20
-30.82
0
VERTEX
8
Sketch
10
81.86
20
-30.82
0
SEQEND
0
POLYLINE
66
1
8
Sketch
62
0
0
VERTEX
8
Sketch
10
78.26
20
-30.34
0
VERTEX
8
Sketch
10
78.26
20
-30.7
0
VERTEX
8
Sketch
10
79.58
20
-30.7
0
VERTEX
8
Sketch
10
81.74
20
-30.1
0
VERTEX
8
Sketch
10
82.94
20
-29.98
0
VERTEX
8
Sketch
10
83.9
20
-29.74
0
VERTEX
8
Sketch
10
84.26
20
-29.74
0
VERTEX
8
Sketch
10
84.26
20
-29.86
0
SEQEND
0
POLYLINE
66
1
8
Sketch
62
0
0
VERTEX
8
Sketch
10
65.18
20
-36.1
0
VERTEX
8
Sketch
10
66.02
20
-36.22
0
VERTEX
8
Sketch
10
66.38
20
-36.22
0
VERTEX
8
Sketch
10
66.62
20
-36.34
0
VERTEX
8
Sketch
10
67.7
20
-36.46
0
VERTEX
8
Sketch
10
67.7
20
-36.58
0
VERTEX
8
Sketch
10
67.94
20
-36.58
0
SEQEND
0
POLYLINE
66
1
8
Sketch
62
0
0
VERTEX
8
Sketch
10
62.54
20
-38.14
0
VERTEX
8
Sketch
10
63.26
20
-38.14
0
VERTEX
8
Sketch
10
63.74
20
-37.9
0
VERTEX
8
Sketch
10
65.9
20
-37.9
0
SEQEND
0
POLYLINE
66
1
8
Sketch
62
0
0
VERTEX
8
Sketch
10
69.26
20
-41.14
0
VERTEX
8
Sketch
10
68.66
20
-41.02
0
VERTEX
8
Sketch
10
68.54
20
-41.02
0
VERTEX
8
Sketch
10
68.42
20
-41.26
0
VERTEX
8
Sketch
10
68.06
20
-41.26
0
VERTEX
8
Sketch
10
67.7
20
-41.5
0
VERTEX
8
Sketch
10
67.22
20
-41.5
0
VERTEX
8
Sketch
10
67.22
20
-41.62
0
VERTEX
8
Sketch
10
66.14
20
-41.74
0
VERTEX
8
Sketch
10
65.78
20
-41.86
0
VERTEX
8
Sketch
10
65.54
20
-41.86
0
VERTEX
8
Sketch
10
65.18
20
-41.98
0
VERTEX
8
Sketch
10
64.58
20
-41.98
0
VERTEX
8
Sketch
10
64.58
20
-41.74
0
VERTEX
8
Sketch
10
63.74
20
-41.5
0
VERTEX
8
Sketch
10
63.74
20
-41.38
0
VERTEX
8
Sketch
10
63.26
20
-41.26
0
VERTEX
8
Sketch
10
62.9
20
-41.14
0
VERTEX
8
Sketch
10
62.78
20
-40.54
0
VERTEX
8
Sketch
10
62.66
20
-40.54
0
VERTEX
8
Sketch
10
62.66
20
-40.06
0
VERTEX
8
Sketch
10
62.78
20
-40.06
0
VERTEX
8
Sketch
10
62.78
20
-39.7
0
VERTEX
8
Sketch
10
62.9
20
-39.7
0
VERTEX
8
Sketch
10
62.9
20
-39.1
0
VERTEX
8
Sketch
10
63.02
20
-39.1
0
VERTEX
8
Sketch
10
63.14
20
-38.86
0
VERTEX
8
Sketch
10
63.38
20
-38.74
0
VERTEX
8
Sketch
10
63.38
20
-38.62
0
SEQEND
0
POLYLINE
66
1
8
Sketch
62
0
0
VERTEX
8
Sketch
10
70.7
20
-41.14
0
VERTEX
8
Sketch
10
70.1
20
-41.14
0
VERTEX
8
Sketch
10
69.38
20
-40.9
0
SEQEND
0
POLYLINE
66
1
8
Sketch
62
0
0
VERTEX
8
Sketch
10
53.54
20
-35.02
0
VERTEX
8
Sketch
10
53.78
20
-35.02
0
VERTEX
8
Sketch
10
54.38
20
-35.62
0
VERTEX
8
Sketch
10
54.5
20
-35.62
0
VERTEX
8
Sketch
10
54.62
20
-35.86
0
VERTEX
8
Sketch
10
54.86
20
-35.86
0
VERTEX
8
Sketch
10
55.46
20
-36.22
0
VERTEX
8
Sketch
10
55.46
20
-36.34
0
VERTEX
8
Sketch
10
56.3
20
-36.94
0
VERTEX
8
Sketch
10
56.54
20
-36.94
0
VERTEX
8
Sketch
10
56.54
20
-37.06
0
VERTEX
8
Sketch
10
56.9
20
-37.18
0
VERTEX
8
Sketch
10
56.9
20
-37.3
0
VERTEX
8
Sketch
10
57.02
20
-37.3
0
VERTEX
8
Sketch
10
57.02
20
-37.42
0
VERTEX
8
Sketch
10
57.26
20
-37.42
0
VERTEX
8
Sketch
10
57.62
20
-37.66
0
VERTEX
8
Sketch
10
57.86
20
-37.66
0
VERTEX
8
Sketch
10
57.86
20
-37.78
0
VERTEX
8
Sketch
10
57.98
20
-37.78
0
VERTEX
8
Sketch
10
57.98
20
-38.02
0
VERTEX
8
Sketch
10
58.1
20
-38.02
0
VERTEX
8
Sketch
10
58.1
20
-39.82
0
VERTEX
8
Sketch
10
58.22
20
-40.18
0
VERTEX
8
Sketch
10
58.34
20
-40.18
0
VERTEX
8
Sketch
10
58.34
20
-40.3
0
VERTEX
8
Sketch
10
58.46
20
-40.3
0
VERTEX
8
Sketch
10
58.46
20
-40.54
0
VERTEX
8
Sketch
10
58.58
20
-40.54
0
VERTEX
8
Sketch
10
58.58
20
-40.9
0
VERTEX
8
Sketch
10
58.7
20
-40.9
0
VERTEX
8
Sketch
10
58.7
20
-41.14
0
VERTEX
8
Sketch
10
58.82
20
-41.14
0
VERTEX
8
Sketch
10
58.82
20
-41.5
0
VERTEX
8
Sketch
10
59.3
20
-41.98
0
VERTEX
8
Sketch
10
59.3
20
-42.1
0
VERTEX
8
Sketch
10
59.42
20
-42.1
0
VERTEX
8
Sketch
10
59.42
20
-42.22
0
VERTEX
8
Sketch
10
59.66
20
-42.22
0
VERTEX
8
Sketch
10
59.78
20
-42.58
0
VERTEX
8
Sketch
10
59.9
20
-42.58
0
VERTEX
8
Sketch
10
59.9
20
-42.7
0
VERTEX
8
Sketch
10
60.02
20
-42.7
0
VERTEX
8
Sketch
10
60.02
20
-42.82
0
VERTEX
8
Sketch
10
60.14
20
-42.82
0
VERTEX
8
Sketch
10
60.14
20
-43.06
0
VERTEX
8
Sketch
10
60.26
20
-43.06
0
VERTEX
8
Sketch
10
60.26
20
-43.3
0
VERTEX
8
Sketch
10
60.5
20
-43.54
0
VERTEX
8
Sketch
10
60.5
20
-43.66
0
VERTEX
8
Sketch
10
60.62
20
-43.66
0
VERTEX
8
Sketch
10
60.62
20
-44.14
0
VERTEX
8
Sketch
10
60.86
20
-44.14
0
VERTEX
8
Sketch
10
60.86
20
-44.38
0
VERTEX
8
Sketch
10
61.22
20
-44.5
0
VERTEX
8
Sketch
10
61.22
20
-44.74
0
VERTEX
8
Sketch
10
61.94
20
-44.98
0
VERTEX
8
Sketch
10
63.02
20
-45.34
0
VERTEX
8
Sketch
10
63.86
20
-45.34
0
VERTEX
8
Sketch
10
63.86
20
-45.46
0
VERTEX
8
Sketch
10
66.5
20
-45.46
0
VERTEX
8
Sketch
10
66.98
20
-45.58
0
VERTEX
8
Sketch
10
69.26
20
-45.58
0
VERTEX
8
Sketch
10
69.26
20
-45.46
0
VERTEX
8
Sketch
10
69.62
20
-45.46
0
VERTEX
8
Sketch
10
69.62
20
-45.34
0
VERTEX
8
Sketch
10
69.86
20
-45.22
0
SEQEND
0
POLYLINE
66
1
8
Sketch
62
0
0
VERTEX
8
Sketch
10
60.74
20
-35.98
0
VERTEX
8
Sketch
10
60.98
20
-35.98
0
VERTEX
8
Sketch
10
61.34
20
-35.86
0
VERTEX
8
Sketch
10
61.94
20
-35.86
0
VERTEX
8
Sketch
10
63.02
20
-35.5
0
VERTEX
8
Sketch
10
63.74
20
-35.26
0
VERTEX
8
Sketch
10
64.82
20
-35.02
0
VERTEX
8
Sketch
10
65.66
20
-34.66
0
VERTEX
8
Sketch
10
66.26
20
-34.3
0
VERTEX
8
Sketch
10
66.74
20
-34.18
0
VERTEX
8
Sketch
10
67.34
20
-33.94
0
VERTEX
8
Sketch
10
69.38
20
-33.94
0
VERTEX
8
Sketch
10
69.62
20
-33.82
0
VERTEX
8
Sketch
10
70.58
20
-33.82
0
VERTEX
8
Sketch
10
71.42
20
-33.7
0
VERTEX
8
Sketch
10
72.26
20
-33.46
0
VERTEX
8
Sketch
10
72.74
20
-33.46
0
VERTEX
8
Sketch
10
73.1
20
-33.22
0
VERTEX
8
Sketch
10
73.7
20
-33.22
0
VERTEX
8
Sketch
10
74.3
20
-33.1
0
VERTEX
8
Sketch
10
75.86
20
-33.1
0
VERTEX
8
Sketch
10
76.22
20
-32.98
0
VERTEX
8
Sketch
10
76.7
20
-32.98
0
VERTEX
8
Sketch
10
76.7
20
-32.86
0
VERTEX
8
Sketch
10
76.94
20
-32.86
0
SEQEND
0
POLYLINE
66
1
8
Sketch
62
0
0
VERTEX
8
Sketch
10
49.34
20
-28.66
0
VERTEX
8
Sketch
10
49.7
20
-28.66
0
VERTEX
8
Sketch
10
49.7
20
-28.78
0
VERTEX
8
Sketch
10
49.94
20
-28.9
0
VERTEX
8
Sketch
10
50.42
20
-29.14
0
VERTEX
8
Sketch
10
50.9
20
-29.62
0
VERTEX
8
Sketch
10
51.02
20
-29.62
0
VERTEX
8
Sketch
10
51.62
20
-29.98
0
VERTEX
8
Sketch
10
51.74
20
-29.98
0
VERTEX
8
Sketch
10
52.34
20
-30.34
0
VERTEX
8
Sketch
10
52.82
20
-30.46
0
VERTEX
8
Sketch
10
52.82
20
-30.58
0
VERTEX
8
Sketch
10
53.18
20
-30.58
0
VERTEX
8
Sketch
10
53.54
20
-30.7
0
VERTEX
8
Sketch
10
53.66
20
-30.7
0
VERTEX
8
Sketch
10
54.02
20
-31.06
0
VERTEX
8
Sketch
10
54.26
20
-31.18
0
VERTEX
8
Sketch
10
54.5
20
-31.42
0
VERTEX
8
Sketch
10
54.74
20
-31.42
0
VERTEX
8
Sketch
10
54.98
20
-31.66
0
VERTEX
8
Sketch
10
55.22
20
-31.66
0
VERTEX
8
Sketch
10
56.78
20
-33.22
0
VERTEX
8
Sketch
10
56.78
20
-33.34
0
VERTEX
8
Sketch
10
57.02
20
-33.34
0
VERTEX
8
Sketch
10
57.02
20
-33.46
0
VERTEX
8
Sketch
10
57.38
20
-33.46
0
VERTEX
8
Sketch
10
57.38
20
-33.58
0
VERTEX
8
Sketch
10
57.5
20
-33.58
0
VERTEX
8
Sketch
10
57.5
20
-33.7
0
VERTEX
8
Sketch
10
60.38
20
-33.7
0
VERTEX
8
Sketch
10
60.74
20
-33.58
0
VERTEX
8
Sketch
10
61.34
20
-33.58
0
VERTEX
8
Sketch
10
62.18
20
-33.34
0
VERTEX
8
Sketch
10
62.54
20
-33.1
0
VERTEX
8
Sketch
10
63.14
20
-33.1
0
VERTEX
8
Sketch
10
63.62
20
-32.62
0
VERTEX
8
Sketch
10
64.1
20
-32.5
0
VERTEX
8
Sketch
10
65.06
20
-32.14
0
VERTEX
8
Sketch
10
65.42
20
-32.14
0
VERTEX
8
Sketch
10
65.54
20
-31.9
0
VERTEX
8
Sketch
10
65.9
20
-31.9
0
VERTEX
8
Sketch
10
67.58
20
-31.42
0
VERTEX
8
Sketch
10
67.82
20
-31.42
0
VERTEX
8
Sketch
10
68.18
20
-31.18
0
VERTEX
8
Sketch
10
69.14
20
-30.94
0
VERTEX
8
Sketch
10
70.1
20
-30.7
0
VERTEX
8
Sketch
10
71.3
20
-30.7
0
VERTEX
8
Sketch
10
71.66
20
-30.58
0
VERTEX
8
Sketch
10
72.38
20
-30.58
0
VERTEX
8
Sketch
10
72.38
20
-30.46
0
VERTEX
8
Sketch
10
72.5
20
-30.46
0
SEQEND
0
POLYLINE
66
1
8
Sketch
62
0
0
VERTEX
8
Sketch
10
21.86
20
-16.54
0
VERTEX
8
Sketch
10
22.7
20
-16.9
0
VERTEX
8
Sketch
10
22.94
20
-17.02
0
VERTEX
8
Sketch
10
23.18
20
-17.02
0
VERTEX
8
Sketch
10
23.54
20
-17.38
0
VERTEX
8
Sketch
10
23.9
20
-17.38
0
VERTEX
8
Sketch
10
24.26
20
-17.62
0
VERTEX
8
Sketch
10
24.5
20
-17.62
0
VERTEX
8
Sketch
10
24.5
20
-17.86
0
VERTEX
8
Sketch
10
24.98
20
-17.86
0
VERTEX
8
Sketch
10
25.22
20
-18.1
0
VERTEX
8
Sketch
10
25.46
20
-18.22
0
VERTEX
8
Sketch
10
25.94
20
-18.46
0
VERTEX
8
Sketch
10
26.3
20
-18.46
0
VERTEX
8
Sketch
10
26.66
20
-18.7
0
VERTEX
8
Sketch
10
26.9
20
-18.7
0
VERTEX
8
Sketch
10
27.38
20
-18.94
0
VERTEX
8
Sketch
10
27.62
20
-18.94
0
VERTEX
8
Sketch
10
27.98
20
-19.06
0
VERTEX
8
Sketch
10
28.22
20
-19.06
0
VERTEX
8
Sketch
10
28.34
20
-19.3
0
VERTEX
8
Sketch
10
28.94
20
-19.3
0
VERTEX
8
Sketch
10
29.18
20
-19.54
0
VERTEX
8
Sketch
10
29.78
20
-19.54
0
VERTEX
8
Sketch
10
30.14
20
-19.66
0
VERTEX
8
Sketch
10
31.22
20
-19.78
0
VERTEX
8
Sketch
10
33.74
20
-19.78
0
VERTEX
8
Sketch
10
34.1
20
-19.9
0
VERTEX
8
Sketch
10
34.1
20
-20.02
0
VERTEX
8
Sketch
10
34.34
20
-20.02
0
VERTEX
8
Sketch
10
34.94
20
-20.26
0
VERTEX
8
Sketch
10
34.94
20
-20.38
0
VERTEX
8
Sketch
10
35.06
20
-20.38
0
VERTEX
8
Sketch
10
35.3
20
-20.62
0
VERTEX
8
Sketch
10
35.54
20
-20.62
0
VERTEX
8
Sketch
10
36.14
20
-20.98
0
VERTEX
8
Sketch
10
36.62
20
-21.1
0
VERTEX
8
Sketch
10
36.62
20
-21.22
0
VERTEX
8
Sketch
10
36.86
20
-21.22
0
VERTEX
8
Sketch
10
37.34
20
-21.46
0
VERTEX
8
Sketch
10
37.46
20
-21.46
0
VERTEX
8
Sketch
10
37.94
20
-21.82
0
VERTEX
8
Sketch
10
38.18
20
-21.94
0
VERTEX
8
Sketch
10
38.18
20
-22.06
0
VERTEX
8
Sketch
10
38.42
20
-22.06
0
VERTEX
8
Sketch
10
38.42
20
-22.18
0
VERTEX
8
Sketch
10
38.66
20
-22.18
0
VERTEX
8
Sketch
10
38.66
20
-22.3
0
VERTEX
8
Sketch
10
38.78
20
-22.3
0
VERTEX
8
Sketch
10
38.78
20
-22.54
0
VERTEX
8
Sketch
10
38.9
20
-22.54
0
VERTEX
8
Sketch
10
38.9
20
-22.66
0
VERTEX
8
Sketch
10
39.02
20
-22.66
0
VERTEX
8
Sketch
10
39.02
20
-22.78
0
VERTEX
8
Sketch
10
39.38
20
-22.9
0
VERTEX
8
Sketch
10
39.38
20
-23.02
0
VERTEX
8
Sketch
10
39.62
20
-23.02
0
VERTEX
8
Sketch
10
39.74
20
-23.26
0
VERTEX
8
Sketch
10
40.94
20
-24.34
0
VERTEX
8
Sketch
10
41.06
20
-24.34
0
VERTEX
8
Sketch
10
41.06
20
-24.46
0
VERTEX
8
Sketch
10
41.18
20
-24.46
0
VERTEX
8
Sketch
10
41.18
20
-24.58
0
VERTEX
8
Sketch
10
41.42
20
-24.58
0
VERTEX
8
Sketch
10
41.42
20
-24.7
0
VERTEX
8
Sketch
10
41.54
20
-24.7
0
VERTEX
8
Sketch
10
41.54
20
-24.82
0
VERTEX
8
Sketch
10
41.66
20
-24.82
0
VERTEX
8
Sketch
10
41.66
20
-24.94
0
VERTEX
8
Sketch
10
41.9
20
-24.94
0
VERTEX
8
Sketch
10
42.26
20
-25.18
0
VERTEX
8
Sketch
10
42.38
20
-25.18
0
VERTEX
8
Sketch
10
42.38
20
-25.3
0
VERTEX
8
Sketch
10
42.62
20
-25.3
0
VERTEX
8
Sketch
10
42.62
20
-25.42
0
VERTEX
8
Sketch
10
42.86
20
-25.42
0
VERTEX
8
Sketch
10
43.1
20
-25.66
0
VERTEX
8
Sketch
10
43.46
20
-25.78
0
VERTEX
8
Sketch
10
43.46
20
-26.02
0
VERTEX
8
Sketch
10
43.7
20
-26.02
0
VERTEX
8
Sketch
10
43.7
20
-26.14
0
VERTEX
8
Sketch
10
43.94
20
-26.14
0
VERTEX
8
Sketch
10
43.94
20
-26.26
0
VERTEX
8
Sketch
10
44.18
20
-26.26
0
VERTEX
8
Sketch
10
44.3
20
-26.5
0
VERTEX
8
Sketch
10
44.66
20
-26.62
0
VERTEX
8
Sketch
10
44.66
20
-26.74
0
VERTEX
8
Sketch
10
45.02
20
-26.86
0
VERTEX
8
Sketch
10
45.02
20
-26.98
0
VERTEX
8
Sketch
10
45.26
20
-26.98
0
VERTEX
8
Sketch
10
45.26
20
-27.1
0
VERTEX
8
Sketch
10
45.38
20
-27.1
0
VERTEX
8
Sketch
10
45.38
20
-27.22
0
VERTEX
8
Sketch
10
45.74
20
-27.34
0
VERTEX
8
Sketch
10
45.74
20
-27.46
0
VERTEX
8
Sketch
10
45.98
20
-27.46
0
VERTEX
8
Sketch
10
45.98
20
-27.58
0
VERTEX
8
Sketch
10
46.34
20
-27.7
0
VERTEX
8
Sketch
10
46.34
20
-27.82
0
VERTEX
8
Sketch
10
46.46
20
-27.82
0
VERTEX
8
Sketch
10
46.46
20
-27.94
0
VERTEX
8
Sketch
10
46.7
20
-27.94
0
VERTEX
8
Sketch
10
46.7
20
-28.06
0
VERTEX
8
Sketch
10
46.82
20
-28.06
0
VERTEX
8
Sketch
10
46.82
20
-28.18
0
VERTEX
8
Sketch
10
46.94
20
-28.18
0
VERTEX
8
Sketch
10
46.94
20
-28.42
0
VERTEX
8
Sketch
10
47.06
20
-28.42
0
VERTEX
8
Sketch
10
47.06
20
-28.54
0
VERTEX
8
Sketch
10
47.18
20
-28.54
0
VERTEX
8
Sketch
10
47.18
20
-28.9
0
VERTEX
8
Sketch
10
47.3
20
-28.9
0
VERTEX
8
Sketch
10
47.3
20
-29.14
0
VERTEX
8
Sketch
10
47.66
20
-29.5
0
VERTEX
8
Sketch
10
47.66
20
-29.62
0
VERTEX
8
Sketch
10
47.78
20
-29.62
0
VERTEX
8
Sketch
10
47.78
20
-29.74
0
VERTEX
8
Sketch
10
48.02
20
-29.86
0
VERTEX
8
Sketch
10
48.38
20
-30.22
0
VERTEX
8
Sketch
10
48.5
20
-30.7
0
VERTEX
8
Sketch
10
48.62
20
-30.7
0
VERTEX
8
Sketch
10
48.62
20
-30.94
0
VERTEX
8
Sketch
10
48.74
20
-30.94
0
VERTEX
8
Sketch
10
48.74
20
-31.18
0
VERTEX
8
Sketch
10
48.98
20
-31.54
0
VERTEX
8
Sketch
10
48.98
20
-31.66
0
VERTEX
8
Sketch
10
49.1
20
-31.66
0
VERTEX
8
Sketch
10
49.1
20
-31.78
0
VERTEX
8
Sketch
10
49.22
20
-31.78
0
VERTEX
8
Sketch
10
49.22
20
-32.02
0
VERTEX
8
Sketch
10
49.58
20
-32.38
0
VERTEX
8
Sketch
10
49.7
20
-32.38
0
VERTEX
8
Sketch
10
49.7
20
-32.5
0
VERTEX
8
Sketch
10
49.94
20
-32.62
0
VERTEX
8
Sketch
10
49.94
20
-32.74
0
VERTEX
8
Sketch
10
50.06
20
-32.74
0
VERTEX
8
Sketch
10
50.18
20
-32.98
0
VERTEX
8
Sketch
10
50.54
20
-33.1
0
VERTEX
8
Sketch
10
50.54
20
-33.22
0
VERTEX
8
Sketch
10
50.78
20
-33.22
0
VERTEX
8
Sketch
10
50.78
20
-33.46
0
VERTEX
8
Sketch
10
51.26
20
-33.58
0
VERTEX
8
Sketch
10
51.26
20
-33.7
0
VERTEX
8
Sketch
10
51.5
20
-33.82
0
VERTEX
8
Sketch
10
51.86
20
-34.06
0
VERTEX
8
Sketch
10
51.98
20
-34.06
0
VERTEX
8
Sketch
10
51.98
20
-34.18
0
VERTEX
8
Sketch
10
52.22
20
-34.18
0
VERTEX
8
Sketch
10
52.94
20
-34.66
0
VERTEX
8
Sketch
10
53.18
20
-34.66
0
VERTEX
8
Sketch
10
53.18
20
-34.78
0
VERTEX
8
Sketch
10
53.54
20
-34.9
0
VERTEX
8
Sketch
10
53.54
20
-35.02
0
VERTEX
8
Sketch
10
53.78
20
-35.02
0
VERTEX
8
Sketch
10
54.02
20
-35.26
0
VERTEX
8
Sketch
10
54.5
20
-35.26
0
VERTEX
8
Sketch
10
54.5
20
-35.5
0
SEQEND
0
POLYLINE
66
1
8
Sketch
62
0
0
VERTEX
8
Sketch
10
21.5
20
-13.42
0
VERTEX
8
Sketch
10
21.5
20
-13.66
0
VERTEX
8
Sketch
10
21.74
20
-13.78
0
VERTEX
8
Sketch
10
22.7
20
-14.74
0
VERTEX
8
Sketch
10
23.3
20
-14.86
0
VERTEX
8
Sketch
10
23.3
20
-14.98
0
VERTEX
8
Sketch
10
24.74
20
-15.46
0
VERTEX
8
Sketch
10
26.3
20
-15.7
0
VERTEX
8
Sketch
10
26.9
20
-15.7
0
VERTEX
8
Sketch
10
27.5
20
-15.82
0
VERTEX
8
Sketch
10
29.3
20
-15.82
0
VERTEX
8
Sketch
10
29.78
20
-15.94
0
VERTEX
8
Sketch
10
30.26
20
-16.06
0
VERTEX
8
Sketch
10
30.86
20
-16.18
0
VERTEX
8
Sketch
10
31.82
20
-16.18
0
VERTEX
8
Sketch
10
32.18
20
-16.3
0
VERTEX
8
Sketch
10
32.54
20
-16.3
0
VERTEX
8
Sketch
10
32.9
20
-16.42
0
VERTEX
8
Sketch
10
33.38
20
-16.42
0
VERTEX
8
Sketch
10
33.38
20
-16.54
0
VERTEX
8
Sketch
10
33.98
20
-16.54
0
VERTEX
8
Sketch
10
34.22
20
-16.78
0
VERTEX
8
Sketch
10
34.34
20
-16.78
0
VERTEX
8
Sketch
10
34.34
20
-16.9
0
VERTEX
8
Sketch
10
34.58
20
-16.9
0
VERTEX
8
Sketch
10
34.58
20
-17.02
0
VERTEX
8
Sketch
10
34.7
20
-17.02
0
VERTEX
8
Sketch
10
34.7
20
-17.14
0
VERTEX
8
Sketch
10
34.82
20
-17.14
0
VERTEX
8
Sketch
10
34.82
20
-17.26
0
VERTEX
8
Sketch
10
35.06
20
-17.26
0
VERTEX
8
Sketch
10
35.18
20
-17.5
0
VERTEX
8
Sketch
10
35.3
20
-17.5
0
VERTEX
8
Sketch
10
35.3
20
-17.62
0
VERTEX
8
Sketch
10
35.54
20
-17.74
0
VERTEX
8
Sketch
10
36.14
20
-18.22
0
VERTEX
8
Sketch
10
36.38
20
-18.34
0
VERTEX
8
Sketch
10
36.74
20
-18.46
0
VERTEX
8
Sketch
10
36.74
20
-18.58
0
VERTEX
8
Sketch
10
36.86
20
-18.58
0
VERTEX
8
Sketch
10
36.86
20
-18.7
0
VERTEX
8
Sketch
10
37.1
20
-18.7
0
VERTEX
8
Sketch
10
37.1
20
-18.82
0
VERTEX
8
Sketch
10
37.22
20
-18.82
0
VERTEX
8
Sketch
10
37.22
20
-18.94
0
VERTEX
8
Sketch
10
37.46
20
-18.94
0
VERTEX
8
Sketch
10
37.46
20
-19.06
0
VERTEX
8
Sketch
10
37.94
20
-19.18
0
VERTEX
8
Sketch
10
37.94
20
-19.42
0
VERTEX
8
Sketch
10
38.18
20
-19.42
0
VERTEX
8
Sketch
10
38.18
20
-19.54
0
VERTEX
8
Sketch
10
38.54
20
-19.66
0
VERTEX
8
Sketch
10
38.54
20
-19.78
0
VERTEX
8
Sketch
10
38.66
20
-19.78
0
VERTEX
8
Sketch
10
38.78
20
-20.02
0
VERTEX
8
Sketch
10
39.02
20
-20.02
0
VERTEX
8
Sketch
10
39.26
20
-20.26
0
VERTEX
8
Sketch
10
39.5
20
-20.26
0
VERTEX
8
Sketch
10
39.5
20
-20.38
0
VERTEX
8
Sketch
10
39.74
20
-20.38
0
VERTEX
8
Sketch
10
39.74
20
-20.62
0
VERTEX
8
Sketch
10
39.98
20
-20.62
0
VERTEX
8
Sketch
10
39.98
20
-20.74
0
VERTEX
8
Sketch
10
40.34
20
-20.74
0
VERTEX
8
Sketch
10
40.34
20
-20.86
0
VERTEX
8
Sketch
10
40.7
20
-20.86
0
VERTEX
8
Sketch
10
40.82
20
-21.1
0
VERTEX
8
Sketch
10
41.06
20
-21.1
0
VERTEX
8
Sketch
10
41.42
20
-21.46
0
VERTEX
8
Sketch
10
41.78
20
-21.46
0
VERTEX
8
Sketch
10
41.78
20
-21.58
0
VERTEX
8
Sketch
10
42.02
20
-21.7
0
VERTEX
8
Sketch
10
42.38
20
-21.82
0
VERTEX
8
Sketch
10
42.38
20
-21.94
0
VERTEX
8
Sketch
10
42.5
20
-21.94
0
VERTEX
8
Sketch
10
42.5
20
-22.18
0
VERTEX
8
Sketch
10
42.74
20
-22.18
0
VERTEX
8
Sketch
10
42.74
20
-22.3
0
VERTEX
8
Sketch
10
43.34
20
-22.54
0
VERTEX
8
Sketch
10
43.34
20
-22.66
0
VERTEX
8
Sketch
10
43.58
20
-22.78
0
VERTEX
8
Sketch
10
43.58
20
-23.02
0
VERTEX
8
Sketch
10
43.7
20
-23.02
0
VERTEX
8
Sketch
10
43.82
20
-23.26
0
VERTEX
8
Sketch
10
43.94
20
-23.26
0
VERTEX
8
Sketch
10
44.18
20
-23.62
0
VERTEX
8
Sketch
10
44.42
20
-23.62
0
VERTEX
8
Sketch
10
44.54
20
-23.86
0
VERTEX
8
Sketch
10
44.9
20
-23.86
0
VERTEX
8
Sketch
10
45.02
20
-24.1
0
VERTEX
8
Sketch
10
45.38
20
-24.34
0
VERTEX
8
Sketch
10
45.62
20
-24.34
0
VERTEX
8
Sketch
10
45.62
20
-24.46
0
VERTEX
8
Sketch
10
45.74
20
-24.46
0
VERTEX
8
Sketch
10
45.74
20
-24.58
0
VERTEX
8
Sketch
10
45.98
20
-24.58
0
VERTEX
8
Sketch
10
45.98
20
-24.7
0
VERTEX
8
Sketch
10
46.46
20
-24.82
0
VERTEX
8
Sketch
10
46.46
20
-24.94
0
VERTEX
8
Sketch
10
46.94
20
-25.18
0
VERTEX
8
Sketch
10
47.18
20
-25.3
0
VERTEX
8
Sketch
10
47.54
20
-25.42
0
VERTEX
8
Sketch
10
47.66
20
-25.42
0
VERTEX
8
Sketch
10
47.66
20
-25.54
0
VERTEX
8
Sketch
10
48.14
20
-25.54
0
VERTEX
8
Sketch
10
48.14
20
-25.66
0
VERTEX
8
Sketch
10
48.5
20
-25.66
0
VERTEX
8
Sketch
10
49.1
20
-25.78
0
VERTEX
8
Sketch
10
53.54
20
-25.78
0
SEQEND
0
POLYLINE
66
1
8
Sketch
62
0
0
VERTEX
8
Sketch
10
7.1
20
-5.5
0
VERTEX
8
Sketch
10
7.34
20
-5.5
0
VERTEX
8
Sketch
10
7.46
20
-5.74
0
VERTEX
8
Sketch
10
7.7
20
-5.74
0
VERTEX
8
Sketch
10
7.7
20
-5.98
0
VERTEX
8
Sketch
10
8.18
20
-6.34
0
VERTEX
8
Sketch
10
8.54
20
-6.34
0
VERTEX
8
Sketch
10
8.54
20
-6.58
0
VERTEX
8
Sketch
10
8.9
20
-6.58
0
VERTEX
8
Sketch
10
8.9
20
-6.7
0
VERTEX
8
Sketch
10
9.02
20
-6.7
0
VERTEX
8
Sketch
10
9.14
20
-6.94
0
VERTEX
8
Sketch
10
9.38
20
-6.94
0
VERTEX
8
Sketch
10
9.38
20
-7.06
0
VERTEX
8
Sketch
10
9.5
20
-7.06
0
VERTEX
8
Sketch
10
9.62
20
-7.3
0
VERTEX
8
Sketch
10
9.74
20
-7.3
0
VERTEX
8
Sketch
10
9.74
20
-7.42
0
VERTEX
8
Sketch
10
9.86
20
-7.42
0
VERTEX
8
Sketch
10
9.86
20
-7.66
0
VERTEX
8
Sketch
10
10.22
20
-7.78
0
VERTEX
8
Sketch
10
10.22
20
-8.02
0
VERTEX
8
Sketch
10
10.34
20
-8.02
0
VERTEX
8
Sketch
10
10.46
20
-8.38
0
VERTEX
8
Sketch
10
10.58
20
-8.38
0
VERTEX
8
Sketch
10
10.58
20
-8.5
0
VERTEX
8
Sketch
10
10.82
20
-8.5
0
VERTEX
8
Sketch
10
10.82
20
-8.62
0
VERTEX
8
Sketch
10
11.06
20
-8.62
0
VERTEX
8
Sketch
10
11.06
20
-8.86
0
VERTEX
8
Sketch
10
11.42
20
-8.98
0
VERTEX
8
Sketch
10
11.54
20
-9.22
0
VERTEX
8
Sketch
10
12.26
20
-9.58
0
VERTEX
8
Sketch
10
12.26
20
-9.7
0
VERTEX
8
Sketch
10
12.5
20
-9.7
0
VERTEX
8
Sketch
10
12.98
20
-10.06
0
VERTEX
8
Sketch
10
13.22
20
-10.06
0
VERTEX
8
Sketch
10
13.22
20
-10.18
0
VERTEX
8
Sketch
10
13.34
20
-10.18
0
VERTEX
8
Sketch
10
13.34
20
-10.3
0
VERTEX
8
Sketch
10
13.58
20
-10.3
0
VERTEX
8
Sketch
10
13.58
20
-10.42
0
VERTEX
8
Sketch
10
13.7
20
-10.42
0
VERTEX
8
Sketch
10
13.7
20
-10.54
0
VERTEX
8
Sketch
10
13.94
20
-10.54
0
VERTEX
8
Sketch
10
14.54
20
-11.02
0
VERTEX
8
Sketch
10
14.78
20
-11.02
0
VERTEX
8
Sketch
10
15.14
20
-11.26
0
VERTEX
8
Sketch
10
15.26
20
-11.26
0
VERTEX
8
Sketch
10
15.38
20
-11.5
0
VERTEX
8
Sketch
10
15.74
20
-11.74
0
VERTEX
8
Sketch
10
15.86
20
-11.74
0
VERTEX
8
Sketch
10
15.86
20
-11.86
0
VERTEX
8
Sketch
10
16.1
20
-11.86
0
VERTEX
8
Sketch
10
16.1
20
-11.98
0
VERTEX
8
Sketch
10
16.46
20
-12.1
0
VERTEX
8
Sketch
10
16.46
20
-12.22
0
VERTEX
8
Sketch
10
16.7
20
-12.22
0
VERTEX
8
Sketch
10
17.3
20
-12.58
0
VERTEX
8
Sketch
10
17.42
20
-12.58
0
VERTEX
8
Sketch
10
17.42
20
-12.7
0
VERTEX
8
Sketch
10
17.78
20
-12.7
0
VERTEX
8
Sketch
10
17.78
20
-12.94
0
VERTEX
8
Sketch
10
18.02
20
-12.94
0
VERTEX
8
Sketch
10
18.02
20
-13.06
0
VERTEX
8
Sketch
10
18.38
20
-13.06
0
VERTEX
8
Sketch
10
18.38
20
-13.18
0
VERTEX
8
Sketch
10
18.5
20
-13.18
0
VERTEX
8
Sketch
10
18.5
20
-13.3
0
VERTEX
8
Sketch
10
18.62
20
-13.3
0
VERTEX
8
Sketch
10
18.62
20
-13.42
0
VERTEX
8
Sketch
10
18.86
20
-13.42
0
VERTEX
8
Sketch
10
18.86
20
-13.54
0
VERTEX
8
Sketch
10
19.1
20
-13.66
0
VERTEX
8
Sketch
10
19.58
20
-14.38
0
VERTEX
8
Sketch
10
19.7
20
-14.38
0
VERTEX
8
Sketch
10
19.7
20
-14.62
0
VERTEX
8
Sketch
10
19.82
20
-14.62
0
VERTEX
8
Sketch
10
19.82
20
-14.74
0
VERTEX
8
Sketch
10
19.94
20
-14.74
0
VERTEX
8
Sketch
10
19.94
20
-14.98
0
VERTEX
8
Sketch
10
20.18
20
-15.34
0
VERTEX
8
Sketch
10
20.18
20
-15.46
0
VERTEX
8
Sketch
10
20.42
20
-15.58
0
VERTEX
8
Sketch
10
21.14
20
-16.3
0
VERTEX
8
Sketch
10
21.26
20
-16.3
0
VERTEX
8
Sketch
10
21.26
20
-16.42
0
VERTEX
8
Sketch
10
21.74
20
-16.54
0
VERTEX
8
Sketch
10
21.74
20
-16.78
0
VERTEX
8
Sketch
10
22.34
20
-16.9
0
VERTEX
8
Sketch
10
22.34
20
-17.02
0
VERTEX
8
Sketch
10
22.46
20
-17.02
0
SEQEND
0
POLYLINE
66
1
8
Sketch
62
0
0
VERTEX
8
Sketch
10
7.82
20
-0.1
0
VERTEX
8
Sketch
10
7.94
20
-0.1
0
VERTEX
8
Sketch
10
7.94
20
-0.34
0
VERTEX
8
Sketch
10
8.06
20
-0.7
0
VERTEX
8
Sketch
10
8.06
20
-3.1
0
VERTEX
8
Sketch
10
8.42
20
-3.58
0
VERTEX
8
Sketch
10
8.42
20
-3.82
0
VERTEX
8
Sketch
10
8.66
20
-3.82
0
VERTEX
8
Sketch
10
8.66
20
-3.94
0
VERTEX
8
Sketch
10
8.78
20
-3.94
0
VERTEX
8
Sketch
10
8.78
20
-4.06
0
VERTEX
8
Sketch
10
8.9
20
-4.06
0
VERTEX
8
Sketch
10
8.9
20
-4.18
0
VERTEX
8
Sketch
10
9.14
20
-4.3
0
VERTEX
8
Sketch
10
9.14
20
-4.42
0
VERTEX
8
Sketch
10
9.26
20
-4.42
0
VERTEX
8
Sketch
10
9.26
20
-4.54
0
VERTEX
8
Sketch
10
9.62
20
-4.54
0
VERTEX
8
Sketch
10
9.62
20
-4.66
0
VERTEX
8
Sketch
10
9.74
20
-4.66
0
VERTEX
8
Sketch
10
9.74
20
-4.78
0
VERTEX
8
Sketch
10
9.98
20
-4.78
0
VERTEX
8
Sketch
10
9.98
20
-4.9
0
VERTEX
8
Sketch
10
10.1
20
-4.9
0
VERTEX
8
Sketch
10
10.1
20
-5.02
0
VERTEX
8
Sketch
10
10.34
20
-5.02
0
VERTEX
8
Sketch
10
10.34
20
-5.14
0
VERTEX
8
Sketch
10
10.46
20
-5.14
0
VERTEX
8
Sketch
10
10.46
20
-5.26
0
VERTEX
8
Sketch
10
10.58
20
-5.26
0
VERTEX
8
Sketch
10
10.58
20
-5.38
0
VERTEX
8
Sketch
10
10.7
20
-5.38
0
VERTEX
8
Sketch
10
10.7
20
-5.5
0
VERTEX
8
Sketch
10
10.82
20
-5.5
0
VERTEX
8
Sketch
10
10.82
20
-5.62
0
VERTEX
8
Sketch
10
10.94
20
-5.62
0
VERTEX
8
Sketch
10
10.94
20
-5.74
0
VERTEX
8
Sketch
10
11.06
20
-5.74
0
VERTEX
8
Sketch
10
11.06
20
-5.86
0
VERTEX
8
Sketch
10
11.3
20
-5.86
0
VERTEX
8
Sketch
10
11.42
20
-6.1
0
VERTEX
8
Sketch
10
11.78
20
-6.22
0
VERTEX
8
Sketch
10
11.9
20
-6.46
0
VERTEX
8
Sketch
10
12.26
20
-6.58
0
VERTEX
8
Sketch
10
12.26
20
-6.7
0
VERTEX
8
Sketch
10
12.5
20
-6.7
0
VERTEX
8
Sketch
10
12.5
20
-6.94
0
VERTEX
8
Sketch
10
12.74
20
-6.94
0
VERTEX
8
Sketch
10
12.74
20
-7.06
0
VERTEX
8
Sketch
10
13.82
20
-7.3
0
VERTEX
8
Sketch
10
13.82
20
-7.42
0
VERTEX
8
Sketch
10
14.18
20
-7.42
0
VERTEX
8
Sketch
10
14.66
20
-7.78
0
VERTEX
8
Sketch
10
14.9
20
-7.78
0
VERTEX
8
Sketch
10
15.02
20
-8.02
0
VERTEX
8
Sketch
10
15.38
20
-8.02
0
VERTEX
8
Sketch
10
15.38
20
-8.14
0
VERTEX
8
Sketch
10
15.74
20
-8.14
0
VERTEX
8
Sketch
10
15.74
20
-8.26
0
VERTEX
8
Sketch
10
15.86
20
-8.26
0
VERTEX
8
Sketch
10
15.86
20
-8.38
0
VERTEX
8
Sketch
10
16.1
20
-8.38
0
VERTEX
8
Sketch
10
16.46
20
-8.5
0
VERTEX
8
Sketch
10
16.46
20
-8.62
0
VERTEX
8
Sketch
10
16.82
20
-8.62
0
VERTEX
8
Sketch
10
16.82
20
-8.74
0
VERTEX
8
Sketch
10
16.94
20
-8.74
0
VERTEX
8
Sketch
10
16.94
20
-8.86
0
VERTEX
8
Sketch
10
17.3
20
-8.86
0
VERTEX
8
Sketch
10
17.3
20
-8.98
0
VERTEX
8
Sketch
10
17.54
20
-9.1
0
VERTEX
8
Sketch
10
17.9
20
-9.34
0
VERTEX
8
Sketch
10
18.14
20
-9.46
0
VERTEX
8
Sketch
10
18.86
20
-9.82
0
VERTEX
8
Sketch
10
18.86
20
-9.94
0
VERTEX
8
Sketch
10
19.22
20
-9.94
0
VERTEX
8
Sketch
10
19.7
20
-10.18
0
VERTEX
8
Sketch
10
19.7
20
-10.3
0
VERTEX
8
Sketch
10
19.94
20
-10.3
0
VERTEX
8
Sketch
10
19.94
20
-10.42
0
VERTEX
8
Sketch
10
20.18
20
-10.54
0
VERTEX
8
Sketch
10
20.18
20
-10.66
0
VERTEX
8
Sketch
10
20.3
20
-10.66
0
VERTEX
8
Sketch
10
20.3
20
-10.78
0
VERTEX
8
Sketch
10
20.42
20
-10.78
0
VERTEX
8
Sketch
10
20.42
20
-12.22
0
VERTEX
8
Sketch
10
20.54
20
-12.22
0
VERTEX
8
Sketch
10
20.54
20
-12.46
0
VERTEX
8
Sketch
10
20.66
20
-12.46
0
VERTEX
8
Sketch
10
20.66
20
-12.58
0
VERTEX
8
Sketch
10
20.9
20
-12.7
0
VERTEX
8
Sketch
10
20.9
20
-12.94
0
VERTEX
8
Sketch
10
21.02
20
-12.94
0
VERTEX
8
Sketch
10
21.02
20
-13.18
0
VERTEX
8
Sketch
10
21.26
20
-13.3
0
VERTEX
8
Sketch
10
21.26
20
-13.54
0
VERTEX
8
Sketch
10
21.38
20
-13.54
0
VERTEX
8
Sketch
10
21.38
20
-13.66
0
VERTEX
8
Sketch
10
21.5
20
-13.66
0
VERTEX
8
Sketch
10
21.5
20
-13.78
0
VERTEX
8
Sketch
10
21.62
20
-13.78
0
VERTEX
8
Sketch
10
21.62
20
-14.02
0
VERTEX
8
Sketch
10
21.74
20
-14.02
0
VERTEX
8
Sketch
10
21.74
20
-14.26
0
VERTEX
8
Sketch
10
21.86
20
-14.26
0
VERTEX
8
Sketch
10
21.86
20
-14.38
0
VERTEX
8
Sketch
10
21.98
20
-14.38
0
SEQEND
0
POLYLINE
66
1
8
Sketch
62
0
0
VERTEX
8
Sketch
10
-0.22
20
0.26
0
VERTEX
8
Sketch
10
-0.22
20
-0.34
0
VERTEX
8
Sketch
10
-0.1
20
-0.7
0
VERTEX
8
Sketch
10
0.14
20
-0.82
0
VERTEX
8
Sketch
10
0.14
20
-1.3
0
VERTEX
8
Sketch
10
0.26
20
-1.66
0
VERTEX
8
Sketch
10
0.26
20
-2.98
0
VERTEX
8
Sketch
10
0.5
20
-3.34
0
VERTEX
8
Sketch
10
0.5
20
-3.58
0
VERTEX
8
Sketch
10
1.1
20
-4.42
0
VERTEX
8
Sketch
10
1.1
20
-4.54
0
VERTEX
8
Sketch
10
1.22
20
-4.54
0
VERTEX
8
Sketch
10
1.22
20
-4.78
0
VERTEX
8
Sketch
10
1.58
20
-4.9
0
VERTEX
8
Sketch
10
1.58
20
-5.02
0
VERTEX
8
Sketch
10
1.82
20
-5.02
0
VERTEX
8
Sketch
10
2.42
20
-5.38
0
VERTEX
8
Sketch
10
2.66
20
-5.38
0
VERTEX
8
Sketch
10
3.14
20
-5.74
0
VERTEX
8
Sketch
10
3.38
20
-5.74
0
VERTEX
8
Sketch
10
3.38
20
-5.86
0
VERTEX
8
Sketch
10
3.5
20
-5.86
0
VERTEX
8
Sketch
10
3.5
20
-5.98
0
VERTEX
8
Sketch
10
3.74
20
-5.98
0
VERTEX
8
Sketch
10
4.22
20
-6.22
0
VERTEX
8
Sketch
10
4.46
20
-6.34
0
VERTEX
8
Sketch
10
4.82
20
-6.46
0
VERTEX
8
Sketch
10
6.14
20
-6.46
0
VERTEX
8
Sketch
10
6.86
20
-6.22
0
VERTEX
8
Sketch
10
6.86
20
-6.1
0
VERTEX
8
Sketch
10
7.34
20
-6.1
0
SEQEND
0
LINE
8
Shots
62
1
10
107.408
20
-107.394
11
116.418
21
-120.954
0
CIRCLE
8
Shots
62
1
10
116.418
20
-120.954
40
0.1
0
LINE
8
Shots
62
1
10
98.45
20
-101.15
11
107.408
21
-107.394
0
CIRCLE
8
Shots
62
1
10
107.408
20
-107.394
40
0.1
0
LINE
8
Shots
62
1
10
88.938
20
-77.21
11
98.45
21
-101.15
0
CIRCLE
8
Shots
62
1
10
98.45
20
-101.15
40
0.1
0
LINE
8
XSect
62
1
10
98.45
20
-101.15
11
89.038
21
-91.206
0
LINE
8
Shots
62
1
10
83.604
20
-74.986
11
88.938
21
-77.21
0
CIRCLE
8
Shots
62
1
10
88.938
20
-77.21
40
0.1
0
LINE
8
Shots
62
1
10
80.224
20
-65.32
11
83.604
21
-74.986
0
CIRCLE
8
Shots
62
1
10
83.604
20
-74.986
40
0.1
0
LINE
8
Shots
62
1
10
76.554
20
-59.08
11
80.224
21
-65.32
0
CIRCLE
8
Shots
62
1
10
80.224
20
-65.32
40
0.1
0
LINE
8
Shots
62
1
10
72.21
20
-53.114
11
76.554
21
-59.08
0
CIRCLE
8
Shots
62
1
10
76.554
20
-59.08
40
0.1
0
LINE
8
Shots
62
1
10
70.498
20
-51.32
11
72.21
21
-53.114
0
CIRCLE
8
Shots
62
1
10
72.21
20
-53.114
40
0.1
0
LINE
8
Shots
62
1
10
60.968
20
-34.744
11
70.498
21
-51.32
0
CIRCLE
8
Shots
62
1
10
70.498
20
-51.32
40
0.1
0
LINE
8
Shots
62
1
10
54.868
20
-34.814
11
60.968
21
-34.744
0
CIRCLE
8
Shots
62
1
10
60.968
20
-34.744
40
0.1
0
LINE
8
Shots
62
1
10
66.286
20
-33.298
11
74.668
21
-30.62
0
CIRCLE
8
Shots
62
1
10
74.668
20
-30.62
40
0.1
0
LINE
8
Shots
62
1
10
62.594
20
-34.614
11
66.286
21
-33.298
0
CIRCLE
8
Shots
62
1
10
66.286
20
-33.298
40
0.1
0
LINE
8
Shots
62
1
10
57.82
20
-36.098
11
62.594
21
-34.614
0
CIRCLE
8
Shots
62
1
10
62.594
20
-34.614
40
0.1
0
LINE
8
Shots
62
1
10
54.868
20
-34.814
11
57.82
21
-36.098
0
CIRCLE
8
Shots
62
1
10
57.82
20
-36.098
40
0.1
0
LINE
8
Shots
62
1
10
63.648
20
-44.168
11
69.608
21
-42.614
0
CIRCLE
8
Shots
62
1
10
69.608
20
-42.614
40
0.1
0
LINE
8
Shots
62
1
10
60.666
20
-37.526
11
63.648
21
-44.168
0
CIRCLE
8
Shots
62
1
10
63.648
20
-44.168
40
0.1
0
LINE
8
Shots
62
1
10
60.666
20
-37.526
11
65.154
21
-36.52
0
CIRCLE
8
Shots
62
1
10
65.154
20
-36.52
40
0.1
0
LINE
8
Shots
62
1
10
54.868
20
-34.814
11
60.666
21
-37.526
0
CIRCLE
8
Shots
62
1
10
60.666
20
-37.526
40
0.1
0
LINE
8
Shots
62
1
10
50.914
20
-32.582
11
54.868
21
-34.814
0
CIRCLE
8
Shots
62
1
10
54.868
20
-34.814
40
0.1
0
LINE
8
Shots
62
1
10
46.5
20
-27.174
11
50.914
21
-32.582
0
CIRCLE
8
Shots
62
1
10
50.914
20
-32.582
40
0.1
0
LINE
8
Shots
62
1
10
46.5
20
-27.174
11
53.296
21
-26.924
0
CIRCLE
8
Shots
62
1
10
53.296
20
-26.924
40
0.1
0
LINE
8
Shots
62
1
10
45.146
20
-25.568
11
46.5
21
-27.174
0
CIRCLE
8
Shots
62
1
10
46.5
20
-27.174
40
0.1
0
LINE
8
Shots
62
1
10
40.234
20
-23.276
11
45.146
21
-25.568
0
CIRCLE
8
Shots
62
1
10
45.146
20
-25.568
40
0.1
0
LINE
8
Shots
62
1
10
36.404
20
-20.284
11
40.234
21
-23.276
0
CIRCLE
8
Shots
62
1
10
40.234
20
-23.276
40
0.1
0
LINE
8
Shots
62
1
10
32.63
20
-18.02
11
36.404
21
-20.284
0
CIRCLE
8
Shots
62
1
10
36.404
20
-20.284
40
0.1
0
LINE
8
Shots
62
1
10
21.032
20
-15.636
11
32.63
21
-18.02
0
CIRCLE
8
Shots
62
1
10
32.63
20
-18.02
40
0.1
0
LINE
8
Shots
62
1
10
19.42
20
-11.976
11
21.032
21
-15.636
0
CIRCLE
8
Shots
62
1
10
21.032
20
-15.636
40
0.1
0
LINE
8
Shots
62
1
10
17.76
20
-11.936
11
19.42
21
-11.976
0
CIRCLE
8
Shots
62
1
10
19.42
20
-11.976
40
0.1
0
LINE
8
Shots
62
1
10
8.756
20
-5.686
11
17.76
21
-11.936
0
CIRCLE
8
Shots
62
1
10
17.76
20
-11.936
40
0.1
0
LINE
8
Shots
62
1
10
0
20
0
11
8.756
21
-5.686
0
CIRCLE
8
Shots
62
1
10
8.756
20
-5.686
40
0.1
0
ENDSEC
0
EOF
