0
SECTION
2
HEADER
9
$ACADVER
1
AC1002
9
$INSUNITS
70
4
0
ENDSEC
0
SECTION
2
TABLES
0
TABLE
2
LTYPE
70
1
0
LTYPE
2
DASH
70
0
3
---
72
65
73
2
40
0.6
49
0.3
49
-0.3
0
ENDTAB
0
ENDSEC
0
SECTION
2
ENTITIES
0
POLYLINE
66
1
8
Sketch
62
0
0
VERTEX
8
Sketch
10
-8.8
20
-14
0
VERTEX
8
Sketch
10
-8.96
20
-14.16
0
VERTEX
8
Sketch
10
-9.08
20
-14.6
0
VERTEX
8
Sketch
10
-9.08
20
-14.72
0
VERTEX
8
Sketch
10
-9.04
20
-14.88
0
VERTEX
8
Sketch
10
-8.92
20
-14.88
0
VERTEX
8
Sketch
10
-8.84
20
-14.96
0
VERTEX
8
Sketch
10
-8.64
20
-14.96
0
VERTEX
8
Sketch
10
-8.48
20
-15
0
VERTEX
8
Sketch
10
-8.4
20
-14.92
0
VERTEX
8
Sketch
10
-8.44
20
-14.72
0
VERTEX
8
Sketch
10
-8.48
20
-14.56
0
VERTEX
8
Sketch
10
-8.92
20
-13.88
0
VERTEX
8
Sketch
10
-9
20
-13.84
0
SEQEND
0
POLYLINE
66
1
8
Sketch
62
0
0
VERTEX
8
Sketch
10
-6.8
20
-13.72
0
VERTEX
8
Sketch
10
-6.6
20
-14.52
0
VERTEX
8
Sketch
10
-6.6
20
-14.64
0
VERTEX
8
Sketch
10
-6.28
20
-14.4
0
VERTEX
8
Sketch
10
-6.6
20
-13.56
0
VERTEX
8
Sketch
10
-6.68
20
-13.48
0
VERTEX
8
Sketch
10
-6.76
20
-13.48
0
SEQEND
0
POLYLINE
66
1
8
Sketch
62
0
0
VERTEX
8
Sketch
10
-12.8
20
-13.08
0
VERTEX
8
Sketch
10
-12.96
20
-13.12
0
VERTEX
8
Sketch
10
-13
20
-13.2
0
VERTEX
8
Sketch
10
-13.32
20
-13.28
0
VERTEX
8
Sketch
10
-13.52
20
-13.36
0
SEQEND
0
POLYLINE
66
1
8
Sketch
62
0
0
VERTEX
8
Sketch
10
-8.88
20
-15.4
0
VERTEX
8
Sketch
10
-9.36
20
-15.36
0
VERTEX
8
Sketch
10
-9.72
20
-15.48
0
VERTEX
8
Sketch
10
-9.96
20
-15.48
0
VERTEX
8
Sketch
10
-10.36
20
-15.4
0
VERTEX
8
Sketch
10
-10.56
20
-15.32
0
VERTEX
8
Sketch
10
-10.64
20
-15.24
0
VERTEX
8
Sketch
10
-10.72
20
-15.24
0
VERTEX
8
Sketch
10
-11.2
20
-15
0
VERTEX
8
Sketch
10
-11.6
20
-14.72
0
VERTEX
8
Sketch
10
-11.92
20
-14.52
0
VERTEX
8
Sketch
10
-12.12
20
-14.32
0
VERTEX
8
Sketch
10
-12.32
20
-14.28
0
VERTEX
8
Sketch
10
-12.84
20
-13.92
0
VERTEX
8
Sketch
10
-13.36
20
-13.6
0
VERTEX
8
Sketch
10
-13.52
20
-13.56
0
VERTEX
8
Sketch
10
-14.04
20
-13.4
0
VERTEX
8
Sketch
10
-14.2
20
-13.4
0
VERTEX
8
Sketch
10
-14.6
20
-13.32
0
VERTEX
8
Sketch
10
-14.88
20
-13.32
0
VERTEX
8
Sketch
10
-15.08
20
-13.36
0
VERTEX
8
Sketch
10
-15.44
20
-13.56
0
VERTEX
8
Sketch
10
-15.52
20
-13.56
0
VERTEX
8
Sketch
10
-15.68
20
-13.68
0
SEQEND
0
POINT
8
Sketch
62
0
10
-4.72
20
-8.92
0
POLYLINE
66
1
8
Sketch
62
0
0
VERTEX
8
Sketch
10
-6.12
20
-10.76
0
VERTEX
8
Sketch
10
-5.44
20
-10.2
0
SEQEND
0
POLYLINE
66
1
8
Sketch
62
0
0
VERTEX
8
Sketch
10
-7.16
20
-11.72
0
VERTEX
8
Sketch
10
-6.68
20
-11.24
0
SEQEND
0
POLYLINE
66
1
8
Sketch
62
0
0
VERTEX
8
Sketch
10
-9.16
20
-11.72
0
VERTEX
8
Sketch
10
-9.08
20
-11.68
0
SEQEND
0
POLYLINE
66
1
8
Sketch
62
0
0
VERTEX
8
Sketch
10
-10.88
20
-12.76
0
VERTEX
8
Sketch
10
-10.6
20
-12.76
0
VERTEX
8
Sketch
10
-10.24
20
-12.68
0
VERTEX
8
Sketch
10
-10.16
20
-12.6
0
VERTEX
8
Sketch
10
-10.08
20
-12.6
0
SEQEND
0
POLYLINE
66
1
8
Sketch
62
0
0
VERTEX
8
Sketch
10
-12.4
20
-12.28
0
VERTEX
8
Sketch
10
-11.92
20
-12.68
0
VERTEX
8
Sketch
10
-11.44
20
-13
0
SEQEND
0
POLYLINE
66
1
8
Sketch
62
0
0
VERTEX
8
Sketch
10
-6.48
20
-11.56
0
VERTEX
8
Sketch
10
-7
20
-11.92
0
SEQEND
0
POLYLINE
66
1
8
Sketch
62
0
0
VERTEX
8
Sketch
10
-5.88
20
-11.04
0
VERTEX
8
Sketch
10
-6.24
20
-11.36
0
SEQEND
0
POLYLINE
66
1
8
Sketch
62
0
0
VERTEX
8
Sketch
10
-5.44
20
-13.32
0
VERTEX
8
Sketch
10
-5.36
20
-13.24
0
VERTEX
8
Sketch
10
-5.24
20
-13.56
0
VERTEX
8
Sketch
10
-5.24
20
-13.68
0
VERTEX
8
Sketch
10
-5.2
20
-13.84
0
VERTEX
8
Sketch
10
-5.16
20
-14
0
VERTEX
8
Sketch
10
-5.04
20
-14.24
0
VERTEX
8
Sketch
10
-4.72
20
-13.84
0
VERTEX
8
Sketch
10
-4.92
20
-13.52
0
VERTEX
8
Sketch
10
-5
20
-13.32
0
VERTEX
8
Sketch
10
-5.32
20
-13.12
0
SEQEND
0
POLYLINE
66
1
8
Sketch
62
0
0
VERTEX
8
Sketch
10
-8.88
20
-15.36
0
VERTEX
8
Sketch
10
-8.72
20
-15.36
0
VERTEX
8
Sketch
10
-8.28
20
-15.56
0
VERTEX
8
Sketch
10
-7.96
20
-15.68
0
VERTEX
8
Sketch
10
-7.68
20
-15.72
0
VERTEX
8
Sketch
10
-7.36
20
-15.92
0
VERTEX
8
Sketch
10
-6.8
20
-16.16
0
VERTEX
8
Sketch
10
-6.68
20
-16.16
0
VERTEX
8
Sketch
10
-6.48
20
-16.28
0
VERTEX
8
Sketch
10
-6.4
20
-16.28
0
VERTEX
8
Sketch
10
-5.84
20
-16.52
0
VERTEX
8
Sketch
10
-5.68
20
-16.56
0
VERTEX
8
Sketch
10
-5.36
20
-16.76
0
VERTEX
8
Sketch
10
-5.12
20
-16.8
0
VERTEX
8
Sketch
10
-4.96
20
-16.92
0
VERTEX
8
Sketch
10
-4.8
20
-16.96
0
VERTEX
8
Sketch
10
-4.72
20
-16.92
0
VERTEX
8
Sketch
10
-4.56
20
-16.96
0
VERTEX
8
Sketch
10
-4.28
20
-16.68
0
VERTEX
8
Sketch
10
-4.28
20
-16.56
0
VERTEX
8
Sketch
10
-4.16
20
-16.28
0
VERTEX
8
Sketch
10
-4.04
20
-16.12
0
VERTEX
8
Sketch
10
-3.96
20
-15.76
0
VERTEX
8
Sketch
10
-3.88
20
-15.2
0
VERTEX
8
Sketch
10
-3.92
20
-15.04
0
VERTEX
8
Sketch
10
-3.92
20
-14.32
0
VERTEX
8
Sketch
10
-3.96
20
-14.12
0
VERTEX
8
Sketch
10
-3.96
20
-14
0
VERTEX
8
Sketch
10
-4.08
20
-13.76
0
VERTEX
8
Sketch
10
-4.12
20
-13.56
0
VERTEX
8
Sketch
10
-4.16
20
-13.36
0
VERTEX
8
Sketch
10
-4.24
20
-13
0
VERTEX
8
Sketch
10
-4.28
20
-12.84
0
VERTEX
8
Sketch
10
-4.28
20
-12.16
0
VERTEX
8
Sketch
10
-4.32
20
-12
0
VERTEX
8
Sketch
10
-4.32
20
-11.84
0
VERTEX
8
Sketch
10
-4.28
20
-11.56
0
VERTEX
8
Sketch
10
-4.28
20
-11.4
0
VERTEX
8
Sketch
10
-4.24
20
-11.2
0
VERTEX
8
Sketch
10
-4.24
20
-10.56
0
VERTEX
8
Sketch
10
-4.28
20
-10.2
0
VERTEX
8
Sketch
10
-4.24
20
-10.04
0
VERTEX
8
Sketch
10
-4.2
20
-9.84
0
VERTEX
8
Sketch
10
-4.2
20
-9.64
0
VERTEX
8
Sketch
10
-4.12
20
-9.36
0
VERTEX
8
Sketch
10
-4.12
20
-9.04
0
VERTEX
8
Sketch
10
-4.04
20
-8.68
0
VERTEX
8
Sketch
10
-3.96
20
-8.36
0
VERTEX
8
Sketch
10
-3.96
20
-8.16
0
VERTEX
8
Sketch
10
-3.88
20
-7.88
0
VERTEX
8
Sketch
10
-3.64
20
-7.56
0
VERTEX
8
Sketch
10
-3.48
20
-7.2
0
VERTEX
8
Sketch
10
-2.96
20
-6.72
0
VERTEX
8
Sketch
10
-2.88
20
-6.72
0
VERTEX
8
Sketch
10
-2.72
20
-6.6
0
SEQEND
0
POLYLINE
66
1
8
Sketch
62
0
0
VERTEX
8
Sketch
10
-8.84
20
-15.8
0
VERTEX
8
Sketch
10
-9.32
20
-16.04
0
VERTEX
8
Sketch
10
-10.08
20
-16.84
0
VERTEX
8
Sketch
10
-10.36
20
-17.2
0
VERTEX
8
Sketch
10
-10.4
20
-17.36
0
VERTEX
8
Sketch
10
-10.44
20
-17.52
0
VERTEX
8
Sketch
10
-10.48
20
-17.6
0
SEQEND
0
POLYLINE
66
1
8
Sketch
62
0
0
VERTEX
8
Sketch
10
-12.44
20
-8.32
0
VERTEX
8
Sketch
10
-12.52
20
-8.28
0
VERTEX
8
Sketch
10
-12.8
20
-8.52
0
VERTEX
8
Sketch
10
-13.12
20
-8.68
0
VERTEX
8
Sketch
10
-13.28
20
-8.8
0
VERTEX
8
Sketch
10
-13.56
20
-8.88
0
VERTEX
8
Sketch
10
-13.76
20
-8.92
0
VERTEX
8
Sketch
10
-14.12
20
-8.88
0
VERTEX
8
Sketch
10
-14.32
20
-8.88
0
VERTEX
8
Sketch
10
-14.48
20
-8.92
0
SEQEND
0
POLYLINE
66
1
8
Sketch
62
0
0
VERTEX
8
Sketch
10
-6.08
20
-5.64
0
VERTEX
8
Sketch
10
-6.56
20
-6.52
0
VERTEX
8
Sketch
10
-6.56
20
-6.6
0
VERTEX
8
Sketch
10
-6.92
20
-7.2
0
VERTEX
8
Sketch
10
-7.28
20
-7.48
0
VERTEX
8
Sketch
10
-8.96
20
-8.08
0
VERTEX
8
Sketch
10
-9.28
20
-8.08
0
VERTEX
8
Sketch
10
-10.08
20
-8.16
0
VERTEX
8
Sketch
10
-10.16
20
-8.12
0
VERTEX
8
Sketch
10
-10.44
20
-8.2
0
VERTEX
8
Sketch
10
-11.4
20
-8.28
0
VERTEX
8
Sketch
10
-11.92
20
-8.4
0
VERTEX
8
Sketch
10
-12
20
-8.48
0
VERTEX
8
Sketch
10
-12.24
20
-8.52
0
SEQEND
0
POLYLINE
66
1
8
Sketch
62
0
0
VERTEX
8
Sketch
10
-0.48
20
1.24
0
VERTEX
8
Sketch
10
-0.68
20
1.2
0
VERTEX
8
Sketch
10
-1
20
0.8
0
VERTEX
8
Sketch
10
-1.44
20
-0.04
0
VERTEX
8
Sketch
10
-1.72
20
-0.48
0
VERTEX
8
Sketch
10
-2.44
20
-1.2
0
VERTEX
8
Sketch
10
-2.6
20
-1.44
0
VERTEX
8
Sketch
10
-2.68
20
-1.88
0
VERTEX
8
Sketch
10
-2.72
20
-2.36
0
VERTEX
8
Sketch
10
-3.04
20
-2.8
0
VERTEX
8
Sketch
10
-3.32
20
-3.28
0
VERTEX
8
Sketch
10
-3.92
20
-3.8
0
VERTEX
8
Sketch
10
-4.16
20
-3.96
0
VERTEX
8
Sketch
10
-4.32
20
-4.12
0
VERTEX
8
Sketch
10
-4.56
20
-4.2
0
VERTEX
8
Sketch
10
-4.92
20
-4.6
0
VERTEX
8
Sketch
10
-5.92
20
-5.6
0
VERTEX
8
Sketch
10
-6
20
-5.64
0
SEQEND
0
POLYLINE
66
1
8
Sketch
62
0
0
VERTEX
8
Sketch
10
1.68
20
-0.04
0
VERTEX
8
Sketch
10
1.52
20
-0.12
0
VERTEX
8
Sketch
10
1.24
20
-0.48
0
VERTEX
8
Sketch
10
1.08
20
-0.8
0
VERTEX
8
Sketch
10
1.08
20
-0.92
0
VERTEX
8
Sketch
10
1.04
20
-1.08
0
VERTEX
8
Sketch
10
1.04
20
-1.68
0
VERTEX
8
Sketch
10
0.88
20
-2.04
0
VERTEX
8
Sketch
10
0.88
20
-2.2
0
VERTEX
8
Sketch
10
0.76
20
-2.6
0
VERTEX
8
Sketch
10
0.72
20
-2.96
0
VERTEX
8
Sketch
10
0.72
20
-3.12
0
VERTEX
8
Sketch
10
0.52
20
-3.44
0
VERTEX
8
Sketch
10
0.52
20
-3.68
0
VERTEX
8
Sketch
10
0.48
20
-3.84
0
VERTEX
8
Sketch
10
0.16
20
-4.2
0
VERTEX
8
Sketch
10
0
20
-4.36
0
SEQEND
0
POLYLINE
66
1
8
Sketch
62
0
0
VERTEX
8
Sketch
10
0
20
1.4
0
VERTEX
8
Sketch
10
0
20
1.48
0
VERTEX
8
Sketch
10
0.08
20
1.56
0
VERTEX
8
Sketch
10
0.48
20
1.68
0
VERTEX
8
Sketch
10
0.56
20
1.68
0
SEQEND
0
POLYLINE
66
1
8
Sketch
62
0
0
VERTEX
8
Sketch
10
-0.04
20
0.8
0
VERTEX
8
Sketch
10
0.4
20
1.08
0
VERTEX
8
Sketch
10
0.64
20
1.28
0
SEQEND
0
POLYLINE
66
1
8
Sketch
62
0
0
VERTEX
8
Sketch
10
0.8
20
0.36
0
VERTEX
8
Sketch
10
1
20
0.48
0
VERTEX
8
Sketch
10
1.2
20
0.76
0
SEQEND
0
POLYLINE
66
1
8
Sketch
62
0
0
VERTEX
8
Sketch
10
1.12
20
0.28
0
VERTEX
8
Sketch
10
1.52
20
0.68
0
VERTEX
8
Sketch
10
1.76
20
0.88
0
SEQEND
0
POINT
8
Sketch
62
0
10
1.6
20
0.28
0
POLYLINE
66
1
8
Sketch
62
0
0
VERTEX
8
Sketch
10
1.36
20
0.12
0
VERTEX
8
Sketch
10
1.36
20
0.24
0
VERTEX
8
Sketch
10
1.44
20
0.16
0
VERTEX
8
Sketch
10
1.68
20
0.12
0
SEQEND
0
POLYLINE
66
1
8
Sketch
62
0
0
VERTEX
8
Sketch
10
-0.32
20
1.4
0
VERTEX
8
Sketch
10
-0.36
20
1.48
0
VERTEX
8
Sketch
10
0.2
20
0.8
0
VERTEX
8
Sketch
10
0.52
20
0.52
0
VERTEX
8
Sketch
10
1.12
20
0.24
0
VERTEX
8
Sketch
10
1.2
20
0.24
0
SEQEND
0
LINE
8
Shots
62
1
10
-7.422
20
-8.888
11
-12.524
21
-9.316
0
CIRCLE
8
Shots
62
1
10
-12.524
20
-9.316
40
0.1
0
LINE
8
XSect
62
1
10
-12.524
20
-9.316
11
-4.566
21
-17.082
0
LINE
8
Shots
62
1
10
-2.228
20
-3.268
11
-7.422
21
-8.888
0
CIRCLE
8
Shots
62
1
10
-7.422
20
-8.888
40
0.1
0
LINE
8
Shots
62
1
10
0
20
0
11
-2.228
21
-3.268
0
CIRCLE
8
Shots
62
1
10
-2.228
20
-3.268
40
0.1
0
LINE
8
Shots
62
1
10
0
20
0
11
15.322
21
16.622
0
CIRCLE
8
Shots
62
1
10
15.322
20
16.622
40
0.1
0
ENDSEC
0
EOF
