0
SECTION
2
HEADER
9
$ACADVER
1
AC1002
9
$INSUNITS
70
4
0
ENDSEC
0
SECTION
2
TABLES
0
TABLE
2
LTYPE
70
1
0
LTYPE
2
DASH
70
0
3
---
72
65
73
2
40
0.6
49
0.3
49
-0.3
0
ENDTAB
0
ENDSEC
0
SECTION
2
ENTITIES
0
POLYLINE
66
1
8
Sketch
62
0
0
VERTEX
8
Sketch
10
-0.8
20
5.4
0
VERTEX
8
Sketch
10
-1.4
20
5.9
0
VERTEX
8
Sketch
10
-2
20
6.3
0
VERTEX
8
Sketch
10
-2.2
20
6.3
0
VERTEX
8
Sketch
10
-3
20
7.6
0
VERTEX
8
Sketch
10
-3.7
20
8.6
0
VERTEX
8
Sketch
10
-4
20
9.3
0
VERTEX
8
Sketch
10
-4.7
20
10.1
0
VERTEX
8
Sketch
10
-5
20
10.6
0
VERTEX
8
Sketch
10
-5.5
20
11.1
0
VERTEX
8
Sketch
10
-5.6
20
11.5
0
VERTEX
8
Sketch
10
-5.5
20
12
0
VERTEX
8
Sketch
10
-5.9
20
13
0
VERTEX
8
Sketch
10
-6.1
20
13.2
0
SEQEND
0
POLYLINE
66
1
8
Sketch
62
0
0
VERTEX
8
Sketch
10
-4.1
20
-9.7
0
VERTEX
8
Sketch
10
-4.3
20
-10.7
0
VERTEX
8
Sketch
10
-4.5
20
-11.2
0
VERTEX
8
Sketch
10
-4.7
20
-11.2
0
VERTEX
8
Sketch
10
-4.9
20
-11.4
0
VERTEX
8
Sketch
10
-5.8
20
-11.5
0
VERTEX
8
Sketch
10
-6
20
-11.4
0
VERTEX
8
Sketch
10
-6.5
20
-11.5
0
SEQEND
0
POLYLINE
66
1
8
Sketch
62
0
0
VERTEX
8
Sketch
10
-0.9
20
2.4
0
VERTEX
8
Sketch
10
-1.4
20
1.8
0
VERTEX
8
Sketch
10
-1.4
20
0.9
0
SEQEND
0
POLYLINE
66
1
8
Sketch
62
0
0
VERTEX
8
Sketch
10
-0.1
20
3.6
0
VERTEX
8
Sketch
10
-0.3
20
3.7
0
SEQEND
0
POLYLINE
66
1
8
Sketch
62
0
0
VERTEX
8
Sketch
10
-0.5
20
-0.7
0
VERTEX
8
Sketch
10
-1.1
20
-1.1
0
VERTEX
8
Sketch
10
-1.5
20
-1.2
0
VERTEX
8
Sketch
10
-1.7
20
-1.4
0
VERTEX
8
Sketch
10
-1.7
20
-1.6
0
VERTEX
8
Sketch
10
-2.8
20
-4
0
VERTEX
8
Sketch
10
-3.1
20
-4.4
0
VERTEX
8
Sketch
10
-3.2
20
-4.8
0
VERTEX
8
Sketch
10
-3.5
20
-5.7
0
VERTEX
8
Sketch
10
-4
20
-7.8
0
VERTEX
8
Sketch
10
-4.3
20
-9.2
0
VERTEX
8
Sketch
10
-4.4
20
-9.6
0
VERTEX
8
Sketch
10
-4.4
20
-10
0
SEQEND
0
POLYLINE
66
1
8
Sketch
62
0
0
VERTEX
8
Sketch
10
2.6
20
-1.5
0
VERTEX
8
Sketch
10
2.2
20
-1.5
0
VERTEX
8
Sketch
10
1.7
20
-1.4
0
VERTEX
8
Sketch
10
0.9
20
-1.5
0
VERTEX
8
Sketch
10
0.7
20
-1.4
0
VERTEX
8
Sketch
10
0.1
20
-1.6
0
VERTEX
8
Sketch
10
-0.3
20
-1.5
0
VERTEX
8
Sketch
10
-0.9
20
-1.4
0
SEQEND
0
POLYLINE
66
1
8
Sketch
62
0
0
VERTEX
8
Sketch
10
7.3
20
7.8
0
VERTEX
8
Sketch
10
6.3
20
7.5
0
VERTEX
8
Sketch
10
5.3
20
6.5
0
VERTEX
8
Sketch
10
3.9
20
5.7
0
VERTEX
8
Sketch
10
3.1
20
5.6
0
VERTEX
8
Sketch
10
2.3
20
5.4
0
VERTEX
8
Sketch
10
1.1
20
4.9
0
VERTEX
8
Sketch
10
0.7
20
4.8
0
VERTEX
8
Sketch
10
0.3
20
4.5
0
SEQEND
0
POLYLINE
66
1
8
Sketch
62
0
0
VERTEX
8
Sketch
10
22.5
20
4.1
0
VERTEX
8
Sketch
10
21.1
20
4.4
0
VERTEX
8
Sketch
10
19.4
20
5.2
0
VERTEX
8
Sketch
10
18.8
20
5.6
0
VERTEX
8
Sketch
10
17.7
20
6.2
0
VERTEX
8
Sketch
10
17.4
20
6.2
0
VERTEX
8
Sketch
10
16.2
20
6.6
0
VERTEX
8
Sketch
10
15.8
20
6.7
0
VERTEX
8
Sketch
10
15
20
6.7
0
VERTEX
8
Sketch
10
14.2
20
7.1
0
VERTEX
8
Sketch
10
14
20
7.1
0
VERTEX
8
Sketch
10
13.7
20
7.3
0
VERTEX
8
Sketch
10
13.3
20
7.4
0
VERTEX
8
Sketch
10
11.8
20
8.2
0
VERTEX
8
Sketch
10
11.2
20
8.6
0
VERTEX
8
Sketch
10
10.3
20
9
0
VERTEX
8
Sketch
10
9.7
20
9.5
0
VERTEX
8
Sketch
10
9.2
20
9.6
0
VERTEX
8
Sketch
10
8.9
20
9.6
0
VERTEX
8
Sketch
10
8.3
20
9.8
0
VERTEX
8
Sketch
10
8.1
20
9.8
0
VERTEX
8
Sketch
10
7.1
20
8.7
0
VERTEX
8
Sketch
10
6.9
20
7.8
0
VERTEX
8
Sketch
10
6.8
20
7.4
0
VERTEX
8
Sketch
10
6.6
20
6.5
0
VERTEX
8
Sketch
10
6.5
20
6.1
0
VERTEX
8
Sketch
10
5.7
20
5.2
0
VERTEX
8
Sketch
10
5.4
20
4.1
0
VERTEX
8
Sketch
10
5.2
20
3.9
0
VERTEX
8
Sketch
10
4.3
20
3.8
0
VERTEX
8
Sketch
10
3.9
20
3.9
0
VERTEX
8
Sketch
10
3
20
4.1
0
VERTEX
8
Sketch
10
2.5
20
4.1
0
VERTEX
8
Sketch
10
2
20
4.2
0
VERTEX
8
Sketch
10
0.6
20
4.5
0
VERTEX
8
Sketch
10
-0.7
20
4.6
0
VERTEX
8
Sketch
10
-1.1
20
4.6
0
SEQEND
0
POLYLINE
66
1
8
Sketch
62
0
0
VERTEX
8
Sketch
10
17.6
20
-1.2
0
VERTEX
8
Sketch
10
17.9
20
-1.2
0
VERTEX
8
Sketch
10
18.3
20
-1
0
VERTEX
8
Sketch
10
21.3
20
-1.4
0
VERTEX
8
Sketch
10
21.5
20
-1.5
0
SEQEND
0
POLYLINE
66
1
8
Sketch
62
0
0
VERTEX
8
Sketch
10
2.1
20
-1
0
VERTEX
8
Sketch
10
2.8
20
-1
0
VERTEX
8
Sketch
10
3
20
-0.9
0
VERTEX
8
Sketch
10
3.4
20
-1
0
VERTEX
8
Sketch
10
3.8
20
-1.1
0
VERTEX
8
Sketch
10
4.2
20
-1
0
VERTEX
8
Sketch
10
4.6
20
-1
0
VERTEX
8
Sketch
10
5.2
20
-0.8
0
VERTEX
8
Sketch
10
5.4
20
-1
0
VERTEX
8
Sketch
10
5.9
20
-0.9
0
VERTEX
8
Sketch
10
6.3
20
-0.9
0
VERTEX
8
Sketch
10
6.7
20
-0.8
0
VERTEX
8
Sketch
10
7.1
20
-0.9
0
VERTEX
8
Sketch
10
8.4
20
-0.9
0
VERTEX
8
Sketch
10
8.8
20
-1
0
VERTEX
8
Sketch
10
9.9
20
-1.2
0
VERTEX
8
Sketch
10
10.3
20
-1.2
0
VERTEX
8
Sketch
10
10.7
20
-1.3
0
VERTEX
8
Sketch
10
11.3
20
-1.4
0
VERTEX
8
Sketch
10
11.7
20
-1.3
0
VERTEX
8
Sketch
10
12.6
20
-1.3
0
VERTEX
8
Sketch
10
13.1
20
-1.4
0
VERTEX
8
Sketch
10
13.7
20
-1.4
0
VERTEX
8
Sketch
10
14.1
20
-1.3
0
VERTEX
8
Sketch
10
14.5
20
-1.4
0
VERTEX
8
Sketch
10
15.1
20
-1.2
0
VERTEX
8
Sketch
10
16.1
20
-1.2
0
VERTEX
8
Sketch
10
16.5
20
-1.1
0
VERTEX
8
Sketch
10
16.9
20
-1.1
0
VERTEX
8
Sketch
10
17.3
20
-1
0
VERTEX
8
Sketch
10
17.5
20
-1
0
VERTEX
8
Sketch
10
17.7
20
-0.8
0
SEQEND
0
LINE
8
Shots
62
1
10
11.606
20
2.372
11
16.726
21
1.436
0
CIRCLE
8
Shots
62
1
10
16.726
20
1.436
40
0.1
0
LINE
8
XSect
62
1
10
16.726
20
1.436
11
9.464
21
9.082
0
LINE
8
Shots
62
1
10
3.954
20
1.742
11
11.606
21
2.372
0
CIRCLE
8
Shots
62
1
10
11.606
20
2.372
40
0.1
0
LINE
8
Shots
62
1
10
0
20
0
11
3.954
21
1.742
0
CIRCLE
8
Shots
62
1
10
3.954
20
1.742
40
0.1
0
LINE
8
Shots
62
1
10
0
20
0
11
22.606
21
7.918
0
CIRCLE
8
Shots
62
1
10
22.606
20
7.918
40
0.1
0
ENDSEC
0
EOF
