0
SECTION
2
HEADER
9
$ACADVER
1
AC1002
9
$INSUNITS
70
4
0
ENDSEC
0
SECTION
2
TABLES
0
TABLE
2
LTYPE
70
1
0
LTYPE
2
DASH
70
0
3
---
72
65
73
2
40
0.6
49
0.3
49
-0.3
0
ENDTAB
0
ENDSEC
0
SECTION
2
ENTITIES
0
POLYLINE
66
1
8
Sketch
62
5
0
VERTEX
8
Sketch
10
33.33
20
-37.6
0
VERTEX
8
Sketch
10
33.57
20
-37.96
0
VERTEX
8
Sketch
10
33.66
20
-38.17
0
VERTEX
8
Sketch
10
33.72
20
-38.2
0
VERTEX
8
Sketch
10
33.72
20
-38.11
0
VERTEX
8
Sketch
10
33.78
20
-37.9
0
VERTEX
8
Sketch
10
33.84
20
-37.93
0
VERTEX
8
Sketch
10
33.99
20
-37.69
0
VERTEX
8
Sketch
10
33.99
20
-37.63
0
VERTEX
8
Sketch
10
33.75
20
-37.75
0
VERTEX
8
Sketch
10
33.69
20
-37.9
0
VERTEX
8
Sketch
10
33.63
20
-37.96
0
VERTEX
8
Sketch
10
33.63
20
-38.02
0
VERTEX
8
Sketch
10
33.54
20
-37.84
0
VERTEX
8
Sketch
10
33.54
20
-37.9
0
VERTEX
8
Sketch
10
33.6
20
-38.02
0
VERTEX
8
Sketch
10
33.6
20
-38.08
0
VERTEX
8
Sketch
10
33.87
20
-37.78
0
VERTEX
8
Sketch
10
33.93
20
-37.75
0
VERTEX
8
Sketch
10
33.96
20
-37.69
0
VERTEX
8
Sketch
10
33.96
20
-37.75
0
VERTEX
8
Sketch
10
33.9
20
-37.72
0
VERTEX
8
Sketch
10
33.75
20
-37.78
0
VERTEX
8
Sketch
10
33.63
20
-37.87
0
VERTEX
8
Sketch
10
33.63
20
-37.99
0
VERTEX
8
Sketch
10
33.57
20
-38.11
0
VERTEX
8
Sketch
10
33.45
20
-37.81
0
VERTEX
8
Sketch
10
33.48
20
-37.75
0
VERTEX
8
Sketch
10
33.48
20
-37.87
0
VERTEX
8
Sketch
10
33.57
20
-38.11
0
VERTEX
8
Sketch
10
33.63
20
-38.05
0
VERTEX
8
Sketch
10
33.63
20
-37.96
0
VERTEX
8
Sketch
10
33.81
20
-37.81
0
VERTEX
8
Sketch
10
33.84
20
-37.69
0
VERTEX
8
Sketch
10
33.72
20
-37.69
0
VERTEX
8
Sketch
10
33.66
20
-37.78
0
VERTEX
8
Sketch
10
33.6
20
-37.81
0
VERTEX
8
Sketch
10
33.6
20
-37.93
0
VERTEX
8
Sketch
10
33.54
20
-38.02
0
VERTEX
8
Sketch
10
33.48
20
-38.05
0
VERTEX
8
Sketch
10
33.39
20
-37.84
0
VERTEX
8
Sketch
10
33.39
20
-37.78
0
SEQEND
0
POINT
8
Sketch
62
5
10
33.33
20
-37.51
0
POLYLINE
66
1
8
Sketch
62
5
0
VERTEX
8
Sketch
10
33.39
20
-37.45
0
VERTEX
8
Sketch
10
33.39
20
-37.45
0
SEQEND
0
POLYLINE
66
1
8
Sketch
62
5
0
VERTEX
8
Sketch
10
33.12
20
-36.22
0
VERTEX
8
Sketch
10
33.15
20
-36.28
0
VERTEX
8
Sketch
10
33.12
20
-36.34
0
VERTEX
8
Sketch
10
33.18
20
-36.55
0
VERTEX
8
Sketch
10
33.27
20
-36.67
0
VERTEX
8
Sketch
10
33.33
20
-36.67
0
VERTEX
8
Sketch
10
33.36
20
-36.73
0
VERTEX
8
Sketch
10
33.48
20
-36.7
0
VERTEX
8
Sketch
10
33.54
20
-36.7
0
VERTEX
8
Sketch
10
33.57
20
-36.76
0
VERTEX
8
Sketch
10
33.63
20
-36.79
0
VERTEX
8
Sketch
10
33.63
20
-36.97
0
VERTEX
8
Sketch
10
33.48
20
-37.15
0
VERTEX
8
Sketch
10
33.39
20
-37.33
0
VERTEX
8
Sketch
10
33.39
20
-37.6
0
VERTEX
8
Sketch
10
33.51
20
-37.66
0
VERTEX
8
Sketch
10
33.63
20
-37.66
0
VERTEX
8
Sketch
10
33.66
20
-37.72
0
VERTEX
8
Sketch
10
33.78
20
-37.81
0
VERTEX
8
Sketch
10
33.78
20
-37.93
0
VERTEX
8
Sketch
10
33.72
20
-37.99
0
VERTEX
8
Sketch
10
33.69
20
-38.14
0
VERTEX
8
Sketch
10
33.69
20
-38.05
0
VERTEX
8
Sketch
10
33.57
20
-37.84
0
SEQEND
0
POLYLINE
66
1
8
Sketch
62
5
0
VERTEX
8
Sketch
10
2.76
20
-1.22
0
VERTEX
8
Sketch
10
2.91
20
-1.52
0
VERTEX
8
Sketch
10
2.97
20
-1.58
0
VERTEX
8
Sketch
10
3
20
-1.49
0
VERTEX
8
Sketch
10
3.06
20
-1.49
0
VERTEX
8
Sketch
10
3.12
20
-1.43
0
VERTEX
8
Sketch
10
3.24
20
-1.46
0
VERTEX
8
Sketch
10
3.3
20
-1.46
0
VERTEX
8
Sketch
10
3.21
20
-1.34
0
VERTEX
8
Sketch
10
3.09
20
-1.25
0
VERTEX
8
Sketch
10
3.03
20
-1.28
0
VERTEX
8
Sketch
10
3
20
-1.19
0
VERTEX
8
Sketch
10
2.94
20
-1.13
0
VERTEX
8
Sketch
10
3.12
20
-1.4
0
VERTEX
8
Sketch
10
3.12
20
-1.52
0
VERTEX
8
Sketch
10
3
20
-1.52
0
VERTEX
8
Sketch
10
2.94
20
-1.58
0
VERTEX
8
Sketch
10
2.76
20
-1.58
0
VERTEX
8
Sketch
10
2.64
20
-1.64
0
VERTEX
8
Sketch
10
2.67
20
-1.58
0
VERTEX
8
Sketch
10
3.18
20
-1.34
0
VERTEX
8
Sketch
10
3
20
-1.19
0
VERTEX
8
Sketch
10
2.94
20
-1.19
0
VERTEX
8
Sketch
10
2.76
20
-0.95
0
VERTEX
8
Sketch
10
2.76
20
-1.01
0
VERTEX
8
Sketch
10
2.91
20
-1.25
0
VERTEX
8
Sketch
10
3.03
20
-1.37
0
VERTEX
8
Sketch
10
3.06
20
-1.46
0
VERTEX
8
Sketch
10
3.12
20
-1.49
0
VERTEX
8
Sketch
10
3.03
20
-1.52
0
VERTEX
8
Sketch
10
2.79
20
-1.67
0
VERTEX
8
Sketch
10
2.67
20
-1.64
0
VERTEX
8
Sketch
10
2.85
20
-1.49
0
VERTEX
8
Sketch
10
3.09
20
-1.34
0
VERTEX
8
Sketch
10
3.15
20
-1.34
0
VERTEX
8
Sketch
10
3
20
-1.16
0
VERTEX
8
Sketch
10
2.94
20
-1.13
0
VERTEX
8
Sketch
10
2.82
20
-0.95
0
VERTEX
8
Sketch
10
2.79
20
-1.01
0
VERTEX
8
Sketch
10
2.82
20
-1.07
0
VERTEX
8
Sketch
10
2.82
20
-1.16
0
VERTEX
8
Sketch
10
2.91
20
-1.19
0
VERTEX
8
Sketch
10
3.12
20
-1.49
0
SEQEND
0
POLYLINE
66
1
8
Sketch
62
5
0
VERTEX
8
Sketch
10
1.29
20
-1.43
0
VERTEX
8
Sketch
10
1.32
20
-1.55
0
VERTEX
8
Sketch
10
1.44
20
-1.55
0
VERTEX
8
Sketch
10
1.5
20
-1.58
0
VERTEX
8
Sketch
10
1.56
20
-1.55
0
VERTEX
8
Sketch
10
1.68
20
-1.58
0
VERTEX
8
Sketch
10
1.8
20
-1.55
0
VERTEX
8
Sketch
10
1.83
20
-1.64
0
VERTEX
8
Sketch
10
1.89
20
-1.64
0
VERTEX
8
Sketch
10
2.01
20
-1.73
0
VERTEX
8
Sketch
10
2.07
20
-1.73
0
VERTEX
8
Sketch
10
2.31
20
-1.67
0
VERTEX
8
Sketch
10
2.52
20
-1.43
0
VERTEX
8
Sketch
10
2.58
20
-1.4
0
VERTEX
8
Sketch
10
2.61
20
-1.34
0
VERTEX
8
Sketch
10
2.67
20
-1.34
0
VERTEX
8
Sketch
10
2.79
20
-1.28
0
VERTEX
8
Sketch
10
2.97
20
-1.34
0
VERTEX
8
Sketch
10
3.12
20
-1.58
0
SEQEND
0
POLYLINE
66
1
8
Sketch
62
5
0
VERTEX
8
Sketch
10
53.48
20
-54.18
0
VERTEX
8
Sketch
10
53.68
20
-54.5
0
VERTEX
8
Sketch
10
53.68
20
-54.5
0
VERTEX
8
Sketch
10
53.6
20
-54.46
0
VERTEX
8
Sketch
10
54
20
-54.86
0
VERTEX
8
Sketch
10
54.08
20
-54.9
0
VERTEX
8
Sketch
10
54.16
20
-54.86
0
VERTEX
8
Sketch
10
54.32
20
-54.9
0
VERTEX
8
Sketch
10
54.48
20
-54.9
0
VERTEX
8
Sketch
10
54.56
20
-54.94
0
VERTEX
8
Sketch
10
54.4
20
-54.94
0
VERTEX
8
Sketch
10
54.28
20
-54.86
0
VERTEX
8
Sketch
10
54.2
20
-54.9
0
VERTEX
8
Sketch
10
54.12
20
-54.82
0
VERTEX
8
Sketch
10
53.88
20
-54.98
0
VERTEX
8
Sketch
10
53.88
20
-55.06
0
VERTEX
8
Sketch
10
54.08
20
-54.9
0
VERTEX
8
Sketch
10
54.36
20
-55.02
0
VERTEX
8
Sketch
10
54.64
20
-55.06
0
VERTEX
8
Sketch
10
54.84
20
-55.02
0
VERTEX
8
Sketch
10
54.76
20
-55.1
0
VERTEX
8
Sketch
10
54.56
20
-55.02
0
VERTEX
8
Sketch
10
54.48
20
-55.1
0
VERTEX
8
Sketch
10
54.4
20
-55.1
0
VERTEX
8
Sketch
10
54.28
20
-55.34
0
VERTEX
8
Sketch
10
54.2
20
-55.34
0
VERTEX
8
Sketch
10
54.2
20
-55.42
0
VERTEX
8
Sketch
10
54.44
20
-55.26
0
VERTEX
8
Sketch
10
54.56
20
-55.3
0
VERTEX
8
Sketch
10
54.32
20
-55.34
0
VERTEX
8
Sketch
10
54.16
20
-55.3
0
VERTEX
8
Sketch
10
54.16
20
-55.42
0
VERTEX
8
Sketch
10
54.08
20
-55.42
0
VERTEX
8
Sketch
10
54.04
20
-55.62
0
VERTEX
8
Sketch
10
54.2
20
-55.42
0
VERTEX
8
Sketch
10
54.4
20
-55.46
0
VERTEX
8
Sketch
10
54.56
20
-55.42
0
VERTEX
8
Sketch
10
54.64
20
-55.46
0
VERTEX
8
Sketch
10
54.56
20
-55.46
0
VERTEX
8
Sketch
10
54.44
20
-55.34
0
VERTEX
8
Sketch
10
54.32
20
-55.3
0
VERTEX
8
Sketch
10
54.16
20
-55.62
0
VERTEX
8
Sketch
10
54.08
20
-55.62
0
VERTEX
8
Sketch
10
53.96
20
-55.78
0
VERTEX
8
Sketch
10
54.04
20
-55.82
0
VERTEX
8
Sketch
10
54.12
20
-55.58
0
VERTEX
8
Sketch
10
54.48
20
-55.58
0
VERTEX
8
Sketch
10
54.6
20
-55.62
0
VERTEX
8
Sketch
10
54.68
20
-55.54
0
VERTEX
8
Sketch
10
54.76
20
-55.58
0
VERTEX
8
Sketch
10
54.76
20
-55.46
0
VERTEX
8
Sketch
10
54.52
20
-55.34
0
VERTEX
8
Sketch
10
54.32
20
-55.34
0
VERTEX
8
Sketch
10
53.92
20
-55.5
0
VERTEX
8
Sketch
10
53.84
20
-55.58
0
VERTEX
8
Sketch
10
53.96
20
-55.38
0
VERTEX
8
Sketch
10
54.2
20
-55.3
0
VERTEX
8
Sketch
10
54.32
20
-55.34
0
VERTEX
8
Sketch
10
54.4
20
-55.26
0
VERTEX
8
Sketch
10
54.4
20
-55.18
0
VERTEX
8
Sketch
10
54.12
20
-55.06
0
VERTEX
8
Sketch
10
53.92
20
-55.1
0
VERTEX
8
Sketch
10
53.84
20
-55.18
0
VERTEX
8
Sketch
10
53.84
20
-55.26
0
VERTEX
8
Sketch
10
53.92
20
-55.14
0
VERTEX
8
Sketch
10
53.92
20
-55.06
0
VERTEX
8
Sketch
10
54.12
20
-54.86
0
VERTEX
8
Sketch
10
54.2
20
-54.94
0
VERTEX
8
Sketch
10
54.32
20
-54.94
0
VERTEX
8
Sketch
10
54.28
20
-54.82
0
VERTEX
8
Sketch
10
54.16
20
-54.82
0
VERTEX
8
Sketch
10
53.96
20
-54.78
0
VERTEX
8
Sketch
10
53.76
20
-54.82
0
VERTEX
8
Sketch
10
53.64
20
-54.94
0
VERTEX
8
Sketch
10
53.76
20
-54.74
0
VERTEX
8
Sketch
10
54.16
20
-54.82
0
VERTEX
8
Sketch
10
54.24
20
-54.78
0
VERTEX
8
Sketch
10
54.08
20
-54.74
0
VERTEX
8
Sketch
10
53.96
20
-54.66
0
VERTEX
8
Sketch
10
53.64
20
-54.9
0
VERTEX
8
Sketch
10
53.6
20
-55.02
0
VERTEX
8
Sketch
10
53.64
20
-54.78
0
VERTEX
8
Sketch
10
53.84
20
-54.74
0
VERTEX
8
Sketch
10
54.08
20
-54.78
0
VERTEX
8
Sketch
10
54.32
20
-54.7
0
VERTEX
8
Sketch
10
54.04
20
-54.7
0
VERTEX
8
Sketch
10
53.96
20
-54.82
0
VERTEX
8
Sketch
10
54
20
-54.9
0
VERTEX
8
Sketch
10
54.04
20
-54.74
0
VERTEX
8
Sketch
10
54.12
20
-54.66
0
VERTEX
8
Sketch
10
54.28
20
-54.66
0
VERTEX
8
Sketch
10
54.4
20
-54.7
0
VERTEX
8
Sketch
10
54.6
20
-54.58
0
VERTEX
8
Sketch
10
54.36
20
-54.5
0
VERTEX
8
Sketch
10
54.28
20
-54.42
0
VERTEX
8
Sketch
10
54.16
20
-54.62
0
VERTEX
8
Sketch
10
54.16
20
-54.7
0
VERTEX
8
Sketch
10
54.28
20
-54.38
0
VERTEX
8
Sketch
10
54.52
20
-54.42
0
VERTEX
8
Sketch
10
54.32
20
-54.34
0
VERTEX
8
Sketch
10
54.2
20
-54.34
0
VERTEX
8
Sketch
10
54.2
20
-54.46
0
VERTEX
8
Sketch
10
54.12
20
-54.62
0
VERTEX
8
Sketch
10
54.24
20
-54.54
0
VERTEX
8
Sketch
10
54.28
20
-54.38
0
VERTEX
8
Sketch
10
54.48
20
-54.46
0
VERTEX
8
Sketch
10
54.56
20
-54.38
0
VERTEX
8
Sketch
10
54.56
20
-54.38
0
VERTEX
8
Sketch
10
54.44
20
-54.38
0
VERTEX
8
Sketch
10
54.28
20
-54.3
0
VERTEX
8
Sketch
10
54.16
20
-54.54
0
VERTEX
8
Sketch
10
54
20
-54.66
0
VERTEX
8
Sketch
10
54
20
-54.74
0
VERTEX
8
Sketch
10
54.16
20
-54.58
0
VERTEX
8
Sketch
10
54.2
20
-54.46
0
VERTEX
8
Sketch
10
54.28
20
-54.5
0
VERTEX
8
Sketch
10
54.16
20
-54.5
0
VERTEX
8
Sketch
10
54.04
20
-54.42
0
VERTEX
8
Sketch
10
53.76
20
-54.7
0
VERTEX
8
Sketch
10
53.72
20
-54.86
0
VERTEX
8
Sketch
10
53.8
20
-54.82
0
VERTEX
8
Sketch
10
53.88
20
-54.62
0
VERTEX
8
Sketch
10
54
20
-54.62
0
VERTEX
8
Sketch
10
53.96
20
-54.54
0
VERTEX
8
Sketch
10
53.84
20
-54.5
0
VERTEX
8
Sketch
10
53.76
20
-54.58
0
VERTEX
8
Sketch
10
53.6
20
-54.58
0
VERTEX
8
Sketch
10
53.52
20
-54.54
0
VERTEX
8
Sketch
10
53.44
20
-54.62
0
VERTEX
8
Sketch
10
53.44
20
-54.7
0
VERTEX
8
Sketch
10
53.64
20
-54.5
0
VERTEX
8
Sketch
10
53.84
20
-54.46
0
VERTEX
8
Sketch
10
53.96
20
-54.5
0
VERTEX
8
Sketch
10
54.04
20
-54.46
0
VERTEX
8
Sketch
10
53.92
20
-54.5
0
VERTEX
8
Sketch
10
53.84
20
-54.42
0
VERTEX
8
Sketch
10
53.68
20
-54.46
0
VERTEX
8
Sketch
10
53.64
20
-54.54
0
VERTEX
8
Sketch
10
53.72
20
-54.62
0
VERTEX
8
Sketch
10
53.76
20
-54.5
0
VERTEX
8
Sketch
10
54.08
20
-54.42
0
VERTEX
8
Sketch
10
54.24
20
-54.38
0
VERTEX
8
Sketch
10
54.32
20
-54.42
0
VERTEX
8
Sketch
10
54.16
20
-54.38
0
VERTEX
8
Sketch
10
54.04
20
-54.34
0
VERTEX
8
Sketch
10
53.88
20
-54.42
0
VERTEX
8
Sketch
10
53.92
20
-54.58
0
VERTEX
8
Sketch
10
54.04
20
-54.46
0
VERTEX
8
Sketch
10
54.32
20
-54.46
0
VERTEX
8
Sketch
10
54.56
20
-54.54
0
VERTEX
8
Sketch
10
54.64
20
-54.5
0
VERTEX
8
Sketch
10
54.36
20
-54.5
0
VERTEX
8
Sketch
10
53.96
20
-54.86
0
VERTEX
8
Sketch
10
54.08
20
-54.86
0
VERTEX
8
Sketch
10
54.12
20
-54.78
0
VERTEX
8
Sketch
10
54.2
20
-54.82
0
VERTEX
8
Sketch
10
54.28
20
-54.74
0
VERTEX
8
Sketch
10
54.48
20
-54.82
0
VERTEX
8
Sketch
10
54.12
20
-54.9
0
VERTEX
8
Sketch
10
53.96
20
-55.14
0
VERTEX
8
Sketch
10
53.96
20
-55.22
0
VERTEX
8
Sketch
10
54.16
20
-55.06
0
VERTEX
8
Sketch
10
54.32
20
-55.06
0
VERTEX
8
Sketch
10
54.52
20
-55.1
0
VERTEX
8
Sketch
10
54.6
20
-55.1
0
VERTEX
8
Sketch
10
54.48
20
-55.1
0
VERTEX
8
Sketch
10
54.4
20
-55.06
0
VERTEX
8
Sketch
10
54
20
-55.22
0
VERTEX
8
Sketch
10
53.64
20
-55.5
0
VERTEX
8
Sketch
10
53.6
20
-55.58
0
VERTEX
8
Sketch
10
53.8
20
-55.46
0
VERTEX
8
Sketch
10
54
20
-55.46
0
VERTEX
8
Sketch
10
54.56
20
-55.38
0
VERTEX
8
Sketch
10
54.64
20
-55.34
0
VERTEX
8
Sketch
10
54.72
20
-55.38
0
VERTEX
8
Sketch
10
54.52
20
-55.26
0
VERTEX
8
Sketch
10
54.36
20
-55.26
0
VERTEX
8
Sketch
10
54.12
20
-55.3
0
VERTEX
8
Sketch
10
53.76
20
-55.74
0
VERTEX
8
Sketch
10
53.96
20
-55.58
0
VERTEX
8
Sketch
10
54.24
20
-55.54
0
VERTEX
8
Sketch
10
54.72
20
-55.54
0
VERTEX
8
Sketch
10
54.44
20
-55.42
0
VERTEX
8
Sketch
10
54.24
20
-55.54
0
VERTEX
8
Sketch
10
54.16
20
-55.66
0
VERTEX
8
Sketch
10
54.36
20
-55.7
0
VERTEX
8
Sketch
10
54.56
20
-55.74
0
VERTEX
8
Sketch
10
54.64
20
-55.66
0
VERTEX
8
Sketch
10
54.72
20
-55.66
0
VERTEX
8
Sketch
10
54.52
20
-55.62
0
VERTEX
8
Sketch
10
54.44
20
-55.54
0
VERTEX
8
Sketch
10
54.12
20
-55.7
0
VERTEX
8
Sketch
10
53.96
20
-55.86
0
VERTEX
8
Sketch
10
53.84
20
-55.9
0
SEQEND
0
POLYLINE
66
1
8
Sketch
62
5
0
VERTEX
8
Sketch
10
53.68
20
-54.42
0
VERTEX
8
Sketch
10
53.72
20
-54.54
0
VERTEX
8
Sketch
10
53.64
20
-54.38
0
SEQEND
0
POLYLINE
66
1
8
Sketch
62
5
0
VERTEX
8
Sketch
10
53.24
20
-54.26
0
VERTEX
8
Sketch
10
53.32
20
-54.46
0
VERTEX
8
Sketch
10
53.32
20
-54.34
0
VERTEX
8
Sketch
10
53.32
20
-54.34
0
VERTEX
8
Sketch
10
53.44
20
-54.34
0
VERTEX
8
Sketch
10
53.48
20
-54.46
0
VERTEX
8
Sketch
10
53.56
20
-54.46
0
VERTEX
8
Sketch
10
53.64
20
-54.54
0
VERTEX
8
Sketch
10
53.72
20
-54.5
0
VERTEX
8
Sketch
10
53.76
20
-54.58
0
VERTEX
8
Sketch
10
53.92
20
-54.58
0
VERTEX
8
Sketch
10
54.08
20
-54.62
0
VERTEX
8
Sketch
10
54.24
20
-54.62
0
VERTEX
8
Sketch
10
54.32
20
-54.66
0
VERTEX
8
Sketch
10
54.4
20
-54.62
0
VERTEX
8
Sketch
10
54.56
20
-54.66
0
VERTEX
8
Sketch
10
54.72
20
-54.66
0
VERTEX
8
Sketch
10
54.8
20
-54.7
0
VERTEX
8
Sketch
10
54.88
20
-54.62
0
SEQEND
0
POLYLINE
66
1
8
Sketch
62
0
0
VERTEX
8
Sketch
10
52.92
20
-54.06
0
VERTEX
8
Sketch
10
53.04
20
-54.26
0
VERTEX
8
Sketch
10
53.04
20
-54.34
0
VERTEX
8
Sketch
10
52.92
20
-53.94
0
VERTEX
8
Sketch
10
53.04
20
-54.14
0
VERTEX
8
Sketch
10
53.16
20
-54.22
0
VERTEX
8
Sketch
10
53.08
20
-54.06
0
VERTEX
8
Sketch
10
53.16
20
-54.1
0
VERTEX
8
Sketch
10
53.16
20
-54.1
0
VERTEX
8
Sketch
10
53.32
20
-54.38
0
VERTEX
8
Sketch
10
53.56
20
-54.62
0
VERTEX
8
Sketch
10
53.56
20
-54.54
0
VERTEX
8
Sketch
10
53.76
20
-54.82
0
VERTEX
8
Sketch
10
53.76
20
-54.9
0
VERTEX
8
Sketch
10
53.72
20
-54.74
0
SEQEND
0
POLYLINE
66
1
8
Sketch
62
0
0
VERTEX
8
Sketch
10
54.24
20
-53.34
0
VERTEX
8
Sketch
10
54.36
20
-53.38
0
VERTEX
8
Sketch
10
54.56
20
-54.06
0
VERTEX
8
Sketch
10
54.52
20
-53.98
0
VERTEX
8
Sketch
10
54.52
20
-54.06
0
VERTEX
8
Sketch
10
54.48
20
-53.98
0
VERTEX
8
Sketch
10
54.64
20
-54.38
0
VERTEX
8
Sketch
10
54.76
20
-54.54
0
VERTEX
8
Sketch
10
54.72
20
-54.7
0
VERTEX
8
Sketch
10
54.76
20
-54.82
0
VERTEX
8
Sketch
10
54.72
20
-54.9
0
VERTEX
8
Sketch
10
54.88
20
-55.38
0
VERTEX
8
Sketch
10
55.08
20
-55.7
0
SEQEND
0
POLYLINE
66
1
8
Sketch
62
0
0
VERTEX
8
Sketch
10
54.12
20
-53.38
0
VERTEX
8
Sketch
10
54
20
-53.22
0
SEQEND
0
POLYLINE
66
1
8
Sketch
62
0
0
VERTEX
8
Sketch
10
52.48
20
-52.14
0
VERTEX
8
Sketch
10
52.4
20
-52.02
0
VERTEX
8
Sketch
10
52.52
20
-52.18
0
VERTEX
8
Sketch
10
52.48
20
-52.26
0
VERTEX
8
Sketch
10
52.44
20
-52.06
0
VERTEX
8
Sketch
10
52.64
20
-52.3
0
VERTEX
8
Sketch
10
52.72
20
-52.26
0
VERTEX
8
Sketch
10
52.8
20
-52.34
0
VERTEX
8
Sketch
10
52.88
20
-52.34
0
VERTEX
8
Sketch
10
53.04
20
-52.46
0
VERTEX
8
Sketch
10
53.12
20
-52.38
0
VERTEX
8
Sketch
10
53.28
20
-52.5
0
VERTEX
8
Sketch
10
53.6
20
-52.58
0
VERTEX
8
Sketch
10
53.68
20
-52.66
0
VERTEX
8
Sketch
10
53.76
20
-52.62
0
VERTEX
8
Sketch
10
53.8
20
-52.7
0
VERTEX
8
Sketch
10
53.88
20
-52.7
0
VERTEX
8
Sketch
10
53.96
20
-52.82
0
VERTEX
8
Sketch
10
54.12
20
-52.86
0
VERTEX
8
Sketch
10
54.2
20
-52.94
0
VERTEX
8
Sketch
10
54.28
20
-52.94
0
VERTEX
8
Sketch
10
54.32
20
-53.06
0
VERTEX
8
Sketch
10
54.4
20
-53.06
0
VERTEX
8
Sketch
10
54.4
20
-53.14
0
VERTEX
8
Sketch
10
54.52
20
-53.3
0
VERTEX
8
Sketch
10
54.52
20
-53.5
0
VERTEX
8
Sketch
10
54.6
20
-53.82
0
VERTEX
8
Sketch
10
54.64
20
-53.98
0
VERTEX
8
Sketch
10
54.68
20
-54.14
0
VERTEX
8
Sketch
10
54.64
20
-54.22
0
SEQEND
0
POLYLINE
66
1
8
Sketch
62
0
0
VERTEX
8
Sketch
10
48
20
-53.14
0
VERTEX
8
Sketch
10
48
20
-53.5
0
VERTEX
8
Sketch
10
48.2
20
-53.7
0
VERTEX
8
Sketch
10
48.28
20
-53.66
0
VERTEX
8
Sketch
10
48.44
20
-53.82
0
VERTEX
8
Sketch
10
48.6
20
-53.86
0
VERTEX
8
Sketch
10
48.76
20
-53.9
0
VERTEX
8
Sketch
10
48.92
20
-53.94
0
VERTEX
8
Sketch
10
49
20
-53.98
0
VERTEX
8
Sketch
10
49.08
20
-53.9
0
VERTEX
8
Sketch
10
49.16
20
-53.98
0
VERTEX
8
Sketch
10
49.56
20
-53.98
0
VERTEX
8
Sketch
10
49.72
20
-54.02
0
VERTEX
8
Sketch
10
49.84
20
-54.02
0
VERTEX
8
Sketch
10
49.92
20
-54.06
0
VERTEX
8
Sketch
10
50.08
20
-54.02
0
VERTEX
8
Sketch
10
50.92
20
-54.02
0
VERTEX
8
Sketch
10
51
20
-53.98
0
VERTEX
8
Sketch
10
51.16
20
-54.02
0
VERTEX
8
Sketch
10
51.48
20
-54.02
0
VERTEX
8
Sketch
10
51.72
20
-54.18
0
VERTEX
8
Sketch
10
51.8
20
-54.14
0
VERTEX
8
Sketch
10
51.88
20
-54.22
0
VERTEX
8
Sketch
10
51.96
20
-54.18
0
VERTEX
8
Sketch
10
52.04
20
-54.22
0
VERTEX
8
Sketch
10
52.12
20
-54.18
0
VERTEX
8
Sketch
10
52.68
20
-54.38
0
VERTEX
8
Sketch
10
52.84
20
-54.38
0
VERTEX
8
Sketch
10
53
20
-54.3
0
VERTEX
8
Sketch
10
53.16
20
-54.42
0
VERTEX
8
Sketch
10
53.24
20
-54.42
0
VERTEX
8
Sketch
10
53.28
20
-54.5
0
SEQEND
0
POINT
8
Sketch
62
0
10
48.08
20
-53.22
0
POLYLINE
66
1
8
Sketch
62
0
0
VERTEX
8
Sketch
10
30.68
20
-26.02
0
VERTEX
8
Sketch
10
30.8
20
-26.5
0
VERTEX
8
Sketch
10
31.88
20
-26.86
0
VERTEX
8
Sketch
10
32.72
20
-27.82
0
VERTEX
8
Sketch
10
32.96
20
-27.82
0
VERTEX
8
Sketch
10
33.68
20
-28.54
0
VERTEX
8
Sketch
10
35
20
-29.5
0
VERTEX
8
Sketch
10
36.92
20
-31.9
0
VERTEX
8
Sketch
10
38.48
20
-33.46
0
VERTEX
8
Sketch
10
40.64
20
-35.74
0
VERTEX
8
Sketch
10
41
20
-36.1
0
VERTEX
8
Sketch
10
41
20
-36.34
0
VERTEX
8
Sketch
10
41.24
20
-36.58
0
VERTEX
8
Sketch
10
41.48
20
-37.54
0
VERTEX
8
Sketch
10
41.72
20
-37.9
0
VERTEX
8
Sketch
10
41.84
20
-38.38
0
VERTEX
8
Sketch
10
42.08
20
-38.98
0
VERTEX
8
Sketch
10
42.08
20
-39.34
0
VERTEX
8
Sketch
10
42.32
20
-40.18
0
VERTEX
8
Sketch
10
42.68
20
-40.66
0
VERTEX
8
Sketch
10
42.92
20
-40.66
0
VERTEX
8
Sketch
10
43.04
20
-40.9
0
VERTEX
8
Sketch
10
43.28
20
-40.9
0
VERTEX
8
Sketch
10
43.88
20
-41.38
0
VERTEX
8
Sketch
10
43.88
20
-41.62
0
VERTEX
8
Sketch
10
44.6
20
-42.58
0
VERTEX
8
Sketch
10
44.72
20
-43.06
0
VERTEX
8
Sketch
10
45.68
20
-44.98
0
VERTEX
8
Sketch
10
46.4
20
-45.94
0
VERTEX
8
Sketch
10
48.08
20
-47.14
0
VERTEX
8
Sketch
10
48.44
20
-47.5
0
VERTEX
8
Sketch
10
48.92
20
-47.86
0
VERTEX
8
Sketch
10
49.04
20
-48.34
0
VERTEX
8
Sketch
10
49.4
20
-48.82
0
VERTEX
8
Sketch
10
49.52
20
-49.42
0
VERTEX
8
Sketch
10
50
20
-50.38
0
VERTEX
8
Sketch
10
50.12
20
-50.86
0
VERTEX
8
Sketch
10
50.36
20
-51.46
0
VERTEX
8
Sketch
10
51.08
20
-51.7
0
VERTEX
8
Sketch
10
51.44
20
-52.3
0
VERTEX
8
Sketch
10
52.64
20
-52.3
0
SEQEND
0
POLYLINE
66
1
8
Sketch
62
0
0
VERTEX
8
Sketch
10
30.68
20
-25.42
0
VERTEX
8
Sketch
10
30.8
20
-26.14
0
SEQEND
0
POLYLINE
66
1
8
Sketch
62
0
0
VERTEX
8
Sketch
10
41.36
20
-47.26
0
VERTEX
8
Sketch
10
41.6
20
-47.86
0
VERTEX
8
Sketch
10
41.6
20
-48.22
0
VERTEX
8
Sketch
10
41.48
20
-47.98
0
VERTEX
8
Sketch
10
41.48
20
-48.22
0
VERTEX
8
Sketch
10
41.36
20
-47.98
0
VERTEX
8
Sketch
10
41.96
20
-48.94
0
VERTEX
8
Sketch
10
42.08
20
-49.54
0
VERTEX
8
Sketch
10
42.92
20
-51.58
0
VERTEX
8
Sketch
10
43.4
20
-52.66
0
VERTEX
8
Sketch
10
44.36
20
-53.02
0
VERTEX
8
Sketch
10
44.84
20
-53.02
0
VERTEX
8
Sketch
10
45.32
20
-53.38
0
VERTEX
8
Sketch
10
46.04
20
-53.38
0
VERTEX
8
Sketch
10
46.28
20
-53.62
0
VERTEX
8
Sketch
10
46.76
20
-53.26
0
VERTEX
8
Sketch
10
47
20
-53.26
0
VERTEX
8
Sketch
10
47.12
20
-53.5
0
VERTEX
8
Sketch
10
47.24
20
-53.26
0
VERTEX
8
Sketch
10
47.48
20
-53.5
0
VERTEX
8
Sketch
10
47.96
20
-53.62
0
SEQEND
0
POLYLINE
66
1
8
Sketch
62
0
0
VERTEX
8
Sketch
10
38.48
20
-45.46
0
VERTEX
8
Sketch
10
38.6
20
-45.94
0
VERTEX
8
Sketch
10
38.6
20
-45.7
0
VERTEX
8
Sketch
10
38.6
20
-45.7
0
VERTEX
8
Sketch
10
38.96
20
-46.54
0
VERTEX
8
Sketch
10
39.56
20
-47.38
0
VERTEX
8
Sketch
10
39.8
20
-47.5
0
VERTEX
8
Sketch
10
39.8
20
-47.74
0
VERTEX
8
Sketch
10
40.04
20
-47.98
0
VERTEX
8
Sketch
10
40.52
20
-48.1
0
VERTEX
8
Sketch
10
40.64
20
-48.34
0
VERTEX
8
Sketch
10
40.76
20
-48.1
0
VERTEX
8
Sketch
10
41.72
20
-48.46
0
VERTEX
8
Sketch
10
41.96
20
-48.34
0
SEQEND
0
POLYLINE
66
1
8
Sketch
62
0
0
VERTEX
8
Sketch
10
36.68
20
-40.18
0
VERTEX
8
Sketch
10
37.28
20
-41.74
0
VERTEX
8
Sketch
10
36.8
20
-40.9
0
VERTEX
8
Sketch
10
36.56
20
-40.66
0
VERTEX
8
Sketch
10
36.8
20
-41.26
0
VERTEX
8
Sketch
10
36.92
20
-41.98
0
VERTEX
8
Sketch
10
37.64
20
-43.9
0
VERTEX
8
Sketch
10
38.36
20
-45.58
0
VERTEX
8
Sketch
10
39.2
20
-46.54
0
SEQEND
0
POLYLINE
66
1
8
Sketch
62
0
0
VERTEX
8
Sketch
10
23.72
20
-25.78
0
VERTEX
8
Sketch
10
23.96
20
-26.26
0
VERTEX
8
Sketch
10
24.32
20
-26.62
0
VERTEX
8
Sketch
10
24.56
20
-26.5
0
VERTEX
8
Sketch
10
24.8
20
-26.74
0
VERTEX
8
Sketch
10
25.28
20
-26.86
0
VERTEX
8
Sketch
10
25.52
20
-26.74
0
VERTEX
8
Sketch
10
25.76
20
-26.98
0
VERTEX
8
Sketch
10
26
20
-26.98
0
VERTEX
8
Sketch
10
26.12
20
-27.22
0
VERTEX
8
Sketch
10
26.36
20
-26.98
0
VERTEX
8
Sketch
10
26.84
20
-27.34
0
VERTEX
8
Sketch
10
27.08
20
-27.1
0
VERTEX
8
Sketch
10
27.2
20
-27.34
0
VERTEX
8
Sketch
10
27.44
20
-27.22
0
VERTEX
8
Sketch
10
27.92
20
-27.34
0
VERTEX
8
Sketch
10
28.04
20
-27.82
0
VERTEX
8
Sketch
10
28.4
20
-28.3
0
VERTEX
8
Sketch
10
28.52
20
-29.62
0
VERTEX
8
Sketch
10
29.12
20
-31.42
0
VERTEX
8
Sketch
10
29.6
20
-32.14
0
VERTEX
8
Sketch
10
29.96
20
-33.22
0
VERTEX
8
Sketch
10
30.92
20
-35.26
0
VERTEX
8
Sketch
10
31.16
20
-35.5
0
VERTEX
8
Sketch
10
31.64
20
-35.5
0
VERTEX
8
Sketch
10
31.88
20
-35.26
0
VERTEX
8
Sketch
10
32.84
20
-35.14
0
VERTEX
8
Sketch
10
32.84
20
-35.74
0
VERTEX
8
Sketch
10
33.56
20
-38.62
0
VERTEX
8
Sketch
10
33.92
20
-39.7
0
VERTEX
8
Sketch
10
34.52
20
-40.66
0
VERTEX
8
Sketch
10
34.76
20
-40.78
0
VERTEX
8
Sketch
10
35.24
20
-40.42
0
VERTEX
8
Sketch
10
35.48
20
-40.66
0
VERTEX
8
Sketch
10
35.6
20
-40.42
0
VERTEX
8
Sketch
10
35.6
20
-40.66
0
VERTEX
8
Sketch
10
35.84
20
-40.54
0
VERTEX
8
Sketch
10
36.92
20
-41.62
0
VERTEX
8
Sketch
10
37.28
20
-42.1
0
VERTEX
8
Sketch
10
37.28
20
-41.38
0
SEQEND
0
POLYLINE
66
1
8
Sketch
62
0
0
VERTEX
8
Sketch
10
14.96
20
-3.82
0
VERTEX
8
Sketch
10
15.68
20
-4.42
0
VERTEX
8
Sketch
10
16.16
20
-5.26
0
VERTEX
8
Sketch
10
17.36
20
-7.06
0
VERTEX
8
Sketch
10
18.68
20
-8.74
0
VERTEX
8
Sketch
10
20.36
20
-10.3
0
VERTEX
8
Sketch
10
20.72
20
-10.9
0
VERTEX
8
Sketch
10
21.56
20
-11.74
0
VERTEX
8
Sketch
10
22.4
20
-12.94
0
VERTEX
8
Sketch
10
22.76
20
-13.54
0
VERTEX
8
Sketch
10
23
20
-13.54
0
VERTEX
8
Sketch
10
23.36
20
-14.26
0
VERTEX
8
Sketch
10
23.6
20
-14.38
0
VERTEX
8
Sketch
10
23.72
20
-14.86
0
VERTEX
8
Sketch
10
24.2
20
-16.3
0
VERTEX
8
Sketch
10
24.2
20
-16.66
0
VERTEX
8
Sketch
10
24.8
20
-17.98
0
VERTEX
8
Sketch
10
25.76
20
-18.46
0
VERTEX
8
Sketch
10
25.88
20
-18.7
0
VERTEX
8
Sketch
10
26.12
20
-18.7
0
VERTEX
8
Sketch
10
26.84
20
-19.66
0
VERTEX
8
Sketch
10
27.2
20
-20.5
0
VERTEX
8
Sketch
10
27.44
20
-20.74
0
VERTEX
8
Sketch
10
27.44
20
-21.22
0
VERTEX
8
Sketch
10
27.68
20
-21.82
0
VERTEX
8
Sketch
10
28.88
20
-23.26
0
VERTEX
8
Sketch
10
29.96
20
-25.66
0
VERTEX
8
Sketch
10
30.56
20
-26.26
0
VERTEX
8
Sketch
10
30.56
20
-26.26
0
VERTEX
8
Sketch
10
30.32
20
-25.78
0
SEQEND
0
POLYLINE
66
1
8
Sketch
62
0
0
VERTEX
8
Sketch
10
12.44
20
-5.26
0
VERTEX
8
Sketch
10
13.04
20
-7.06
0
VERTEX
8
Sketch
10
13.16
20
-7.54
0
VERTEX
8
Sketch
10
14.6
20
-10.54
0
VERTEX
8
Sketch
10
14.72
20
-11.14
0
VERTEX
8
Sketch
10
15.56
20
-13.18
0
VERTEX
8
Sketch
10
16.4
20
-14.86
0
VERTEX
8
Sketch
10
16.52
20
-15.34
0
VERTEX
8
Sketch
10
16.88
20
-16.18
0
VERTEX
8
Sketch
10
17.24
20
-16.9
0
VERTEX
8
Sketch
10
17.36
20
-17.5
0
VERTEX
8
Sketch
10
17.96
20
-18.58
0
VERTEX
8
Sketch
10
18.44
20
-19.66
0
VERTEX
8
Sketch
10
19.52
20
-21.22
0
VERTEX
8
Sketch
10
19.88
20
-21.82
0
VERTEX
8
Sketch
10
20.48
20
-22.42
0
VERTEX
8
Sketch
10
20.96
20
-23.14
0
VERTEX
8
Sketch
10
21.32
20
-23.5
0
VERTEX
8
Sketch
10
22.16
20
-24.82
0
VERTEX
8
Sketch
10
23.84
20
-26.02
0
VERTEX
8
Sketch
10
24.08
20
-26.02
0
VERTEX
8
Sketch
10
24.08
20
-26.26
0
SEQEND
0
POLYLINE
66
1
8
Sketch
62
0
0
VERTEX
8
Sketch
10
13.92
20
-1.74
0
VERTEX
8
Sketch
10
13.92
20
-1.74
0
VERTEX
8
Sketch
10
13.92
20
-1.86
0
VERTEX
8
Sketch
10
13.88
20
-1.74
0
VERTEX
8
Sketch
10
13.36
20
-1.14
0
VERTEX
8
Sketch
10
13.92
20
-1.7
0
VERTEX
8
Sketch
10
13.8
20
-1.62
0
VERTEX
8
Sketch
10
13.8
20
-1.5
0
VERTEX
8
Sketch
10
13.96
20
-1.74
0
VERTEX
8
Sketch
10
14.04
20
-1.82
0
VERTEX
8
Sketch
10
14
20
-1.74
0
VERTEX
8
Sketch
10
14.36
20
-2.1
0
VERTEX
8
Sketch
10
15
20
-3.02
0
VERTEX
8
Sketch
10
15.08
20
-3.38
0
VERTEX
8
Sketch
10
15.08
20
-3.54
0
VERTEX
8
Sketch
10
15.2
20
-3.74
0
VERTEX
8
Sketch
10
15.36
20
-4.02
0
VERTEX
8
Sketch
10
15.4
20
-4.18
0
VERTEX
8
Sketch
10
15.52
20
-4.42
0
VERTEX
8
Sketch
10
15.52
20
-4.54
0
VERTEX
8
Sketch
10
15.68
20
-4.86
0
VERTEX
8
Sketch
10
15.68
20
-4.98
0
VERTEX
8
Sketch
10
15.84
20
-5.5
0
VERTEX
8
Sketch
10
15.88
20
-5.66
0
VERTEX
8
Sketch
10
15.96
20
-5.9
0
SEQEND
0
POLYLINE
66
1
8
Sketch
62
0
0
VERTEX
8
Sketch
10
12.12
20
-0.02
0
VERTEX
8
Sketch
10
12.12
20
0.06
0
VERTEX
8
Sketch
10
12.64
20
-0.1
0
VERTEX
8
Sketch
10
12.96
20
-0.14
0
VERTEX
8
Sketch
10
13.12
20
-0.14
0
VERTEX
8
Sketch
10
13.28
20
-0.18
0
VERTEX
8
Sketch
10
13.6
20
-0.14
0
VERTEX
8
Sketch
10
13.76
20
-0.18
0
VERTEX
8
Sketch
10
13.84
20
-0.14
0
VERTEX
8
Sketch
10
14
20
-0.22
0
VERTEX
8
Sketch
10
14.08
20
-0.18
0
VERTEX
8
Sketch
10
14.28
20
-0.22
0
VERTEX
8
Sketch
10
14.44
20
-0.18
0
VERTEX
8
Sketch
10
14.68
20
-0.18
0
VERTEX
8
Sketch
10
14.76
20
-0.22
0
VERTEX
8
Sketch
10
15.08
20
-0.1
0
VERTEX
8
Sketch
10
15.16
20
-0.14
0
VERTEX
8
Sketch
10
15.52
20
-0.06
0
VERTEX
8
Sketch
10
15.68
20
-0.06
0
SEQEND
0
POLYLINE
66
1
8
Sketch
62
0
0
VERTEX
8
Sketch
10
8.2
20
-2.74
0
VERTEX
8
Sketch
10
8.36
20
-2.9
0
VERTEX
8
Sketch
10
8.52
20
-2.86
0
VERTEX
8
Sketch
10
8.68
20
-2.86
0
VERTEX
8
Sketch
10
8.92
20
-2.94
0
VERTEX
8
Sketch
10
9.04
20
-2.9
0
VERTEX
8
Sketch
10
9.2
20
-2.94
0
VERTEX
8
Sketch
10
9.52
20
-2.94
0
VERTEX
8
Sketch
10
9.6
20
-3.02
0
VERTEX
8
Sketch
10
9.76
20
-3.02
0
VERTEX
8
Sketch
10
9.84
20
-3.06
0
VERTEX
8
Sketch
10
9.92
20
-3.02
0
VERTEX
8
Sketch
10
10.32
20
-3.14
0
VERTEX
8
Sketch
10
10.52
20
-3.62
0
VERTEX
8
Sketch
10
10.52
20
-3.9
0
VERTEX
8
Sketch
10
10.48
20
-4.06
0
VERTEX
8
Sketch
10
10.52
20
-4.42
0
VERTEX
8
Sketch
10
10.52
20
-4.58
0
VERTEX
8
Sketch
10
10.64
20
-4.86
0
VERTEX
8
Sketch
10
10.72
20
-4.94
0
VERTEX
8
Sketch
10
10.8
20
-4.94
0
VERTEX
8
Sketch
10
10.8
20
-5.02
0
VERTEX
8
Sketch
10
11.28
20
-5.18
0
VERTEX
8
Sketch
10
11.64
20
-5.1
0
VERTEX
8
Sketch
10
11.72
20
-5.14
0
VERTEX
8
Sketch
10
11.8
20
-5.1
0
VERTEX
8
Sketch
10
11.84
20
-5.22
0
VERTEX
8
Sketch
10
11.92
20
-5.18
0
VERTEX
8
Sketch
10
12.08
20
-5.3
0
VERTEX
8
Sketch
10
12.16
20
-5.26
0
VERTEX
8
Sketch
10
12.24
20
-5.34
0
VERTEX
8
Sketch
10
12.32
20
-5.3
0
VERTEX
8
Sketch
10
12.4
20
-5.38
0
VERTEX
8
Sketch
10
12.48
20
-5.34
0
VERTEX
8
Sketch
10
12.48
20
-5.9
0
SEQEND
0
POLYLINE
66
1
8
Sketch
62
0
0
VERTEX
8
Sketch
10
7.92
20
0.7
0
VERTEX
8
Sketch
10
8.04
20
0.62
0
VERTEX
8
Sketch
10
8.12
20
0.7
0
VERTEX
8
Sketch
10
8.28
20
0.58
0
VERTEX
8
Sketch
10
8.36
20
0.58
0
VERTEX
8
Sketch
10
8.44
20
0.5
0
VERTEX
8
Sketch
10
8.8
20
0.5
0
VERTEX
8
Sketch
10
8.96
20
0.42
0
VERTEX
8
Sketch
10
9.12
20
0.46
0
VERTEX
8
Sketch
10
9.36
20
0.38
0
VERTEX
8
Sketch
10
9.44
20
0.42
0
VERTEX
8
Sketch
10
9.64
20
0.38
0
VERTEX
8
Sketch
10
9.8
20
0.38
0
VERTEX
8
Sketch
10
10.12
20
0.3
0
VERTEX
8
Sketch
10
10.28
20
0.34
0
VERTEX
8
Sketch
10
10.6
20
0.26
0
VERTEX
8
Sketch
10
10.76
20
0.26
0
VERTEX
8
Sketch
10
10.84
20
0.18
0
VERTEX
8
Sketch
10
11.4
20
0.06
0
VERTEX
8
Sketch
10
11.48
20
0.1
0
VERTEX
8
Sketch
10
11.64
20
0.06
0
VERTEX
8
Sketch
10
11.84
20
0.06
0
VERTEX
8
Sketch
10
12
20
0.02
0
VERTEX
8
Sketch
10
12.16
20
0.02
0
VERTEX
8
Sketch
10
12.24
20
-0.02
0
SEQEND
0
POLYLINE
66
1
8
Sketch
62
0
0
VERTEX
8
Sketch
10
-0.12
20
1.14
0
VERTEX
8
Sketch
10
-0.08
20
1.38
0
VERTEX
8
Sketch
10
0.08
20
1.14
0
VERTEX
8
Sketch
10
0.44
20
1.02
0
VERTEX
8
Sketch
10
0.6
20
0.98
0
VERTEX
8
Sketch
10
1.28
20
0.98
0
VERTEX
8
Sketch
10
1.48
20
1.02
0
VERTEX
8
Sketch
10
1.76
20
0.98
0
VERTEX
8
Sketch
10
1.88
20
0.98
0
VERTEX
8
Sketch
10
1.96
20
1.02
0
VERTEX
8
Sketch
10
2.24
20
0.98
0
VERTEX
8
Sketch
10
2.48
20
0.98
0
VERTEX
8
Sketch
10
2.64
20
0.94
0
VERTEX
8
Sketch
10
2.8
20
0.98
0
VERTEX
8
Sketch
10
2.92
20
1.02
0
VERTEX
8
Sketch
10
3.12
20
0.98
0
VERTEX
8
Sketch
10
3.48
20
0.98
0
VERTEX
8
Sketch
10
3.64
20
1.02
0
VERTEX
8
Sketch
10
3.84
20
0.98
0
VERTEX
8
Sketch
10
4.08
20
0.98
0
VERTEX
8
Sketch
10
4.2
20
1.02
0
VERTEX
8
Sketch
10
4.32
20
0.98
0
VERTEX
8
Sketch
10
4.56
20
1.02
0
VERTEX
8
Sketch
10
4.8
20
1.02
0
VERTEX
8
Sketch
10
5
20
0.98
0
VERTEX
8
Sketch
10
5.28
20
0.98
0
VERTEX
8
Sketch
10
5.48
20
0.94
0
VERTEX
8
Sketch
10
5.72
20
0.94
0
VERTEX
8
Sketch
10
5.8
20
0.98
0
VERTEX
8
Sketch
10
5.92
20
0.94
0
VERTEX
8
Sketch
10
6.12
20
0.98
0
VERTEX
8
Sketch
10
6.4
20
0.9
0
VERTEX
8
Sketch
10
6.52
20
0.98
0
VERTEX
8
Sketch
10
6.88
20
0.94
0
VERTEX
8
Sketch
10
7.24
20
0.86
0
VERTEX
8
Sketch
10
7.32
20
0.82
0
VERTEX
8
Sketch
10
7.48
20
0.82
0
VERTEX
8
Sketch
10
7.96
20
0.62
0
VERTEX
8
Sketch
10
8.2
20
0.62
0
SEQEND
0
POLYLINE
66
1
8
Sketch
62
0
0
VERTEX
8
Sketch
10
0
20
-1.22
0
VERTEX
8
Sketch
10
0.04
20
-2.22
0
VERTEX
8
Sketch
10
0.12
20
-2.22
0
VERTEX
8
Sketch
10
0.24
20
-2.06
0
VERTEX
8
Sketch
10
0.32
20
-2.22
0
VERTEX
8
Sketch
10
0.4
20
-2.26
0
VERTEX
8
Sketch
10
0.48
20
-2.22
0
VERTEX
8
Sketch
10
0.64
20
-2.26
0
VERTEX
8
Sketch
10
0.84
20
-2.22
0
VERTEX
8
Sketch
10
0.92
20
-2.18
0
VERTEX
8
Sketch
10
1.08
20
-2.22
0
VERTEX
8
Sketch
10
1.16
20
-2.18
0
VERTEX
8
Sketch
10
1.28
20
-2.22
0
VERTEX
8
Sketch
10
1.44
20
-2.18
0
VERTEX
8
Sketch
10
1.68
20
-2.18
0
VERTEX
8
Sketch
10
1.76
20
-2.14
0
VERTEX
8
Sketch
10
1.88
20
-2.18
0
VERTEX
8
Sketch
10
2.12
20
-2.06
0
VERTEX
8
Sketch
10
2.28
20
-2.1
0
VERTEX
8
Sketch
10
2.56
20
-2.06
0
VERTEX
8
Sketch
10
2.68
20
-2.06
0
VERTEX
8
Sketch
10
2.84
20
-1.98
0
VERTEX
8
Sketch
10
3
20
-2.02
0
VERTEX
8
Sketch
10
3.28
20
-2.02
0
VERTEX
8
Sketch
10
3.36
20
-2.06
0
VERTEX
8
Sketch
10
3.44
20
-1.98
0
VERTEX
8
Sketch
10
3.52
20
-2.06
0
VERTEX
8
Sketch
10
3.88
20
-2.1
0
VERTEX
8
Sketch
10
4.24
20
-2.18
0
VERTEX
8
Sketch
10
4.36
20
-2.18
0
VERTEX
8
Sketch
10
4.44
20
-2.26
0
VERTEX
8
Sketch
10
4.52
20
-2.22
0
VERTEX
8
Sketch
10
4.92
20
-2.38
0
VERTEX
8
Sketch
10
5.2
20
-2.38
0
VERTEX
8
Sketch
10
5.28
20
-2.42
0
VERTEX
8
Sketch
10
5.4
20
-2.34
0
VERTEX
8
Sketch
10
5.6
20
-2.46
0
VERTEX
8
Sketch
10
5.76
20
-2.5
0
VERTEX
8
Sketch
10
5.88
20
-2.58
0
VERTEX
8
Sketch
10
6.04
20
-2.54
0
VERTEX
8
Sketch
10
6.32
20
-2.54
0
VERTEX
8
Sketch
10
6.4
20
-2.58
0
VERTEX
8
Sketch
10
6.56
20
-2.5
0
VERTEX
8
Sketch
10
6.76
20
-2.54
0
VERTEX
8
Sketch
10
7.08
20
-2.54
0
VERTEX
8
Sketch
10
7.44
20
-2.62
0
VERTEX
8
Sketch
10
7.64
20
-2.62
0
VERTEX
8
Sketch
10
7.92
20
-2.7
0
VERTEX
8
Sketch
10
8
20
-2.66
0
VERTEX
8
Sketch
10
8.2
20
-2.7
0
SEQEND
0
LINE
8
Shots
62
1
10
50.748
20
-53.052
11
54.368
21
-54.14
0
CIRCLE
8
Shots
62
1
10
54.368
20
-54.14
40
0.1
0
LINE
8
Shots
62
1
10
43.548
20
-47.348
11
50.748
21
-53.052
0
CIRCLE
8
Shots
62
1
10
50.748
20
-53.052
40
0.1
0
LINE
8
Shots
62
1
10
29.482
20
-27.02
11
43.548
21
-47.348
0
CIRCLE
8
Shots
62
1
10
43.548
20
-47.348
40
0.1
0
LINE
8
Shots
62
1
10
22.526
20
-24.368
11
29.482
21
-27.02
0
CIRCLE
8
Shots
62
1
10
29.482
20
-27.02
40
0.1
0
LINE
8
Shots
62
1
10
12.48
20
-3.148
11
22.526
21
-24.368
0
CIRCLE
8
Shots
62
1
10
22.526
20
-24.368
40
0.1
0
LINE
8
Shots
62
1
10
11.026
20
-2.054
11
12.48
21
-3.148
0
CIRCLE
8
Shots
62
1
10
12.48
20
-3.148
40
0.1
0
LINE
8
Shots
62
1
10
7.972
20
-0.562
11
11.026
21
-2.054
0
CIRCLE
8
Shots
62
1
10
11.026
20
-2.054
40
0.1
0
LINE
8
Shots
62
1
10
0
20
0
11
7.972
21
-0.562
0
CIRCLE
8
Shots
62
1
10
7.972
20
-0.562
40
0.1
0
ENDSEC
0
EOF
