0
SECTION
2
HEADER
9
$ACADVER
1
AC1002
9
$INSUNITS
70
4
0
ENDSEC
0
SECTION
2
TABLES
0
TABLE
2
LTYPE
70
1
0
LTYPE
2
DASH
70
0
3
---
72
65
73
2
40
0.6
49
0.3
49
-0.3
0
ENDTAB
0
ENDSEC
0
SECTION
2
ENTITIES
0
POLYLINE
66
1
8
Sketch
62
0
0
VERTEX
8
Sketch
10
-12
20
-4
0
VERTEX
8
Sketch
10
-11
20
-2
0
VERTEX
8
Sketch
10
-9
20
-3
0
SEQEND
0
POLYLINE
66
1
8
Sketch
62
9
0
VERTEX
8
Sketch
10
-8
20
-4
0
VERTEX
8
Sketch
10
-7
20
-2
0
VERTEX
8
Sketch
10
-5
20
-3
0
SEQEND
0
POLYLINE
66
1
8
Sketch
62
32
0
VERTEX
8
Sketch
10
-4
20
-4
0
VERTEX
8
Sketch
10
-3
20
-2
0
VERTEX
8
Sketch
10
-1
20
-3
0
SEQEND
0
POLYLINE
66
1
8
Sketch
62
5
0
VERTEX
8
Sketch
10
0
20
-4
0
VERTEX
8
Sketch
10
1
20
-2
0
VERTEX
8
Sketch
10
3
20
-3
0
SEQEND
0
POLYLINE
66
1
8
Sketch
62
1
0
VERTEX
8
Sketch
10
4
20
-4
0
VERTEX
8
Sketch
10
5
20
-2
0
VERTEX
8
Sketch
10
7
20
-3
0
SEQEND
0
POLYLINE
66
1
8
Sketch
62
3
0
VERTEX
8
Sketch
10
8
20
-4
0
VERTEX
8
Sketch
10
9
20
-2
0
VERTEX
8
Sketch
10
11
20
-3
0
SEQEND
0
POLYLINE
66
1
8
Sketch
62
30
0
VERTEX
8
Sketch
10
12
20
-4
0
VERTEX
8
Sketch
10
13
20
-2
0
VERTEX
8
Sketch
10
15
20
-3
0
SEQEND
0
POINT
8
Sketch
62
30
10
15
20
7
0
LINE
8
Sketch
62
255
6
DASH
10
-10
20
-12
11
20
21
0
0
CIRCLE
8
Shots
62
1
10
-10
20
-12
40
0.1
0
LINE
8
Sketch
62
255
6
DASH
10
10
20
-12
11
0
21
0
0
CIRCLE
8
Shots
62
1
10
10
20
-12
40
0.1
0
LINE
8
Shots
62
1
10
20
20
0
11
0
21
0
0
CIRCLE
8
Shots
62
1
10
0
20
0
40
0.1
0
LINE
8
Shots
62
1
10
0
20
0
11
20
21
0
0
CIRCLE
8
Shots
62
1
10
20
20
0
40
0.1
0
ENDSEC
0
EOF
