#VRML V1.0 ascii
# Ciag 3 Dna
DEF BackgroundColor Info {
	string "0.000 0.000 0.000"
}
# Vectors --
Coordinate3 {
	point [ 
		0.00 0.00 0.00,
		-8.36 1.55 1.50,
		-17.17 0.1 3.76,
		-18.99 -2.06 2.78,
		-17.99 -5.88 2.32,
		-27.47 -7.58 6.63,
		-28.16 -8.21 4.92,
		-34.69 -8.93 5.24,
		-35.32 -9.14 7.12,
		-38.54 -8.71 5.71,
		-41.27 -8.52 4.91,
		-42.95 -10.11 6.14,
		-44.46 -6.44 6.86,
		-49.68 -5.63 15.39,
		-55.75 1.42 24.06,
		-61.49 -3.42 25.28,
		-64.57 -4.54 26.35,
		-70.45 -7.20 27.37,
		-73.42 -12.76 26.93,
		-77.99 -18.77 26.61,
		-84.42 -24.15 26.87,
		-89.43 -25.34 26.77,
		-87.93 -25.54 24.89,
		-94.25 -27.13 28.69,
		-95.08 -29.71 28.01,
		-44.84 -12.12 5.66,
		-50.10 -15.11 9.85,
		-50.44 -13.63 10.62,
		-54.16 -14.83 12.97,
		-63.07 -16.08 13.23,
		-64.30 -16.69 12.34,
		-67.00 -15.39 12.80,
		-68.15 -16.32 13.37,
		-69.53 -14.65 14.89,
		-67.66 -16.30 14.93,
		-69.07 -15.50 18.00,
		-70.70 -13.37 20.29,
		-72.07 -14.53 22.81,
		-73.47 -13.23 24.03,
		-75.49 -13.58 25.56,
		-76.09 -14.17 28.57,
		-72.54 -16.79 15.92,
		-80.49 -21.00 19.56,
		-85.15 -24.54 22.73,
		3.48 -0.34 -1.23,
		6.25 -2.60 -0.47,
		5.36 -5.06 0.13,
		7.10 -7.73 0.41,
		6.48 -11.28 1.24,
		8.91 -13.17 2.36,
		10.58 -16.30 2.55,
		14.52 -17.89 5.10,
		15.87 -21.99 6.59,
		20.41 -26.69 9.10,
		25.07 -29.36 12.08,
		27.03 -33.95 15.07,
		30.05 -33.14 17.70,
		30.44 -33.74 15.84,
		36.02 -37.21 15.72,
		41.56 -37.49 16.21,
		46.82 -37.30 18.02,
		49.70 -37.09 17.13,
		53.31 -31.50 19.30,
		58.86 -28.66 16.39,
		63.70 -23.45 16.77,
		67.49 -22.91 11.69,
		69.06 -23.38 10.99,
		67.86 -19.50 10.05,
		72.83 -15.60 10.72,
		72.47 -8.79 18.30,
		51.39 -46.64 25.30,
		60.13 -50.70 25.81,
		60.13 -50.70 24.31,
		63.95 -47.00 26.90,
		60.70 -43.41 35.63,
		61.03 -48.07 21.98,
		58.54 -46.06 20.05,
		48.20 -50.07 30.50,
		32.21 -34.59 17.93,
		31.68 -35.68 18.78,
		30.03 -37.73 18.92,
		28.13 -41.81 18.04,
		26.75 -42.61 18.35,
		22.84 -42.75 19.94,
		14.63 -44.21 23.30,
		8.45 -47.24 25.81,
		3.23 -56.70 25.81,
		1.19 -60.71 25.81,
		-0.66 -63.36 26.50,
		-1.36 -71.33 36.74,
		-9.50 -74.29 41.74,
		-21.37 -74.29 51.70,
		-27.94 -71.23 53.64,
		-31.87 -64.41 55.03,
		-37.33 -64.41 58.18,
		-36.43 -59.29 60.28,
		-39.51 -59.29 61.72,
		-41.43 -61.22 62.99,
		-45.70 -62.36 65.33,
		-47.90 -58.83 67.73,
		-46.06 -57.00 67.73,
		-48.38 -51.78 70.40,
		-46.79 -49.01 70.51,
		-44.87 -47.40 70.51,
		-48.56 -41.50 75.38,
		-47.27 -39.97 75.38,
		-49.24 -39.05 74.13,
		-50.73 -36.92 69.63,
		-56.21 -34.71 68.59,
		-66.15 -31.09 68.03,
		-67.06 -28.85 65.36,
		-70.21 -27.04 63.26,
		-75.39 -25.15 62.29,
		-80.57 -25.15 63.39,
		-84.70 -27.53 71.02,
		-87.46 -26.07 69.22,
		-93.56 -23.35 68.75,
		-94.90 -24.84 68.75,
		-103.94 -29.45 73.49,
		-105.31 -32.52 73.96,
		-112.98 -26.95 80.11,
		-117.51 -29.16 84.98,
		-119.19 -29.94 90.68,
		-121.45 -24.05 92.25,
		-124.27 -26.34 97.64,
		-124.27 -28.34 97.64,
		-125.45 -29.56 97.47,
		-131.52 -30.30 99.94,
		-133.38 -36.80 101.75,
		-135.71 -48.78 101.75,
		-138.17 -50.38 101.13,
		-147.26 -56.74 103.28,
		-147.77 -53.53 106.53,
		-151.63 -51.81 111.07,
		-150.64 -55.49 108.68,
		-152.34 -58.44 108.74,
		-154.57 -58.87 109.80,
		-159.69 -63.17 109.45,
		-162.42 -70.68 106.85,
		-168.35 -69.84 105.25,
		-172.45 -73.53 103.77,
		31.11 -43.53 15.12]
}
Material {
	emissiveColor 1.000 1.000 0.000
	diffuseColor 1.000 1.000 0.000
}
IndexedLineSet {
	coordIndex [
		0,1,2,3,4,5,6,7,8,9,10,11,12,13,14,15,16,17,18,19,
		20,21,22,-1,21,23,24,-1,11,25,26,27,28,29,30,31,32,33,34,35,
		36,37,38,39,40,-1,33,41,42,43,-1,0,44,45]
}
Material {
	emissiveColor 1.000 0.678 0.357
	diffuseColor 1.000 0.678 0.357
}
IndexedLineSet {
	coordIndex [
		45,46,47,48,49,50,51,52,53,54,55,56,57,58,59,60,61,62,63,64,
		65,66,67,68,69,-1,60,70,71,72,73,74,-1,72,75,76,-1,70,77,-1,
		56,78,79,80,81,82,83,84,85,86,87,-1,82,141]
}
Material {
	emissiveColor 0.000 1.000 1.000
	diffuseColor 0.000 1.000 1.000
}
IndexedLineSet {
	coordIndex [
		87,88,89,90,91,92,93,94,95,96,97,98,99,100,101,102,103,104,105,106,
		107,108,109,110,111,112,113,114,115,116,117,118,119,120,121,122,123,124,125,126,
		127,128,129,130,131,132,133,134,135,136,137,138,139,140]
}
# Grid --
Translation {
	translation -172.4 -159.0 -1.2
}
Material {
	emissiveColor 0.5 0.5 0.5
	diffuseColor 0.5 0.5 0.5
}
Coordinate3 {
	point [
		0 0 0,
		12.3 0.0 0,
		24.5 0.0 0,
		36.8 0.0 0,
		49.1 0.0 0,
		61.3 0.0 0,
		73.6 0.0 0,
		85.8 0.0 0,
		98.1 0.0 0,
		110.4 0.0 0,
		122.6 0.0 0,
		134.9 0.0 0,
		147.2 0.0 0,
		159.4 0.0 0,
		171.7 0.0 0,
		184.0 0.0 0,
		196.2 0.0 0,
		208.5 0.0 0,
		220.8 0.0 0,
		233.0 0.0 0,
		245.3 0.0 0,
		245.3 12.3 0,
		245.3 24.5 0,
		245.3 36.8 0,
		245.3 49.1 0,
		245.3 61.3 0,
		245.3 73.6 0,
		245.3 85.8 0,
		245.3 98.1 0,
		245.3 110.4 0,
		245.3 122.6 0,
		245.3 134.9 0,
		245.3 147.2 0,
		245.3 159.4 0,
		245.3 171.7 0,
		245.3 184.0 0,
		245.3 196.2 0,
		245.3 208.5 0,
		245.3 220.8 0,
		245.3 233.0 0,
		245.3 245.3 0,
		233.0 245.3 0,
		220.8 245.3 0,
		208.5 245.3 0,
		196.2 245.3 0,
		184.0 245.3 0,
		171.7 245.3 0,
		159.4 245.3 0,
		147.2 245.3 0,
		134.9 245.3 0,
		122.6 245.3 0,
		110.4 245.3 0,
		98.1 245.3 0,
		85.8 245.3 0,
		73.6 245.3 0,
		61.3 245.3 0,
		49.1 245.3 0,
		36.8 245.3 0,
		24.5 245.3 0,
		12.3 245.3 0,
		0.0 245.3 0,
		0.0 233.0 0,
		0.0 220.8 0,
		0.0 208.5 0,
		0.0 196.2 0,
		0.0 184.0 0,
		0.0 171.7 0,
		0.0 159.4 0,
		0.0 147.2 0,
		0.0 134.9 0,
		0.0 122.6 0,
		0.0 110.4 0,
		0.0 98.1 0,
		0.0 85.8 0,
		0.0 73.6 0,
		0.0 61.3 0,
		0.0 49.1 0,
		0.0 36.8 0,
		0.0 24.5 0,
		0.0 12.3 0,
		0.0 0.0 0,
		0.0 0.0 12.3,
		0.0 0.0 24.5,
		0.0 0.0 36.8,
		0.0 0.0 49.1,
		0.0 0.0 61.3,
		0.0 0.0 73.6,
		0.0 0.0 85.8,
		0.0 0.0 98.1,
		0.0 0.0 110.4,
		245.3 0.0 12.3,
		245.3 0.0 24.5,
		245.3 0.0 36.8,
		245.3 0.0 49.1,
		245.3 0.0 61.3,
		245.3 0.0 73.6,
		245.3 0.0 85.8,
		245.3 0.0 98.1,
		245.3 0.0 110.4,
		0.0 245.3 12.3,
		0.0 245.3 24.5,
		0.0 245.3 36.8,
		0.0 245.3 49.1,
		0.0 245.3 61.3,
		0.0 245.3 73.6,
		0.0 245.3 85.8,
		0.0 245.3 98.1,
		0.0 245.3 110.4]
}
IndexedLineSet {
	coordIndex [
		0,60,-1,
		1,59,-1,
		2,58,-1,
		3,57,-1,
		4,56,-1,
		5,55,-1,
		6,54,-1,
		7,53,-1,
		8,52,-1,
		9,51,-1,
		10,50,-1,
		11,49,-1,
		12,48,-1,
		13,47,-1,
		14,46,-1,
		15,45,-1,
		16,44,-1,
		17,43,-1,
		18,42,-1,
		19,41,-1,
		20,40,-1,
		80,20,-1,
		79,21,-1,
		78,22,-1,
		77,23,-1,
		76,24,-1,
		75,25,-1,
		74,26,-1,
		73,27,-1,
		72,28,-1,
		71,29,-1,
		70,30,-1,
		69,31,-1,
		68,32,-1,
		67,33,-1,
		66,34,-1,
		65,35,-1,
		64,36,-1,
		63,37,-1,
		62,38,-1,
		61,39,-1,
		60,40,-1,
		80,89,-1,
		80,89,-1,
		20,98,-1,
		20,98,-1,
		60,107,-1,
		60,107,-1,
		81,90,-1,
		82,91,-1,
		83,92,-1,
		84,93,-1,
		85,94,-1,
		86,95,-1,
		87,96,-1,
		88,97,-1,
		89,98,-1,
		81,99,-1,
		82,100,-1,
		83,101,-1,
		84,102,-1,
		85,103,-1,
		86,104,-1,
		87,105,-1,
		88,106,-1,
		89,107]
}
