#VRML V1.0 ascii
# Ciag 3 Dna
DEF BackgroundColor Info {
	string "0.000 0.000 0.000"
}
# Vectors --
Coordinate3 {
	point [ 
		0.00 0.00 0.00,
		-8.46 0.77 1.50,
		-17.10 -1.58 3.76,
		-18.72 -3.81 2.78,
		-17.37 -7.51 2.32,
		-26.65 -10.09 6.63,
		-27.28 -10.77 4.92,
		-33.71 -12.10 5.24,
		-34.33 -12.36 7.12,
		-37.57 -12.23 5.71,
		-40.31 -12.29 4.91,
		-41.83 -14.03 6.14,
		-43.67 -10.52 6.86,
		-48.95 -10.20 15.39,
		-55.64 -3.73 24.06,
		-60.91 -9.08 25.28,
		-63.88 -10.48 26.35,
		-69.48 -13.68 27.37,
		-71.92 -19.49 26.93,
		-75.93 -25.90 26.61,
		-81.83 -31.84 26.87,
		-86.71 -33.49 26.77,
		-85.19 -33.55 24.89,
		-91.34 -35.72 28.69,
		-91.93 -38.37 28.01,
		-43.52 -16.21 5.66,
		-48.49 -19.68 9.85,
		-48.96 -18.23 10.62,
		-52.56 -19.77 12.97,
		-61.31 -21.84 13.23,
		-62.48 -22.56 12.34,
		-65.29 -21.51 12.80,
		-66.35 -22.55 13.37,
		-67.88 -21.01 14.89,
		-65.86 -22.48 14.93,
		-67.35 -21.81 18.00,
		-69.16 -19.85 20.29,
		-70.42 -21.13 22.81,
		-71.93 -19.96 24.03,
		-73.92 -20.50 25.56,
		-74.46 -21.13 28.57,
		-70.68 -23.42 15.92,
		-78.21 -28.34 19.56,
		-82.52 -32.30 22.73,
		3.50 -0.2 -1.23,
		6.46 -2.01 -0.47,
		5.78 -4.54 0.13,
		7.75 -7.05 0.41,
		7.43 -10.64 1.24,
		10.02 -12.32 2.36,
		11.95 -15.29 2.55,
		16.01 -16.54 5.10,
		17.70 -20.51 6.59,
		22.63 -24.80 9.10,
		27.50 -27.07 12.08,
		29.84 -31.47 15.07,
		32.79 -30.40 17.70,
		33.23 -30.97 15.84,
		39.08 -33.95 15.72,
		44.63 -33.76 16.21,
		49.84 -33.12 18.02,
		52.70 -32.66 17.13,
		55.82 -26.79 19.30,
		61.10 -23.49 16.39,
		65.49 -17.88 16.77,
		69.22 -17.01 11.69,
		70.82 -17.36 10.99,
		69.30 -13.59 10.05,
		73.92 -9.28 10.72,
		72.97 -2.52 18.30,
		55.20 -42.03 25.30,
		64.26 -45.33 25.81,
		64.26 -45.33 24.31,
		67.74 -41.32 26.90,
		64.20 -38.02 35.63,
		64.93 -42.64 21.98,
		62.27 -40.85 20.05,
		52.32 -45.72 30.50,
		35.06 -31.66 17.93,
		34.63 -32.80 18.78,
		33.15 -34.98 18.92,
		31.61 -39.21 18.04,
		30.30 -40.12 18.35,
		26.42 -40.60 19.94,
		18.37 -42.76 23.30,
		12.46 -46.31 25.81,
		8.07 -56.17 25.81,
		6.39 -60.34 25.81,
		4.53 -62.99 26.50,
		3.84 -70.96 36.74,
		-4.30 -73.92 41.74,
		-16.17 -73.92 51.70,
		-22.74 -70.86 53.64,
		-26.68 -64.04 55.03,
		-32.14 -64.04 58.18,
		-31.23 -58.93 60.28,
		-34.31 -58.93 61.72,
		-36.24 -60.85 62.99,
		-40.50 -61.99 65.33,
		-42.70 -58.47 67.73,
		-40.87 -56.63 67.73,
		-43.19 -51.41 70.40,
		-41.59 -48.64 70.51,
		-39.67 -47.03 70.51,
		-43.36 -41.13 75.38,
		-42.08 -39.60 75.38,
		-44.04 -38.68 74.13,
		-45.53 -36.55 69.63,
		-51.01 -34.34 68.59,
		-60.96 -30.72 68.03,
		-61.86 -28.49 65.36,
		-65.01 -26.67 63.26,
		-70.19 -24.78 62.29,
		-75.38 -24.78 63.39,
		-79.51 -27.16 71.02,
		-82.26 -25.70 69.22,
		-88.37 -22.98 68.75,
		-89.70 -24.47 68.75,
		-98.75 -29.08 73.49,
		-100.12 -32.15 73.96,
		-107.78 -26.58 80.11,
		-112.31 -28.79 84.98,
		-113.99 -29.57 90.68,
		-116.25 -23.69 92.25,
		-119.08 -25.97 97.64,
		-119.08 -27.97 97.64,
		-120.25 -29.19 97.47,
		-126.32 -29.93 99.94,
		-128.19 -36.43 101.75,
		-130.52 -48.41 101.75,
		-132.98 -50.01 101.13,
		-142.06 -56.37 103.28,
		-142.57 -53.16 106.53,
		-146.43 -51.44 111.07,
		-145.45 -55.12 108.68,
		-147.15 -58.07 108.74,
		-149.37 -58.50 109.80,
		-154.50 -62.80 109.45,
		-157.23 -70.31 106.85,
		-163.16 -69.48 105.25,
		-167.25 -73.16 103.77,
		-123.17 -32.81 96.63,
		-123.17 -27.16 98.66,
		-120.90 -25.04 94.24,
		-122.12 -21.65 94.24,
		-125.13 -17.64 95.96,
		-130.29 -14.91 100.34,
		-129.14 -7.59 101.52,
		-132.97 -14.91 103.58,
		-107.25 -31.59 100.96,
		34.73 -40.67 15.12]
}
Material {
	emissiveColor 0.000 1.000 1.000
	diffuseColor 0.000 1.000 1.000
}
IndexedLineSet {
	coordIndex [
		0,1,2,3,4,5,6,7,8,9,10,11,12,13,14,15,16,17,18,19,
		20,21,22,-1,21,23,24,-1,11,25,26,27,28,29,30,31,32,33,34,35,
		36,37,38,39,40,-1,33,41,42,43,-1,0,44,45,-1,87,88,89,90,91,
		92,93,94,95,96,97,98,99,100,101,102,103,104,105,106,107,108,109,110,111,
		112,113,114,115,116,117,118,119,120,121,122,123,124,125,126,127,128,129,130,131,
		132,133,134,135,136,137,138,139,140,-1,127,141,142,143,144,145,146,147,-1,146,
		148,-1,125,149]
}
Material {
	emissiveColor 1.000 0.678 0.357
	diffuseColor 1.000 0.678 0.357
}
IndexedLineSet {
	coordIndex [
		45,46,47,48,49,50,51,52,53,54,55,56,57,58,59,60,61,62,63,64,
		65,66,67,68,69,-1,60,70,71,72,73,74,-1,72,75,76,-1,70,77,-1,
		56,78,79,80,81,82,83,84,85,86,87,-1,82,150]
}
# Grid --
Translation {
	translation -167.3 -157.2 -1.2
}
Material {
	emissiveColor 0.5 0.5 0.5
	diffuseColor 0.5 0.5 0.5
}
Coordinate3 {
	point [
		0 0 0,
		12.1 0.0 0,
		24.1 0.0 0,
		36.2 0.0 0,
		48.2 0.0 0,
		60.3 0.0 0,
		72.3 0.0 0,
		84.4 0.0 0,
		96.5 0.0 0,
		108.5 0.0 0,
		120.6 0.0 0,
		132.6 0.0 0,
		144.7 0.0 0,
		156.8 0.0 0,
		168.8 0.0 0,
		180.9 0.0 0,
		192.9 0.0 0,
		205.0 0.0 0,
		217.0 0.0 0,
		229.1 0.0 0,
		241.2 0.0 0,
		241.2 12.1 0,
		241.2 24.1 0,
		241.2 36.2 0,
		241.2 48.2 0,
		241.2 60.3 0,
		241.2 72.3 0,
		241.2 84.4 0,
		241.2 96.5 0,
		241.2 108.5 0,
		241.2 120.6 0,
		241.2 132.6 0,
		241.2 144.7 0,
		241.2 156.8 0,
		241.2 168.8 0,
		241.2 180.9 0,
		241.2 192.9 0,
		241.2 205.0 0,
		241.2 217.0 0,
		241.2 229.1 0,
		241.2 241.2 0,
		229.1 241.2 0,
		217.0 241.2 0,
		205.0 241.2 0,
		192.9 241.2 0,
		180.9 241.2 0,
		168.8 241.2 0,
		156.8 241.2 0,
		144.7 241.2 0,
		132.6 241.2 0,
		120.6 241.2 0,
		108.5 241.2 0,
		96.5 241.2 0,
		84.4 241.2 0,
		72.3 241.2 0,
		60.3 241.2 0,
		48.2 241.2 0,
		36.2 241.2 0,
		24.1 241.2 0,
		12.1 241.2 0,
		0.0 241.2 0,
		0.0 229.1 0,
		0.0 217.0 0,
		0.0 205.0 0,
		0.0 192.9 0,
		0.0 180.9 0,
		0.0 168.8 0,
		0.0 156.8 0,
		0.0 144.7 0,
		0.0 132.6 0,
		0.0 120.6 0,
		0.0 108.5 0,
		0.0 96.5 0,
		0.0 84.4 0,
		0.0 72.3 0,
		0.0 60.3 0,
		0.0 48.2 0,
		0.0 36.2 0,
		0.0 24.1 0,
		0.0 12.1 0,
		0.0 0.0 0,
		0.0 0.0 12.1,
		0.0 0.0 24.1,
		0.0 0.0 36.2,
		0.0 0.0 48.2,
		0.0 0.0 60.3,
		0.0 0.0 72.3,
		0.0 0.0 84.4,
		0.0 0.0 96.5,
		0.0 0.0 108.5,
		241.2 0.0 12.1,
		241.2 0.0 24.1,
		241.2 0.0 36.2,
		241.2 0.0 48.2,
		241.2 0.0 60.3,
		241.2 0.0 72.3,
		241.2 0.0 84.4,
		241.2 0.0 96.5,
		241.2 0.0 108.5,
		0.0 241.2 12.1,
		0.0 241.2 24.1,
		0.0 241.2 36.2,
		0.0 241.2 48.2,
		0.0 241.2 60.3,
		0.0 241.2 72.3,
		0.0 241.2 84.4,
		0.0 241.2 96.5,
		0.0 241.2 108.5]
}
IndexedLineSet {
	coordIndex [
		0,60,-1,
		1,59,-1,
		2,58,-1,
		3,57,-1,
		4,56,-1,
		5,55,-1,
		6,54,-1,
		7,53,-1,
		8,52,-1,
		9,51,-1,
		10,50,-1,
		11,49,-1,
		12,48,-1,
		13,47,-1,
		14,46,-1,
		15,45,-1,
		16,44,-1,
		17,43,-1,
		18,42,-1,
		19,41,-1,
		20,40,-1,
		80,20,-1,
		79,21,-1,
		78,22,-1,
		77,23,-1,
		76,24,-1,
		75,25,-1,
		74,26,-1,
		73,27,-1,
		72,28,-1,
		71,29,-1,
		70,30,-1,
		69,31,-1,
		68,32,-1,
		67,33,-1,
		66,34,-1,
		65,35,-1,
		64,36,-1,
		63,37,-1,
		62,38,-1,
		61,39,-1,
		60,40,-1,
		80,89,-1,
		80,89,-1,
		20,98,-1,
		20,98,-1,
		60,107,-1,
		60,107,-1,
		81,90,-1,
		82,91,-1,
		83,92,-1,
		84,93,-1,
		85,94,-1,
		86,95,-1,
		87,96,-1,
		88,97,-1,
		89,98,-1,
		81,99,-1,
		82,100,-1,
		83,101,-1,
		84,102,-1,
		85,103,-1,
		86,104,-1,
		87,105,-1,
		88,106,-1,
		89,107]
}
