#VRML V1.0 ascii
# Ciag 3 Dna - Stopnie
DEF BackgroundColor Info {
	string "0.000 0.000 0.000"
}
# Vectors --
Coordinate3 {
	point [ 
		0.00 0.00 0.00,
		-1.85 -2.64 0.69,
		-2.55 -10.62 10.93,
		-10.69 -13.58 15.93,
		-22.56 -13.58 25.89,
		-29.13 -10.52 27.83,
		-33.07 -3.69 29.22,
		-38.52 -3.69 32.37,
		-37.62 1.42 34.47,
		-40.70 1.42 35.91,
		-42.62 -0.50 37.18,
		-46.89 -1.65 39.52,
		-49.09 1.88 41.92,
		-47.25 3.72 41.92,
		-49.57 8.93 44.59,
		-47.98 11.70 44.70,
		-46.06 13.31 44.70,
		-49.75 19.21 49.57,
		-48.46 20.75 49.57,
		-50.43 21.66 48.32,
		-51.92 23.79 43.82,
		-57.40 26.01 42.78,
		-67.34 29.63 42.22,
		-68.25 31.86 39.55,
		-71.40 33.68 37.45,
		-76.58 35.56 36.48,
		-81.76 35.56 37.58,
		-85.89 33.18 45.21,
		-88.65 34.64 43.41,
		-94.75 37.36 42.94,
		-96.09 35.88 42.94,
		-105.13 31.27 47.68,
		-106.50 28.19 48.15,
		-114.17 33.76 54.30,
		-118.70 31.55 59.17,
		-120.38 30.77 64.87,
		-122.64 36.66 66.44,
		-125.46 34.37 71.83,
		-125.46 32.37 71.83,
		-126.64 31.15 71.66,
		-132.71 30.41 74.13,
		-134.57 23.91 75.94,
		-136.90 11.93 75.94,
		-139.36 10.34 75.32,
		-148.45 3.97 77.47,
		-148.96 7.19 80.73,
		-152.82 8.91 85.26,
		-151.83 5.22 82.87,
		-153.53 2.28 82.93,
		-155.76 1.84 83.99,
		-160.88 -2.46 83.64,
		-163.61 -9.96 81.04,
		-169.55 -9.13 79.44,
		-173.64 -12.82 77.96]
}
Material {
	emissiveColor 0.000 1.000 1.000
	diffuseColor 0.000 1.000 1.000
}
IndexedLineSet {
	coordIndex [
		0,1,2,3,4,5,6,7,8,9,10,11,12,13,14,15,16,17,18,19,
		20,21,22,23,24,25,26,27,28,29,30,31,32,33,34,35,36,37,38,39,
		40,41,42,43,44,45,46,47,48,49,50,51,52,53]
}
# Grid --
Translation {
	translation -173.6 -74.9 0.0
}
Material {
	emissiveColor 0.5 0.5 0.5
	diffuseColor 0.5 0.5 0.5
}
Coordinate3 {
	point [
		0 0 0,
		8.7 0.0 0,
		17.4 0.0 0,
		26.0 0.0 0,
		34.7 0.0 0,
		43.4 0.0 0,
		52.1 0.0 0,
		60.8 0.0 0,
		69.5 0.0 0,
		78.1 0.0 0,
		86.8 0.0 0,
		95.5 0.0 0,
		104.2 0.0 0,
		112.9 0.0 0,
		121.5 0.0 0,
		130.2 0.0 0,
		138.9 0.0 0,
		147.6 0.0 0,
		156.3 0.0 0,
		165.0 0.0 0,
		173.6 0.0 0,
		173.6 8.7 0,
		173.6 17.4 0,
		173.6 26.0 0,
		173.6 34.7 0,
		173.6 43.4 0,
		173.6 52.1 0,
		173.6 60.8 0,
		173.6 69.5 0,
		173.6 78.1 0,
		173.6 86.8 0,
		173.6 95.5 0,
		173.6 104.2 0,
		173.6 112.9 0,
		173.6 121.5 0,
		173.6 130.2 0,
		173.6 138.9 0,
		173.6 147.6 0,
		173.6 156.3 0,
		173.6 165.0 0,
		173.6 173.6 0,
		165.0 173.6 0,
		156.3 173.6 0,
		147.6 173.6 0,
		138.9 173.6 0,
		130.2 173.6 0,
		121.5 173.6 0,
		112.9 173.6 0,
		104.2 173.6 0,
		95.5 173.6 0,
		86.8 173.6 0,
		78.1 173.6 0,
		69.5 173.6 0,
		60.8 173.6 0,
		52.1 173.6 0,
		43.4 173.6 0,
		34.7 173.6 0,
		26.0 173.6 0,
		17.4 173.6 0,
		8.7 173.6 0,
		-0.0 173.6 0,
		0.0 165.0 0,
		0.0 156.3 0,
		0.0 147.6 0,
		0.0 138.9 0,
		0.0 130.2 0,
		0.0 121.5 0,
		0.0 112.9 0,
		0.0 104.2 0,
		0.0 95.5 0,
		0.0 86.8 0,
		0.0 78.1 0,
		0.0 69.5 0,
		0.0 60.8 0,
		0.0 52.1 0,
		0.0 43.4 0,
		0.0 34.7 0,
		0.0 26.0 0,
		0.0 17.4 0,
		0.0 8.7 0,
		0.0 -0.0 0,
		0.0 0.0 8.7,
		0.0 0.0 17.4,
		0.0 0.0 26.0,
		0.0 0.0 34.7,
		0.0 0.0 43.4,
		0.0 0.0 52.1,
		0.0 0.0 60.8,
		0.0 0.0 69.5,
		0.0 0.0 78.1,
		0.0 0.0 86.8,
		173.6 0.0 8.7,
		173.6 0.0 17.4,
		173.6 0.0 26.0,
		173.6 0.0 34.7,
		173.6 0.0 43.4,
		173.6 0.0 52.1,
		173.6 0.0 60.8,
		173.6 0.0 69.5,
		173.6 0.0 78.1,
		173.6 0.0 86.8,
		0.0 173.6 8.7,
		0.0 173.6 17.4,
		0.0 173.6 26.0,
		0.0 173.6 34.7,
		0.0 173.6 43.4,
		0.0 173.6 52.1,
		0.0 173.6 60.8,
		0.0 173.6 69.5,
		0.0 173.6 78.1,
		0.0 173.6 86.8]
}
IndexedLineSet {
	coordIndex [
		0,60,-1,
		1,59,-1,
		2,58,-1,
		3,57,-1,
		4,56,-1,
		5,55,-1,
		6,54,-1,
		7,53,-1,
		8,52,-1,
		9,51,-1,
		10,50,-1,
		11,49,-1,
		12,48,-1,
		13,47,-1,
		14,46,-1,
		15,45,-1,
		16,44,-1,
		17,43,-1,
		18,42,-1,
		19,41,-1,
		20,40,-1,
		80,20,-1,
		79,21,-1,
		78,22,-1,
		77,23,-1,
		76,24,-1,
		75,25,-1,
		74,26,-1,
		73,27,-1,
		72,28,-1,
		71,29,-1,
		70,30,-1,
		69,31,-1,
		68,32,-1,
		67,33,-1,
		66,34,-1,
		65,35,-1,
		64,36,-1,
		63,37,-1,
		62,38,-1,
		61,39,-1,
		60,40,-1,
		80,90,-1,
		80,90,-1,
		20,100,-1,
		20,100,-1,
		60,110,-1,
		60,110,-1,
		81,91,-1,
		82,92,-1,
		83,93,-1,
		84,94,-1,
		85,95,-1,
		86,96,-1,
		87,97,-1,
		88,98,-1,
		89,99,-1,
		90,100,-1,
		81,101,-1,
		82,102,-1,
		83,103,-1,
		84,104,-1,
		85,105,-1,
		86,106,-1,
		87,107,-1,
		88,108,-1,
		89,109,-1,
		90,110]
}
