#VRML V1.0 ascii
# Ciag Glowny Miedzyotworowy
DEF BackgroundColor Info {
	string "0.000 0.000 0.000"
}
# Vectors --
Coordinate3 {
	point [ 
		0.00 0.00 1456.30,
		-2.27 -6.34 1447.34,
		-8.44 -9.24 1445.36,
		-10.08 -8.30 1446.48,
		-12.25 -0.85 1452.12,
		-5.27 -17.27 1444.22,
		-8.40 -22.44 1436.51,
		-10.49 -21.58 1435.40,
		-10.54 -25.14 1432.52,
		-13.86 -28.47 1427.61,
		-15.16 -34.11 1427.51,
		-15.05 -35.75 1422.73,
		-15.90 -40.62 1419.13,
		-12.84 -36.92 1419.13,
		-10.09 -37.27 1413.69,
		-6.80 -33.28 1415.84,
		-7.04 -31.36 1418.99,
		-10.09 -37.27 1404.49,
		-8.01 -35.55 1404.49,
		-8.01 -35.55 1400.49,
		-10.76 -41.50 1407.61,
		-10.76 -41.50 1396.11,
		-16.43 -39.16 1393.68,
		-21.60 -46.77 1398.74,
		-22.59 -48.62 1414.89,
		-30.54 -49.18 1421.06,
		-36.46 -52.33 1421.04,
		-39.59 -56.07 1419.86,
		-44.85 -52.20 1425.31,
		-49.44 -54.95 1428.75,
		-48.39 -61.02 1434.72,
		-54.82 -62.61 1440.23,
		-57.67 -61.49 1441.45,
		-56.44 -62.09 1442.06,
		-54.38 -54.41 1444.04,
		-58.97 -54.74 1448.35,
		-61.06 -63.22 1443.06,
		-62.47 -65.02 1445.07,
		-64.78 -64.04 1446.63,
		-66.45 -64.62 1450.37,
		-68.02 -57.83 1455.07,
		-64.97 -60.33 1451.93,
		-65.26 -63.11 1448.93,
		-67.41 -53.98 1458.28,
		-62.85 -53.98 1461.35,
		-60.44 -48.31 1464.22,
		-60.44 -48.31 1455.62,
		-61.25 -51.31 1453.45,
		-68.48 -47.89 1464.25,
		-69.43 -66.17 1451.07,
		-73.68 -68.41 1456.47,
		-74.60 -63.63 1462.45,
		-74.64 -63.16 1462.28,
		-75.67 -62.42 1465.29,
		-75.67 -62.43 1464.17,
		-77.40 -60.96 1466.78,
		-77.28 -59.47 1468.16,
		-77.70 -60.37 1468.05,
		-77.02 -58.26 1472.58,
		-77.28 -54.96 1474.01,
		-77.28 -54.96 1472.31,
		-75.97 -53.04 1473.23,
		-76.29 -49.67 1474.10,
		-74.23 -48.93 1472.52,
		-72.77 -46.91 1471.79,
		-68.50 -45.67 1464.54,
		-74.64 -48.14 1473.73,
		-74.18 -40.93 1479.90,
		-72.10 -49.98 1479.42,
		-73.82 -50.06 1480.80,
		-73.27 -50.24 1481.62,
		-74.60 -50.41 1482.96,
		-75.38 -51.63 1483.64,
		-75.23 -53.53 1483.64,
		-77.93 -56.99 1477.04,
		-77.93 -58.44 1472.99,
		-79.99 -56.04 1472.49,
		-81.78 -56.18 1472.49,
		-82.44 -53.76 1474.64,
		-82.44 -50.50 1476.17,
		-82.84 -47.98 1478.56,
		-81.73 -43.66 1481.02,
		-84.26 -41.13 1484.07,
		-84.95 -36.77 1487.84,
		-87.68 -38.17 1489.53,
		-77.58 -61.28 1476.34,
		-77.58 -64.68 1481.88,
		-77.74 -65.95 1489.98,
		-77.74 -68.18 1490.71,
		-77.74 -67.06 1493.10,
		-76.17 -68.62 1494.46,
		-70.35 -69.36 1500.33,
		-77.99 -63.96 1469.96,
		-78.45 -65.39 1467.20,
		-78.04 -68.01 1464.14,
		-77.42 -69.58 1461.44,
		-80.99 -71.77 1461.64,
		-81.73 -73.09 1462.32,
		-77.77 -74.24 1468.73,
		-75.91 -75.67 1472.11,
		-66.84 -90.41 1529.73,
		-61.06 -92.26 1539.79,
		-60.16 -91.73 1541.85,
		-61.04 -89.43 1542.01,
		-58.87 -86.11 1540.67,
		-59.07 -85.45 1539.19,
		-59.39 -82.83 1538.02,
		-63.21 -78.79 1530.79,
		-67.91 -78.05 1527.30,
		-69.65 -78.64 1525.73,
		-68.99 -79.64 1522.93,
		-68.89 -79.00 1518.73,
		-68.06 -81.18 1516.78,
		-70.76 -79.14 1513.65,
		-68.76 -81.60 1509.76,
		-69.99 -82.20 1508.04,
		-67.02 -81.83 1510.22,
		-61.81 -79.76 1512.86,
		-59.63 -81.94 1511.41,
		-58.17 -82.57 1508.29,
		-59.38 -82.07 1505.15,
		-58.48 -84.24 1503.81,
		-59.10 -88.19 1503.81,
		-69.50 -77.23 1506.86,
		-71.03 -75.41 1506.29,
		-74.43 -76.41 1501.81,
		-75.15 -76.75 1501.26,
		-76.06 -76.71 1492.92,
		-76.42 -77.67 1490.74,
		-79.60 -77.86 1480.12,
		-78.88 -73.34 1472.75,
		-79.84 -72.61 1469.18,
		-79.21 -73.64 1469.18,
		-81.46 -87.81 1472.39,
		-81.70 -90.89 1470.35,
		-82.12 -72.79 1462.41,
		-68.08 -73.40 1509.02,
		-70.59 -74.10 1513.71,
		-71.83 -73.68 1513.94,
		-77.13 -76.03 1516.91,
		-80.09 -76.83 1517.02,
		-82.94 -78.63 1516.69,
		-86.14 -78.40 1520.10,
		-92.08 -78.47 1524.58,
		-91.91 -80.81 1523.80,
		-97.28 -82.42 1517.78,
		-97.23 -82.42 1518.51,
		-97.93 -78.30 1518.25,
		-98.28 -75.91 1518.15,
		-97.34 -76.06 1497.30,
		-97.85 -67.58 1488.15,
		-97.81 -65.86 1475.74,
		-105.78 -64.16 1482.54,
		-110.82 -64.24 1488.21,
		-112.80 -61.41 1492.22,
		-116.66 -61.21 1495.01,
		-117.73 -58.47 1495.88,
		-123.42 -56.65 1500.95,
		-123.36 -59.44 1500.56,
		-125.40 -60.61 1500.87,
		-128.86 -57.61 1503.17,
		-130.93 -57.16 1503.62,
		-132.69 -57.24 1505.07,
		-135.55 -55.22 1505.48,
		-136.02 -50.15 1506.83,
		-141.65 -48.94 1511.07,
		-150.16 -60.09 1513.75,
		-151.56 -65.53 1512.12,
		-152.53 -67.76 1511.89,
		-153.17 -70.27 1513.42,
		-144.47 -66.98 1506.36,
		-162.00 -50.46 1524.84,
		-164.18 -45.71 1529.37,
		-173.39 -40.17 1535.85,
		-175.44 -34.05 1537.45,
		-179.40 -26.26 1542.62,
		-132.73 -52.13 1503.80,
		-131.28 -56.56 1492.49,
		-131.40 -54.26 1494.47,
		-133.94 -58.66 1491.70,
		-136.62 -59.64 1487.26,
		-137.37 -60.82 1487.26,
		-139.05 -60.03 1485.82,
		-146.61 -60.03 1487.76,
		-137.31 -53.45 1483.73,
		-143.77 -51.48 1485.20,
		-149.09 -49.26 1487.81,
		-152.72 -42.14 1488.06,
		-150.50 -41.34 1485.47,
		-148.86 -40.26 1482.94,
		-148.86 -40.26 1479.24,
		-148.74 -39.94 1468.25,
		-154.97 -43.39 1489.85,
		-158.83 -43.05 1494.68,
		-167.90 -44.78 1496.44,
		-170.66 -44.78 1503.41,
		-173.86 -44.38 1509.51,
		-168.87 -39.58 1489.56,
		-173.72 -36.86 1497.75,
		-176.51 -37.76 1499.53,
		-176.51 -35.91 1499.56,
		-179.16 -35.99 1499.64,
		-181.26 -37.15 1497.53,
		-182.87 -36.74 1497.16,
		-182.52 -38.29 1497.31,
		-184.02 -40.23 1500.27,
		-183.33 -44.64 1503.31,
		-181.20 -45.33 1506.00,
		-178.04 -44.30 1505.58,
		-177.00 -35.42 1500.48,
		-177.42 -36.78 1504.86,
		-179.23 -35.88 1509.71,
		-181.87 -38.64 1513.51,
		-182.86 -36.57 1516.11,
		-185.02 -38.13 1519.31,
		-187.00 -42.07 1520.08,
		-186.48 -46.01 1519.53,
		-189.66 -52.47 1523.63,
		-203.35 -55.80 1536.55,
		-206.23 -55.37 1538.97,
		-199.09 -51.98 1533.49,
		-205.24 -47.84 1538.35,
		-207.16 -46.78 1539.89,
		-211.02 -48.14 1543.86,
		-213.41 -53.59 1546.03,
		-216.03 -58.47 1546.84,
		-213.72 -61.75 1546.53,
		-212.90 -68.10 1545.72,
		-213.55 -73.16 1546.59,
		-214.86 -79.45 1548.00,
		-217.87 -82.46 1548.68,
		-219.22 -83.30 1550.99,
		-224.38 -93.36 1560.16,
		-231.19 -94.90 1562.59,
		-230.39 -95.54 1561.71,
		-232.58 -97.67 1556.73,
		-231.79 -98.37 1555.63,
		-227.68 -104.02 1549.08,
		-224.86 -106.35 1545.41,
		-223.75 -109.76 1544.49,
		-217.53 -112.45 1540.34,
		-217.83 -115.53 1539.00,
		-222.40 -115.53 1541.90,
		-231.47 -98.82 1563.09,
		-234.15 -102.51 1563.81,
		-236.81 -103.93 1564.45,
		-236.33 -106.00 1563.92,
		-238.26 -107.29 1564.42,
		-241.23 -108.87 1564.42,
		-237.41 -98.31 1561.22,
		-238.45 -95.22 1563.58,
		-240.06 -94.28 1567.63,
		-243.06 -92.63 1568.57,
		-248.82 -93.18 1571.24,
		-251.92 -96.08 1573.87,
		-254.19 -96.63 1577.22,
		-257.75 -98.11 1578.30,
		-255.55 -97.44 1577.83,
		-258.07 -91.19 1579.14,
		-266.70 -82.56 1590.13,
		-276.01 -76.28 1598.90,
		-275.47 -74.51 1599.80,
		-277.72 -71.82 1603.57,
		-279.23 -69.89 1604.66,
		-285.14 -65.91 1611.31,
		-284.96 -65.06 1610.81,
		-289.15 -59.50 1615.33,
		-294.15 -60.93 1618.33,
		-265.57 -97.98 1584.83,
		-269.49 -100.71 1588.52,
		-267.15 -108.37 1588.80,
		-272.96 -108.88 1592.59,
		-277.00 -109.74 1595.93,
		-277.67 -112.24 1597.55,
		-281.56 -111.55 1600.53,
		-290.56 -104.52 1609.13,
		-296.36 -99.30 1614.81,
		-305.80 -95.29 1625.06,
		-306.63 -97.58 1638.85,
		-287.52 -120.38 1603.99,
		-286.39 -115.10 1603.99,
		-288.14 -115.10 1603.99,
		-290.37 -113.24 1603.99,
		-295.08 -114.59 1608.10,
		-296.02 -111.06 1608.10,
		-301.94 -107.92 1610.81,
		-304.56 -110.63 1612.99,
		-317.38 -103.22 1623.74,
		-322.34 -101.42 1628.49,
		-328.28 -97.99 1633.85,
		-332.57 -95.90 1637.32,
		-333.29 -97.69 1638.83,
		-337.36 -97.62 1641.89,
		-341.85 -90.70 1645.74,
		-354.58 -83.93 1658.72,
		-369.82 -79.27 1670.30,
		-382.78 -70.53 1680.84,
		-389.08 -71.42 1687.21,
		-398.64 -69.74 1689.63,
		-262.91 -109.12 1585.56,
		-263.32 -111.70 1585.56,
		-260.14 -114.37 1583.62,
		-258.99 -116.21 1582.26,
		-256.83 -114.20 1582.26,
		-254.16 -111.62 1577.99,
		-246.67 -110.83 1572.53,
		-276.06 -97.37 1593.13,
		-284.95 -95.79 1590.67,
		-287.11 -95.64 1590.74,
		-294.47 -94.87 1595.41,
		-297.29 -93.90 1596.79,
		-301.86 -94.14 1595.24,
		-306.80 -91.62 1598.42,
		-309.65 -92.79 1597.08,
		-311.81 -90.01 1601.40,
		-316.29 -89.46 1606.04,
		-320.87 -87.45 1612.89,
		-324.59 -86.09 1614.81,
		-329.36 -86.76 1610.12,
		-332.52 -80.85 1615.73,
		-329.36 -86.76 1610.12,
		-331.07 -80.84 1614.26,
		-336.47 -74.88 1623.08,
		-337.80 -69.92 1628.30,
		-340.55 -69.72 1630.93,
		-346.04 -64.80 1637.54,
		-351.05 -61.18 1641.37,
		-360.52 -62.01 1648.28,
		-366.60 -60.94 1651.98,
		-370.60 -61.36 1654.60,
		-380.13 -60.02 1659.93,
		-388.67 -56.57 1663.28,
		-391.31 -53.83 1665.06,
		-398.04 -57.71 1668.52,
		-403.45 -56.16 1672.32,
		-355.13 -54.68 1646.91,
		-357.52 -52.48 1648.09,
		-361.04 -46.87 1650.10,
		-362.80 -44.45 1649.86,
		-373.44 -42.76 1655.79,
		-376.73 -42.51 1657.47,
		-382.02 -37.69 1660.04,
		-390.01 -42.59 1665.99,
		-394.95 -41.65 1670.42,
		-399.92 -43.99 1674.16,
		-406.66 -43.14 1677.89,
		-411.49 -42.06 1680.62,
		-416.69 -34.15 1681.51,
		-416.69 -34.15 1680.91,
		-416.69 -34.15 1680.21,
		-414.04 -34.24 1678.41,
		-408.17 -30.89 1673.50,
		-407.86 -31.25 1673.35,
		-405.20 -31.34 1673.77,
		-403.11 -32.20 1673.34,
		-398.81 -31.59 1670.68,
		-420.35 -35.74 1682.21,
		-421.27 -36.21 1684.59,
		-423.28 -41.28 1687.37,
		-421.40 -43.70 1688.11,
		-421.40 -43.70 1687.31,
		-427.08 -41.55 1689.49,
		-431.13 -41.87 1690.54,
		-424.33 -32.56 1681.97,
		-427.11 -29.30 1683.36,
		-363.79 -41.81 1650.38,
		-364.90 -35.59 1650.93,
		-369.24 -35.59 1654.05,
		-367.47 -28.97 1655.02,
		-368.30 -29.22 1654.19,
		-364.83 -29.16 1651.48,
		-361.87 -30.48 1650.43,
		-347.58 -41.64 1643.83,
		-340.00 -45.67 1639.64,
		-330.49 -52.34 1632.38,
		-329.47 -53.55 1631.53,
		-328.21 -54.57 1630.75,
		-324.48 -57.48 1628.83,
		-311.17 -63.98 1617.26,
		-296.66 -67.06 1609.37,
		-368.79 -27.18 1658.30,
		-366.30 -21.61 1656.57,
		-376.48 -21.97 1656.89,
		-376.49 -21.97 1657.88,
		-376.43 -25.72 1657.96,
		-378.60 -30.20 1657.13,
		-384.22 -31.67 1659.84,
		-387.73 -32.24 1661.64,
		-388.86 -29.75 1666.06,
		-388.09 -27.05 1663.82,
		-386.76 -23.56 1663.96,
		-389.77 -27.71 1667.95,
		-390.93 -30.93 1669.83,
		-393.58 -32.85 1669.36,
		-396.07 -34.22 1669.18,
		-388.76 -21.55 1663.80,
		-388.71 -18.18 1664.31,
		-390.53 -17.68 1662.34,
		-392.23 -13.66 1662.16,
		-392.22 -13.67 1662.50,
		-389.31 -13.92 1660.98,
		-385.14 -12.58 1659.70,
		-382.62 -11.12 1658.87,
		-384.74 -9.13 1659.09,
		-388.27 -10.79 1660.21,
		-389.82 -9.34 1660.92,
		-388.12 -7.35 1663.54,
		-393.02 -6.17 1666.31,
		-398.78 -4.50 1669.61,
		-391.29 -12.46 1663.20,
		-393.34 -0.69 1661.35,
		-398.87 2.82 1662.18,
		-402.82 5.33 1663.22,
		-399.55 -2.08 1663.84,
		-397.15 0.83 1665.34,
		-400.15 1.21 1668.74,
		-406.81 0.68 1669.13,
		-406.81 0.68 1670.03,
		-408.65 4.29 1669.52,
		-405.53 6.00 1666.76,
		-409.25 -0.11 1670.76,
		-413.55 -3.77 1673.62,
		-415.51 -4.97 1674.78,
		-418.00 -6.24 1675.79,
		-419.60 -4.64 1676.93,
		-421.86 -4.78 1679.55,
		-423.09 -4.34 1680.01,
		-424.13 -5.68 1680.80,
		-426.16 -4.49 1682.17,
		-424.52 -1.50 1683.30,
		-374.00 -19.73 1656.98,
		-210.24 -61.91 1544.23,
		-206.24 -59.36 1540.80,
		-128.85 -54.54 1491.94,
		-124.13 -54.34 1488.67,
		-124.51 -53.60 1490.03,
		-122.99 -47.27 1496.96,
		-122.14 -44.33 1498.65,
		-118.60 -47.65 1497.07,
		-118.22 -45.28 1497.07,
		-124.59 -40.18 1501.30,
		-126.71 -39.67 1502.88,
		-129.94 -34.22 1505.62,
		-129.07 -33.09 1510.00,
		-127.85 -28.04 1510.00,
		-124.60 -60.14 1479.35,
		-122.11 -64.60 1475.84,
		-119.22 -69.04 1473.33,
		-119.50 -79.91 1471.41,
		-116.59 -82.35 1468.55,
		-115.08 -85.20 1470.90,
		-112.94 -85.16 1472.23,
		-112.94 -80.78 1479.52,
		-116.91 -88.13 1470.41,
		-118.58 -88.70 1470.53,
		-118.90 -92.31 1472.30,
		-119.18 -95.58 1470.91,
		-111.97 -81.85 1465.16,
		-102.46 -84.84 1458.09,
		-96.37 -84.57 1459.47,
		-96.37 -82.67 1455.09,
		-93.62 -87.83 1447.04,
		-89.86 -85.29 1446.72,
		-89.58 -88.85 1444.90,
		-90.30 -91.32 1441.59,
		-89.43 -92.19 1439.18,
		-87.63 -94.66 1436.31,
		-89.86 -81.76 1450.26,
		-93.56 -82.96 1452.32,
		-93.56 -82.96 1445.32,
		-99.36 -86.47 1457.06,
		-101.08 -90.28 1457.66,
		-104.70 -90.74 1462.21,
		-98.01 -75.94 1468.40,
		-101.30 -69.24 1474.87,
		-114.36 -70.67 1489.37,
		-118.03 -73.81 1489.53,
		-120.12 -71.90 1492.54,
		-119.83 -67.39 1493.93,
		-118.97 -66.65 1497.85,
		-119.39 -66.87 1499.97,
		-119.82 -68.65 1501.06,
		-119.18 -71.33 1502.75,
		-120.28 -73.33 1502.75,
		-119.76 -73.20 1504.96,
		-117.48 -67.17 1507.75,
		-105.03 -56.14 1486.97,
		-108.30 -51.16 1490.25,
		-113.22 -67.53 1489.86,
		-111.06 -73.51 1483.49,
		-105.43 -72.62 1478.47,
		-117.33 -72.47 1489.77,
		-120.45 -74.74 1491.65,
		-119.60 -77.71 1492.67,
		-121.04 -80.39 1491.91,
		-119.71 -81.87 1493.72,
		-121.82 -84.04 1494.60,
		-119.00 -88.87 1498.24,
		-122.38 -90.17 1500.67,
		-123.17 -93.59 1504.96,
		-123.07 -99.50 1499.06,
		-126.28 -101.26 1496.27,
		-129.47 -104.76 1498.41,
		-135.51 -105.19 1501.03,
		-135.51 -105.19 1518.03,
		-137.37 -110.00 1518.03,
		-138.77 -108.06 1516.05,
		-142.68 -111.40 1512.68,
		-145.90 -110.46 1510.90,
		-146.39 -111.03 1510.90,
		-149.15 -110.04 1511.75,
		-151.95 -111.82 1509.17,
		-150.69 -113.87 1504.45,
		-150.18 -115.11 1502.11,
		-146.88 -111.70 1501.36,
		-142.89 -112.73 1490.94,
		-156.47 -115.11 1507.83,
		-158.42 -117.62 1505.67,
		-158.75 -121.82 1504.59,
		-160.89 -122.71 1505.03,
		-162.77 -126.40 1509.44,
		-162.77 -135.76 1512.32,
		-166.97 -136.43 1515.96,
		-167.79 -138.04 1520.73,
		-169.11 -142.08 1518.97,
		-174.42 -147.39 1516.52,
		-178.59 -149.60 1507.26,
		-137.25 -117.19 1522.92,
		-137.25 -117.19 1529.57,
		-124.99 -95.18 1507.21,
		-119.04 -95.16 1516.51,
		-119.61 -98.65 1517.08,
		-120.94 -100.81 1517.95,
		-122.59 -104.62 1521.97,
		-120.26 -105.71 1525.88,
		-122.19 -108.46 1530.21,
		-126.18 -111.35 1529.90,
		-130.51 -114.94 1529.90,
		-116.97 -96.52 1517.03,
		-115.39 -92.07 1516.97,
		-114.74 -88.99 1514.46,
		-111.22 -86.85 1514.41,
		-109.54 -82.70 1516.73,
		-109.45 -85.21 1518.46,
		-105.26 -82.16 1521.18,
		-106.03 -80.06 1522.06,
		-105.87 -81.54 1523.40,
		-100.40 -80.00 1523.32,
		-98.78 -81.54 1520.91,
		-97.98 -77.96 1519.91,
		-98.40 -76.22 1523.71,
		-97.90 -73.08 1526.89,
		-97.90 -68.08 1556.89,
		-95.62 -76.66 1529.23,
		-119.61 -98.65 1517.08,
		-120.08 -98.39 1517.08,
		-119.03 -93.71 1520.56,
		-120.19 -92.55 1522.42,
		-119.56 -88.58 1524.63,
		-120.68 -88.41 1525.32,
		-120.68 -84.14 1527.25,
		-120.68 -84.14 1527.48,
		-117.92 -78.72 1528.84,
		-98.62 -59.41 1484.12,
		-98.18 -64.10 1489.98,
		-98.10 -66.56 1493.87,
		-97.80 -64.63 1497.70,
		-95.87 -67.47 1503.10,
		-95.17 -65.07 1506.54,
		-96.27 -63.90 1511.49,
		-96.27 -63.90 1517.49,
		-95.98 -63.21 1523.44,
		-101.53 -55.14 1488.39,
		-103.78 -50.35 1493.69,
		-91.32 -69.74 1467.96,
		-88.88 -70.98 1465.51,
		-86.57 -73.52 1463.08,
		-79.87 -71.54 1460.83,
		-84.48 -68.51 1466.35,
		-76.03 -69.38 1458.79,
		-75.98 -72.47 1459.42,
		-78.19 -74.07 1458.19,
		-75.26 -74.54 1457.01,
		-71.52 -72.64 1453.76,
		-71.43 -71.87 1452.36,
		-64.98 -71.67 1447.98,
		-58.88 -68.56 1440.69,
		-54.34 -65.69 1436.52,
		-55.48 -68.10 1435.16,
		-55.48 -68.10 1424.56]
}
Material {
	emissiveColor 1.000 0.000 0.000
	diffuseColor 1.000 0.000 0.000
}
IndexedLineSet {
	coordIndex [
		0,1,5,6,7,8,9,10,11,12,24,25,26,27,28,29,30,31,32,36,
		37,38,39,49,50,-1,95,96,-1,178,179,180,184,185,186,192,193,197,198,199,
		209,210,211,212,213,214,215,216,217,218,219,-1,227,228,229,230,231,232,233,243,
		249,250,251,252,253,254,255,256,268,269,306,307,308,309,310,311,312,313,314,315,
		316,317,318,319,320,321,322,323,324,325,326,335,336,337,365,366,367,368,380,381,
		382,383,-1,402,403,404,405,410,413,414,415,416,417,420,421,422,423,424,425,426,
		427,428,429,-1,402,430,383,-1,227,431,432,219,-1,178,433,434,445,446,447,448,
		457,458,459,473,474,151,574,575,576,96,-1,95,50]
}
Material {
	emissiveColor 0.753 0.753 0.753
	diffuseColor 0.753 0.753 0.753
}
IndexedLineSet {
	coordIndex [
		1,2,3,4,-1,12,13,14,15,16,-1,14,17,18,19,-1,17,20,21,22,
		23,-1,32,33,34,-1,33,35,-1,39,40,-1,39,41,42,-1,41,43,44,45,
		46,47,-1,43,48,-1,50,51,52,53,54,55,56,57,58,59,60,61,62,63,
		64,65,-1,63,66,67,-1,66,68,69,70,71,72,73,-1,59,74,75,76,77,
		78,79,80,81,82,83,84,-1,75,85,86,87,88,89,90,91,-1,57,92,93,
		94,95,-1,96,97,98,99,100,101,102,103,104,105,106,107,108,109,110,111,112,
		113,114,115,116,117,118,119,120,121,122,-1,115,123,124,125,126,127,128,129,130,
		131,132,133,134,-1,131,135,96,-1,127,126,-1,124,136,137,138,139,140,141,142,
		143,144,145,146,147,148,149,150,151,152,153,154,155,156,157,158,159,160,161,162,
		163,164,165,166,167,168,169,-1,166,170,-1,166,171,172,173,174,175,-1,163,176,
		177,178,-1,180,181,182,183,-1,186,187,188,189,190,191,-1,193,194,195,196,-1,
		199,200,201,202,203,204,205,206,207,208,-1,219,220,221,222,223,224,225,226,227,
		-1,233,234,235,236,237,238,239,240,241,242,-1,243,244,245,246,247,248,-1,256,
		257,258,259,260,261,262,263,264,265,266,267,-1,269,270,271,272,273,274,275,276,
		277,278,-1,274,279,280,281,282,283,284,285,286,287,288,289,290,291,292,293,294,
		295,296,297,298,-1,270,299,300,301,302,303,304,305,-1,326,327,328,329,330,331,
		332,333,334,-1,337,338,339,340,341,342,343,344,345,346,347,348,349,350,351,352,
		353,354,355,-1,348,356,357,358,359,360,361,362,-1,356,363,364,-1,368,369,370,
		371,372,373,374,375,376,377,378,379,-1,383,384,385,386,387,388,389,390,391,392,
		393,394,-1,390,395,396,397,398,399,400,401,402,-1,405,406,407,408,-1,405,409,
		399,-1,410,411,412,-1,417,418,419,-1,434,435,436,437,438,439,-1,437,440,441,
		442,443,444,-1,448,449,450,451,452,-1,450,453,454,455,456,-1,459,460,461,462,
		463,464,465,466,-1,462,467,468,469,-1,459,470,471,472,-1,153,475,476,477,478,
		479,480,481,482,483,484,485,-1,152,486,487,-1,152,488,489,490,-1,488,491,492,
		493,494,495,496,497,498,499,500,501,502,503,504,505,506,507,508,509,510,511,512,
		513,514,515,-1,511,516,517,518,519,520,521,522,523,524,525,526,-1,505,527,528,
		-1,499,529,530,531,532,533,534,535,536,537,-1,531,538,539,540,541,542,543,544,
		545,546,547,548,549,550,551,552,-1,550,553,-1,548,147,-1,531,554,555,556,557,
		558,559,560,561,562,-1,151,563,564,565,566,567,568,569,570,571,-1,563,572,573,
		-1,96,577,578,-1,50,579,580,581,582,583,584,585,586,587,588,589]
}
# Grid --
Translation {
	translation -431.1 -287.4 1393.7
}
Material {
	emissiveColor 0.5 0.5 0.5
	diffuseColor 0.5 0.5 0.5
}
Coordinate3 {
	point [
		0 0 0,
		21.6 0.0 0,
		43.1 0.0 0,
		64.7 0.0 0,
		86.2 0.0 0,
		107.8 0.0 0,
		129.3 0.0 0,
		150.9 0.0 0,
		172.5 0.0 0,
		194.0 0.0 0,
		215.6 0.0 0,
		237.1 0.0 0,
		258.7 0.0 0,
		280.2 0.0 0,
		301.8 0.0 0,
		323.4 0.0 0,
		344.9 0.0 0,
		366.5 0.0 0,
		388.0 0.0 0,
		409.6 0.0 0,
		431.1 0.0 0,
		431.1 21.6 0,
		431.1 43.1 0,
		431.1 64.7 0,
		431.1 86.2 0,
		431.1 107.8 0,
		431.1 129.3 0,
		431.1 150.9 0,
		431.1 172.5 0,
		431.1 194.0 0,
		431.1 215.6 0,
		431.1 237.1 0,
		431.1 258.7 0,
		431.1 280.2 0,
		431.1 301.8 0,
		431.1 323.4 0,
		431.1 344.9 0,
		431.1 366.5 0,
		431.1 388.0 0,
		431.1 409.6 0,
		431.1 431.1 0,
		409.6 431.1 0,
		388.0 431.1 0,
		366.5 431.1 0,
		344.9 431.1 0,
		323.4 431.1 0,
		301.8 431.1 0,
		280.2 431.1 0,
		258.7 431.1 0,
		237.1 431.1 0,
		215.6 431.1 0,
		194.0 431.1 0,
		172.5 431.1 0,
		150.9 431.1 0,
		129.3 431.1 0,
		107.8 431.1 0,
		86.2 431.1 0,
		64.7 431.1 0,
		43.1 431.1 0,
		21.6 431.1 0,
		0.0 431.1 0,
		0.0 409.6 0,
		0.0 388.0 0,
		0.0 366.5 0,
		0.0 344.9 0,
		0.0 323.4 0,
		0.0 301.8 0,
		0.0 280.2 0,
		0.0 258.7 0,
		0.0 237.1 0,
		0.0 215.6 0,
		0.0 194.0 0,
		0.0 172.5 0,
		0.0 150.9 0,
		0.0 129.3 0,
		0.0 107.8 0,
		0.0 86.2 0,
		0.0 64.7 0,
		0.0 43.1 0,
		0.0 21.6 0,
		0.0 0.0 0,
		0.0 0.0 21.6,
		0.0 0.0 43.1,
		0.0 0.0 64.7,
		0.0 0.0 86.2,
		0.0 0.0 107.8,
		0.0 0.0 129.3,
		0.0 0.0 150.9,
		0.0 0.0 172.5,
		0.0 0.0 194.0,
		0.0 0.0 215.6,
		0.0 0.0 237.1,
		0.0 0.0 258.7,
		0.0 0.0 280.2,
		0.0 0.0 301.8,
		431.1 0.0 21.6,
		431.1 0.0 43.1,
		431.1 0.0 64.7,
		431.1 0.0 86.2,
		431.1 0.0 107.8,
		431.1 0.0 129.3,
		431.1 0.0 150.9,
		431.1 0.0 172.5,
		431.1 0.0 194.0,
		431.1 0.0 215.6,
		431.1 0.0 237.1,
		431.1 0.0 258.7,
		431.1 0.0 280.2,
		431.1 0.0 301.8,
		0.0 431.1 21.6,
		0.0 431.1 43.1,
		0.0 431.1 64.7,
		0.0 431.1 86.2,
		0.0 431.1 107.8,
		0.0 431.1 129.3,
		0.0 431.1 150.9,
		0.0 431.1 172.5,
		0.0 431.1 194.0,
		0.0 431.1 215.6,
		0.0 431.1 237.1,
		0.0 431.1 258.7,
		0.0 431.1 280.2,
		0.0 431.1 301.8]
}
IndexedLineSet {
	coordIndex [
		0,60,-1,
		1,59,-1,
		2,58,-1,
		3,57,-1,
		4,56,-1,
		5,55,-1,
		6,54,-1,
		7,53,-1,
		8,52,-1,
		9,51,-1,
		10,50,-1,
		11,49,-1,
		12,48,-1,
		13,47,-1,
		14,46,-1,
		15,45,-1,
		16,44,-1,
		17,43,-1,
		18,42,-1,
		19,41,-1,
		20,40,-1,
		80,20,-1,
		79,21,-1,
		78,22,-1,
		77,23,-1,
		76,24,-1,
		75,25,-1,
		74,26,-1,
		73,27,-1,
		72,28,-1,
		71,29,-1,
		70,30,-1,
		69,31,-1,
		68,32,-1,
		67,33,-1,
		66,34,-1,
		65,35,-1,
		64,36,-1,
		63,37,-1,
		62,38,-1,
		61,39,-1,
		60,40,-1,
		80,94,-1,
		80,94,-1,
		20,108,-1,
		20,108,-1,
		60,122,-1,
		60,122,-1,
		81,95,-1,
		82,96,-1,
		83,97,-1,
		84,98,-1,
		85,99,-1,
		86,100,-1,
		87,101,-1,
		88,102,-1,
		89,103,-1,
		90,104,-1,
		91,105,-1,
		92,106,-1,
		93,107,-1,
		94,108,-1,
		81,109,-1,
		82,110,-1,
		83,111,-1,
		84,112,-1,
		85,113,-1,
		86,114,-1,
		87,115,-1,
		88,116,-1,
		89,117,-1,
		90,118,-1,
		91,119,-1,
		92,120,-1,
		93,121,-1,
		94,122]
}
