#VRML V1.0 ascii
# Ciag 1 Dna (Stare Dno)
DEF BackgroundColor Info {
	string "0.000 0.000 0.000"
}
# Vectors --
Coordinate3 {
	point [ 
		0.00 0.00 0.00,
		-5.02 -1.07 0.63,
		-10.42 -13.80 6.79,
		-13.75 -19.17 9.64,
		-11.19 -29.13 12.58,
		-16.00 -30.72 13.31,
		-14.65 -33.14 13.89,
		-16.59 -36.41 11.56,
		-14.50 -39.17 10.90,
		-16.65 -40.11 11.40,
		-15.20 -42.21 9.83,
		-16.82 -45.15 9.71,
		-18.52 -45.72 10.49,
		-20.99 -49.13 9.35,
		-26.74 -47.86 13.43,
		-32.18 -47.95 12.94,
		-35.25 -44.88 13.72,
		-35.76 -49.34 15.27,
		-34.38 -51.35 17.09,
		-36.16 -55.63 19.17,
		-39.11 -56.73 18.49,
		-41.21 -56.95 16.72,
		-40.10 -60.09 14.89,
		-40.04 -59.50 11.80,
		-35.37 -61.97 6.34,
		-33.00 -67.43 2.43,
		-32.45 -70.93 1.58,
		-29.36 -75.32 0.64,
		-30.21 -78.61 -4.35,
		-28.88 -80.85 -5.48,
		-30.70 -86.45 -8.37,
		-27.11 -85.71 -12.27,
		-27.62 -88.91 -14.25,
		-22.85 -90.71 -23.88,
		-17.89 -83.06 -21.60,
		-11.69 -76.86 -29.50,
		-9.45 -78.37 -29.59,
		-8.59 -83.27 -30.74,
		-3.69 -85.15 -32.97,
		0.52 -84.63 -35.42,
		0.94 -86.57 -35.66,
		9.80 -85.32 -39.65,
		17.77 -83.92 -45.53,
		25.04 -80.83 -45.80,
		28.14 -73.88 -51.14,
		30.88 -69.95 -64.29,
		40.02 -73.65 -70.21,
		44.23 -70.12 -70.50,
		49.12 -70.46 -78.05,
		59.94 -71.21 -87.82,
		67.28 -70.44 -98.76,
		68.87 -68.56 -101.91,
		69.11 -71.36 -105.04,
		73.20 -71.28 -110.09,
		73.20 -71.28 -111.59,
		79.55 -73.10 -116.94,
		86.47 -65.94 -117.81,
		88.00 -63.49 -118.06,
		96.36 -60.11 -119.33,
		96.36 -60.11 -121.33,
		102.17 -57.53 -124.71,
		111.41 -53.79 -125.41,
		118.90 -44.21 -126.47,
		123.21 -42.81 -129.76,
		127.19 -42.53 -137.26,
		120.90 -51.51 -136.31,
		118.88 -56.52 -136.31,
		125.29 -58.85 -143.62,
		130.27 -61.73 -149.18,
		128.88 -51.86 -144.93,
		130.53 -56.94 -148.26,
		34.24 -72.05 -68.53,
		37.33 -74.46 -73.21,
		44.10 -76.66 -79.18,
		43.98 -80.26 -79.18,
		50.01 -80.90 -83.92,
		30.29 -73.30 -64.29,
		26.11 -80.00 -61.42,
		24.84 -81.41 -62.04,
		24.12 -83.37 -62.72,
		20.11 -85.42 -62.72,
		-18.20 -89.89 -25.79,
		-16.87 -89.89 -27.91,
		-18.11 -85.57 -39.03,
		-10.17 -85.57 -54.63,
		-8.94 -84.26 -60.14,
		-4.98 -85.40 -60.94,
		-0.87 -85.40 -66.61,
		1.61 -85.09 -66.43,
		8.21 -85.09 -66.43,
		8.73 -86.71 -61.20,
		6.47 -87.86 -56.21,
		8.69 -84.43 -81.96,
		5.71 -84.07 -81.96,
		7.97 -81.55 -91.80,
		12.16 -76.91 -109.95,
		18.16 -76.91 -109.95,
		20.20 -75.96 -113.85,
		21.40 -74.94 -120.67,
		-35.25 -57.97 12.73,
		-27.73 -62.92 11.62,
		-23.16 -57.24 10.25,
		-18.57 -57.52 9.24,
		-18.33 -57.50 -0.76,
		-19.54 -53.93 -0.76,
		-14.72 -53.16 -2.54,
		-12.06 -51.09 -15.09,
		-22.21 -46.02 -0.76,
		-24.37 -43.61 0.70,
		-21.32 -41.96 0.70,
		-9.72 -35.70 -5.30,
		-5.22 -29.08 -9.66,
		-5.20 -29.08 -8.86,
		-3.69 -22.25 -11.95,
		-12.73 -29.54 -7.40,
		-14.58 -28.75 -5.46,
		-21.91 -25.64 -3.48,
		-28.61 -25.64 -3.48,
		-32.12 -28.19 8.46,
		-38.60 -26.33 11.75,
		-40.77 -29.43 13.59,
		-47.77 -26.74 19.89,
		-48.95 -29.50 21.48,
		-17.00 -22.85 -2.18,
		-12.47 -13.80 6.79,
		-43.79 -63.90 14.89,
		-49.38 -64.78 19.00,
		-55.81 -65.49 21.11,
		-59.23 -67.90 22.47,
		-62.35 -71.74 25.68,
		-59.12 -66.58 26.10,
		-56.62 -68.33 26.64,
		-51.14 -65.20 23.38,
		-46.78 -64.38 18.34,
		-50.29 -62.98 18.54,
		-51.35 -59.84 27.91,
		-48.49 -58.59 29.40,
		-48.53 -60.47 30.53,
		-51.49 -57.76 31.98,
		-51.87 -59.52 31.98,
		-58.59 -62.97 38.00,
		-58.78 -60.48 40.17,
		-65.77 -56.91 41.70,
		-69.40 -62.95 43.20,
		-75.01 -66.59 45.24,
		-76.74 -69.98 44.64,
		-79.95 -68.05 44.64,
		-83.26 -64.11 44.28,
		-84.14 -63.10 44.28,
		-87.57 -69.83 45.08,
		-88.91 -72.97 46.97,
		-90.30 -71.47 46.97,
		-91.73 -69.64 47.59,
		-95.58 -74.23 50.38,
		-60.09 -67.75 34.81,
		-58.88 -64.69 32.23,
		-66.46 -72.98 27.14,
		-69.28 -74.47 29.87,
		-69.28 -74.47 31.87,
		-71.76 -78.11 31.87,
		-78.12 -78.31 25.51,
		-78.12 -78.31 1.51,
		-36.40 -44.14 12.26,
		-23.08 -45.83 1.84,
		-3.44 3.32 3.22,
		-1.09 -0.69 -0.94,
		-1.46 -2.11 -1.81,
		-2.70 -5.12 -3.34]
}
Material {
	emissiveColor 0.000 1.000 1.000
	diffuseColor 0.000 1.000 1.000
}
IndexedLineSet {
	coordIndex [
		0,1,2,3,4,5,6,7,8,9,10,11,12,13,14,15,16,17,18,19,
		20,21,22,23,24,25,26,27,28,29,30,31,32,33,34,35,36,37,38,39,
		40,41,42,43,44,45,46,47,48,49,50,51,52,53,54,55,56,57,58,59,
		60,61,62,63,64,65,66,67,68,-1,66,69,70,-1,45,71,72,73,74,75,
		-1,45,76,77,78,79,80,-1,33,81,82,83,84,85,86,87,88,89,90,91,
		-1,89,92,93,94,95,96,97,98,-1,23,99,100,101,102,103,104,105,106,-1,
		104,107,108,109,110,111,112,113,114,115,116,117,118,119,120,121,122,-1,114,123,
		124,2,-1,22,125,126,127,128,129,130,131,132,133,134,135,136,137,138,139,140,
		141,142,143,144,145,146,147,148,149,150,151,152,153,-1,141,154,155,131,-1,128,
		156,157,158,159,160,161,-1,16,162,163,-1,0,164,-1,0,165,166,167]
}
# Grid --
Translation {
	translation -95.6 -156.8 -149.2
}
Material {
	emissiveColor 0.5 0.5 0.5
	diffuseColor 0.5 0.5 0.5
}
Coordinate3 {
	point [
		0 0 0,
		11.3 0.0 0,
		22.6 0.0 0,
		33.9 0.0 0,
		45.2 0.0 0,
		56.5 0.0 0,
		67.8 0.0 0,
		79.1 0.0 0,
		90.4 0.0 0,
		101.7 0.0 0,
		113.1 0.0 0,
		124.4 0.0 0,
		135.7 0.0 0,
		147.0 0.0 0,
		158.3 0.0 0,
		169.6 0.0 0,
		180.9 0.0 0,
		192.2 0.0 0,
		203.5 0.0 0,
		214.8 0.0 0,
		226.1 0.0 0,
		226.1 11.3 0,
		226.1 22.6 0,
		226.1 33.9 0,
		226.1 45.2 0,
		226.1 56.5 0,
		226.1 67.8 0,
		226.1 79.1 0,
		226.1 90.4 0,
		226.1 101.7 0,
		226.1 113.1 0,
		226.1 124.4 0,
		226.1 135.7 0,
		226.1 147.0 0,
		226.1 158.3 0,
		226.1 169.6 0,
		226.1 180.9 0,
		226.1 192.2 0,
		226.1 203.5 0,
		226.1 214.8 0,
		226.1 226.1 0,
		214.8 226.1 0,
		203.5 226.1 0,
		192.2 226.1 0,
		180.9 226.1 0,
		169.6 226.1 0,
		158.3 226.1 0,
		147.0 226.1 0,
		135.7 226.1 0,
		124.4 226.1 0,
		113.1 226.1 0,
		101.7 226.1 0,
		90.4 226.1 0,
		79.1 226.1 0,
		67.8 226.1 0,
		56.5 226.1 0,
		45.2 226.1 0,
		33.9 226.1 0,
		22.6 226.1 0,
		11.3 226.1 0,
		-0.0 226.1 0,
		0.0 214.8 0,
		0.0 203.5 0,
		0.0 192.2 0,
		0.0 180.9 0,
		0.0 169.6 0,
		0.0 158.3 0,
		0.0 147.0 0,
		0.0 135.7 0,
		0.0 124.4 0,
		0.0 113.1 0,
		0.0 101.7 0,
		0.0 90.4 0,
		0.0 79.1 0,
		0.0 67.8 0,
		0.0 56.5 0,
		0.0 45.2 0,
		0.0 33.9 0,
		0.0 22.6 0,
		0.0 11.3 0,
		0.0 -0.0 0,
		0.0 0.0 11.3,
		0.0 0.0 22.6,
		0.0 0.0 33.9,
		0.0 0.0 45.2,
		0.0 0.0 56.5,
		0.0 0.0 67.8,
		0.0 0.0 79.1,
		0.0 0.0 90.4,
		0.0 0.0 101.7,
		0.0 0.0 113.1,
		0.0 0.0 124.4,
		0.0 0.0 135.7,
		0.0 0.0 147.0,
		0.0 0.0 158.3,
		0.0 0.0 169.6,
		0.0 0.0 180.9,
		0.0 0.0 192.2,
		0.0 0.0 203.5,
		226.1 0.0 11.3,
		226.1 0.0 22.6,
		226.1 0.0 33.9,
		226.1 0.0 45.2,
		226.1 0.0 56.5,
		226.1 0.0 67.8,
		226.1 0.0 79.1,
		226.1 0.0 90.4,
		226.1 0.0 101.7,
		226.1 0.0 113.1,
		226.1 0.0 124.4,
		226.1 0.0 135.7,
		226.1 0.0 147.0,
		226.1 0.0 158.3,
		226.1 0.0 169.6,
		226.1 0.0 180.9,
		226.1 0.0 192.2,
		226.1 0.0 203.5,
		0.0 226.1 11.3,
		0.0 226.1 22.6,
		0.0 226.1 33.9,
		0.0 226.1 45.2,
		0.0 226.1 56.5,
		0.0 226.1 67.8,
		0.0 226.1 79.1,
		0.0 226.1 90.4,
		0.0 226.1 101.7,
		0.0 226.1 113.1,
		0.0 226.1 124.4,
		0.0 226.1 135.7,
		0.0 226.1 147.0,
		0.0 226.1 158.3,
		0.0 226.1 169.6,
		0.0 226.1 180.9,
		0.0 226.1 192.2,
		0.0 226.1 203.5]
}
IndexedLineSet {
	coordIndex [
		0,60,-1,
		1,59,-1,
		2,58,-1,
		3,57,-1,
		4,56,-1,
		5,55,-1,
		6,54,-1,
		7,53,-1,
		8,52,-1,
		9,51,-1,
		10,50,-1,
		11,49,-1,
		12,48,-1,
		13,47,-1,
		14,46,-1,
		15,45,-1,
		16,44,-1,
		17,43,-1,
		18,42,-1,
		19,41,-1,
		20,40,-1,
		80,20,-1,
		79,21,-1,
		78,22,-1,
		77,23,-1,
		76,24,-1,
		75,25,-1,
		74,26,-1,
		73,27,-1,
		72,28,-1,
		71,29,-1,
		70,30,-1,
		69,31,-1,
		68,32,-1,
		67,33,-1,
		66,34,-1,
		65,35,-1,
		64,36,-1,
		63,37,-1,
		62,38,-1,
		61,39,-1,
		60,40,-1,
		80,98,-1,
		80,98,-1,
		20,116,-1,
		20,116,-1,
		60,134,-1,
		60,134,-1,
		81,99,-1,
		82,100,-1,
		83,101,-1,
		84,102,-1,
		85,103,-1,
		86,104,-1,
		87,105,-1,
		88,106,-1,
		89,107,-1,
		90,108,-1,
		91,109,-1,
		92,110,-1,
		93,111,-1,
		94,112,-1,
		95,113,-1,
		96,114,-1,
		97,115,-1,
		98,116,-1,
		81,117,-1,
		82,118,-1,
		83,119,-1,
		84,120,-1,
		85,121,-1,
		86,122,-1,
		87,123,-1,
		88,124,-1,
		89,125,-1,
		90,126,-1,
		91,127,-1,
		92,128,-1,
		93,129,-1,
		94,130,-1,
		95,131,-1,
		96,132,-1,
		97,133,-1,
		98,134]
}
