#VRML V1.0 ascii
# Bandzioch Kominiarski Project
DEF BackgroundColor Info {
	string "0.000 0.000 0.000"
}
# Vectors --
Coordinate3 {
	point [ 
		0.00 0.00 1456.30,
		-2.27 -6.34 1447.34,
		-8.44 -9.24 1445.36,
		-10.08 -8.30 1446.48,
		-12.25 -0.85 1452.12,
		-5.27 -17.27 1444.22,
		-8.40 -22.44 1436.51,
		-10.49 -21.58 1435.40,
		-10.54 -25.14 1432.52,
		-13.86 -28.47 1427.61,
		-15.16 -34.11 1427.51,
		-15.05 -35.75 1422.73,
		-15.90 -40.62 1419.13,
		-12.84 -36.92 1419.13,
		-10.09 -37.27 1413.69,
		-6.80 -33.28 1415.84,
		-7.04 -31.36 1418.99,
		-10.09 -37.27 1404.49,
		-8.01 -35.55 1404.49,
		-8.01 -35.55 1400.49,
		-10.76 -41.50 1407.61,
		-10.76 -41.50 1396.11,
		-16.43 -39.16 1393.68,
		-21.60 -46.77 1398.74,
		-22.59 -48.62 1414.89,
		-30.54 -49.18 1421.06,
		-36.46 -52.33 1421.04,
		-39.59 -56.07 1419.86,
		-44.85 -52.20 1425.31,
		-41.41 -55.52 1422.09,
		-46.43 -56.58 1422.72,
		-51.84 -69.32 1428.88,
		-55.16 -74.68 1431.73,
		-52.60 -84.64 1434.67,
		-57.41 -86.24 1435.39,
		-56.06 -88.65 1435.98,
		-58.01 -91.93 1433.65,
		-55.92 -94.69 1432.98,
		-58.06 -95.62 1433.49,
		-56.62 -97.73 1431.92,
		-58.24 -100.67 1431.80,
		-59.94 -101.23 1432.58,
		-62.41 -104.65 1431.43,
		-68.15 -103.38 1435.52,
		-73.60 -103.47 1435.03,
		-76.66 -100.39 1435.80,
		-77.18 -104.85 1437.36,
		-75.79 -106.87 1439.17,
		-77.57 -111.15 1441.26,
		-80.53 -112.24 1440.57,
		-82.63 -112.47 1438.81,
		-81.51 -115.61 1436.98,
		-81.46 -115.01 1433.88,
		-76.78 -117.49 1428.43,
		-74.42 -122.95 1424.52,
		-73.86 -126.44 1423.67,
		-70.78 -130.84 1422.73,
		-71.62 -134.13 1417.74,
		-70.30 -136.37 1416.61,
		-72.12 -141.97 1413.72,
		-68.53 -141.23 1409.82,
		-69.04 -144.43 1407.84,
		-64.27 -146.23 1398.21,
		-59.30 -138.58 1400.49,
		-53.10 -132.38 1392.59,
		-50.86 -133.89 1392.50,
		-50.00 -138.78 1391.35,
		-45.10 -140.66 1389.12,
		-40.89 -140.15 1386.67,
		-40.48 -142.09 1386.43,
		-31.61 -140.84 1382.44,
		-23.65 -139.44 1376.56,
		-16.38 -136.35 1376.29,
		-13.28 -129.39 1370.95,
		-10.53 -125.47 1357.80,
		-1.39 -129.16 1351.87,
		2.70 -125.48 1353.35,
		8.63 -126.31 1354.95,
		11.36 -118.81 1357.55,
		16.49 -114.50 1357.90,
		18.71 -114.07 1356.84,
		20.41 -111.13 1356.79,
		19.42 -107.44 1359.17,
		23.29 -109.16 1354.64,
		23.79 -112.37 1351.38,
		32.88 -106.01 1349.23,
		35.34 -104.41 1349.85,
		37.67 -92.44 1349.85,
		39.53 -85.94 1348.04,
		45.61 -85.19 1345.57,
		46.78 -83.98 1345.74,
		46.78 -81.98 1345.74,
		49.61 -79.69 1340.36,
		51.87 -85.58 1338.78,
		53.55 -84.79 1333.08,
		58.07 -82.59 1328.21,
		65.74 -88.16 1322.06,
		67.11 -85.08 1321.59,
		76.15 -80.47 1316.85,
		77.49 -78.99 1316.85,
		83.60 -81.70 1317.32,
		86.35 -83.17 1319.12,
		90.48 -80.78 1311.49,
		95.66 -80.78 1310.39,
		100.85 -82.67 1311.36,
		104.00 -84.49 1313.46,
		104.90 -86.72 1316.13,
		114.85 -90.34 1316.69,
		120.33 -92.56 1317.73,
		121.82 -94.69 1322.23,
		123.78 -95.60 1323.48,
		122.49 -97.13 1323.48,
		126.18 -103.04 1318.61,
		124.27 -104.64 1318.61,
		122.67 -107.41 1318.50,
		124.99 -112.63 1315.83,
		123.15 -114.47 1315.83,
		125.36 -117.99 1313.43,
		129.62 -116.85 1311.09,
		131.54 -114.93 1309.82,
		134.62 -114.93 1308.38,
		133.72 -120.04 1306.28,
		139.18 -120.04 1303.13,
		143.12 -126.87 1301.75,
		149.68 -129.93 1299.80,
		161.56 -129.93 1289.84,
		169.69 -126.96 1284.84,
		170.39 -118.99 1274.60,
		172.24 -116.35 1273.91,
		174.28 -112.33 1273.91,
		179.50 -102.88 1273.91,
		185.68 -99.85 1271.40,
		193.89 -98.39 1268.04,
		197.80 -98.24 1266.45,
		202.16 -99.16 1263.22,
		199.19 -97.44 1266.14,
		201.08 -93.36 1267.02,
		202.73 -91.31 1266.88,
		203.26 -90.22 1266.03,
		201.11 -88.77 1265.80,
		201.50 -89.37 1263.94,
		207.07 -92.84 1263.82,
		212.62 -93.12 1264.31,
		217.87 -92.93 1266.12,
		220.75 -92.72 1265.23,
		224.37 -87.13 1267.40,
		229.91 -84.30 1264.49,
		234.76 -79.08 1264.87,
		238.54 -78.54 1259.79,
		240.11 -79.02 1259.09,
		238.92 -75.14 1258.15,
		243.89 -71.24 1258.82,
		243.52 -64.42 1266.40,
		222.45 -102.27 1273.40,
		231.19 -106.33 1273.91,
		231.19 -106.33 1272.41,
		235.00 -102.63 1275.00,
		231.76 -99.04 1283.73,
		232.08 -103.71 1270.08,
		229.59 -101.69 1268.15,
		219.26 -105.70 1278.60,
		198.08 -89.59 1263.17,
		196.12 -85.00 1260.18,
		191.47 -82.32 1257.20,
		186.92 -77.63 1254.69,
		185.58 -73.52 1253.20,
		181.63 -71.94 1250.65,
		179.96 -68.81 1250.46,
		177.53 -66.91 1249.34,
		178.15 -63.36 1248.51,
		176.41 -60.69 1248.23,
		177.30 -58.24 1247.63,
		174.54 -55.98 1246.87,
		171.05 -55.63 1248.10,
		162.70 -54.09 1249.60,
		153.88 -55.62 1251.86,
		152.06 -57.70 1250.88,
		153.06 -61.51 1250.42,
		143.58 -63.22 1254.73,
		142.90 -63.84 1253.02,
		136.37 -64.56 1253.34,
		135.73 -64.77 1255.22,
		132.51 -64.35 1253.81,
		129.78 -64.15 1253.01,
		128.10 -65.74 1254.24,
		126.60 -62.07 1254.96,
		121.37 -61.27 1263.49,
		115.31 -54.21 1272.16,
		109.56 -59.05 1273.38,
		106.48 -60.17 1274.45,
		100.61 -62.84 1275.47,
		97.64 -68.40 1275.03,
		93.06 -74.41 1274.71,
		86.63 -79.78 1274.97,
		81.62 -80.97 1274.88,
		83.13 -81.17 1272.99,
		76.80 -82.77 1276.79,
		75.97 -85.34 1276.11,
		126.22 -67.76 1253.76,
		120.95 -70.75 1257.95,
		120.61 -69.27 1258.72,
		116.89 -70.46 1261.07,
		107.98 -71.72 1261.33,
		106.75 -72.33 1260.44,
		104.06 -71.02 1260.90,
		102.90 -71.95 1261.47,
		101.52 -70.28 1262.99,
		103.40 -71.94 1263.03,
		101.98 -71.13 1266.10,
		100.35 -69.01 1268.39,
		98.99 -70.17 1270.91,
		97.59 -68.86 1272.13,
		95.56 -69.22 1273.67,
		94.96 -69.80 1276.67,
		98.51 -72.42 1264.02,
		90.56 -76.63 1267.66,
		85.90 -80.17 1270.83,
		58.61 -87.59 1349.06,
		42.69 -88.81 1344.73,
		42.69 -83.16 1346.76,
		44.95 -81.04 1342.34,
		43.73 -77.65 1342.34,
		40.72 -73.64 1344.06,
		35.56 -70.91 1348.44,
		36.72 -63.59 1349.62,
		32.89 -70.91 1351.68,
		2.81 -125.63 1351.59,
		7.70 -125.97 1344.04,
		18.53 -126.73 1334.27,
		25.87 -125.96 1323.33,
		27.45 -124.07 1320.17,
		27.70 -126.87 1317.05,
		31.79 -126.80 1312.00,
		31.79 -126.80 1310.50,
		38.14 -128.62 1305.15,
		45.06 -121.46 1304.28,
		46.59 -119.01 1304.03,
		54.94 -115.63 1302.76,
		54.94 -115.63 1300.76,
		60.75 -113.04 1297.38,
		70.00 -109.31 1296.68,
		77.48 -99.73 1295.62,
		81.79 -98.33 1292.33,
		85.77 -98.05 1284.82,
		79.49 -107.03 1285.78,
		77.46 -112.04 1285.78,
		83.87 -114.37 1278.47,
		88.86 -117.25 1272.91,
		87.46 -107.37 1277.16,
		89.11 -112.45 1273.83,
		-7.18 -127.57 1353.56,
		-4.09 -129.98 1348.88,
		2.69 -132.18 1342.91,
		2.56 -135.78 1342.91,
		8.60 -136.41 1338.16,
		-11.12 -128.82 1357.80,
		-15.31 -135.51 1360.67,
		-16.58 -136.93 1360.05,
		-17.29 -138.89 1359.37,
		-21.30 -140.94 1359.37,
		-59.61 -145.41 1396.30,
		-58.29 -145.41 1394.18,
		-59.53 -141.09 1383.05,
		-51.58 -141.09 1367.46,
		-50.36 -139.78 1361.95,
		-46.40 -140.91 1361.14,
		-42.28 -140.91 1355.48,
		-39.81 -140.61 1355.66,
		-33.21 -140.61 1355.66,
		-32.68 -142.23 1360.89,
		-34.95 -143.38 1365.88,
		-32.73 -139.95 1340.13,
		-35.71 -139.59 1340.13,
		-33.44 -137.07 1330.29,
		-29.26 -132.42 1312.14,
		-23.26 -132.42 1312.14,
		-21.22 -131.47 1308.24,
		-20.01 -130.46 1301.42,
		-76.67 -113.49 1434.82,
		-69.15 -118.44 1433.70,
		-64.58 -112.76 1432.34,
		-59.99 -113.04 1431.33,
		-59.75 -113.02 1421.33,
		-60.96 -109.44 1421.33,
		-56.13 -108.68 1419.55,
		-53.48 -106.61 1406.99,
		-63.63 -101.54 1421.33,
		-65.79 -99.13 1422.79,
		-62.73 -97.47 1422.79,
		-51.13 -91.21 1416.79,
		-46.63 -84.60 1412.43,
		-46.61 -84.60 1413.23,
		-45.11 -77.77 1410.13,
		-54.14 -85.05 1414.68,
		-56.00 -84.27 1416.63,
		-63.32 -81.16 1418.61,
		-70.02 -81.16 1418.61,
		-73.54 -83.71 1430.55,
		-80.02 -81.85 1433.84,
		-82.18 -84.94 1435.68,
		-89.19 -82.25 1441.98,
		-90.36 -85.02 1443.57,
		-58.42 -78.36 1419.91,
		-53.89 -69.32 1428.88,
		-85.20 -119.41 1436.98,
		-90.79 -120.30 1441.09,
		-97.22 -121.01 1443.19,
		-100.65 -123.41 1444.55,
		-103.76 -127.26 1447.77,
		-100.54 -122.10 1448.19,
		-98.04 -123.85 1448.73,
		-92.55 -120.71 1445.47,
		-88.19 -119.90 1440.43,
		-91.70 -118.50 1440.63,
		-92.76 -115.36 1450.00,
		-89.91 -114.11 1451.49,
		-89.94 -115.99 1452.62,
		-92.90 -113.28 1454.07,
		-93.28 -115.04 1454.07,
		-100.00 -118.49 1460.09,
		-100.19 -115.99 1462.26,
		-107.19 -112.43 1463.79,
		-110.81 -118.46 1465.29,
		-116.43 -122.11 1467.33,
		-118.15 -125.50 1466.73,
		-121.37 -123.57 1466.73,
		-124.67 -119.63 1466.37,
		-125.56 -118.61 1466.37,
		-128.99 -125.35 1467.16,
		-130.32 -128.49 1469.06,
		-131.72 -126.99 1469.06,
		-133.15 -125.16 1469.68,
		-136.99 -129.74 1472.47,
		-101.51 -123.27 1456.90,
		-100.29 -120.21 1454.32,
		-107.88 -128.50 1449.23,
		-110.70 -129.99 1451.96,
		-110.70 -129.99 1453.96,
		-113.17 -133.63 1453.96,
		-119.53 -133.83 1447.60,
		-119.53 -133.83 1423.60,
		-77.82 -99.66 1434.35,
		-64.49 -101.34 1423.93,
		-42.51 -56.21 1421.15,
		-42.87 -57.63 1420.28,
		-44.12 -60.64 1418.75,
		-49.44 -54.95 1428.75,
		-48.39 -61.02 1434.72,
		-54.82 -62.61 1440.23,
		-57.67 -61.49 1441.45,
		-56.44 -62.09 1442.06,
		-54.38 -54.41 1444.04,
		-58.97 -54.74 1448.35,
		-61.06 -63.22 1443.06,
		-62.47 -65.02 1445.07,
		-64.78 -64.04 1446.63,
		-66.45 -64.62 1450.37,
		-68.02 -57.83 1455.07,
		-64.97 -60.33 1451.93,
		-65.26 -63.11 1448.93,
		-67.41 -53.98 1458.28,
		-62.85 -53.98 1461.35,
		-60.44 -48.31 1464.22,
		-60.44 -48.31 1455.62,
		-61.25 -51.31 1453.45,
		-68.48 -47.89 1464.25,
		-69.43 -66.17 1451.07,
		-73.68 -68.41 1456.47,
		-74.60 -63.63 1462.45,
		-74.64 -63.16 1462.28,
		-75.67 -62.42 1465.29,
		-75.67 -62.43 1464.17,
		-77.40 -60.96 1466.78,
		-77.28 -59.47 1468.16,
		-77.70 -60.37 1468.05,
		-77.02 -58.26 1472.58,
		-77.28 -54.96 1474.01,
		-77.28 -54.96 1472.31,
		-75.97 -53.04 1473.23,
		-76.29 -49.67 1474.10,
		-74.23 -48.93 1472.52,
		-72.77 -46.91 1471.79,
		-68.50 -45.67 1464.54,
		-74.64 -48.14 1473.73,
		-74.18 -40.93 1479.90,
		-72.10 -49.98 1479.42,
		-73.82 -50.06 1480.80,
		-73.27 -50.24 1481.62,
		-74.60 -50.41 1482.96,
		-75.38 -51.63 1483.64,
		-75.23 -53.53 1483.64,
		-77.93 -56.99 1477.04,
		-77.93 -58.44 1472.99,
		-79.99 -56.04 1472.49,
		-81.78 -56.18 1472.49,
		-82.44 -53.76 1474.64,
		-82.44 -50.50 1476.17,
		-82.84 -47.98 1478.56,
		-81.73 -43.66 1481.02,
		-84.26 -41.13 1484.07,
		-84.95 -36.77 1487.84,
		-87.68 -38.17 1489.53,
		-77.58 -61.28 1476.34,
		-77.58 -64.68 1481.88,
		-77.74 -65.95 1489.98,
		-77.74 -68.18 1490.71,
		-77.74 -67.06 1493.10,
		-76.17 -68.62 1494.46,
		-70.35 -69.36 1500.33,
		-77.99 -63.96 1469.96,
		-78.45 -65.39 1467.20,
		-78.04 -68.01 1464.14,
		-77.42 -69.58 1461.44,
		-80.99 -71.77 1461.64,
		-81.73 -73.09 1462.32,
		-77.77 -74.24 1468.73,
		-75.91 -75.67 1472.11,
		-66.84 -90.41 1529.73,
		-61.06 -92.26 1539.79,
		-60.16 -91.73 1541.85,
		-61.04 -89.43 1542.01,
		-58.87 -86.11 1540.67,
		-59.07 -85.45 1539.19,
		-59.39 -82.83 1538.02,
		-63.21 -78.79 1530.79,
		-67.91 -78.05 1527.30,
		-69.65 -78.64 1525.73,
		-68.99 -79.64 1522.93,
		-68.89 -79.00 1518.73,
		-68.06 -81.18 1516.78,
		-70.76 -79.14 1513.65,
		-68.76 -81.60 1509.76,
		-69.99 -82.20 1508.04,
		-67.02 -81.83 1510.22,
		-61.81 -79.76 1512.86,
		-59.63 -81.94 1511.41,
		-58.17 -82.57 1508.29,
		-59.38 -82.07 1505.15,
		-58.48 -84.24 1503.81,
		-59.10 -88.19 1503.81,
		-69.50 -77.23 1506.86,
		-71.03 -75.41 1506.29,
		-74.43 -76.41 1501.81,
		-75.15 -76.75 1501.26,
		-76.06 -76.71 1492.92,
		-76.42 -77.67 1490.74,
		-79.60 -77.86 1480.12,
		-78.88 -73.34 1472.75,
		-79.84 -72.61 1469.18,
		-79.21 -73.64 1469.18,
		-81.46 -87.81 1472.39,
		-81.70 -90.89 1470.35,
		-82.12 -72.79 1462.41,
		-68.08 -73.40 1509.02,
		-70.59 -74.10 1513.71,
		-71.83 -73.68 1513.94,
		-77.13 -76.03 1516.91,
		-80.09 -76.83 1517.02,
		-82.94 -78.63 1516.69,
		-86.14 -78.40 1520.10,
		-92.08 -78.47 1524.58,
		-91.91 -80.81 1523.80,
		-97.28 -82.42 1517.78,
		-97.23 -82.42 1518.51,
		-97.93 -78.30 1518.25,
		-98.28 -75.91 1518.15,
		-97.34 -76.06 1497.30,
		-97.85 -67.58 1488.15,
		-97.81 -65.86 1475.74,
		-105.78 -64.16 1482.54,
		-110.82 -64.24 1488.21,
		-112.80 -61.41 1492.22,
		-116.66 -61.21 1495.01,
		-117.73 -58.47 1495.88,
		-123.42 -56.65 1500.95,
		-123.36 -59.44 1500.56,
		-125.40 -60.61 1500.87,
		-128.86 -57.61 1503.17,
		-130.93 -57.16 1503.62,
		-132.69 -57.24 1505.07,
		-135.55 -55.22 1505.48,
		-136.02 -50.15 1506.83,
		-141.65 -48.94 1511.07,
		-150.16 -60.09 1513.75,
		-151.56 -65.53 1512.12,
		-152.53 -67.76 1511.89,
		-153.17 -70.27 1513.42,
		-144.47 -66.98 1506.36,
		-162.00 -50.46 1524.84,
		-164.18 -45.71 1529.37,
		-173.39 -40.17 1535.85,
		-175.44 -34.05 1537.45,
		-179.40 -26.26 1542.62,
		-132.73 -52.13 1503.80,
		-131.28 -56.56 1492.49,
		-131.40 -54.26 1494.47,
		-133.94 -58.66 1491.70,
		-136.62 -59.64 1487.26,
		-137.37 -60.82 1487.26,
		-139.05 -60.03 1485.82,
		-146.61 -60.03 1487.76,
		-137.31 -53.45 1483.73,
		-143.77 -51.48 1485.20,
		-149.09 -49.26 1487.81,
		-152.72 -42.14 1488.06,
		-150.50 -41.34 1485.47,
		-148.86 -40.26 1482.94,
		-148.86 -40.26 1479.24,
		-148.74 -39.94 1468.25,
		-154.97 -43.39 1489.85,
		-158.83 -43.05 1494.68,
		-167.90 -44.78 1496.44,
		-170.66 -44.78 1503.41,
		-173.86 -44.38 1509.51,
		-168.87 -39.58 1489.56,
		-162.79 -42.44 1487.95,
		-158.89 -38.89 1479.92,
		-154.83 -41.94 1472.45,
		-152.61 -39.09 1469.90,
		-151.76 -40.63 1468.03,
		-148.02 -39.91 1466.79,
		-145.50 -41.86 1466.24,
		-140.09 -42.81 1462.87,
		-140.73 -44.12 1460.00,
		-138.06 -43.91 1460.96,
		-135.83 -47.19 1461.65,
		-130.58 -48.02 1454.09,
		-129.37 -49.47 1451.21,
		-131.15 -52.18 1449.30,
		-129.85 -53.79 1445.40,
		-128.77 -57.10 1433.26,
		-129.65 -59.08 1422.13,
		-128.35 -60.25 1416.01,
		-126.68 -61.55 1420.16,
		-131.90 -58.50 1415.47,
		-135.90 -56.25 1415.60,
		-137.64 -55.62 1415.01,
		-139.21 -51.80 1401.51,
		-140.56 -49.60 1400.16,
		-139.84 -46.73 1393.62,
		-137.75 -49.01 1393.27,
		-134.23 -48.64 1386.80,
		-131.37 -49.68 1386.35,
		-130.50 -48.15 1385.06,
		-127.76 -46.95 1380.74,
		-123.87 -50.14 1372.56,
		-120.76 -48.64 1371.21,
		-116.57 -49.99 1365.16,
		-107.36 -49.03 1357.11,
		-100.49 -47.44 1346.24,
		-91.94 -49.73 1342.67,
		-87.52 -51.42 1342.25,
		-85.84 -52.01 1341.60,
		-77.31 -50.35 1335.29,
		-73.68 -50.99 1334.37,
		-70.76 -49.09 1329.41,
		-68.71 -46.17 1322.70,
		-69.88 -42.96 1319.62,
		-65.82 -42.02 1315.30,
		-65.68 -33.80 1305.50,
		-66.07 -32.60 1303.44,
		-65.21 -29.25 1302.90,
		-62.79 -27.18 1302.49,
		-61.68 -24.24 1299.63,
		-57.55 -20.72 1295.00,
		-56.54 -21.26 1294.08,
		-56.09 -19.73 1292.92,
		-54.28 -20.41 1291.90,
		-53.48 -18.69 1291.84,
		-52.04 -19.77 1291.90,
		-50.35 -19.59 1291.79,
		-49.32 -14.60 1287.84,
		-47.98 -13.13 1286.90,
		-46.67 -14.25 1286.82,
		-45.93 -15.83 1286.66,
		-44.57 -15.19 1286.59,
		-45.97 -15.64 1284.57,
		-44.00 -14.72 1283.82,
		-44.11 -13.33 1283.93,
		-41.81 -11.03 1282.27,
		-42.69 -13.36 1281.10,
		-41.14 -13.73 1280.95,
		-36.22 -13.35 1275.17,
		-35.74 -9.52 1273.78,
		-31.37 -7.12 1270.27,
		-30.33 -3.93 1267.12,
		-28.21 -4.84 1266.17,
		-21.45 -3.22 1262.63,
		-17.55 -4.98 1261.60,
		-14.36 -3.66 1259.90,
		-15.29 -1.83 1261.66,
		-13.39 -1.40 1259.38,
		-13.00 0.12 1258.51,
		-10.98 -0.13 1255.30,
		-8.45 1.96 1254.94,
		-6.62 0.44 1253.82,
		0.10 -7.56 1254.18,
		6.33 -7.01 1250.72,
		9.69 -2.38 1245.56,
		12.16 -3.19 1245.38,
		13.79 -2.20 1246.48,
		15.74 -0.26 1243.31,
		27.21 -2.90 1242.49,
		-3.01 1.80 1252.57,
		0.48 3.06 1248.86,
		3.08 8.58 1247.49,
		4.51 9.46 1245.92,
		4.51 9.46 1242.27,
		8.02 9.68 1241.12,
		10.04 11.35 1239.28,
		13.12 10.86 1238.59,
		12.61 12.41 1237.97,
		14.62 13.60 1237.41,
		17.90 16.40 1232.81,
		18.68 19.45 1231.39,
		19.33 20.40 1229.29,
		28.89 21.61 1224.76,
		30.02 22.38 1224.01,
		34.32 25.71 1223.75,
		36.05 27.29 1223.53,
		38.00 28.48 1222.67,
		42.11 30.26 1220.02,
		44.95 32.84 1215.94,
		46.88 32.66 1215.27,
		50.90 36.68 1214.83,
		54.75 37.10 1213.22,
		55.76 38.69 1214.37,
		57.30 38.32 1213.62,
		59.57 38.50 1212.37,
		60.32 39.60 1211.94,
		61.70 38.90 1211.84,
		66.15 41.16 1209.09,
		66.15 41.16 1205.34,
		66.34 43.08 1202.86,
		65.68 39.92 1200.50,
		69.06 36.31 1209.49,
		70.99 36.71 1208.62,
		72.95 36.71 1207.70,
		74.96 33.55 1199.74,
		79.94 38.23 1196.52,
		76.65 41.73 1196.52,
		76.92 45.95 1196.12,
		79.84 49.26 1195.28,
		83.10 51.96 1193.12,
		91.29 57.91 1187.56,
		92.77 57.91 1187.03,
		95.66 58.75 1185.24,
		97.85 60.35 1183.28,
		75.25 35.49 1206.20,
		77.74 36.61 1204.49,
		82.40 34.53 1202.43,
		82.91 32.97 1201.83,
		84.06 32.00 1201.83,
		85.94 30.53 1202.47,
		92.00 27.45 1202.47,
		94.15 24.13 1203.53,
		94.53 19.78 1207.20,
		98.62 16.22 1208.96,
		96.82 5.97 1218.33,
		94.50 7.54 1218.33,
		98.62 4.54 1218.33,
		102.21 36.64 1193.89,
		103.25 38.88 1189.43,
		105.24 38.60 1185.80,
		109.19 41.47 1183.73,
		113.29 40.60 1183.51,
		120.75 45.82 1176.65,
		121.83 53.52 1170.57,
		120.79 54.60 1170.44,
		123.54 59.55 1170.44,
		126.21 63.23 1168.60,
		125.39 65.50 1172.63,
		127.38 68.36 1173.00,
		130.50 70.31 1170.87,
		134.17 76.41 1175.32,
		138.03 82.13 1177.70,
		140.57 85.51 1178.52,
		142.73 87.19 1177.07,
		126.21 63.23 1163.25,
		132.28 66.59 1159.57,
		135.62 71.19 1154.08,
		143.75 79.32 1145.09,
		150.09 88.05 1136.97,
		-121.86 -53.92 1384.14,
		-119.48 -53.63 1388.43,
		-119.27 -57.20 1397.85,
		-120.30 -60.99 1403.76,
		-138.31 -43.77 1391.56,
		-137.61 -41.34 1391.25,
		-140.96 -36.56 1376.80,
		-147.21 -36.89 1375.81,
		-159.21 -29.96 1374.36,
		-154.83 -26.78 1367.67,
		-154.83 -26.78 1366.47,
		-133.12 -54.79 1400.00,
		-129.33 -52.54 1390.25,
		-126.74 -51.79 1390.42,
		-124.12 -53.24 1390.42,
		-173.72 -36.86 1497.75,
		-176.51 -37.76 1499.53,
		-176.51 -35.91 1499.56,
		-179.16 -35.99 1499.64,
		-181.26 -37.15 1497.53,
		-182.87 -36.74 1497.16,
		-182.52 -38.29 1497.31,
		-184.02 -40.23 1500.27,
		-183.33 -44.64 1503.31,
		-181.20 -45.33 1506.00,
		-178.04 -44.30 1505.58,
		-177.00 -35.42 1500.48,
		-177.42 -36.78 1504.86,
		-179.23 -35.88 1509.71,
		-181.87 -38.64 1513.51,
		-182.86 -36.57 1516.11,
		-185.02 -38.13 1519.31,
		-187.00 -42.07 1520.08,
		-186.48 -46.01 1519.53,
		-189.66 -52.47 1523.63,
		-203.35 -55.80 1536.55,
		-206.23 -55.37 1538.97,
		-199.09 -51.98 1533.49,
		-205.24 -47.84 1538.35,
		-207.16 -46.78 1539.89,
		-211.02 -48.14 1543.86,
		-213.41 -53.59 1546.03,
		-216.03 -58.47 1546.84,
		-213.72 -61.75 1546.53,
		-212.90 -68.10 1545.72,
		-213.55 -73.16 1546.59,
		-214.86 -79.45 1548.00,
		-217.87 -82.46 1548.68,
		-219.22 -83.30 1550.99,
		-224.38 -93.36 1560.16,
		-231.19 -94.90 1562.59,
		-230.39 -95.54 1561.71,
		-232.58 -97.67 1556.73,
		-231.79 -98.37 1555.63,
		-227.68 -104.02 1549.08,
		-224.86 -106.35 1545.41,
		-223.75 -109.76 1544.49,
		-217.53 -112.45 1540.34,
		-217.83 -115.53 1539.00,
		-222.40 -115.53 1541.90,
		-231.47 -98.82 1563.09,
		-234.15 -102.51 1563.81,
		-236.81 -103.93 1564.45,
		-236.33 -106.00 1563.92,
		-238.26 -107.29 1564.42,
		-241.23 -108.87 1564.42,
		-237.41 -98.31 1561.22,
		-238.45 -95.22 1563.58,
		-240.06 -94.28 1567.63,
		-243.06 -92.63 1568.57,
		-248.82 -93.18 1571.24,
		-251.92 -96.08 1573.87,
		-254.19 -96.63 1577.22,
		-257.75 -98.11 1578.30,
		-255.55 -97.44 1577.83,
		-258.07 -91.19 1579.14,
		-266.70 -82.56 1590.13,
		-276.01 -76.28 1598.90,
		-275.47 -74.51 1599.80,
		-277.72 -71.82 1603.57,
		-279.23 -69.89 1604.66,
		-285.14 -65.91 1611.31,
		-284.96 -65.06 1610.81,
		-289.15 -59.50 1615.33,
		-294.15 -60.93 1618.33,
		-265.57 -97.98 1584.83,
		-269.49 -100.71 1588.52,
		-267.15 -108.37 1588.80,
		-272.96 -108.88 1592.59,
		-277.00 -109.74 1595.93,
		-277.67 -112.24 1597.55,
		-281.56 -111.55 1600.53,
		-290.56 -104.52 1609.13,
		-296.36 -99.30 1614.81,
		-305.80 -95.29 1625.06,
		-306.63 -97.58 1638.85,
		-287.52 -120.38 1603.99,
		-286.39 -115.10 1603.99,
		-288.14 -115.10 1603.99,
		-290.37 -113.24 1603.99,
		-295.08 -114.59 1608.10,
		-296.02 -111.06 1608.10,
		-301.94 -107.92 1610.81,
		-304.56 -110.63 1612.99,
		-317.38 -103.22 1623.74,
		-322.34 -101.42 1628.49,
		-328.28 -97.99 1633.85,
		-332.57 -95.90 1637.32,
		-333.29 -97.69 1638.83,
		-337.36 -97.62 1641.89,
		-341.85 -90.70 1645.74,
		-354.58 -83.93 1658.72,
		-369.82 -79.27 1670.30,
		-382.78 -70.53 1680.84,
		-389.08 -71.42 1687.21,
		-398.64 -69.74 1689.63,
		-262.91 -109.12 1585.56,
		-263.32 -111.70 1585.56,
		-260.14 -114.37 1583.62,
		-258.99 -116.21 1582.26,
		-256.83 -114.20 1582.26,
		-254.16 -111.62 1577.99,
		-246.67 -110.83 1572.53,
		-276.06 -97.37 1593.13,
		-284.95 -95.79 1590.67,
		-287.11 -95.64 1590.74,
		-294.47 -94.87 1595.41,
		-297.29 -93.90 1596.79,
		-301.86 -94.14 1595.24,
		-306.80 -91.62 1598.42,
		-309.65 -92.79 1597.08,
		-311.81 -90.01 1601.40,
		-316.29 -89.46 1606.04,
		-320.87 -87.45 1612.89,
		-324.59 -86.09 1614.81,
		-329.36 -86.76 1610.12,
		-332.52 -80.85 1615.73,
		-329.36 -86.76 1610.12,
		-331.07 -80.84 1614.26,
		-336.47 -74.88 1623.08,
		-337.80 -69.92 1628.30,
		-340.55 -69.72 1630.93,
		-346.04 -64.80 1637.54,
		-351.05 -61.18 1641.37,
		-360.52 -62.01 1648.28,
		-366.60 -60.94 1651.98,
		-370.60 -61.36 1654.60,
		-380.13 -60.02 1659.93,
		-388.67 -56.57 1663.28,
		-391.31 -53.83 1665.06,
		-398.04 -57.71 1668.52,
		-403.45 -56.16 1672.32,
		-355.13 -54.68 1646.91,
		-357.52 -52.48 1648.09,
		-361.04 -46.87 1650.10,
		-362.80 -44.45 1649.86,
		-373.44 -42.76 1655.79,
		-376.73 -42.51 1657.47,
		-382.02 -37.69 1660.04,
		-390.01 -42.59 1665.99,
		-394.95 -41.65 1670.42,
		-399.92 -43.99 1674.16,
		-406.66 -43.14 1677.89,
		-411.49 -42.06 1680.62,
		-416.69 -34.15 1681.51,
		-416.69 -34.15 1680.91,
		-416.69 -34.15 1680.21,
		-414.04 -34.24 1678.41,
		-408.17 -30.89 1673.50,
		-407.86 -31.25 1673.35,
		-405.20 -31.34 1673.77,
		-403.11 -32.20 1673.34,
		-398.81 -31.59 1670.68,
		-420.35 -35.74 1682.21,
		-421.27 -36.21 1684.59,
		-423.28 -41.28 1687.37,
		-421.40 -43.70 1688.11,
		-421.40 -43.70 1687.31,
		-427.08 -41.55 1689.49,
		-431.13 -41.87 1690.54,
		-424.33 -32.56 1681.97,
		-427.11 -29.30 1683.36,
		-363.79 -41.81 1650.38,
		-364.90 -35.59 1650.93,
		-369.24 -35.59 1654.05,
		-367.47 -28.97 1655.02,
		-368.30 -29.22 1654.19,
		-364.83 -29.16 1651.48,
		-361.87 -30.48 1650.43,
		-347.58 -41.64 1643.83,
		-340.00 -45.67 1639.64,
		-330.49 -52.34 1632.38,
		-329.47 -53.55 1631.53,
		-328.21 -54.57 1630.75,
		-324.48 -57.48 1628.83,
		-311.17 -63.98 1617.26,
		-296.66 -67.06 1609.37,
		-368.79 -27.18 1658.30,
		-366.30 -21.61 1656.57,
		-376.48 -21.97 1656.89,
		-376.49 -21.97 1657.88,
		-376.43 -25.72 1657.96,
		-378.60 -30.20 1657.13,
		-384.22 -31.67 1659.84,
		-387.73 -32.24 1661.64,
		-388.86 -29.75 1666.06,
		-388.09 -27.05 1663.82,
		-386.76 -23.56 1663.96,
		-389.77 -27.71 1667.95,
		-390.93 -30.93 1669.83,
		-393.58 -32.85 1669.36,
		-396.07 -34.22 1669.18,
		-388.76 -21.55 1663.80,
		-388.71 -18.18 1664.31,
		-390.53 -17.68 1662.34,
		-392.23 -13.66 1662.16,
		-392.22 -13.67 1662.50,
		-389.31 -13.92 1660.98,
		-385.14 -12.58 1659.70,
		-382.62 -11.12 1658.87,
		-384.74 -9.13 1659.09,
		-388.27 -10.79 1660.21,
		-389.82 -9.34 1660.92,
		-388.12 -7.35 1663.54,
		-393.02 -6.17 1666.31,
		-398.78 -4.50 1669.61,
		-391.29 -12.46 1663.20,
		-393.34 -0.69 1661.35,
		-398.87 2.82 1662.18,
		-402.82 5.33 1663.22,
		-399.55 -2.08 1663.84,
		-397.15 0.83 1665.34,
		-400.15 1.21 1668.74,
		-406.81 0.68 1669.13,
		-406.81 0.68 1670.03,
		-408.65 4.29 1669.52,
		-405.53 6.00 1666.76,
		-409.25 -0.11 1670.76,
		-413.55 -3.77 1673.62,
		-415.51 -4.97 1674.78,
		-418.00 -6.24 1675.79,
		-419.60 -4.64 1676.93,
		-421.86 -4.78 1679.55,
		-423.09 -4.34 1680.01,
		-424.13 -5.68 1680.80,
		-426.16 -4.49 1682.17,
		-424.52 -1.50 1683.30,
		-374.00 -19.73 1656.98,
		-210.24 -61.91 1544.23,
		-206.24 -59.36 1540.80,
		-128.85 -54.54 1491.94,
		-124.13 -54.34 1488.67,
		-124.51 -53.60 1490.03,
		-122.99 -47.27 1496.96,
		-122.14 -44.33 1498.65,
		-118.60 -47.65 1497.07,
		-118.22 -45.28 1497.07,
		-124.59 -40.18 1501.30,
		-126.71 -39.67 1502.88,
		-129.94 -34.22 1505.62,
		-129.07 -33.09 1510.00,
		-127.85 -28.04 1510.00,
		-124.60 -60.14 1479.35,
		-122.11 -64.60 1475.84,
		-119.22 -69.04 1473.33,
		-119.50 -79.91 1471.41,
		-116.59 -82.35 1468.55,
		-115.08 -85.20 1470.90,
		-112.94 -85.16 1472.23,
		-112.94 -80.78 1479.52,
		-116.91 -88.13 1470.41,
		-118.58 -88.70 1470.53,
		-118.90 -92.31 1472.30,
		-119.18 -95.58 1470.91,
		-111.97 -81.85 1465.16,
		-102.46 -84.84 1458.09,
		-96.37 -84.57 1459.47,
		-96.37 -82.67 1455.09,
		-93.62 -87.83 1447.04,
		-89.86 -85.29 1446.72,
		-89.58 -88.85 1444.90,
		-90.30 -91.32 1441.59,
		-89.43 -92.19 1439.18,
		-87.63 -94.66 1436.31,
		-89.86 -81.76 1450.26,
		-93.56 -82.96 1452.32,
		-93.56 -82.96 1445.32,
		-99.36 -86.47 1457.06,
		-101.08 -90.28 1457.66,
		-104.70 -90.74 1462.21,
		-98.01 -75.94 1468.40,
		-101.30 -69.24 1474.87,
		-114.36 -70.67 1489.37,
		-118.03 -73.81 1489.53,
		-120.12 -71.90 1492.54,
		-119.83 -67.39 1493.93,
		-118.97 -66.65 1497.85,
		-119.39 -66.87 1499.97,
		-119.82 -68.65 1501.06,
		-119.18 -71.33 1502.75,
		-120.28 -73.33 1502.75,
		-119.76 -73.20 1504.96,
		-117.48 -67.17 1507.75,
		-105.03 -56.14 1486.97,
		-108.30 -51.16 1490.25,
		-113.22 -67.53 1489.86,
		-111.06 -73.51 1483.49,
		-105.43 -72.62 1478.47,
		-117.33 -72.47 1489.77,
		-120.45 -74.74 1491.65,
		-119.60 -77.71 1492.67,
		-121.04 -80.39 1491.91,
		-119.71 -81.87 1493.72,
		-121.82 -84.04 1494.60,
		-119.00 -88.87 1498.24,
		-122.38 -90.17 1500.67,
		-123.17 -93.59 1504.96,
		-123.07 -99.50 1499.06,
		-126.28 -101.26 1496.27,
		-129.47 -104.76 1498.41,
		-135.51 -105.19 1501.03,
		-135.51 -105.19 1518.03,
		-137.37 -110.00 1518.03,
		-138.77 -108.06 1516.05,
		-142.68 -111.40 1512.68,
		-145.90 -110.46 1510.90,
		-146.39 -111.03 1510.90,
		-149.15 -110.04 1511.75,
		-151.95 -111.82 1509.17,
		-150.69 -113.87 1504.45,
		-150.18 -115.11 1502.11,
		-146.88 -111.70 1501.36,
		-142.89 -112.73 1490.94,
		-156.47 -115.11 1507.83,
		-158.42 -117.62 1505.67,
		-158.75 -121.82 1504.59,
		-160.89 -122.71 1505.03,
		-162.77 -126.40 1509.44,
		-162.77 -135.76 1512.32,
		-166.97 -136.43 1515.96,
		-167.79 -138.04 1520.73,
		-169.11 -142.08 1518.97,
		-174.42 -147.39 1516.52,
		-178.59 -149.60 1507.26,
		-137.25 -117.19 1522.92,
		-137.25 -117.19 1529.57,
		-124.99 -95.18 1507.21,
		-119.04 -95.16 1516.51,
		-119.61 -98.65 1517.08,
		-120.94 -100.81 1517.95,
		-122.59 -104.62 1521.97,
		-120.26 -105.71 1525.88,
		-122.19 -108.46 1530.21,
		-126.18 -111.35 1529.90,
		-130.51 -114.94 1529.90,
		-116.97 -96.52 1517.03,
		-115.39 -92.07 1516.97,
		-114.74 -88.99 1514.46,
		-111.22 -86.85 1514.41,
		-109.54 -82.70 1516.73,
		-109.45 -85.21 1518.46,
		-105.26 -82.16 1521.18,
		-106.03 -80.06 1522.06,
		-105.87 -81.54 1523.40,
		-100.40 -80.00 1523.32,
		-98.78 -81.54 1520.91,
		-97.98 -77.96 1519.91,
		-98.40 -76.22 1523.71,
		-97.90 -73.08 1526.89,
		-97.90 -68.08 1556.89,
		-95.62 -76.66 1529.23,
		-119.61 -98.65 1517.08,
		-120.08 -98.39 1517.08,
		-119.03 -93.71 1520.56,
		-120.19 -92.55 1522.42,
		-119.56 -88.58 1524.63,
		-120.68 -88.41 1525.32,
		-120.68 -84.14 1527.25,
		-120.68 -84.14 1527.48,
		-117.92 -78.72 1528.84,
		-98.62 -59.41 1484.12,
		-98.18 -64.10 1489.98,
		-98.10 -66.56 1493.87,
		-97.80 -64.63 1497.70,
		-95.87 -67.47 1503.10,
		-95.17 -65.07 1506.54,
		-96.27 -63.90 1511.49,
		-96.27 -63.90 1517.49,
		-95.98 -63.21 1523.44,
		-101.53 -55.14 1488.39,
		-103.78 -50.35 1493.69,
		-91.32 -69.74 1467.96,
		-88.88 -70.98 1465.51,
		-86.57 -73.52 1463.08,
		-79.87 -71.54 1460.83,
		-84.48 -68.51 1466.35,
		-76.03 -69.38 1458.79,
		-75.98 -72.47 1459.42,
		-78.19 -74.07 1458.19,
		-75.26 -74.54 1457.01,
		-71.52 -72.64 1453.76,
		-71.43 -71.87 1452.36,
		-64.98 -71.67 1447.98,
		-58.88 -68.56 1440.69,
		-54.34 -65.69 1436.52,
		-55.48 -68.10 1435.16,
		-55.48 -68.10 1424.56]
}
Material {
	emissiveColor 0.000 1.000 1.000
	diffuseColor 0.000 1.000 1.000
}
IndexedLineSet {
	coordIndex [
		0,1,2,3,4,-1,1,5,6,7,8,9,10,11,12,13,14,15,16,-1,
		14,17,18,19,-1,17,20,21,22,23,-1,12,24,25,26,27,28,29,30,31,
		32,33,34,35,36,37,38,39,40,41,42,43,44,45,46,47,48,49,50,51,
		52,53,54,55,56,57,58,59,60,61,62,63,64,65,66,67,68,69,70,71,
		72,73,74,75,-1,171,172,173,174,175,176,177,178,179,180,181,182,183,184,185,
		186,187,188,189,190,191,192,193,194,195,-1,194,196,197,-1,184,198,199,200,201,
		202,203,204,205,206,207,208,209,210,211,212,213,-1,206,214,215,216,-1,90,217,
		-1,88,218,219,220,221,222,223,224,-1,223,225,-1,75,226,227,228,229,230,231,
		232,233,234,235,236,237,238,239,240,241,242,243,244,245,246,247,-1,245,248,249,
		-1,74,250,251,252,253,254,-1,74,255,256,257,258,259,-1,62,260,261,262,263,
		264,265,266,267,268,269,270,-1,268,271,272,273,274,275,276,277,-1,52,278,279,
		280,281,282,283,284,285,-1,283,286,287,288,289,290,291,292,293,294,295,296,297,
		298,299,300,301,-1,293,302,303,31,-1,51,304,305,306,307,308,309,310,311,312,
		313,314,315,316,317,318,319,320,321,322,323,324,325,326,327,328,329,330,331,332,
		-1,320,333,334,310,-1,307,335,336,337,338,339,340,-1,45,341,342,-1,29,343,
		344,345,-1,28,346,347,348,349,350,351,-1,350,352,-1,349,353,354,355,356,357,
		-1,356,358,359,-1,358,360,361,362,363,364,-1,360,365,-1,356,366,367,368,369,
		370,371,372,373,374,375,376,377,378,379,380,381,382,-1,380,383,384,-1,383,385,
		386,387,388,389,390,-1,376,391,392,393,394,395,396,397,398,399,400,401,-1,392,
		402,403,404,405,406,407,408,-1,374,409,410,411,412,413,414,415,416,417,418,419,
		420,421,422,423,424,425,426,427,428,429,430,431,432,433,434,435,436,437,438,439,
		-1,432,440,441,442,443,444,445,446,447,448,449,450,451,-1,448,452,413,-1,444,
		443,-1,441,453,454,455,456,457,458,459,460,461,462,463,464,465,466,467,468,469,
		470,471,472,473,474,475,476,477,478,479,480,481,482,483,484,485,486,-1,483,487,
		-1,483,488,489,490,491,492,-1,480,493,494,495,496,497,498,499,500,-1,497,501,
		502,503,504,505,506,507,508,-1,503,509,510,511,512,513,-1,510,514,515,516,517,
		518,519,520,521,522,523,524,525,526,527,528,529,530,531,532,533,534,535,536,537,
		538,539,540,541,542,543,544,545,546,547,548,549,550,551,552,553,554,555,556,557,
		558,559,560,561,562,563,564,565,566,567,568,569,570,571,572,573,574,575,576,577,
		578,579,580,581,582,583,584,585,586,587,588,589,590,591,592,593,594,595,596,597,
		598,599,600,601,602,-1,595,603,604,605,606,607,608,609,610,611,612,613,614,615,
		616,617,618,619,620,621,622,623,624,625,626,627,628,629,630,631,632,633,634,-1,
		631,635,636,637,638,639,640,641,642,643,644,645,646,647,-1,637,648,649,650,651,
		652,653,654,655,656,657,658,659,660,-1,654,661,662,663,664,665,666,667,668,669,
		670,671,672,673,674,675,676,677,-1,670,678,679,680,681,682,-1,546,683,684,685,
		686,533,-1,540,687,688,689,690,691,692,693,-1,537,694,695,696,697,-1,514,698,
		699,700,701,702,703,704,705,706,707,708,-1,699,709,710,711,712,713,714,715,716,
		717,718,719,720,721,722,723,724,725,726,727,728,729,730,731,732,733,734,735,736,
		737,738,739,740,741,742,-1,733,743,744,745,746,747,748,-1,743,749,750,751,752,
		753,754,755,756,757,758,759,760,761,762,763,764,765,766,767,-1,756,768,769,770,
		771,772,773,774,775,776,777,778,-1,774,779,780,781,782,783,784,785,786,787,788,
		789,790,791,792,793,794,795,796,797,798,-1,770,799,800,801,802,803,804,805,-1,
		769,806,807,808,809,810,811,812,813,814,815,816,817,818,819,820,821,822,823,824,
		825,826,827,828,829,830,831,832,833,834,-1,826,835,836,837,838,839,840,841,842,
		843,844,845,846,847,848,849,850,851,852,853,854,855,-1,848,856,857,858,859,860,
		861,862,-1,856,863,864,-1,837,865,866,867,868,869,870,871,872,873,874,875,876,
		877,878,879,-1,868,880,881,882,883,884,885,886,887,888,889,890,891,892,893,894,
		-1,890,895,896,897,898,899,900,901,902,903,904,905,906,907,908,-1,905,909,899,
		-1,905,910,911,912,-1,910,913,914,915,916,917,918,919,-1,917,920,921,922,923,
		924,925,926,927,928,929,-1,902,930,883,-1,727,931,932,719,-1,495,933,934,935,
		936,937,938,939,-1,937,940,941,942,943,944,-1,934,945,946,947,948,949,950,951,
		952,-1,950,953,954,955,956,-1,948,957,958,959,960,961,962,963,964,965,966,-1,
		962,967,968,969,-1,959,970,971,972,-1,959,973,974,468,-1,470,975,976,977,978,
		979,980,981,982,983,984,985,-1,469,986,987,-1,469,988,989,990,-1,988,991,992,
		993,994,995,996,997,998,999,1000,1001,1002,1003,1004,1005,1006,1007,1008,1009,1010,1011,1012,
		1013,1014,1015,-1,1011,1016,1017,1018,1019,1020,1021,1022,1023,1024,1025,1026,-1,1005,1027,1028,
		-1,999,1029,1030,1031,1032,1033,1034,1035,1036,1037,-1,1031,1038,1039,1040,1041,1042,1043,1044,
		1045,1046,1047,1048,1049,1050,1051,1052,-1,1050,1053,-1,1048,464,-1,1031,1054,1055,1056,1057,
		1058,1059,1060,1061,1062,-1,468,1063,1064,1065,1066,1067,1068,1069,1070,1071,-1,1063,1072,1073,
		-1,468,1074,1075,1076,413,1077,1078,-1,412,367,1079,1080,1081,1082,1083,1084,1085,1086,1087,
		1088,1089]
}
Material {
	emissiveColor 1.000 1.000 0.000
	diffuseColor 1.000 1.000 0.000
}
IndexedLineSet {
	coordIndex [
		75,76,77,78,79,80,81,82,83,84,85,86,87,88,89,90,91,92,93,94,
		95,96,97,98,99,100,101,102,103,104,105,106,107,108,109,110,111,112,113,114,
		115,116,117,118,119,120,121,122,123,124,125,126,127,128]
}
Material {
	emissiveColor 1.000 0.000 0.000
	diffuseColor 1.000 0.000 0.000
}
IndexedLineSet {
	coordIndex [
		128,129,130,131,132,133,134,-1,133,135,136,137,138,139,140,141,142,143,144,145,
		146,147,148,149,150,151,152,-1,143,153,154,155,156,157,-1,155,158,159,-1,153,
		160,-1,139,161,162,163,164,165,166,167,168,169,170,171]
}
# Grid --
Translation {
	translation -431.1 -368.3 1137.0
}
Material {
	emissiveColor 0.5 0.5 0.5
	diffuseColor 0.5 0.5 0.5
}
Coordinate3 {
	point [
		0 0 0,
		33.8 0.0 0,
		67.5 0.0 0,
		101.3 0.0 0,
		135.0 0.0 0,
		168.8 0.0 0,
		202.5 0.0 0,
		236.3 0.0 0,
		270.0 0.0 0,
		303.8 0.0 0,
		337.5 0.0 0,
		371.3 0.0 0,
		405.0 0.0 0,
		438.8 0.0 0,
		472.5 0.0 0,
		506.3 0.0 0,
		540.0 0.0 0,
		573.8 0.0 0,
		607.5 0.0 0,
		641.3 0.0 0,
		675.0 0.0 0,
		675.0 33.8 0,
		675.0 67.5 0,
		675.0 101.3 0,
		675.0 135.0 0,
		675.0 168.8 0,
		675.0 202.5 0,
		675.0 236.3 0,
		675.0 270.0 0,
		675.0 303.8 0,
		675.0 337.5 0,
		675.0 371.3 0,
		675.0 405.0 0,
		675.0 438.8 0,
		675.0 472.5 0,
		675.0 506.3 0,
		675.0 540.0 0,
		675.0 573.8 0,
		675.0 607.5 0,
		675.0 641.3 0,
		675.0 675.0 0,
		641.3 675.0 0,
		607.5 675.0 0,
		573.8 675.0 0,
		540.0 675.0 0,
		506.3 675.0 0,
		472.5 675.0 0,
		438.8 675.0 0,
		405.0 675.0 0,
		371.3 675.0 0,
		337.5 675.0 0,
		303.8 675.0 0,
		270.0 675.0 0,
		236.3 675.0 0,
		202.5 675.0 0,
		168.8 675.0 0,
		135.0 675.0 0,
		101.3 675.0 0,
		67.5 675.0 0,
		33.8 675.0 0,
		-0.0 675.0 0,
		0.0 641.3 0,
		0.0 607.5 0,
		0.0 573.8 0,
		0.0 540.0 0,
		0.0 506.3 0,
		0.0 472.5 0,
		0.0 438.8 0,
		0.0 405.0 0,
		0.0 371.3 0,
		0.0 337.5 0,
		0.0 303.8 0,
		0.0 270.0 0,
		0.0 236.3 0,
		0.0 202.5 0,
		0.0 168.8 0,
		0.0 135.0 0,
		0.0 101.3 0,
		0.0 67.5 0,
		0.0 33.8 0,
		0.0 -0.0 0,
		0.0 0.0 33.8,
		0.0 0.0 67.5,
		0.0 0.0 101.3,
		0.0 0.0 135.0,
		0.0 0.0 168.8,
		0.0 0.0 202.5,
		0.0 0.0 236.3,
		0.0 0.0 270.0,
		0.0 0.0 303.8,
		0.0 0.0 337.5,
		0.0 0.0 371.3,
		0.0 0.0 405.0,
		0.0 0.0 438.8,
		0.0 0.0 472.5,
		0.0 0.0 506.3,
		0.0 0.0 540.0,
		675.0 0.0 33.8,
		675.0 0.0 67.5,
		675.0 0.0 101.3,
		675.0 0.0 135.0,
		675.0 0.0 168.8,
		675.0 0.0 202.5,
		675.0 0.0 236.3,
		675.0 0.0 270.0,
		675.0 0.0 303.8,
		675.0 0.0 337.5,
		675.0 0.0 371.3,
		675.0 0.0 405.0,
		675.0 0.0 438.8,
		675.0 0.0 472.5,
		675.0 0.0 506.3,
		675.0 0.0 540.0,
		0.0 675.0 33.8,
		0.0 675.0 67.5,
		0.0 675.0 101.3,
		0.0 675.0 135.0,
		0.0 675.0 168.8,
		0.0 675.0 202.5,
		0.0 675.0 236.3,
		0.0 675.0 270.0,
		0.0 675.0 303.8,
		0.0 675.0 337.5,
		0.0 675.0 371.3,
		0.0 675.0 405.0,
		0.0 675.0 438.8,
		0.0 675.0 472.5,
		0.0 675.0 506.3,
		0.0 675.0 540.0]
}
IndexedLineSet {
	coordIndex [
		0,60,-1,
		1,59,-1,
		2,58,-1,
		3,57,-1,
		4,56,-1,
		5,55,-1,
		6,54,-1,
		7,53,-1,
		8,52,-1,
		9,51,-1,
		10,50,-1,
		11,49,-1,
		12,48,-1,
		13,47,-1,
		14,46,-1,
		15,45,-1,
		16,44,-1,
		17,43,-1,
		18,42,-1,
		19,41,-1,
		20,40,-1,
		80,20,-1,
		79,21,-1,
		78,22,-1,
		77,23,-1,
		76,24,-1,
		75,25,-1,
		74,26,-1,
		73,27,-1,
		72,28,-1,
		71,29,-1,
		70,30,-1,
		69,31,-1,
		68,32,-1,
		67,33,-1,
		66,34,-1,
		65,35,-1,
		64,36,-1,
		63,37,-1,
		62,38,-1,
		61,39,-1,
		60,40,-1,
		80,96,-1,
		80,96,-1,
		20,112,-1,
		20,112,-1,
		60,128,-1,
		60,128,-1,
		81,97,-1,
		82,98,-1,
		83,99,-1,
		84,100,-1,
		85,101,-1,
		86,102,-1,
		87,103,-1,
		88,104,-1,
		89,105,-1,
		90,106,-1,
		91,107,-1,
		92,108,-1,
		93,109,-1,
		94,110,-1,
		95,111,-1,
		96,112,-1,
		81,113,-1,
		82,114,-1,
		83,115,-1,
		84,116,-1,
		85,117,-1,
		86,118,-1,
		87,119,-1,
		88,120,-1,
		89,121,-1,
		90,122,-1,
		91,123,-1,
		92,124,-1,
		93,125,-1,
		94,126,-1,
		95,127,-1,
		96,128]
}
