0
SECTION
2
HEADER
9
$ACADVER
1
AC1002
9
$INSUNITS
70
4
0
ENDSEC
0
SECTION
2
TABLES
0
TABLE
2
LTYPE
70
1
0
LTYPE
2
DASH
70
0
3
---
72
65
73
2
40
0.6
49
0.3
49
-0.3
0
ENDTAB
0
ENDSEC
0
SECTION
2
ENTITIES
0
POLYLINE
66
1
8
Sketch
62
0
0
VERTEX
8
Sketch
10
16.82
20
-9.14
0
VERTEX
8
Sketch
10
16.98
20
-9.54
0
VERTEX
8
Sketch
10
17.22
20
-8.82
0
VERTEX
8
Sketch
10
17.3
20
-8.42
0
SEQEND
0
POLYLINE
66
1
8
Sketch
62
0
0
VERTEX
8
Sketch
10
17.46
20
-9.54
0
VERTEX
8
Sketch
10
17.46
20
-9.54
0
SEQEND
0
POLYLINE
66
1
8
Sketch
62
0
0
VERTEX
8
Sketch
10
18.98
20
-1.62
0
VERTEX
8
Sketch
10
18.82
20
-1.62
0
VERTEX
8
Sketch
10
19.14
20
-2.18
0
VERTEX
8
Sketch
10
19.06
20
-2.66
0
VERTEX
8
Sketch
10
19.3
20
-2.98
0
VERTEX
8
Sketch
10
19.22
20
-2.9
0
VERTEX
8
Sketch
10
19.54
20
-3.46
0
VERTEX
8
Sketch
10
19.22
20
-3.14
0
VERTEX
8
Sketch
10
19.62
20
-4.02
0
VERTEX
8
Sketch
10
19.38
20
-4.02
0
VERTEX
8
Sketch
10
19.46
20
-4.26
0
VERTEX
8
Sketch
10
19.86
20
-4.66
0
VERTEX
8
Sketch
10
19.7
20
-4.9
0
VERTEX
8
Sketch
10
19.54
20
-4.9
0
VERTEX
8
Sketch
10
19.54
20
-5.14
0
VERTEX
8
Sketch
10
18.98
20
-6.02
0
VERTEX
8
Sketch
10
18.74
20
-6.26
0
VERTEX
8
Sketch
10
18.42
20
-6.74
0
VERTEX
8
Sketch
10
18.18
20
-7.06
0
VERTEX
8
Sketch
10
18.1
20
-7.3
0
VERTEX
8
Sketch
10
17.94
20
-7.3
0
VERTEX
8
Sketch
10
17.86
20
-7.7
0
SEQEND
0
POLYLINE
66
1
8
Sketch
62
0
0
VERTEX
8
Sketch
10
16.98
20
-3.46
0
VERTEX
8
Sketch
10
17.3
20
-3.7
0
VERTEX
8
Sketch
10
17.3
20
-3.86
0
VERTEX
8
Sketch
10
17.38
20
-3.7
0
VERTEX
8
Sketch
10
17.38
20
-3.38
0
VERTEX
8
Sketch
10
17.86
20
-2.74
0
VERTEX
8
Sketch
10
18.1
20
-2.74
0
VERTEX
8
Sketch
10
18.58
20
-2.5
0
VERTEX
8
Sketch
10
18.74
20
-2.58
0
VERTEX
8
Sketch
10
18.9
20
-2.5
0
VERTEX
8
Sketch
10
19.22
20
-2.74
0
VERTEX
8
Sketch
10
18.9
20
-1.86
0
SEQEND
0
POLYLINE
66
1
8
Sketch
62
0
0
VERTEX
8
Sketch
10
14.42
20
-5.94
0
VERTEX
8
Sketch
10
14.5
20
-6.1
0
VERTEX
8
Sketch
10
14.18
20
-5.38
0
VERTEX
8
Sketch
10
14.98
20
-6.18
0
VERTEX
8
Sketch
10
15.22
20
-6.26
0
VERTEX
8
Sketch
10
15.3
20
-6.42
0
VERTEX
8
Sketch
10
15.38
20
-6.26
0
VERTEX
8
Sketch
10
15.54
20
-6.34
0
VERTEX
8
Sketch
10
15.86
20
-6.26
0
VERTEX
8
Sketch
10
16.18
20
-6.58
0
VERTEX
8
Sketch
10
16.5
20
-6.34
0
VERTEX
8
Sketch
10
16.66
20
-6.58
0
VERTEX
8
Sketch
10
16.82
20
-6.5
0
VERTEX
8
Sketch
10
16.98
20
-6.58
0
SEQEND
0
POLYLINE
66
1
8
Sketch
62
0
0
VERTEX
8
Sketch
10
14.1
20
-2.74
0
VERTEX
8
Sketch
10
14.18
20
-3.06
0
VERTEX
8
Sketch
10
14.5
20
-3.46
0
VERTEX
8
Sketch
10
14.58
20
-3.78
0
VERTEX
8
Sketch
10
14.74
20
-4.1
0
VERTEX
8
Sketch
10
15.78
20
-4.98
0
VERTEX
8
Sketch
10
16.18
20
-5.06
0
VERTEX
8
Sketch
10
16.34
20
-5.46
0
VERTEX
8
Sketch
10
16.66
20
-5.54
0
VERTEX
8
Sketch
10
16.82
20
-5.7
0
VERTEX
8
Sketch
10
17.14
20
-5.78
0
VERTEX
8
Sketch
10
17.54
20
-6.02
0
VERTEX
8
Sketch
10
17.54
20
-6.18
0
SEQEND
0
POLYLINE
66
1
8
Sketch
62
0
0
VERTEX
8
Sketch
10
10.74
20
-4.42
0
VERTEX
8
Sketch
10
10.98
20
-5.06
0
VERTEX
8
Sketch
10
11.62
20
-5.54
0
VERTEX
8
Sketch
10
12.02
20
-5.62
0
VERTEX
8
Sketch
10
12.66
20
-6.02
0
VERTEX
8
Sketch
10
12.9
20
-6.02
0
VERTEX
8
Sketch
10
13.38
20
-6.26
0
VERTEX
8
Sketch
10
13.54
20
-6.18
0
VERTEX
8
Sketch
10
14.02
20
-6.5
0
VERTEX
8
Sketch
10
14.18
20
-6.42
0
VERTEX
8
Sketch
10
14.34
20
-6.58
0
VERTEX
8
Sketch
10
14.66
20
-6.5
0
VERTEX
8
Sketch
10
14.98
20
-6.74
0
VERTEX
8
Sketch
10
15.3
20
-6.82
0
VERTEX
8
Sketch
10
16.18
20
-7.06
0
SEQEND
0
POLYLINE
66
1
8
Sketch
62
0
0
VERTEX
8
Sketch
10
6.74
20
-4.82
0
VERTEX
8
Sketch
10
6.82
20
-5.06
0
VERTEX
8
Sketch
10
6.82
20
-4.9
0
VERTEX
8
Sketch
10
7.06
20
-5.46
0
VERTEX
8
Sketch
10
7.22
20
-5.62
0
VERTEX
8
Sketch
10
7.38
20
-5.62
0
VERTEX
8
Sketch
10
7.7
20
-5.86
0
VERTEX
8
Sketch
10
8.02
20
-5.78
0
VERTEX
8
Sketch
10
8.42
20
-5.78
0
VERTEX
8
Sketch
10
8.58
20
-5.86
0
VERTEX
8
Sketch
10
8.66
20
-5.7
0
VERTEX
8
Sketch
10
8.98
20
-5.7
0
VERTEX
8
Sketch
10
9.54
20
-5.54
0
VERTEX
8
Sketch
10
9.86
20
-5.54
0
VERTEX
8
Sketch
10
10.34
20
-5.3
0
VERTEX
8
Sketch
10
10.9
20
-5.3
0
VERTEX
8
Sketch
10
11.06
20
-5.14
0
VERTEX
8
Sketch
10
11.38
20
-5.22
0
SEQEND
0
POLYLINE
66
1
8
Sketch
62
0
0
VERTEX
8
Sketch
10
10.26
20
-1.22
0
VERTEX
8
Sketch
10
10.02
20
-0.66
0
VERTEX
8
Sketch
10
10.58
20
-1.62
0
VERTEX
8
Sketch
10
10.42
20
-1.46
0
VERTEX
8
Sketch
10
10.58
20
-1.78
0
VERTEX
8
Sketch
10
10.34
20
-1.38
0
VERTEX
8
Sketch
10
10.66
20
-2.1
0
VERTEX
8
Sketch
10
11.3
20
-2.98
0
VERTEX
8
Sketch
10
11.94
20
-3.22
0
VERTEX
8
Sketch
10
12.18
20
-2.98
0
VERTEX
8
Sketch
10
12.34
20
-3.14
0
VERTEX
8
Sketch
10
12.5
20
-3.06
0
VERTEX
8
Sketch
10
12.9
20
-3.14
0
VERTEX
8
Sketch
10
13.22
20
-3.14
0
VERTEX
8
Sketch
10
13.38
20
-3.22
0
VERTEX
8
Sketch
10
13.54
20
-3.14
0
VERTEX
8
Sketch
10
13.86
20
-3.38
0
VERTEX
8
Sketch
10
14.18
20
-3.38
0
VERTEX
8
Sketch
10
14.58
20
-3.78
0
SEQEND
0
POLYLINE
66
1
8
Sketch
62
0
0
VERTEX
8
Sketch
10
7.54
20
-1.78
0
VERTEX
8
Sketch
10
7.7
20
-1.94
0
VERTEX
8
Sketch
10
6.74
20
-0.18
0
VERTEX
8
Sketch
10
6.98
20
-0.5
0
VERTEX
8
Sketch
10
6.98
20
-0.66
0
VERTEX
8
Sketch
10
8.02
20
-2.1
0
VERTEX
8
Sketch
10
8.1
20
-2.34
0
VERTEX
8
Sketch
10
8.26
20
-2.26
0
VERTEX
8
Sketch
10
8.58
20
-2.58
0
VERTEX
8
Sketch
10
8.66
20
-2.42
0
VERTEX
8
Sketch
10
8.66
20
-2.66
0
VERTEX
8
Sketch
10
9.06
20
-2.58
0
VERTEX
8
Sketch
10
9.14
20
-2.74
0
VERTEX
8
Sketch
10
9.22
20
-2.58
0
VERTEX
8
Sketch
10
9.54
20
-2.66
0
VERTEX
8
Sketch
10
9.7
20
-2.58
0
VERTEX
8
Sketch
10
9.86
20
-2.82
0
VERTEX
8
Sketch
10
10.02
20
-2.74
0
VERTEX
8
Sketch
10
10.1
20
-2.9
0
VERTEX
8
Sketch
10
10.26
20
-2.82
0
VERTEX
8
Sketch
10
10.42
20
-2.34
0
VERTEX
8
Sketch
10
10.58
20
-2.34
0
VERTEX
8
Sketch
10
10.74
20
-2.58
0
VERTEX
8
Sketch
10
10.74
20
-2.34
0
VERTEX
8
Sketch
10
11.14
20
-2.82
0
VERTEX
8
Sketch
10
11.22
20
-2.58
0
VERTEX
8
Sketch
10
11.22
20
-2.58
0
VERTEX
8
Sketch
10
11.54
20
-2.66
0
VERTEX
8
Sketch
10
11.3
20
-1.78
0
SEQEND
0
POLYLINE
66
1
8
Sketch
62
0
0
VERTEX
8
Sketch
10
3.94
20
-2.18
0
VERTEX
8
Sketch
10
4.18
20
-2.98
0
VERTEX
8
Sketch
10
4.34
20
-3.14
0
VERTEX
8
Sketch
10
4.5
20
-3.14
0
VERTEX
8
Sketch
10
4.9
20
-3.62
0
VERTEX
8
Sketch
10
5.54
20
-4.34
0
VERTEX
8
Sketch
10
5.7
20
-4.34
0
VERTEX
8
Sketch
10
6.5
20
-5.06
0
VERTEX
8
Sketch
10
6.5
20
-4.82
0
VERTEX
8
Sketch
10
6.66
20
-4.98
0
VERTEX
8
Sketch
10
7.06
20
-4.98
0
VERTEX
8
Sketch
10
7.22
20
-5.06
0
VERTEX
8
Sketch
10
7.54
20
-4.98
0
VERTEX
8
Sketch
10
7.86
20
-5.14
0
VERTEX
8
Sketch
10
7.94
20
-5.3
0
SEQEND
0
POLYLINE
66
1
8
Sketch
62
0
0
VERTEX
8
Sketch
10
0.18
20
-0.9
0
VERTEX
8
Sketch
10
0.42
20
-1.14
0
VERTEX
8
Sketch
10
0.66
20
-1.38
0
VERTEX
8
Sketch
10
0.9
20
-1.78
0
VERTEX
8
Sketch
10
1.22
20
-1.78
0
VERTEX
8
Sketch
10
1.46
20
-1.86
0
VERTEX
8
Sketch
10
1.7
20
-2.1
0
VERTEX
8
Sketch
10
1.94
20
-2.34
0
SEQEND
0
POLYLINE
66
1
8
Sketch
62
0
0
VERTEX
8
Sketch
10
0.58
20
-0.02
0
VERTEX
8
Sketch
10
1.14
20
-1.7
0
VERTEX
8
Sketch
10
1.38
20
-2.02
0
VERTEX
8
Sketch
10
1.38
20
-2.18
0
VERTEX
8
Sketch
10
1.46
20
-2.02
0
VERTEX
8
Sketch
10
1.54
20
-2.18
0
VERTEX
8
Sketch
10
1.7
20
-2.18
0
VERTEX
8
Sketch
10
1.86
20
-2.34
0
VERTEX
8
Sketch
10
2.18
20
-2.42
0
VERTEX
8
Sketch
10
2.5
20
-2.5
0
VERTEX
8
Sketch
10
2.58
20
-2.66
0
VERTEX
8
Sketch
10
2.74
20
-2.66
0
VERTEX
8
Sketch
10
2.9
20
-2.82
0
VERTEX
8
Sketch
10
3.22
20
-2.74
0
VERTEX
8
Sketch
10
3.46
20
-2.98
0
VERTEX
8
Sketch
10
3.62
20
-2.9
0
VERTEX
8
Sketch
10
4.1
20
-3.14
0
VERTEX
8
Sketch
10
4.42
20
-3.14
0
VERTEX
8
Sketch
10
4.58
20
-3.3
0
VERTEX
8
Sketch
10
4.74
20
-3.22
0
VERTEX
8
Sketch
10
4.9
20
-3.38
0
SEQEND
0
POLYLINE
66
1
8
Sketch
62
0
0
VERTEX
8
Sketch
10
0.82
20
0.86
0
VERTEX
8
Sketch
10
0.82
20
0.38
0
VERTEX
8
Sketch
10
1.22
20
-0.18
0
VERTEX
8
Sketch
10
1.38
20
-0.18
0
VERTEX
8
Sketch
10
1.46
20
-0.34
0
VERTEX
8
Sketch
10
1.62
20
-0.18
0
VERTEX
8
Sketch
10
1.7
20
-0.34
0
VERTEX
8
Sketch
10
2.1
20
-0.58
0
VERTEX
8
Sketch
10
2.42
20
-0.66
0
VERTEX
8
Sketch
10
2.58
20
-0.9
0
VERTEX
8
Sketch
10
2.9
20
-0.82
0
VERTEX
8
Sketch
10
3.22
20
-1.06
0
VERTEX
8
Sketch
10
3.7
20
-1.14
0
VERTEX
8
Sketch
10
3.78
20
-1.3
0
VERTEX
8
Sketch
10
4.26
20
-1.38
0
VERTEX
8
Sketch
10
4.42
20
-1.54
0
VERTEX
8
Sketch
10
4.66
20
-1.54
0
VERTEX
8
Sketch
10
4.74
20
-1.78
0
VERTEX
8
Sketch
10
5.06
20
-1.7
0
VERTEX
8
Sketch
10
5.22
20
-1.86
0
VERTEX
8
Sketch
10
5.38
20
-1.78
0
VERTEX
8
Sketch
10
6.1
20
-2.34
0
VERTEX
8
Sketch
10
6.34
20
-2.34
0
VERTEX
8
Sketch
10
6.66
20
-2.5
0
VERTEX
8
Sketch
10
7.06
20
-2.26
0
VERTEX
8
Sketch
10
7.54
20
-2.42
0
VERTEX
8
Sketch
10
8.02
20
-2.42
0
VERTEX
8
Sketch
10
8.18
20
-2.58
0
SEQEND
0
LINE
8
Shots
62
1
10
9.71
20
-3.672
11
12.044
21
-3.962
0
CIRCLE
8
Shots
62
1
10
12.044
20
-3.962
40
0.1
0
LINE
8
XSect
62
1
6
DASH
10
12.044
20
-3.962
11
14.728
21
-5.174
0
LINE
8
Shots
62
1
10
6.666
20
-3.086
11
9.71
21
-3.672
0
CIRCLE
8
Shots
62
1
10
9.71
20
-3.672
40
0.1
0
LINE
8
Shots
62
1
10
0
20
0
11
6.666
21
-3.086
0
CIRCLE
8
Shots
62
1
10
6.666
20
-3.086
40
0.1
0
ENDSEC
0
EOF
