0
SECTION
2
HEADER
9
$ACADVER
1
AC1002
9
$INSUNITS
70
4
0
ENDSEC
0
SECTION
2
TABLES
0
TABLE
2
LTYPE
70
1
0
LTYPE
2
DASH
70
0
3
---
72
65
73
2
40
0.6
49
0.3
49
-0.3
0
ENDTAB
0
ENDSEC
0
SECTION
2
ENTITIES
0
POLYLINE
66
1
8
Sketch
62
0
0
VERTEX
8
Sketch
10
-8.248
20
12.346
0
VERTEX
8
Sketch
10
-8.128
20
12.106
0
VERTEX
8
Sketch
10
-8.008
20
11.986
0
VERTEX
8
Sketch
10
-8.068
20
12.106
0
VERTEX
8
Sketch
10
-7.948
20
12.196
0
VERTEX
8
Sketch
10
-7.888
20
12.196
0
VERTEX
8
Sketch
10
-7.888
20
12.136
0
VERTEX
8
Sketch
10
-7.978
20
12.256
0
VERTEX
8
Sketch
10
-8.068
20
12.316
0
VERTEX
8
Sketch
10
-8.068
20
12.256
0
VERTEX
8
Sketch
10
-8.098
20
12.196
0
VERTEX
8
Sketch
10
-8.038
20
12.106
0
VERTEX
8
Sketch
10
-8.098
20
12.016
0
VERTEX
8
Sketch
10
-8.098
20
12.076
0
VERTEX
8
Sketch
10
-8.038
20
12.136
0
VERTEX
8
Sketch
10
-7.978
20
12.136
0
VERTEX
8
Sketch
10
-7.978
20
12.076
0
VERTEX
8
Sketch
10
-8.038
20
12.106
0
VERTEX
8
Sketch
10
-8.068
20
12.226
0
VERTEX
8
Sketch
10
-8.008
20
12.286
0
VERTEX
8
Sketch
10
-8.008
20
12.136
0
VERTEX
8
Sketch
10
-8.068
20
12.136
0
SEQEND
0
POLYLINE
66
1
8
Sketch
62
0
0
VERTEX
8
Sketch
10
-8.428
20
13.606
0
VERTEX
8
Sketch
10
-8.338
20
13.546
0
VERTEX
8
Sketch
10
-8.248
20
13.426
0
VERTEX
8
Sketch
10
-8.008
20
13.486
0
VERTEX
8
Sketch
10
-7.948
20
13.426
0
VERTEX
8
Sketch
10
-7.828
20
13.426
0
VERTEX
8
Sketch
10
-7.828
20
13.366
0
VERTEX
8
Sketch
10
-7.768
20
13.306
0
VERTEX
8
Sketch
10
-7.798
20
13.186
0
VERTEX
8
Sketch
10
-7.798
20
13.126
0
VERTEX
8
Sketch
10
-7.948
20
12.946
0
VERTEX
8
Sketch
10
-8.068
20
12.766
0
VERTEX
8
Sketch
10
-8.248
20
12.616
0
VERTEX
8
Sketch
10
-8.248
20
12.496
0
VERTEX
8
Sketch
10
-8.218
20
12.436
0
SEQEND
0
POLYLINE
66
1
8
Sketch
62
0
0
VERTEX
8
Sketch
10
-8.308
20
13.516
0
VERTEX
8
Sketch
10
-8.338
20
13.606
0
VERTEX
8
Sketch
10
-8.158
20
13.456
0
VERTEX
8
Sketch
10
-8.158
20
13.456
0
VERTEX
8
Sketch
10
-8.218
20
13.486
0
VERTEX
8
Sketch
10
-8.338
20
13.396
0
VERTEX
8
Sketch
10
-8.368
20
13.336
0
VERTEX
8
Sketch
10
-8.428
20
13.306
0
VERTEX
8
Sketch
10
-8.428
20
13.216
0
SEQEND
0
POLYLINE
66
1
8
Sketch
62
0
0
VERTEX
8
Sketch
10
-7.978
20
13.456
0
VERTEX
8
Sketch
10
-7.918
20
13.366
0
VERTEX
8
Sketch
10
-7.858
20
13.336
0
VERTEX
8
Sketch
10
-7.858
20
13.156
0
VERTEX
8
Sketch
10
-7.948
20
13.036
0
VERTEX
8
Sketch
10
-8.068
20
12.946
0
VERTEX
8
Sketch
10
-8.128
20
12.736
0
VERTEX
8
Sketch
10
-8.128
20
12.676
0
VERTEX
8
Sketch
10
-8.068
20
12.556
0
VERTEX
8
Sketch
10
-7.918
20
12.526
0
SEQEND
0
POLYLINE
66
1
8
Sketch
62
0
0
VERTEX
8
Sketch
10
-7.438
20
9.166
0
VERTEX
8
Sketch
10
-7.408
20
9.046
0
VERTEX
8
Sketch
10
-7.528
20
9.166
0
VERTEX
8
Sketch
10
-7.678
20
9.466
0
VERTEX
8
Sketch
10
-7.558
20
9.376
0
VERTEX
8
Sketch
10
-7.468
20
9.136
0
VERTEX
8
Sketch
10
-7.648
20
9.466
0
VERTEX
8
Sketch
10
-7.738
20
9.586
0
VERTEX
8
Sketch
10
-7.588
20
9.346
0
VERTEX
8
Sketch
10
-7.768
20
9.676
0
VERTEX
8
Sketch
10
-7.648
20
9.556
0
VERTEX
8
Sketch
10
-7.798
20
9.766
0
VERTEX
8
Sketch
10
-7.618
20
9.526
0
VERTEX
8
Sketch
10
-7.648
20
9.586
0
VERTEX
8
Sketch
10
-7.528
20
9.406
0
VERTEX
8
Sketch
10
-7.588
20
9.466
0
VERTEX
8
Sketch
10
-7.558
20
9.466
0
VERTEX
8
Sketch
10
-7.528
20
9.376
0
VERTEX
8
Sketch
10
-7.558
20
9.436
0
VERTEX
8
Sketch
10
-7.558
20
9.376
0
VERTEX
8
Sketch
10
-7.618
20
9.406
0
VERTEX
8
Sketch
10
-7.708
20
9.646
0
VERTEX
8
Sketch
10
-7.708
20
9.736
0
VERTEX
8
Sketch
10
-7.678
20
9.676
0
VERTEX
8
Sketch
10
-7.768
20
9.766
0
VERTEX
8
Sketch
10
-7.798
20
9.826
0
VERTEX
8
Sketch
10
-7.798
20
9.946
0
VERTEX
8
Sketch
10
-7.828
20
10.066
0
VERTEX
8
Sketch
10
-7.948
20
10.246
0
VERTEX
8
Sketch
10
-7.888
20
10.186
0
VERTEX
8
Sketch
10
-7.888
20
10.096
0
VERTEX
8
Sketch
10
-7.858
20
9.976
0
VERTEX
8
Sketch
10
-7.858
20
10.216
0
VERTEX
8
Sketch
10
-7.888
20
10.336
0
VERTEX
8
Sketch
10
-7.858
20
10.216
0
VERTEX
8
Sketch
10
-7.978
20
10.396
0
VERTEX
8
Sketch
10
-8.038
20
10.576
0
VERTEX
8
Sketch
10
-7.978
20
10.486
0
VERTEX
8
Sketch
10
-7.978
20
10.426
0
VERTEX
8
Sketch
10
-8.068
20
10.546
0
VERTEX
8
Sketch
10
-8.068
20
10.756
0
VERTEX
8
Sketch
10
-8.248
20
10.996
0
VERTEX
8
Sketch
10
-8.248
20
11.086
0
VERTEX
8
Sketch
10
-8.308
20
11.116
0
VERTEX
8
Sketch
10
-8.398
20
11.236
0
VERTEX
8
Sketch
10
-8.398
20
11.386
0
VERTEX
8
Sketch
10
-8.458
20
11.506
0
VERTEX
8
Sketch
10
-8.458
20
11.566
0
VERTEX
8
Sketch
10
-8.608
20
11.746
0
VERTEX
8
Sketch
10
-8.608
20
11.836
0
VERTEX
8
Sketch
10
-8.638
20
11.896
0
VERTEX
8
Sketch
10
-8.698
20
11.926
0
VERTEX
8
Sketch
10
-8.818
20
12.256
0
VERTEX
8
Sketch
10
-8.878
20
12.316
0
VERTEX
8
Sketch
10
-8.968
20
12.346
0
VERTEX
8
Sketch
10
-9.238
20
12.916
0
SEQEND
0
POLYLINE
66
1
8
Sketch
62
0
0
VERTEX
8
Sketch
10
-9.148
20
11.596
0
VERTEX
8
Sketch
10
-9.058
20
11.236
0
VERTEX
8
Sketch
10
-9.088
20
11.146
0
VERTEX
8
Sketch
10
-8.998
20
10.876
0
VERTEX
8
Sketch
10
-8.908
20
10.756
0
VERTEX
8
Sketch
10
-8.908
20
10.696
0
VERTEX
8
Sketch
10
-8.758
20
10.486
0
VERTEX
8
Sketch
10
-8.728
20
10.396
0
VERTEX
8
Sketch
10
-8.668
20
10.366
0
VERTEX
8
Sketch
10
-8.548
20
10.096
0
VERTEX
8
Sketch
10
-8.548
20
10.036
0
VERTEX
8
Sketch
10
-8.488
20
9.976
0
VERTEX
8
Sketch
10
-8.488
20
9.916
0
VERTEX
8
Sketch
10
-8.428
20
9.796
0
VERTEX
8
Sketch
10
-8.428
20
9.706
0
VERTEX
8
Sketch
10
-8.398
20
9.586
0
VERTEX
8
Sketch
10
-8.398
20
9.526
0
VERTEX
8
Sketch
10
-8.248
20
9.256
0
VERTEX
8
Sketch
10
-8.248
20
9.196
0
VERTEX
8
Sketch
10
-8.188
20
9.166
0
VERTEX
8
Sketch
10
-8.158
20
9.106
0
VERTEX
8
Sketch
10
-8.158
20
9.016
0
VERTEX
8
Sketch
10
-8.068
20
8.806
0
VERTEX
8
Sketch
10
-8.068
20
8.746
0
VERTEX
8
Sketch
10
-7.708
20
7.966
0
VERTEX
8
Sketch
10
-7.588
20
7.786
0
VERTEX
8
Sketch
10
-7.528
20
7.756
0
VERTEX
8
Sketch
10
-7.468
20
7.636
0
VERTEX
8
Sketch
10
-7.408
20
7.666
0
VERTEX
8
Sketch
10
-7.348
20
7.636
0
SEQEND
0
POLYLINE
66
1
8
Sketch
62
0
0
VERTEX
8
Sketch
10
-8.428
20
11.656
0
VERTEX
8
Sketch
10
-8.368
20
11.536
0
VERTEX
8
Sketch
10
-8.428
20
11.536
0
VERTEX
8
Sketch
10
-8.458
20
11.596
0
VERTEX
8
Sketch
10
-8.518
20
11.566
0
VERTEX
8
Sketch
10
-8.578
20
11.596
0
VERTEX
8
Sketch
10
-8.638
20
11.686
0
VERTEX
8
Sketch
10
-8.698
20
11.686
0
VERTEX
8
Sketch
10
-8.878
20
11.836
0
VERTEX
8
Sketch
10
-8.968
20
11.986
0
VERTEX
8
Sketch
10
-8.968
20
12.046
0
VERTEX
8
Sketch
10
-9.058
20
12.256
0
VERTEX
8
Sketch
10
-9.238
20
12.496
0
SEQEND
0
POLYLINE
66
1
8
Sketch
62
0
0
VERTEX
8
Sketch
10
-9.388
20
11.596
0
VERTEX
8
Sketch
10
-9.508
20
12.256
0
SEQEND
0
POLYLINE
66
1
8
Sketch
62
0
0
VERTEX
8
Sketch
10
-9.448
20
12.166
0
VERTEX
8
Sketch
10
-9.298
20
11.776
0
VERTEX
8
Sketch
10
-9.298
20
11.836
0
VERTEX
8
Sketch
10
-9.658
20
12.616
0
SEQEND
0
POLYLINE
66
1
8
Sketch
62
0
0
VERTEX
8
Sketch
10
-7.258
20
7.666
0
VERTEX
8
Sketch
10
-7.408
20
7.906
0
VERTEX
8
Sketch
10
-7.378
20
7.816
0
VERTEX
8
Sketch
10
-7.408
20
7.756
0
VERTEX
8
Sketch
10
-7.378
20
7.696
0
VERTEX
8
Sketch
10
-7.438
20
7.606
0
VERTEX
8
Sketch
10
-7.588
20
7.666
0
VERTEX
8
Sketch
10
-7.678
20
7.666
0
VERTEX
8
Sketch
10
-7.738
20
7.696
0
VERTEX
8
Sketch
10
-7.798
20
7.846
0
VERTEX
8
Sketch
10
-7.888
20
7.846
0
VERTEX
8
Sketch
10
-7.918
20
7.906
0
VERTEX
8
Sketch
10
-8.188
20
8.146
0
VERTEX
8
Sketch
10
-8.308
20
8.356
0
VERTEX
8
Sketch
10
-8.368
20
8.626
0
VERTEX
8
Sketch
10
-8.398
20
8.686
0
VERTEX
8
Sketch
10
-8.398
20
8.776
0
VERTEX
8
Sketch
10
-8.428
20
8.896
0
VERTEX
8
Sketch
10
-8.488
20
8.956
0
VERTEX
8
Sketch
10
-8.488
20
9.046
0
VERTEX
8
Sketch
10
-8.578
20
9.376
0
VERTEX
8
Sketch
10
-8.578
20
9.496
0
VERTEX
8
Sketch
10
-8.668
20
9.616
0
VERTEX
8
Sketch
10
-8.668
20
9.796
0
VERTEX
8
Sketch
10
-8.698
20
9.946
0
VERTEX
8
Sketch
10
-8.758
20
10.036
0
VERTEX
8
Sketch
10
-8.758
20
10.216
0
VERTEX
8
Sketch
10
-8.968
20
10.786
0
VERTEX
8
Sketch
10
-9.028
20
10.816
0
VERTEX
8
Sketch
10
-9.058
20
10.936
0
VERTEX
8
Sketch
10
-9.088
20
11.206
0
VERTEX
8
Sketch
10
-9.208
20
11.386
0
VERTEX
8
Sketch
10
-9.208
20
11.566
0
VERTEX
8
Sketch
10
-9.418
20
12.046
0
SEQEND
0
POLYLINE
66
1
8
Sketch
62
0
0
VERTEX
8
Sketch
10
-7.078
20
8.356
0
VERTEX
8
Sketch
10
-7.048
20
8.206
0
VERTEX
8
Sketch
10
-7.168
20
8.506
0
VERTEX
8
Sketch
10
-7.168
20
8.506
0
VERTEX
8
Sketch
10
-7.168
20
8.566
0
VERTEX
8
Sketch
10
-7.108
20
8.386
0
VERTEX
8
Sketch
10
-7.138
20
8.536
0
VERTEX
8
Sketch
10
-7.318
20
8.836
0
VERTEX
8
Sketch
10
-7.438
20
9.136
0
VERTEX
8
Sketch
10
-7.438
20
9.196
0
VERTEX
8
Sketch
10
-7.558
20
9.556
0
VERTEX
8
Sketch
10
-7.558
20
9.646
0
VERTEX
8
Sketch
10
-7.678
20
10.096
0
VERTEX
8
Sketch
10
-7.768
20
10.216
0
VERTEX
8
Sketch
10
-7.768
20
10.276
0
VERTEX
8
Sketch
10
-7.828
20
10.516
0
VERTEX
8
Sketch
10
-7.858
20
10.666
0
VERTEX
8
Sketch
10
-7.918
20
10.786
0
VERTEX
8
Sketch
10
-7.918
20
10.876
0
VERTEX
8
Sketch
10
-7.978
20
11.116
0
VERTEX
8
Sketch
10
-8.278
20
11.536
0
VERTEX
8
Sketch
10
-8.338
20
11.596
0
VERTEX
8
Sketch
10
-8.338
20
11.656
0
VERTEX
8
Sketch
10
-8.458
20
11.836
0
VERTEX
8
Sketch
10
-8.518
20
11.986
0
VERTEX
8
Sketch
10
-8.578
20
12.016
0
VERTEX
8
Sketch
10
-8.728
20
12.256
0
VERTEX
8
Sketch
10
-8.758
20
12.346
0
VERTEX
8
Sketch
10
-8.848
20
12.466
0
SEQEND
0
POLYLINE
66
1
8
Sketch
62
0
0
VERTEX
8
Sketch
10
-6.928
20
7.546
0
VERTEX
8
Sketch
10
-6.928
20
7.306
0
VERTEX
8
Sketch
10
-6.988
20
7.246
0
VERTEX
8
Sketch
10
-6.988
20
7.306
0
VERTEX
8
Sketch
10
-7.078
20
7.546
0
VERTEX
8
Sketch
10
-7.228
20
7.816
0
SEQEND
0
POLYLINE
66
1
8
Sketch
62
0
0
VERTEX
8
Sketch
10
-7.018
20
8.506
0
VERTEX
8
Sketch
10
-6.988
20
8.356
0
VERTEX
8
Sketch
10
-6.988
20
8.206
0
VERTEX
8
Sketch
10
-7.048
20
8.206
0
VERTEX
8
Sketch
10
-7.168
20
8.176
0
SEQEND
0
POLYLINE
66
1
8
Sketch
62
0
0
VERTEX
8
Sketch
10
-6.478
20
8.446
0
VERTEX
8
Sketch
10
-6.418
20
8.326
0
VERTEX
8
Sketch
10
-6.478
20
8.176
0
VERTEX
8
Sketch
10
-6.478
20
8.026
0
VERTEX
8
Sketch
10
-6.508
20
7.906
0
VERTEX
8
Sketch
10
-6.358
20
7.906
0
VERTEX
8
Sketch
10
-6.298
20
7.876
0
VERTEX
8
Sketch
10
-6.148
20
7.936
0
VERTEX
8
Sketch
10
-5.878
20
8.116
0
VERTEX
8
Sketch
10
-5.818
20
8.116
0
VERTEX
8
Sketch
10
-5.788
20
8.176
0
VERTEX
8
Sketch
10
-5.728
20
8.176
0
SEQEND
0
POLYLINE
66
1
8
Sketch
62
0
0
VERTEX
8
Sketch
10
-4.648
20
8.236
0
VERTEX
8
Sketch
10
-4.558
20
8.026
0
VERTEX
8
Sketch
10
-4.588
20
7.966
0
VERTEX
8
Sketch
10
-4.588
20
7.756
0
VERTEX
8
Sketch
10
-4.468
20
7.606
0
SEQEND
0
POLYLINE
66
1
8
Sketch
62
0
0
VERTEX
8
Sketch
10
-4.708
20
8.116
0
VERTEX
8
Sketch
10
-4.588
20
7.846
0
VERTEX
8
Sketch
10
-4.648
20
7.876
0
VERTEX
8
Sketch
10
-4.618
20
7.786
0
VERTEX
8
Sketch
10
-4.648
20
7.666
0
VERTEX
8
Sketch
10
-4.708
20
7.666
0
VERTEX
8
Sketch
10
-4.858
20
7.756
0
VERTEX
8
Sketch
10
-4.918
20
7.726
0
VERTEX
8
Sketch
10
-4.978
20
7.786
0
VERTEX
8
Sketch
10
-5.038
20
7.786
0
VERTEX
8
Sketch
10
-5.098
20
7.756
0
VERTEX
8
Sketch
10
-5.218
20
7.786
0
VERTEX
8
Sketch
10
-5.278
20
7.786
0
VERTEX
8
Sketch
10
-5.668
20
7.996
0
VERTEX
8
Sketch
10
-5.728
20
7.996
0
VERTEX
8
Sketch
10
-5.818
20
8.116
0
VERTEX
8
Sketch
10
-5.908
20
8.146
0
VERTEX
8
Sketch
10
-5.968
20
8.086
0
VERTEX
8
Sketch
10
-6.088
20
8.146
0
VERTEX
8
Sketch
10
-6.208
20
8.146
0
VERTEX
8
Sketch
10
-6.268
20
8.176
0
VERTEX
8
Sketch
10
-6.388
20
8.146
0
VERTEX
8
Sketch
10
-6.418
20
8.206
0
VERTEX
8
Sketch
10
-6.538
20
8.206
0
VERTEX
8
Sketch
10
-6.598
20
8.236
0
VERTEX
8
Sketch
10
-6.658
20
8.176
0
VERTEX
8
Sketch
10
-6.718
20
8.176
0
VERTEX
8
Sketch
10
-6.778
20
8.206
0
VERTEX
8
Sketch
10
-6.898
20
8.176
0
VERTEX
8
Sketch
10
-6.958
20
8.176
0
VERTEX
8
Sketch
10
-7.078
20
8.146
0
SEQEND
0
POLYLINE
66
1
8
Sketch
62
0
0
VERTEX
8
Sketch
10
-5.098
20
6.856
0
VERTEX
8
Sketch
10
-5.038
20
6.706
0
VERTEX
8
Sketch
10
-5.188
20
6.646
0
VERTEX
8
Sketch
10
-5.308
20
6.676
0
VERTEX
8
Sketch
10
-5.548
20
6.976
0
VERTEX
8
Sketch
10
-5.698
20
7.066
0
VERTEX
8
Sketch
10
-5.728
20
7.006
0
VERTEX
8
Sketch
10
-5.788
20
7.006
0
VERTEX
8
Sketch
10
-5.818
20
7.066
0
VERTEX
8
Sketch
10
-5.878
20
7.036
0
VERTEX
8
Sketch
10
-6.028
20
7.066
0
VERTEX
8
Sketch
10
-6.088
20
7.126
0
VERTEX
8
Sketch
10
-6.268
20
7.066
0
VERTEX
8
Sketch
10
-6.598
20
7.156
0
VERTEX
8
Sketch
10
-6.718
20
7.126
0
VERTEX
8
Sketch
10
-6.778
20
7.126
0
VERTEX
8
Sketch
10
-6.778
20
7.186
0
VERTEX
8
Sketch
10
-6.898
20
7.156
0
VERTEX
8
Sketch
10
-6.958
20
7.186
0
VERTEX
8
Sketch
10
-7.018
20
7.276
0
VERTEX
8
Sketch
10
-7.138
20
7.276
0
SEQEND
0
POLYLINE
66
1
8
Sketch
62
32
0
VERTEX
8
Sketch
10
-1.82
20
7.692
0
VERTEX
8
Sketch
10
-1.796
20
7.652
0
VERTEX
8
Sketch
10
-1.796
20
7.66
0
VERTEX
8
Sketch
10
-1.792
20
7.644
0
VERTEX
8
Sketch
10
-1.8
20
7.652
0
SEQEND
0
POLYLINE
66
1
8
Sketch
62
32
0
VERTEX
8
Sketch
10
-1.832
20
7.64
0
VERTEX
8
Sketch
10
-1.82
20
7.596
0
VERTEX
8
Sketch
10
-1.816
20
7.604
0
VERTEX
8
Sketch
10
-1.836
20
7.652
0
VERTEX
8
Sketch
10
-1.836
20
7.66
0
VERTEX
8
Sketch
10
-1.828
20
7.652
0
VERTEX
8
Sketch
10
-1.828
20
7.66
0
VERTEX
8
Sketch
10
-1.816
20
7.636
0
VERTEX
8
Sketch
10
-1.816
20
7.656
0
VERTEX
8
Sketch
10
-1.804
20
7.636
0
VERTEX
8
Sketch
10
-1.804
20
7.632
0
VERTEX
8
Sketch
10
-1.804
20
7.632
0
VERTEX
8
Sketch
10
-1.812
20
7.636
0
VERTEX
8
Sketch
10
-1.804
20
7.616
0
VERTEX
8
Sketch
10
-1.808
20
7.636
0
VERTEX
8
Sketch
10
-1.82
20
7.66
0
VERTEX
8
Sketch
10
-1.808
20
7.648
0
VERTEX
8
Sketch
10
-1.808
20
7.668
0
SEQEND
0
POLYLINE
66
1
8
Sketch
62
32
0
VERTEX
8
Sketch
10
-1.88
20
7.628
0
VERTEX
8
Sketch
10
-1.868
20
7.6
0
VERTEX
8
Sketch
10
-1.88
20
7.58
0
VERTEX
8
Sketch
10
-1.88
20
7.564
0
VERTEX
8
Sketch
10
-1.892
20
7.544
0
VERTEX
8
Sketch
10
-1.892
20
7.536
0
VERTEX
8
Sketch
10
-1.904
20
7.524
0
SEQEND
0
POLYLINE
66
1
8
Sketch
62
32
0
VERTEX
8
Sketch
10
-1.956
20
7.676
0
VERTEX
8
Sketch
10
-1.936
20
7.628
0
VERTEX
8
Sketch
10
-1.94
20
7.668
0
VERTEX
8
Sketch
10
-1.916
20
7.656
0
VERTEX
8
Sketch
10
-1.9
20
7.636
0
VERTEX
8
Sketch
10
-1.9
20
7.616
0
VERTEX
8
Sketch
10
-1.908
20
7.608
0
VERTEX
8
Sketch
10
-1.908
20
7.576
0
SEQEND
0
POLYLINE
66
1
8
Sketch
62
32
0
VERTEX
8
Sketch
10
-1.984
20
8.232
0
VERTEX
8
Sketch
10
-1.992
20
8.244
0
VERTEX
8
Sketch
10
-1.988
20
8.232
0
VERTEX
8
Sketch
10
-1.956
20
8.2
0
VERTEX
8
Sketch
10
-1.94
20
8.168
0
VERTEX
8
Sketch
10
-1.944
20
8.16
0
VERTEX
8
Sketch
10
-1.94
20
8.18
0
VERTEX
8
Sketch
10
-1.936
20
8.188
0
VERTEX
8
Sketch
10
-1.928
20
8.188
0
VERTEX
8
Sketch
10
-1.928
20
8.176
0
VERTEX
8
Sketch
10
-1.92
20
8.168
0
VERTEX
8
Sketch
10
-1.92
20
8.168
0
VERTEX
8
Sketch
10
-1.932
20
8.208
0
VERTEX
8
Sketch
10
-1.924
20
8.208
0
VERTEX
8
Sketch
10
-1.916
20
8.196
0
SEQEND
0
POLYLINE
66
1
8
Sketch
62
32
0
VERTEX
8
Sketch
10
-2.088
20
8.272
0
VERTEX
8
Sketch
10
-2.068
20
8.26
0
VERTEX
8
Sketch
10
-2.052
20
8.26
0
VERTEX
8
Sketch
10
-2.036
20
8.268
0
VERTEX
8
Sketch
10
-2.024
20
8.268
0
VERTEX
8
Sketch
10
-1.996
20
8.276
0
SEQEND
0
POLYLINE
66
1
8
Sketch
62
32
0
VERTEX
8
Sketch
10
-2.072
20
8.272
0
VERTEX
8
Sketch
10
-2.068
20
8.264
0
VERTEX
8
Sketch
10
-2.076
20
8.264
0
VERTEX
8
Sketch
10
-2.068
20
8.236
0
VERTEX
8
Sketch
10
-2.052
20
8.228
0
VERTEX
8
Sketch
10
-2.044
20
8.232
0
VERTEX
8
Sketch
10
-2.028
20
8.228
0
VERTEX
8
Sketch
10
-2.024
20
8.216
0
VERTEX
8
Sketch
10
-2.032
20
8.2
0
VERTEX
8
Sketch
10
-2.032
20
8.18
0
VERTEX
8
Sketch
10
-2.028
20
8.16
0
VERTEX
8
Sketch
10
-2.044
20
8.152
0
VERTEX
8
Sketch
10
-2.076
20
8.168
0
VERTEX
8
Sketch
10
-2.084
20
8.164
0
SEQEND
0
POLYLINE
66
1
8
Sketch
62
32
0
VERTEX
8
Sketch
10
-2.132
20
8.18
0
VERTEX
8
Sketch
10
-2.136
20
8.164
0
VERTEX
8
Sketch
10
-2.136
20
8.152
0
SEQEND
0
POLYLINE
66
1
8
Sketch
62
32
0
VERTEX
8
Sketch
10
-2.236
20
8.24
0
VERTEX
8
Sketch
10
-2.232
20
8.228
0
VERTEX
8
Sketch
10
-2.228
20
8.24
0
VERTEX
8
Sketch
10
-2.216
20
8.252
0
VERTEX
8
Sketch
10
-2.204
20
8.264
0
VERTEX
8
Sketch
10
-2.196
20
8.268
0
SEQEND
0
POLYLINE
66
1
8
Sketch
62
32
0
VERTEX
8
Sketch
10
-2.18
20
8.276
0
VERTEX
8
Sketch
10
-2.172
20
8.268
0
VERTEX
8
Sketch
10
-2.172
20
8.232
0
VERTEX
8
Sketch
10
-2.192
20
8.184
0
VERTEX
8
Sketch
10
-2.192
20
8.176
0
SEQEND
0
POLYLINE
66
1
8
Sketch
62
30
0
VERTEX
8
Sketch
10
-1.868
20
7.528
0
VERTEX
8
Sketch
10
-1.836
20
7.48
0
VERTEX
8
Sketch
10
-1.828
20
7.44
0
VERTEX
8
Sketch
10
-1.804
20
7.4
0
VERTEX
8
Sketch
10
-1.788
20
7.336
0
VERTEX
8
Sketch
10
-1.772
20
7.304
0
VERTEX
8
Sketch
10
-1.668
20
7.44
0
VERTEX
8
Sketch
10
-1.636
20
7.488
0
VERTEX
8
Sketch
10
-1.62
20
7.496
0
SEQEND
0
POLYLINE
66
1
8
Sketch
62
30
0
VERTEX
8
Sketch
10
-1.828
20
7.784
0
VERTEX
8
Sketch
10
-1.804
20
7.768
0
VERTEX
8
Sketch
10
-1.828
20
7.728
0
VERTEX
8
Sketch
10
-1.836
20
7.712
0
VERTEX
8
Sketch
10
-1.86
20
7.72
0
VERTEX
8
Sketch
10
-1.868
20
7.68
0
VERTEX
8
Sketch
10
-1.868
20
7.704
0
VERTEX
8
Sketch
10
-1.788
20
7.792
0
VERTEX
8
Sketch
10
-1.788
20
7.808
0
VERTEX
8
Sketch
10
-1.772
20
7.792
0
VERTEX
8
Sketch
10
-1.74
20
7.784
0
VERTEX
8
Sketch
10
-1.66
20
7.688
0
SEQEND
0
POLYLINE
66
1
8
Sketch
62
30
0
VERTEX
8
Sketch
10
-1.764
20
7.72
0
VERTEX
8
Sketch
10
-1.748
20
7.704
0
VERTEX
8
Sketch
10
-1.74
20
7.632
0
VERTEX
8
Sketch
10
-1.756
20
7.56
0
VERTEX
8
Sketch
10
-1.74
20
7.496
0
VERTEX
8
Sketch
10
-1.732
20
7.464
0
SEQEND
0
POLYLINE
66
1
8
Sketch
62
30
0
VERTEX
8
Sketch
10
-2.412
20
8.112
0
VERTEX
8
Sketch
10
-2.396
20
8.104
0
VERTEX
8
Sketch
10
-2.412
20
8.064
0
VERTEX
8
Sketch
10
-2.476
20
7.992
0
VERTEX
8
Sketch
10
-2.5
20
7.984
0
VERTEX
8
Sketch
10
-2.508
20
7.968
0
VERTEX
8
Sketch
10
-2.452
20
7.952
0
VERTEX
8
Sketch
10
-2.412
20
7.944
0
VERTEX
8
Sketch
10
-2.396
20
7.936
0
VERTEX
8
Sketch
10
-2.38
20
7.944
0
SEQEND
0
POLYLINE
66
1
8
Sketch
62
30
0
VERTEX
8
Sketch
10
-1.812
20
7.976
0
VERTEX
8
Sketch
10
-1.836
20
7.992
0
VERTEX
8
Sketch
10
-1.844
20
7.976
0
VERTEX
8
Sketch
10
-1.836
20
7.96
0
VERTEX
8
Sketch
10
-1.9
20
7.936
0
SEQEND
0
POLYLINE
66
1
8
Sketch
62
30
0
VERTEX
8
Sketch
10
-1.868
20
8.096
0
VERTEX
8
Sketch
10
-1.844
20
8.088
0
VERTEX
8
Sketch
10
-1.844
20
8.072
0
VERTEX
8
Sketch
10
-1.764
20
7.984
0
VERTEX
8
Sketch
10
-1.74
20
7.944
0
SEQEND
0
POLYLINE
66
1
8
Sketch
62
30
0
VERTEX
8
Sketch
10
-2.452
20
8
0
VERTEX
8
Sketch
10
-2.42
20
8
0
VERTEX
8
Sketch
10
-2.388
20
8.016
0
VERTEX
8
Sketch
10
-2.348
20
8.008
0
VERTEX
8
Sketch
10
-2.316
20
8.032
0
VERTEX
8
Sketch
10
-2.284
20
8.04
0
VERTEX
8
Sketch
10
-2.26
20
8.048
0
VERTEX
8
Sketch
10
-2.228
20
8.04
0
VERTEX
8
Sketch
10
-2.196
20
8.04
0
VERTEX
8
Sketch
10
-2.164
20
8.056
0
VERTEX
8
Sketch
10
-2.108
20
8.04
0
VERTEX
8
Sketch
10
-2.092
20
8.048
0
VERTEX
8
Sketch
10
-2.076
20
8.04
0
VERTEX
8
Sketch
10
-2.044
20
8.048
0
VERTEX
8
Sketch
10
-2.028
20
8.04
0
VERTEX
8
Sketch
10
-2.012
20
8.048
0
VERTEX
8
Sketch
10
-1.924
20
8.024
0
VERTEX
8
Sketch
10
-1.828
20
8.024
0
VERTEX
8
Sketch
10
-1.812
20
8.032
0
VERTEX
8
Sketch
10
-1.796
20
8.016
0
VERTEX
8
Sketch
10
-1.78
20
8.016
0
SEQEND
0
POLYLINE
66
1
8
Sketch
62
0
0
VERTEX
8
Sketch
10
-2.86
20
5.86
0
VERTEX
8
Sketch
10
-2.8
20
5.78
0
VERTEX
8
Sketch
10
-2.92
20
5.76
0
VERTEX
8
Sketch
10
-3.16
20
5.8
0
VERTEX
8
Sketch
10
-3.5
20
5.78
0
VERTEX
8
Sketch
10
-3.88
20
5.78
0
VERTEX
8
Sketch
10
-3.92
20
5.74
0
VERTEX
8
Sketch
10
-4.28
20
5.72
0
VERTEX
8
Sketch
10
-4.52
20
5.78
0
VERTEX
8
Sketch
10
-4.72
20
5.92
0
VERTEX
8
Sketch
10
-4.96
20
6.32
0
VERTEX
8
Sketch
10
-5.02
20
6.4
0
VERTEX
8
Sketch
10
-5.08
20
6.7
0
SEQEND
0
POLYLINE
66
1
8
Sketch
62
0
0
VERTEX
8
Sketch
10
-1.58
20
6.48
0
VERTEX
8
Sketch
10
-1.46
20
6.4
0
VERTEX
8
Sketch
10
-1.5
20
6.68
0
VERTEX
8
Sketch
10
-1.68
20
7.08
0
VERTEX
8
Sketch
10
-1.86
20
7.34
0
VERTEX
8
Sketch
10
-1.98
20
7.46
0
VERTEX
8
Sketch
10
-2.14
20
7.54
0
VERTEX
8
Sketch
10
-2.3
20
7.66
0
VERTEX
8
Sketch
10
-2.58
20
7.7
0
VERTEX
8
Sketch
10
-2.88
20
7.78
0
VERTEX
8
Sketch
10
-3.24
20
7.82
0
VERTEX
8
Sketch
10
-3.36
20
7.88
0
VERTEX
8
Sketch
10
-3.48
20
8
0
VERTEX
8
Sketch
10
-3.76
20
8.04
0
VERTEX
8
Sketch
10
-3.78
20
8.08
0
VERTEX
8
Sketch
10
-4.38
20
7.8
0
VERTEX
8
Sketch
10
-4.54
20
7.64
0
SEQEND
0
POLYLINE
66
1
8
Sketch
62
0
0
VERTEX
8
Sketch
10
-2.04
20
7.58
0
VERTEX
8
Sketch
10
-2.04
20
7.66
0
VERTEX
8
Sketch
10
-2.08
20
7.66
0
SEQEND
0
POLYLINE
66
1
8
Sketch
62
32
0
VERTEX
8
Sketch
10
-3.53
20
4.25
0
VERTEX
8
Sketch
10
-3.47
20
4.19
0
VERTEX
8
Sketch
10
-3.41
20
4.19
0
VERTEX
8
Sketch
10
-3.41
20
4.1
0
VERTEX
8
Sketch
10
-3.44
20
4.04
0
VERTEX
8
Sketch
10
-3.38
20
4.07
0
VERTEX
8
Sketch
10
-3.35
20
4.16
0
VERTEX
8
Sketch
10
-3.32
20
4.1
0
VERTEX
8
Sketch
10
-3.29
20
4.19
0
VERTEX
8
Sketch
10
-3.23
20
4.16
0
VERTEX
8
Sketch
10
-3.17
20
4.19
0
VERTEX
8
Sketch
10
-3.2
20
4.13
0
SEQEND
0
POLYLINE
66
1
8
Sketch
62
32
0
VERTEX
8
Sketch
10
-4.16
20
4.94
0
VERTEX
8
Sketch
10
-4.04
20
4.79
0
VERTEX
8
Sketch
10
-3.98
20
4.76
0
VERTEX
8
Sketch
10
-3.89
20
4.79
0
VERTEX
8
Sketch
10
-3.83
20
4.76
0
VERTEX
8
Sketch
10
-3.77
20
4.82
0
VERTEX
8
Sketch
10
-3.56
20
4.88
0
SEQEND
0
POLYLINE
66
1
8
Sketch
62
32
0
VERTEX
8
Sketch
10
-4.07
20
4.76
0
VERTEX
8
Sketch
10
-3.98
20
4.61
0
VERTEX
8
Sketch
10
-4.01
20
4.46
0
VERTEX
8
Sketch
10
-4.01
20
4.31
0
VERTEX
8
Sketch
10
-4.04
20
4.25
0
VERTEX
8
Sketch
10
-3.92
20
4.19
0
VERTEX
8
Sketch
10
-3.8
20
4.25
0
VERTEX
8
Sketch
10
-3.71
20
3.92
0
VERTEX
8
Sketch
10
-3.74
20
3.86
0
VERTEX
8
Sketch
10
-3.89
20
3.83
0
VERTEX
8
Sketch
10
-3.95
20
3.86
0
VERTEX
8
Sketch
10
-4.01
20
3.83
0
SEQEND
0
POLYLINE
66
1
8
Sketch
62
32
0
VERTEX
8
Sketch
10
-4.25
20
4.1
0
VERTEX
8
Sketch
10
-4.25
20
4.01
0
VERTEX
8
Sketch
10
-4.22
20
3.89
0
VERTEX
8
Sketch
10
-4.22
20
3.8
0
VERTEX
8
Sketch
10
-4.28
20
3.62
0
SEQEND
0
POLYLINE
66
1
8
Sketch
62
32
0
VERTEX
8
Sketch
10
-4.7
20
4.13
0
VERTEX
8
Sketch
10
-4.7
20
4.07
0
VERTEX
8
Sketch
10
-4.64
20
4.22
0
VERTEX
8
Sketch
10
-4.49
20
4.46
0
VERTEX
8
Sketch
10
-4.46
20
4.52
0
VERTEX
8
Sketch
10
-4.46
20
3.8
0
SEQEND
0
POLYLINE
66
1
8
Sketch
62
30
0
VERTEX
8
Sketch
10
-5.52
20
3.32
0
VERTEX
8
Sketch
10
-5.44
20
3.04
0
VERTEX
8
Sketch
10
-5.44
20
2.88
0
VERTEX
8
Sketch
10
-5.28
20
2.24
0
VERTEX
8
Sketch
10
-5.24
20
2.08
0
VERTEX
8
Sketch
10
-5.24
20
2.2
0
VERTEX
8
Sketch
10
-4.88
20
2.8
0
VERTEX
8
Sketch
10
-4.76
20
2.84
0
VERTEX
8
Sketch
10
-4.52
20
3.08
0
VERTEX
8
Sketch
10
-4.52
20
3
0
SEQEND
0
POLYLINE
66
1
8
Sketch
62
30
0
VERTEX
8
Sketch
10
-5.24
20
5.12
0
VERTEX
8
Sketch
10
-5.24
20
5
0
VERTEX
8
Sketch
10
-5.12
20
4.72
0
VERTEX
8
Sketch
10
-5.16
20
4.64
0
VERTEX
8
Sketch
10
-5.04
20
4.16
0
VERTEX
8
Sketch
10
-5.12
20
3.96
0
VERTEX
8
Sketch
10
-5.12
20
3.68
0
VERTEX
8
Sketch
10
-5.08
20
3.56
0
VERTEX
8
Sketch
10
-5.16
20
3.28
0
VERTEX
8
Sketch
10
-5.12
20
2.96
0
VERTEX
8
Sketch
10
-5.2
20
2.72
0
SEQEND
0
POLYLINE
66
1
8
Sketch
62
30
0
VERTEX
8
Sketch
10
-5.8
20
4.2
0
VERTEX
8
Sketch
10
-5.8
20
4
0
VERTEX
8
Sketch
10
-5.48
20
4.36
0
VERTEX
8
Sketch
10
-5.2
20
4.76
0
VERTEX
8
Sketch
10
-5.12
20
4.96
0
VERTEX
8
Sketch
10
-4.92
20
4.76
0
VERTEX
8
Sketch
10
-4.88
20
4.6
0
VERTEX
8
Sketch
10
-4.84
20
4.44
0
VERTEX
8
Sketch
10
-4.84
20
4.36
0
SEQEND
0
POLYLINE
66
1
8
Sketch
62
32
0
VERTEX
8
Sketch
10
1.24
20
5.48
0
VERTEX
8
Sketch
10
1.44
20
5.28
0
VERTEX
8
Sketch
10
1.52
20
5.24
0
VERTEX
8
Sketch
10
1.76
20
5.6
0
VERTEX
8
Sketch
10
1.92
20
5.64
0
VERTEX
8
Sketch
10
2.04
20
5.6
0
VERTEX
8
Sketch
10
2.16
20
5.32
0
VERTEX
8
Sketch
10
2.16
20
5.12
0
VERTEX
8
Sketch
10
2.04
20
4.76
0
VERTEX
8
Sketch
10
2
20
4.96
0
VERTEX
8
Sketch
10
2.08
20
5.24
0
VERTEX
8
Sketch
10
2.2
20
5.44
0
VERTEX
8
Sketch
10
2.24
20
5.52
0
VERTEX
8
Sketch
10
2.4
20
5.56
0
VERTEX
8
Sketch
10
2.6
20
5.64
0
VERTEX
8
Sketch
10
2.72
20
5.52
0
VERTEX
8
Sketch
10
2.72
20
5.24
0
VERTEX
8
Sketch
10
2.64
20
5.08
0
VERTEX
8
Sketch
10
2.64
20
4.96
0
VERTEX
8
Sketch
10
2.6
20
4.8
0
VERTEX
8
Sketch
10
2.56
20
5
0
VERTEX
8
Sketch
10
2.56
20
5.12
0
VERTEX
8
Sketch
10
2.52
20
5.2
0
VERTEX
8
Sketch
10
2.6
20
5.28
0
VERTEX
8
Sketch
10
2.6
20
5.36
0
VERTEX
8
Sketch
10
2.68
20
5.48
0
VERTEX
8
Sketch
10
2.68
20
5.56
0
VERTEX
8
Sketch
10
2.92
20
5.72
0
VERTEX
8
Sketch
10
3.12
20
5.6
0
VERTEX
8
Sketch
10
3.2
20
5.52
0
VERTEX
8
Sketch
10
3.24
20
5.2
0
VERTEX
8
Sketch
10
3.24
20
5.08
0
VERTEX
8
Sketch
10
3.2
20
4.92
0
VERTEX
8
Sketch
10
3.24
20
4.84
0
VERTEX
8
Sketch
10
3.16
20
4.64
0
VERTEX
8
Sketch
10
3.2
20
4.56
0
SEQEND
0
POLYLINE
66
1
8
Sketch
62
32
0
VERTEX
8
Sketch
10
0.16
20
5.8
0
VERTEX
8
Sketch
10
0.24
20
5.72
0
VERTEX
8
Sketch
10
0.4
20
5.84
0
VERTEX
8
Sketch
10
0.4
20
5.92
0
VERTEX
8
Sketch
10
0.56
20
6.08
0
VERTEX
8
Sketch
10
0.68
20
6.12
0
VERTEX
8
Sketch
10
0.76
20
6.24
0
VERTEX
8
Sketch
10
0.84
20
6.24
0
VERTEX
8
Sketch
10
0.88
20
6.36
0
VERTEX
8
Sketch
10
1
20
6.4
0
VERTEX
8
Sketch
10
1.04
20
6.52
0
VERTEX
8
Sketch
10
1.12
20
6.52
0
VERTEX
8
Sketch
10
1.36
20
6.76
0
VERTEX
8
Sketch
10
1.4
20
6.4
0
VERTEX
8
Sketch
10
1.36
20
6.2
0
VERTEX
8
Sketch
10
1.32
20
6.04
0
VERTEX
8
Sketch
10
1.08
20
5.4
0
VERTEX
8
Sketch
10
1
20
5.32
0
VERTEX
8
Sketch
10
1.04
20
5.12
0
VERTEX
8
Sketch
10
0.92
20
4.76
0
VERTEX
8
Sketch
10
0.92
20
4.68
0
VERTEX
8
Sketch
10
0.96
20
4.76
0
SEQEND
0
POLYLINE
66
1
8
Sketch
62
1
0
VERTEX
8
Sketch
10
1.66
20
5.82
0
VERTEX
8
Sketch
10
1.78
20
5.82
0
VERTEX
8
Sketch
10
2.14
20
5.46
0
VERTEX
8
Sketch
10
2.26
20
5.28
0
VERTEX
8
Sketch
10
2.08
20
4.8
0
VERTEX
8
Sketch
10
1.72
20
4.38
0
VERTEX
8
Sketch
10
1.42
20
4.02
0
VERTEX
8
Sketch
10
1.48
20
3.9
0
SEQEND
0
POLYLINE
66
1
8
Sketch
62
1
0
VERTEX
8
Sketch
10
1.36
20
4.68
0
VERTEX
8
Sketch
10
1.42
20
4.86
0
SEQEND
0
POLYLINE
66
1
8
Sketch
62
1
0
VERTEX
8
Sketch
10
-3.68
20
2.7
0
VERTEX
8
Sketch
10
-3.5
20
2.22
0
VERTEX
8
Sketch
10
-3.86
20
1.44
0
VERTEX
8
Sketch
10
-3.92
20
1.14
0
VERTEX
8
Sketch
10
-4.16
20
0.84
0
VERTEX
8
Sketch
10
-3.56
20
0.78
0
VERTEX
8
Sketch
10
-3.44
20
0.72
0
VERTEX
8
Sketch
10
-3.26
20
0.78
0
VERTEX
8
Sketch
10
-2.72
20
0.6
0
VERTEX
8
Sketch
10
-2.6
20
0.66
0
SEQEND
0
POLYLINE
66
1
8
Sketch
62
1
0
VERTEX
8
Sketch
10
0.52
20
3.48
0
VERTEX
8
Sketch
10
0.64
20
3.6
0
VERTEX
8
Sketch
10
1.12
20
3.42
0
VERTEX
8
Sketch
10
1.3
20
3.42
0
VERTEX
8
Sketch
10
1.84
20
3.24
0
VERTEX
8
Sketch
10
1.96
20
2.82
0
VERTEX
8
Sketch
10
1.6
20
2.46
0
VERTEX
8
Sketch
10
1.54
20
2.28
0
VERTEX
8
Sketch
10
1.18
20
1.92
0
SEQEND
0
POLYLINE
66
1
8
Sketch
62
1
0
VERTEX
8
Sketch
10
-2.72
20
1.86
0
VERTEX
8
Sketch
10
-2.54
20
1.56
0
VERTEX
8
Sketch
10
-2.24
20
1.92
0
VERTEX
8
Sketch
10
-1.94
20
2.1
0
VERTEX
8
Sketch
10
-1.76
20
2.28
0
VERTEX
8
Sketch
10
-1.64
20
2.28
0
VERTEX
8
Sketch
10
-1.52
20
2.46
0
VERTEX
8
Sketch
10
-1.16
20
2.52
0
VERTEX
8
Sketch
10
-1.04
20
2.64
0
VERTEX
8
Sketch
10
-0.32
20
2.64
0
VERTEX
8
Sketch
10
0.28
20
2.82
0
VERTEX
8
Sketch
10
0.82
20
2.82
0
VERTEX
8
Sketch
10
0.88
20
2.94
0
SEQEND
0
POLYLINE
66
1
8
Sketch
62
0
0
VERTEX
8
Sketch
10
-2.96
20
5.04
0
VERTEX
8
Sketch
10
-2.36
20
4.2
0
VERTEX
8
Sketch
10
-2.48
20
4.68
0
VERTEX
8
Sketch
10
-3.08
20
6
0
SEQEND
0
POLYLINE
66
1
8
Sketch
62
0
0
VERTEX
8
Sketch
10
-1.28
20
5.16
0
VERTEX
8
Sketch
10
-0.92
20
4.68
0
VERTEX
8
Sketch
10
-1.04
20
5.16
0
VERTEX
8
Sketch
10
-1.4
20
5.88
0
VERTEX
8
Sketch
10
-1.4
20
6.36
0
SEQEND
0
POLYLINE
66
1
8
Sketch
62
0
0
VERTEX
8
Sketch
10
-2.48
20
2.52
0
VERTEX
8
Sketch
10
-1.16
20
0
0
VERTEX
8
Sketch
10
-1.16
20
0.72
0
VERTEX
8
Sketch
10
-1.28
20
1.2
0
VERTEX
8
Sketch
10
-1.28
20
1.56
0
VERTEX
8
Sketch
10
-1.52
20
2.64
0
VERTEX
8
Sketch
10
-1.52
20
2.88
0
VERTEX
8
Sketch
10
-2.24
20
3.96
0
VERTEX
8
Sketch
10
-2.24
20
4.56
0
VERTEX
8
Sketch
10
-2.48
20
4.8
0
SEQEND
0
POLYLINE
66
1
8
Sketch
62
0
0
VERTEX
8
Sketch
10
0.52
20
1.2
0
VERTEX
8
Sketch
10
0.88
20
0.72
0
VERTEX
8
Sketch
10
0.52
20
1.56
0
VERTEX
8
Sketch
10
0.04
20
1.8
0
VERTEX
8
Sketch
10
-0.2
20
2.28
0
VERTEX
8
Sketch
10
-0.2
20
2.64
0
VERTEX
8
Sketch
10
-0.32
20
3.12
0
VERTEX
8
Sketch
10
-0.32
20
3.48
0
VERTEX
8
Sketch
10
-1.04
20
5.28
0
SEQEND
0
LINE
8
Shots
62
1
10
-4.942
20
7.236
11
-7.236
21
7.67
0
CIRCLE
8
Shots
62
1
10
-7.236
20
7.67
40
0.1
0
LINE
8
XSect
62
1
10
-7.236
20
7.67
11
-9.14
21
12.244
0
LINE
8
Shots
62
1
10
-2.03
20
6.348
11
-4.942
21
7.236
0
CIRCLE
8
Shots
62
1
10
-4.942
20
7.236
40
0.1
0
LINE
8
Shots
62
1
10
0
20
0
11
-2.03
21
6.348
0
CIRCLE
8
Shots
62
1
10
-2.03
20
6.348
40
0.1
0
ENDSEC
0
EOF
