<svg xmlns="http://www.w3.org/2000/svg" xmlns:inkscape="http://www.inkscape.org/namespaces/inkscape" version="1.1" width="109" height="50" viewBox="-325 -725 2730 1250" data-sketch-status="empty"><title>PocketTopo plan: measurements; sketch empty</title><metadata>{"axes": "x_right_y_down", "font": "jktz-grid-3x5-v1-paths-no-system-fonts", "mapping": {"origin": {"x": 0, "y": 0}, "scale": 500}, "mapping_applied_to_geometry": false, "overlay_notices": ["held_source_shots_not_projected"], "palette_srgb": ["#000000", "#b0b0b0", "#a52a2a", "#0000ff", "#ff0000", "#00c000", "#ffa500"], "settings": {"background": "#ffffff", "label_height_mm": 200.0, "max_dimension": 4096, "max_pixels": 16000000, "padding_mm": 250.0, "pixels_per_metre": 40.0, "stroke_width_mm": 30.0}, "sketch_status": "empty", "sketch_vertices": 0, "source_units": "mm", "variant": "measurements", "view": "plan", "viewport": {"effective_pixels_per_metre": 39.92673992673993, "height_px": 50, "requested_pixels_per_metre": 40.0, "viewbox_mm": [-325.0, -725.0, 2730.0, 1250.0], "width_px": 109}, "xsections": []}</metadata><rect id="background" x="-325" y="-725" width="2730" height="1250" fill="#ffffff" /><g id="survey" inkscape:groupmode="layer" inkscape:label="survey" fill="none" stroke-width="30" stroke-linecap="round" stroke-linejoin="round" stroke="#666666" /><g id="splays" inkscape:groupmode="layer" inkscape:label="splays" fill="none" stroke-width="30" stroke-linecap="round" stroke-linejoin="round" stroke="#666666" /><g id="xsections" inkscape:groupmode="layer" inkscape:label="xsections" fill="none" stroke-width="30" stroke-linecap="round" stroke-linejoin="round" stroke="#666666" /><g id="sketch" inkscape:groupmode="layer" inkscape:label="sketch" fill="none" stroke-width="30" stroke-linecap="round" stroke-linejoin="round" stroke="#666666"><g aria-label="EMPTY SKETCH" data-font="jktz-grid-3x5-v1"><title>EMPTY SKETCH</title><path d="M0,0h40v40h-40z M40,0h40v40h-40z M80,0h40v40h-40z M0,40h40v40h-40z M0,80h40v40h-40z M40,80h40v40h-40z M0,120h40v40h-40z M0,160h40v40h-40z M40,160h40v40h-40z M80,160h40v40h-40z M160,0h40v40h-40z M240,0h40v40h-40z M160,40h40v40h-40z M200,40h40v40h-40z M240,40h40v40h-40z M160,80h40v40h-40z M200,80h40v40h-40z M240,80h40v40h-40z M160,120h40v40h-40z M240,120h40v40h-40z M160,160h40v40h-40z M240,160h40v40h-40z M320,0h40v40h-40z M360,0h40v40h-40z M400,0h40v40h-40z M320,40h40v40h-40z M400,40h40v40h-40z M320,80h40v40h-40z M360,80h40v40h-40z M400,80h40v40h-40z M320,120h40v40h-40z M320,160h40v40h-40z M480,0h40v40h-40z M520,0h40v40h-40z M560,0h40v40h-40z M520,40h40v40h-40z M520,80h40v40h-40z M520,120h40v40h-40z M520,160h40v40h-40z M640,0h40v40h-40z M720,0h40v40h-40z M640,40h40v40h-40z M720,40h40v40h-40z M680,80h40v40h-40z M680,120h40v40h-40z M680,160h40v40h-40z M960,0h40v40h-40z M1000,0h40v40h-40z M1040,0h40v40h-40z M960,40h40v40h-40z M960,80h40v40h-40z M1000,80h40v40h-40z M1040,80h40v40h-40z M1040,120h40v40h-40z M960,160h40v40h-40z M1000,160h40v40h-40z M1040,160h40v40h-40z M1120,0h40v40h-40z M1200,0h40v40h-40z M1120,40h40v40h-40z M1200,40h40v40h-40z M1120,80h40v40h-40z M1160,80h40v40h-40z M1120,120h40v40h-40z M1200,120h40v40h-40z M1120,160h40v40h-40z M1200,160h40v40h-40z M1280,0h40v40h-40z M1320,0h40v40h-40z M1360,0h40v40h-40z M1280,40h40v40h-40z M1280,80h40v40h-40z M1320,80h40v40h-40z M1280,120h40v40h-40z M1280,160h40v40h-40z M1320,160h40v40h-40z M1360,160h40v40h-40z M1440,0h40v40h-40z M1480,0h40v40h-40z M1520,0h40v40h-40z M1480,40h40v40h-40z M1480,80h40v40h-40z M1480,120h40v40h-40z M1480,160h40v40h-40z M1600,0h40v40h-40z M1640,0h40v40h-40z M1680,0h40v40h-40z M1600,40h40v40h-40z M1600,80h40v40h-40z M1600,120h40v40h-40z M1600,160h40v40h-40z M1640,160h40v40h-40z M1680,160h40v40h-40z M1760,0h40v40h-40z M1840,0h40v40h-40z M1760,40h40v40h-40z M1840,40h40v40h-40z M1760,80h40v40h-40z M1800,80h40v40h-40z M1840,80h40v40h-40z M1760,120h40v40h-40z M1840,120h40v40h-40z M1760,160h40v40h-40z M1840,160h40v40h-40z" fill="#666666" stroke="none" /></g></g><g id="stations" inkscape:groupmode="layer" inkscape:label="stations" fill="none" stroke-width="30" stroke-linecap="round" stroke-linejoin="round" stroke="#666666"><g id="overlay-notice"><title>held_source_shots_not_projected</title><g aria-label="CHECK OVERLAY" data-font="jktz-grid-3x5-v1"><title>CHECK OVERLAY</title><path d="M0,-400h40v40h-40z M40,-400h40v40h-40z M80,-400h40v40h-40z M0,-360h40v40h-40z M0,-320h40v40h-40z M0,-280h40v40h-40z M0,-240h40v40h-40z M40,-240h40v40h-40z M80,-240h40v40h-40z M160,-400h40v40h-40z M240,-400h40v40h-40z M160,-360h40v40h-40z M240,-360h40v40h-40z M160,-320h40v40h-40z M200,-320h40v40h-40z M240,-320h40v40h-40z M160,-280h40v40h-40z M240,-280h40v40h-40z M160,-240h40v40h-40z M240,-240h40v40h-40z M320,-400h40v40h-40z M360,-400h40v40h-40z M400,-400h40v40h-40z M320,-360h40v40h-40z M320,-320h40v40h-40z M360,-320h40v40h-40z M320,-280h40v40h-40z M320,-240h40v40h-40z M360,-240h40v40h-40z M400,-240h40v40h-40z M480,-400h40v40h-40z M520,-400h40v40h-40z M560,-400h40v40h-40z M480,-360h40v40h-40z M480,-320h40v40h-40z M480,-280h40v40h-40z M480,-240h40v40h-40z M520,-240h40v40h-40z M560,-240h40v40h-40z M640,-400h40v40h-40z M720,-400h40v40h-40z M640,-360h40v40h-40z M720,-360h40v40h-40z M640,-320h40v40h-40z M680,-320h40v40h-40z M640,-280h40v40h-40z M720,-280h40v40h-40z M640,-240h40v40h-40z M720,-240h40v40h-40z M960,-400h40v40h-40z M1000,-400h40v40h-40z M1040,-400h40v40h-40z M960,-360h40v40h-40z M1040,-360h40v40h-40z M960,-320h40v40h-40z M1040,-320h40v40h-40z M960,-280h40v40h-40z M1040,-280h40v40h-40z M960,-240h40v40h-40z M1000,-240h40v40h-40z M1040,-240h40v40h-40z M1120,-400h40v40h-40z M1200,-400h40v40h-40z M1120,-360h40v40h-40z M1200,-360h40v40h-40z M1120,-320h40v40h-40z M1200,-320h40v40h-40z M1120,-280h40v40h-40z M1200,-280h40v40h-40z M1160,-240h40v40h-40z M1280,-400h40v40h-40z M1320,-400h40v40h-40z M1360,-400h40v40h-40z M1280,-360h40v40h-40z M1280,-320h40v40h-40z M1320,-320h40v40h-40z M1280,-280h40v40h-40z M1280,-240h40v40h-40z M1320,-240h40v40h-40z M1360,-240h40v40h-40z M1440,-400h40v40h-40z M1480,-400h40v40h-40z M1520,-400h40v40h-40z M1440,-360h40v40h-40z M1520,-360h40v40h-40z M1440,-320h40v40h-40z M1480,-320h40v40h-40z M1440,-280h40v40h-40z M1520,-280h40v40h-40z M1440,-240h40v40h-40z M1520,-240h40v40h-40z M1600,-400h40v40h-40z M1600,-360h40v40h-40z M1600,-320h40v40h-40z M1600,-280h40v40h-40z M1600,-240h40v40h-40z M1640,-240h40v40h-40z M1680,-240h40v40h-40z M1800,-400h40v40h-40z M1760,-360h40v40h-40z M1840,-360h40v40h-40z M1760,-320h40v40h-40z M1800,-320h40v40h-40z M1840,-320h40v40h-40z M1760,-280h40v40h-40z M1840,-280h40v40h-40z M1760,-240h40v40h-40z M1840,-240h40v40h-40z M1920,-400h40v40h-40z M2000,-400h40v40h-40z M1920,-360h40v40h-40z M2000,-360h40v40h-40z M1960,-320h40v40h-40z M1960,-280h40v40h-40z M1960,-240h40v40h-40z" fill="#cc0000" stroke="none" /></g></g></g></svg>
