0
SECTION
2
HEADER
9
$ACADVER
1
AC1002
9
$INSUNITS
70
4
0
ENDSEC
0
SECTION
2
TABLES
0
TABLE
2
LTYPE
70
1
0
LTYPE
2
DASH
70
0
3
---
72
65
73
2
40
0.6
49
0.3
49
-0.3
0
ENDTAB
0
ENDSEC
0
SECTION
2
ENTITIES
0
LINE
8
Sketch
62
255
6
DASH
10
-30
20
-30
11
1.742
21
19.924
0
CIRCLE
8
Shots
62
1
10
-30
20
-30
40
0.1
0
LINE
8
XSect
62
1
10
-30
20
-30
11
-29.652
21
-26.016
0
LINE
8
XSect
62
1
10
-30
20
-30
11
-24.022
21
-30.522
0
LINE
8
XSect
62
1
10
-30
20
-30
11
-30.698
21
-37.97
0
LINE
8
XSect
62
1
10
-30
20
-30
11
-39.962
21
-29.128
0
LINE
8
XSect
62
1
10
-30
20
-30
11
-22.04
21
-23.32
0
LINE
8
XSect
62
1
10
-30
20
-30
11
-39.288
21
-37.794
0
LINE
8
XSect
62
1
6
DASH
10
-30
20
-30
11
-30
21
-30
0
LINE
8
Sketch
62
255
6
DASH
10
-10
20
-30
11
1.742
21
19.924
0
CIRCLE
8
Shots
62
1
10
-10
20
-30
40
0.1
0
LINE
8
XSect
62
1
6
DASH
10
-10
20
-30
11
-10
21
-30
0
LINE
8
XSect
62
1
10
-10
20
-30
11
-4
21
-30
0
LINE
8
XSect
62
1
6
DASH
10
-10
20
-30
11
-10
21
-30
0
LINE
8
XSect
62
1
10
-10
20
-30
11
-20
21
-30
0
LINE
8
XSect
62
1
10
-10
20
-30
11
-2.652
21
-24
0
LINE
8
XSect
62
1
10
-10
20
-30
11
-18.572
21
-37
0
LINE
8
XSect
62
1
10
-10
20
-30
11
-10
21
-28
0
LINE
8
Sketch
62
255
6
DASH
10
10
20
-30
11
1.742
21
19.924
0
CIRCLE
8
Shots
62
1
10
10
20
-30
40
0.1
0
LINE
8
XSect
62
1
10
10
20
-30
11
7.172
21
-30
0
LINE
8
XSect
62
1
10
10
20
-30
11
14.242
21
-30
0
LINE
8
XSect
62
1
10
10
20
-30
11
15.656
21
-30
0
LINE
8
XSect
62
1
10
10
20
-30
11
2.928
21
-30
0
LINE
8
XSect
62
1
6
DASH
10
10
20
-30
11
10
21
-24
0
LINE
8
XSect
62
1
6
DASH
10
10
20
-30
11
10
21
-37
0
LINE
8
XSect
62
1
10
10
20
-30
11
10
21
-28
0
LINE
8
Sketch
62
255
6
DASH
10
30
20
-30
11
1.742
21
19.924
0
CIRCLE
8
Shots
62
1
10
30
20
-30
40
0.1
0
LINE
8
XSect
62
1
10
30
20
-30
11
26
21
-30
0
LINE
8
XSect
62
1
6
DASH
10
30
20
-30
11
30
21
-30
0
LINE
8
XSect
62
1
10
30
20
-30
11
38
21
-30
0
LINE
8
XSect
62
1
6
DASH
10
30
20
-30
11
30
21
-30
0
LINE
8
XSect
62
1
10
30
20
-30
11
22.652
21
-24
0
LINE
8
XSect
62
1
10
30
20
-30
11
38.572
21
-37
0
LINE
8
XSect
62
1
10
30
20
-30
11
30
21
-28
0
LINE
8
Sketch
62
255
6
DASH
10
50
20
-30
11
1.742
21
19.924
0
CIRCLE
8
Shots
62
1
10
50
20
-30
40
0.1
0
LINE
8
XSect
62
1
6
DASH
10
50
20
-30
11
50
21
-30
0
LINE
8
XSect
62
1
10
50
20
-30
11
44
21
-30
0
LINE
8
XSect
62
1
6
DASH
10
50
20
-30
11
50
21
-30
0
LINE
8
XSect
62
1
10
50
20
-30
11
60
21
-30
0
LINE
8
XSect
62
1
10
50
20
-30
11
42.652
21
-24
0
LINE
8
XSect
62
1
10
50
20
-30
11
58.572
21
-37
0
LINE
8
XSect
62
1
10
50
20
-30
11
50
21
-28
0
LINE
8
Shots
62
1
10
1.742
20
19.924
11
17.682
21
18.53
0
CIRCLE
8
Shots
62
1
10
17.682
20
18.53
40
0.1
0
LINE
8
Shots
62
1
10
0
20
0
11
1.742
21
19.924
0
CIRCLE
8
Shots
62
1
10
1.742
20
19.924
40
0.1
0
LINE
8
XSect
62
1
10
1.742
20
19.924
11
2.09
21
23.908
0
LINE
8
XSect
62
1
10
1.742
20
19.924
11
7.72
21
19.402
0
LINE
8
XSect
62
1
10
1.742
20
19.924
11
1.044
21
11.954
0
LINE
8
XSect
62
1
10
1.742
20
19.924
11
-8.22
21
20.796
0
LINE
8
XSect
62
1
10
1.742
20
19.924
11
9.702
21
26.604
0
LINE
8
XSect
62
1
10
1.742
20
19.924
11
-7.546
21
12.13
0
LINE
8
XSect
62
1
6
DASH
10
1.742
20
19.924
11
1.742
21
19.924
0
ENDSEC
0
EOF
