0
SECTION
2
HEADER
9
$ACADVER
1
AC1002
9
$INSUNITS
70
4
0
ENDSEC
0
SECTION
2
TABLES
0
TABLE
2
LTYPE
70
1
0
LTYPE
2
DASH
70
0
3
---
72
65
73
2
40
0.6
49
0.3
49
-0.3
0
ENDTAB
0
ENDSEC
0
SECTION
2
ENTITIES
0
POLYLINE
66
1
8
Sketch
62
0
0
VERTEX
8
Sketch
10
8.34
20
14.16
0
VERTEX
8
Sketch
10
8.4
20
14.04
0
VERTEX
8
Sketch
10
8.28
20
14.46
0
VERTEX
8
Sketch
10
8.46
20
14.46
0
VERTEX
8
Sketch
10
8.58
20
14.34
0
VERTEX
8
Sketch
10
8.94
20
14.52
0
SEQEND
0
POLYLINE
66
1
8
Sketch
62
0
0
VERTEX
8
Sketch
10
7.86
20
15.06
0
VERTEX
8
Sketch
10
8.22
20
14.4
0
VERTEX
8
Sketch
10
8.4
20
14.7
0
VERTEX
8
Sketch
10
8.52
20
14.64
0
VERTEX
8
Sketch
10
8.58
20
14.76
0
SEQEND
0
POLYLINE
66
1
8
Sketch
62
0
0
VERTEX
8
Sketch
10
7.14
20
15.18
0
VERTEX
8
Sketch
10
7.32
20
14.88
0
VERTEX
8
Sketch
10
7.44
20
14.88
0
VERTEX
8
Sketch
10
7.44
20
15.06
0
VERTEX
8
Sketch
10
7.68
20
15.3
0
VERTEX
8
Sketch
10
8.04
20
15.36
0
SEQEND
0
POLYLINE
66
1
8
Sketch
62
0
0
VERTEX
8
Sketch
10
6.54
20
16.26
0
VERTEX
8
Sketch
10
6.9
20
15.48
0
VERTEX
8
Sketch
10
7.14
20
15.72
0
VERTEX
8
Sketch
10
7.5
20
15.72
0
VERTEX
8
Sketch
10
7.74
20
15.6
0
SEQEND
0
POLYLINE
66
1
8
Sketch
62
0
0
VERTEX
8
Sketch
10
6.54
20
16.8
0
VERTEX
8
Sketch
10
6.66
20
16.44
0
VERTEX
8
Sketch
10
6.96
20
16.56
0
VERTEX
8
Sketch
10
7.2
20
16.5
0
VERTEX
8
Sketch
10
7.32
20
16.38
0
SEQEND
0
POLYLINE
66
1
8
Sketch
62
0
0
VERTEX
8
Sketch
10
6.48
20
17.82
0
VERTEX
8
Sketch
10
6.84
20
17.16
0
VERTEX
8
Sketch
10
6.78
20
17.34
0
VERTEX
8
Sketch
10
7.26
20
16.8
0
VERTEX
8
Sketch
10
7.38
20
16.8
0
VERTEX
8
Sketch
10
7.44
20
16.68
0
SEQEND
0
POLYLINE
66
1
8
Sketch
62
0
0
VERTEX
8
Sketch
10
7.5
20
17.28
0
VERTEX
8
Sketch
10
7.62
20
17.16
0
VERTEX
8
Sketch
10
7.38
20
17.46
0
VERTEX
8
Sketch
10
7.74
20
17.04
0
VERTEX
8
Sketch
10
7.92
20
16.68
0
SEQEND
0
POLYLINE
66
1
8
Sketch
62
0
0
VERTEX
8
Sketch
10
8.22
20
17.64
0
VERTEX
8
Sketch
10
8.28
20
17.58
0
VERTEX
8
Sketch
10
7.92
20
18
0
VERTEX
8
Sketch
10
8.58
20
17.1
0
SEQEND
0
POLYLINE
66
1
8
Sketch
62
0
0
VERTEX
8
Sketch
10
9
20
17.7
0
VERTEX
8
Sketch
10
9.12
20
17.64
0
VERTEX
8
Sketch
10
9.18
20
17.46
0
VERTEX
8
Sketch
10
8.94
20
17.7
0
VERTEX
8
Sketch
10
9.24
20
17.1
0
SEQEND
0
POLYLINE
66
1
8
Sketch
62
0
0
VERTEX
8
Sketch
10
7.62
20
15.12
0
VERTEX
8
Sketch
10
7.74
20
14.76
0
VERTEX
8
Sketch
10
7.5
20
15.18
0
VERTEX
8
Sketch
10
7.68
20
14.82
0
VERTEX
8
Sketch
10
7.62
20
14.64
0
VERTEX
8
Sketch
10
7.38
20
14.88
0
VERTEX
8
Sketch
10
7.26
20
14.88
0
VERTEX
8
Sketch
10
6.9
20
15.3
0
VERTEX
8
Sketch
10
6.48
20
15.96
0
VERTEX
8
Sketch
10
6.42
20
16.44
0
VERTEX
8
Sketch
10
6.42
20
16.8
0
VERTEX
8
Sketch
10
6.66
20
17.16
0
VERTEX
8
Sketch
10
6.9
20
17.34
0
VERTEX
8
Sketch
10
7.02
20
17.28
0
VERTEX
8
Sketch
10
7.14
20
17.4
0
VERTEX
8
Sketch
10
7.5
20
17.4
0
VERTEX
8
Sketch
10
7.74
20
17.46
0
VERTEX
8
Sketch
10
8.04
20
17.4
0
VERTEX
8
Sketch
10
8.52
20
17.46
0
VERTEX
8
Sketch
10
8.64
20
17.46
0
VERTEX
8
Sketch
10
8.76
20
17.58
0
VERTEX
8
Sketch
10
9.12
20
17.58
0
VERTEX
8
Sketch
10
9.6
20
17.76
0
VERTEX
8
Sketch
10
9.72
20
17.64
0
VERTEX
8
Sketch
10
10.08
20
17.76
0
VERTEX
8
Sketch
10
10.32
20
17.7
0
SEQEND
0
POLYLINE
66
1
8
Sketch
62
0
0
VERTEX
8
Sketch
10
8.7
20
13.8
0
VERTEX
8
Sketch
10
9.06
20
13.02
0
VERTEX
8
Sketch
10
8.76
20
13.5
0
VERTEX
8
Sketch
10
8.88
20
13.38
0
VERTEX
8
Sketch
10
8.88
20
13.38
0
VERTEX
8
Sketch
10
8.64
20
13.92
0
VERTEX
8
Sketch
10
8.28
20
14.22
0
VERTEX
8
Sketch
10
8.16
20
14.22
0
VERTEX
8
Sketch
10
7.92
20
14.52
0
SEQEND
0
POLYLINE
66
1
8
Sketch
62
0
0
VERTEX
8
Sketch
10
5.52
20
18.6
0
VERTEX
8
Sketch
10
4.26
20
20.64
0
SEQEND
0
POLYLINE
66
1
8
Sketch
62
0
0
VERTEX
8
Sketch
10
12.48
20
11.4
0
VERTEX
8
Sketch
10
12.48
20
11.1
0
VERTEX
8
Sketch
10
12.36
20
11.28
0
VERTEX
8
Sketch
10
12.42
20
11.76
0
VERTEX
8
Sketch
10
11.76
20
12.6
0
SEQEND
0
POLYLINE
66
1
8
Sketch
62
5
0
VERTEX
8
Sketch
10
23.42
20
4.94
0
VERTEX
8
Sketch
10
23.5
20
4.78
0
VERTEX
8
Sketch
10
23.42
20
5.1
0
VERTEX
8
Sketch
10
24.3
20
4.62
0
VERTEX
8
Sketch
10
25.26
20
4.46
0
VERTEX
8
Sketch
10
25.66
20
4.46
0
VERTEX
8
Sketch
10
26.22
20
4.38
0
VERTEX
8
Sketch
10
26.46
20
4.46
0
VERTEX
8
Sketch
10
27.02
20
4.46
0
VERTEX
8
Sketch
10
27.9
20
4.86
0
SEQEND
0
POLYLINE
66
1
8
Sketch
62
5
0
VERTEX
8
Sketch
10
22.7
20
4.54
0
VERTEX
8
Sketch
10
22.7
20
4.38
0
VERTEX
8
Sketch
10
22.7
20
4.94
0
VERTEX
8
Sketch
10
23.02
20
5.02
0
VERTEX
8
Sketch
10
23.58
20
4.94
0
VERTEX
8
Sketch
10
23.9
20
5.1
0
VERTEX
8
Sketch
10
24.38
20
4.94
0
VERTEX
8
Sketch
10
24.86
20
5.1
0
VERTEX
8
Sketch
10
25.58
20
5.02
0
VERTEX
8
Sketch
10
26.54
20
5.26
0
VERTEX
8
Sketch
10
27.02
20
5.34
0
VERTEX
8
Sketch
10
26.94
20
6.06
0
SEQEND
0
POLYLINE
66
1
8
Sketch
62
5
0
VERTEX
8
Sketch
10
23.34
20
5.58
0
VERTEX
8
Sketch
10
23.18
20
6.22
0
VERTEX
8
Sketch
10
23.74
20
6.06
0
VERTEX
8
Sketch
10
23.98
20
6.14
0
VERTEX
8
Sketch
10
24.78
20
6.14
0
VERTEX
8
Sketch
10
26.22
20
6.3
0
SEQEND
0
POLYLINE
66
1
8
Sketch
62
5
0
VERTEX
8
Sketch
10
23.5
20
6.14
0
VERTEX
8
Sketch
10
23.5
20
6.38
0
VERTEX
8
Sketch
10
23.34
20
6.7
0
VERTEX
8
Sketch
10
24.22
20
6.7
0
VERTEX
8
Sketch
10
24.38
20
6.62
0
VERTEX
8
Sketch
10
25.34
20
6.94
0
VERTEX
8
Sketch
10
25.82
20
6.94
0
VERTEX
8
Sketch
10
26.14
20
7.26
0
SEQEND
0
POLYLINE
66
1
8
Sketch
62
5
0
VERTEX
8
Sketch
10
23.42
20
7.1
0
VERTEX
8
Sketch
10
23.02
20
7.82
0
VERTEX
8
Sketch
10
23.34
20
7.58
0
VERTEX
8
Sketch
10
23.5
20
7.66
0
VERTEX
8
Sketch
10
24.06
20
7.66
0
VERTEX
8
Sketch
10
24.54
20
7.42
0
VERTEX
8
Sketch
10
25.1
20
7.42
0
VERTEX
8
Sketch
10
25.9
20
7.66
0
VERTEX
8
Sketch
10
26.06
20
7.66
0
SEQEND
0
POLYLINE
66
1
8
Sketch
62
5
0
VERTEX
8
Sketch
10
22.86
20
9.02
0
VERTEX
8
Sketch
10
22.94
20
8.78
0
VERTEX
8
Sketch
10
22.62
20
9.18
0
VERTEX
8
Sketch
10
23.42
20
8.62
0
VERTEX
8
Sketch
10
23.66
20
8.22
0
VERTEX
8
Sketch
10
23.74
20
8.62
0
VERTEX
8
Sketch
10
24.22
20
8.54
0
VERTEX
8
Sketch
10
24.86
20
8.3
0
VERTEX
8
Sketch
10
25.74
20
8.46
0
SEQEND
0
POLYLINE
66
1
8
Sketch
62
5
0
VERTEX
8
Sketch
10
23.58
20
8.86
0
VERTEX
8
Sketch
10
23.58
20
8.7
0
VERTEX
8
Sketch
10
23.66
20
8.86
0
VERTEX
8
Sketch
10
23.98
20
8.94
0
VERTEX
8
Sketch
10
24.22
20
9.26
0
VERTEX
8
Sketch
10
24.7
20
9.34
0
VERTEX
8
Sketch
10
24.86
20
9.26
0
SEQEND
0
POLYLINE
66
1
8
Sketch
62
5
0
VERTEX
8
Sketch
10
24.14
20
9.74
0
VERTEX
8
Sketch
10
23.9
20
10.14
0
VERTEX
8
Sketch
10
24.14
20
9.66
0
VERTEX
8
Sketch
10
24.46
20
9.34
0
VERTEX
8
Sketch
10
24.22
20
9.5
0
VERTEX
8
Sketch
10
23.98
20
9.9
0
VERTEX
8
Sketch
10
23.82
20
9.98
0
VERTEX
8
Sketch
10
23.82
20
9.58
0
VERTEX
8
Sketch
10
24.22
20
8.94
0
VERTEX
8
Sketch
10
24.14
20
8.62
0
VERTEX
8
Sketch
10
23.82
20
8.46
0
VERTEX
8
Sketch
10
23.82
20
8.22
0
VERTEX
8
Sketch
10
23.58
20
7.9
0
VERTEX
8
Sketch
10
23.58
20
7.34
0
VERTEX
8
Sketch
10
23.18
20
6.14
0
VERTEX
8
Sketch
10
23.18
20
5.98
0
VERTEX
8
Sketch
10
22.62
20
4.86
0
VERTEX
8
Sketch
10
22.54
20
3.98
0
VERTEX
8
Sketch
10
22.54
20
3.82
0
SEQEND
0
POLYLINE
66
1
8
Sketch
62
0
0
VERTEX
8
Sketch
10
21.1
20
16.94
0
VERTEX
8
Sketch
10
21.02
20
16.78
0
SEQEND
0
POLYLINE
66
1
8
Sketch
62
0
0
VERTEX
8
Sketch
10
17.34
20
7.34
0
VERTEX
8
Sketch
10
17.42
20
7.02
0
VERTEX
8
Sketch
10
17.5
20
6.86
0
VERTEX
8
Sketch
10
17.5
20
7.18
0
VERTEX
8
Sketch
10
17.74
20
6.7
0
VERTEX
8
Sketch
10
18.46
20
6.06
0
VERTEX
8
Sketch
10
19.98
20
5.18
0
VERTEX
8
Sketch
10
20.3
20
5.1
0
VERTEX
8
Sketch
10
21.1
20
4.62
0
VERTEX
8
Sketch
10
21.42
20
4.62
0
VERTEX
8
Sketch
10
22.06
20
4.14
0
VERTEX
8
Sketch
10
22.22
20
4.14
0
VERTEX
8
Sketch
10
22.46
20
3.98
0
VERTEX
8
Sketch
10
23.1
20
3.82
0
VERTEX
8
Sketch
10
23.5
20
3.74
0
VERTEX
8
Sketch
10
23.74
20
3.98
0
VERTEX
8
Sketch
10
24.22
20
4.14
0
VERTEX
8
Sketch
10
24.38
20
4.3
0
VERTEX
8
Sketch
10
24.54
20
4.3
0
VERTEX
8
Sketch
10
24.86
20
4.54
0
VERTEX
8
Sketch
10
25.02
20
4.54
0
VERTEX
8
Sketch
10
25.1
20
4.38
0
VERTEX
8
Sketch
10
25.42
20
4.46
0
SEQEND
0
POLYLINE
66
1
8
Sketch
62
0
0
VERTEX
8
Sketch
10
17.18
20
7.18
0
VERTEX
8
Sketch
10
17.26
20
7.02
0
VERTEX
8
Sketch
10
16.86
20
7.9
0
VERTEX
8
Sketch
10
17.1
20
7.58
0
VERTEX
8
Sketch
10
17.58
20
6.62
0
VERTEX
8
Sketch
10
18.22
20
6.06
0
VERTEX
8
Sketch
10
18.46
20
5.82
0
VERTEX
8
Sketch
10
18.62
20
5.82
0
VERTEX
8
Sketch
10
18.7
20
5.66
0
SEQEND
0
POLYLINE
66
1
8
Sketch
62
0
0
VERTEX
8
Sketch
10
28.86
20
17.18
0
VERTEX
8
Sketch
10
29.02
20
17.26
0
VERTEX
8
Sketch
10
28.78
20
17.58
0
VERTEX
8
Sketch
10
28.14
20
17.98
0
VERTEX
8
Sketch
10
28.7
20
17.5
0
SEQEND
0
POLYLINE
66
1
8
Sketch
62
0
0
VERTEX
8
Sketch
10
22.06
20
12.54
0
VERTEX
8
Sketch
10
22.14
20
12.38
0
VERTEX
8
Sketch
10
23.42
20
11.18
0
VERTEX
8
Sketch
10
23.82
20
10.46
0
VERTEX
8
Sketch
10
23.98
20
10.38
0
VERTEX
8
Sketch
10
24.06
20
10.14
0
VERTEX
8
Sketch
10
25.1
20
9.1
0
VERTEX
8
Sketch
10
25.98
20
7.58
0
VERTEX
8
Sketch
10
26.38
20
6.7
0
VERTEX
8
Sketch
10
26.62
20
6.38
0
VERTEX
8
Sketch
10
26.62
20
6.06
0
VERTEX
8
Sketch
10
26.7
20
5.66
0
VERTEX
8
Sketch
10
26.14
20
4.86
0
VERTEX
8
Sketch
10
25.9
20
4.54
0
SEQEND
0
POLYLINE
66
1
8
Sketch
62
0
0
VERTEX
8
Sketch
10
8.06
20
14.06
0
VERTEX
8
Sketch
10
8.22
20
13.42
0
VERTEX
8
Sketch
10
8.86
20
12.78
0
VERTEX
8
Sketch
10
9.34
20
12.62
0
VERTEX
8
Sketch
10
9.5
20
12.38
0
VERTEX
8
Sketch
10
9.66
20
12.38
0
VERTEX
8
Sketch
10
10.78
20
11.18
0
VERTEX
8
Sketch
10
11.02
20
10.78
0
VERTEX
8
Sketch
10
11.26
20
10.7
0
VERTEX
8
Sketch
10
11.5
20
10.3
0
VERTEX
8
Sketch
10
11.66
20
10.3
0
VERTEX
8
Sketch
10
12.3
20
9.9
0
VERTEX
8
Sketch
10
12.78
20
9.82
0
VERTEX
8
Sketch
10
13.1
20
9.58
0
VERTEX
8
Sketch
10
13.26
20
9.58
0
VERTEX
8
Sketch
10
13.9
20
9.02
0
VERTEX
8
Sketch
10
14.3
20
8.86
0
VERTEX
8
Sketch
10
14.78
20
8.38
0
VERTEX
8
Sketch
10
15.98
20
7.26
0
VERTEX
8
Sketch
10
16.3
20
7.02
0
VERTEX
8
Sketch
10
16.62
20
6.94
0
VERTEX
8
Sketch
10
17.18
20
6.7
0
VERTEX
8
Sketch
10
17.34
20
6.54
0
VERTEX
8
Sketch
10
17.5
20
6.54
0
VERTEX
8
Sketch
10
17.58
20
6.38
0
SEQEND
0
POLYLINE
66
1
8
Sketch
62
0
0
VERTEX
8
Sketch
10
8.22
20
14.06
0
VERTEX
8
Sketch
10
8.3
20
13.5
0
VERTEX
8
Sketch
10
8.3
20
13.98
0
VERTEX
8
Sketch
10
8.38
20
13.82
0
VERTEX
8
Sketch
10
8.38
20
14.06
0
VERTEX
8
Sketch
10
8.54
20
13.58
0
VERTEX
8
Sketch
10
8.86
20
13.1
0
VERTEX
8
Sketch
10
9.02
20
13.1
0
VERTEX
8
Sketch
10
9.1
20
12.94
0
SEQEND
0
POLYLINE
66
1
8
Sketch
62
0
0
VERTEX
8
Sketch
10
5.9
20
19.98
0
VERTEX
8
Sketch
10
5.9
20
19.66
0
VERTEX
8
Sketch
10
6.06
20
19.74
0
VERTEX
8
Sketch
10
6.54
20
19.34
0
VERTEX
8
Sketch
10
6.86
20
19.26
0
VERTEX
8
Sketch
10
7.34
20
19.02
0
VERTEX
8
Sketch
10
7.5
20
19.02
0
VERTEX
8
Sketch
10
7.66
20
18.86
0
VERTEX
8
Sketch
10
7.98
20
18.78
0
VERTEX
8
Sketch
10
8.46
20
18.46
0
VERTEX
8
Sketch
10
8.62
20
18.3
0
VERTEX
8
Sketch
10
8.94
20
18.22
0
VERTEX
8
Sketch
10
9.82
20
17.82
0
VERTEX
8
Sketch
10
9.98
20
17.82
0
VERTEX
8
Sketch
10
10.86
20
17.18
0
VERTEX
8
Sketch
10
11.02
20
17.18
0
VERTEX
8
Sketch
10
11.5
20
16.86
0
VERTEX
8
Sketch
10
11.66
20
16.86
0
VERTEX
8
Sketch
10
11.98
20
16.62
0
VERTEX
8
Sketch
10
12.3
20
16.62
0
VERTEX
8
Sketch
10
12.62
20
16.54
0
VERTEX
8
Sketch
10
12.78
20
16.38
0
VERTEX
8
Sketch
10
12.94
20
16.38
0
VERTEX
8
Sketch
10
13.58
20
15.98
0
VERTEX
8
Sketch
10
13.74
20
15.98
0
VERTEX
8
Sketch
10
14.06
20
15.74
0
VERTEX
8
Sketch
10
14.22
20
15.74
0
VERTEX
8
Sketch
10
14.3
20
15.58
0
VERTEX
8
Sketch
10
15.1
20
15.42
0
VERTEX
8
Sketch
10
16.14
20
14.94
0
VERTEX
8
Sketch
10
16.62
20
14.62
0
VERTEX
8
Sketch
10
16.78
20
14.62
0
VERTEX
8
Sketch
10
17.1
20
14.3
0
VERTEX
8
Sketch
10
17.26
20
14.3
0
VERTEX
8
Sketch
10
17.9
20
13.9
0
VERTEX
8
Sketch
10
18.06
20
13.9
0
VERTEX
8
Sketch
10
18.3
20
13.74
0
VERTEX
8
Sketch
10
18.46
20
13.74
0
VERTEX
8
Sketch
10
18.62
20
13.58
0
VERTEX
8
Sketch
10
19.1
20
13.58
0
VERTEX
8
Sketch
10
19.18
20
13.42
0
VERTEX
8
Sketch
10
19.34
20
13.5
0
VERTEX
8
Sketch
10
20.54
20
13.1
0
VERTEX
8
Sketch
10
20.7
20
13.1
0
VERTEX
8
Sketch
10
21.18
20
12.78
0
VERTEX
8
Sketch
10
21.5
20
12.7
0
VERTEX
8
Sketch
10
22.14
20
12.3
0
VERTEX
8
Sketch
10
22.3
20
12.3
0
VERTEX
8
Sketch
10
22.86
20
11.74
0
SEQEND
0
POLYLINE
66
1
8
Sketch
62
0
0
VERTEX
8
Sketch
10
-0.72
20
11.42
0
VERTEX
8
Sketch
10
-0.66
20
11.12
0
VERTEX
8
Sketch
10
-0.54
20
11.3
0
VERTEX
8
Sketch
10
-0.36
20
11
0
VERTEX
8
Sketch
10
-0.06
20
11.18
0
VERTEX
8
Sketch
10
0.06
20
11.06
0
VERTEX
8
Sketch
10
0.12
20
11.18
0
VERTEX
8
Sketch
10
0.48
20
11.24
0
VERTEX
8
Sketch
10
0.84
20
11.54
0
VERTEX
8
Sketch
10
0.96
20
11.48
0
VERTEX
8
Sketch
10
1.02
20
11.6
0
VERTEX
8
Sketch
10
1.32
20
11.66
0
VERTEX
8
Sketch
10
1.92
20
12.02
0
VERTEX
8
Sketch
10
2.94
20
12.32
0
VERTEX
8
Sketch
10
3.06
20
12.44
0
VERTEX
8
Sketch
10
3.36
20
12.44
0
VERTEX
8
Sketch
10
3.72
20
12.56
0
VERTEX
8
Sketch
10
3.84
20
12.56
0
VERTEX
8
Sketch
10
4.08
20
12.74
0
VERTEX
8
Sketch
10
4.8
20
12.92
0
VERTEX
8
Sketch
10
4.92
20
13.04
0
VERTEX
8
Sketch
10
5.04
20
12.98
0
VERTEX
8
Sketch
10
5.4
20
13.16
0
VERTEX
8
Sketch
10
5.64
20
13.22
0
VERTEX
8
Sketch
10
5.88
20
13.28
0
VERTEX
8
Sketch
10
6
20
13.22
0
VERTEX
8
Sketch
10
6.24
20
13.4
0
VERTEX
8
Sketch
10
6.42
20
13.4
0
VERTEX
8
Sketch
10
7.14
20
13.7
0
VERTEX
8
Sketch
10
7.5
20
13.7
0
VERTEX
8
Sketch
10
7.62
20
13.64
0
VERTEX
8
Sketch
10
7.74
20
13.7
0
VERTEX
8
Sketch
10
8.16
20
13.34
0
VERTEX
8
Sketch
10
8.28
20
13.34
0
VERTEX
8
Sketch
10
8.52
20
13.1
0
SEQEND
0
POLYLINE
66
1
8
Sketch
62
0
0
VERTEX
8
Sketch
10
-1.62
20
14.84
0
VERTEX
8
Sketch
10
-1.62
20
14.72
0
VERTEX
8
Sketch
10
-1.32
20
13.7
0
VERTEX
8
Sketch
10
-1.26
20
13.46
0
VERTEX
8
Sketch
10
-0.84
20
13.94
0
SEQEND
0
POLYLINE
66
1
8
Sketch
62
0
0
VERTEX
8
Sketch
10
-1.44
20
14
0
VERTEX
8
Sketch
10
-1.38
20
13.58
0
VERTEX
8
Sketch
10
-1.38
20
13.58
0
VERTEX
8
Sketch
10
-1.26
20
13.1
0
VERTEX
8
Sketch
10
-0.84
20
12.2
0
VERTEX
8
Sketch
10
-0.84
20
12.08
0
VERTEX
8
Sketch
10
-0.36
20
11.72
0
VERTEX
8
Sketch
10
-0.24
20
11.78
0
VERTEX
8
Sketch
10
0
20
11.72
0
VERTEX
8
Sketch
10
0.12
20
11.54
0
VERTEX
8
Sketch
10
0.36
20
11.48
0
VERTEX
8
Sketch
10
0.54
20
11.3
0
VERTEX
8
Sketch
10
0.78
20
11.24
0
SEQEND
0
POLYLINE
66
1
8
Sketch
62
0
0
VERTEX
8
Sketch
10
-1.44
20
14.12
0
VERTEX
8
Sketch
10
-1.56
20
14.54
0
SEQEND
0
POLYLINE
66
1
8
Sketch
62
0
0
VERTEX
8
Sketch
10
-1.38
20
14.12
0
VERTEX
8
Sketch
10
-1.32
20
13.64
0
VERTEX
8
Sketch
10
-1.26
20
13.52
0
VERTEX
8
Sketch
10
-1.56
20
14.36
0
SEQEND
0
POLYLINE
66
1
8
Sketch
62
0
0
VERTEX
8
Sketch
10
-1.68
20
12.38
0
VERTEX
8
Sketch
10
-1.68
20
12.38
0
SEQEND
0
POLYLINE
66
1
8
Sketch
62
0
0
VERTEX
8
Sketch
10
-1.32
20
12.14
0
VERTEX
8
Sketch
10
-1.26
20
11.78
0
VERTEX
8
Sketch
10
-1.38
20
11.96
0
VERTEX
8
Sketch
10
-1.38
20
11.84
0
VERTEX
8
Sketch
10
-1.5
20
11.84
0
VERTEX
8
Sketch
10
-1.62
20
11.96
0
SEQEND
0
POLYLINE
66
1
8
Sketch
62
0
0
VERTEX
8
Sketch
10
-1.98
20
10.88
0
VERTEX
8
Sketch
10
-1.98
20
10.76
0
VERTEX
8
Sketch
10
-1.74
20
11.3
0
VERTEX
8
Sketch
10
-1.56
20
12.08
0
VERTEX
8
Sketch
10
-1.38
20
12.8
0
VERTEX
8
Sketch
10
-1.26
20
13.46
0
VERTEX
8
Sketch
10
-1.2
20
13.94
0
VERTEX
8
Sketch
10
-1.08
20
14.78
0
VERTEX
8
Sketch
10
-0.84
20
15.44
0
VERTEX
8
Sketch
10
-0.84
20
15.68
0
VERTEX
8
Sketch
10
-0.36
20
17.42
0
VERTEX
8
Sketch
10
-0.12
20
17.96
0
VERTEX
8
Sketch
10
0
20
18.08
0
VERTEX
8
Sketch
10
0.06
20
18.38
0
VERTEX
8
Sketch
10
0.54
20
19.04
0
VERTEX
8
Sketch
10
0.84
20
19.46
0
VERTEX
8
Sketch
10
0.96
20
19.46
0
VERTEX
8
Sketch
10
1.32
20
19.76
0
VERTEX
8
Sketch
10
1.38
20
19.94
0
VERTEX
8
Sketch
10
1.5
20
19.94
0
VERTEX
8
Sketch
10
1.86
20
20.24
0
VERTEX
8
Sketch
10
2.16
20
20.42
0
VERTEX
8
Sketch
10
2.4
20
20.42
0
VERTEX
8
Sketch
10
2.88
20
20.54
0
VERTEX
8
Sketch
10
3.36
20
20.6
0
VERTEX
8
Sketch
10
3.54
20
20.6
0
VERTEX
8
Sketch
10
3.66
20
20.66
0
VERTEX
8
Sketch
10
4.14
20
20.54
0
VERTEX
8
Sketch
10
4.32
20
20.36
0
VERTEX
8
Sketch
10
4.56
20
20.3
0
VERTEX
8
Sketch
10
4.68
20
20.18
0
VERTEX
8
Sketch
10
4.92
20
20.12
0
VERTEX
8
Sketch
10
5.4
20
19.94
0
VERTEX
8
Sketch
10
6
20
19.46
0
VERTEX
8
Sketch
10
6
20
19.34
0
SEQEND
0
POLYLINE
66
1
8
Sketch
62
0
0
VERTEX
8
Sketch
10
-0.08
20
1.48
0
VERTEX
8
Sketch
10
0.16
20
0.68
0
VERTEX
8
Sketch
10
0.16
20
0.44
0
VERTEX
8
Sketch
10
0.32
20
-0.12
0
VERTEX
8
Sketch
10
0.4
20
0.44
0
VERTEX
8
Sketch
10
0.32
20
0.84
0
VERTEX
8
Sketch
10
0.4
20
0.68
0
VERTEX
8
Sketch
10
0.64
20
1.16
0
VERTEX
8
Sketch
10
0.64
20
1.64
0
VERTEX
8
Sketch
10
0.72
20
2.04
0
VERTEX
8
Sketch
10
0.72
20
2.84
0
VERTEX
8
Sketch
10
0.8
20
3.16
0
VERTEX
8
Sketch
10
0.72
20
3.96
0
VERTEX
8
Sketch
10
0.8
20
4.12
0
VERTEX
8
Sketch
10
0.72
20
4.52
0
VERTEX
8
Sketch
10
0.72
20
5.48
0
VERTEX
8
Sketch
10
0.4
20
6.68
0
VERTEX
8
Sketch
10
0.32
20
7
0
VERTEX
8
Sketch
10
0.32
20
7.16
0
VERTEX
8
Sketch
10
0.16
20
7.32
0
VERTEX
8
Sketch
10
0.08
20
7.64
0
VERTEX
8
Sketch
10
-0.32
20
8.92
0
VERTEX
8
Sketch
10
-0.48
20
9.08
0
VERTEX
8
Sketch
10
-0.56
20
9.48
0
VERTEX
8
Sketch
10
-0.88
20
10.12
0
VERTEX
8
Sketch
10
-0.88
20
10.44
0
VERTEX
8
Sketch
10
-0.48
20
10.92
0
SEQEND
0
POLYLINE
66
1
8
Sketch
62
0
0
VERTEX
8
Sketch
10
-2.24
20
10.76
0
VERTEX
8
Sketch
10
-2
20
10.44
0
VERTEX
8
Sketch
10
-2
20
10.04
0
VERTEX
8
Sketch
10
-1.84
20
9.56
0
VERTEX
8
Sketch
10
-1.76
20
9.16
0
VERTEX
8
Sketch
10
-1.68
20
8.84
0
VERTEX
8
Sketch
10
-1.28
20
7.16
0
VERTEX
8
Sketch
10
-1.36
20
7
0
VERTEX
8
Sketch
10
-1.28
20
6.44
0
VERTEX
8
Sketch
10
-1.28
20
6.12
0
VERTEX
8
Sketch
10
-1.2
20
5.56
0
VERTEX
8
Sketch
10
-1.2
20
4.92
0
VERTEX
8
Sketch
10
-1.28
20
4.52
0
VERTEX
8
Sketch
10
-1.28
20
2.52
0
VERTEX
8
Sketch
10
-1.2
20
2.2
0
VERTEX
8
Sketch
10
-0.96
20
0.84
0
VERTEX
8
Sketch
10
-0.64
20
-0.04
0
VERTEX
8
Sketch
10
-0.64
20
-0.76
0
SEQEND
0
POLYLINE
66
1
8
Sketch
62
0
0
VERTEX
8
Sketch
10
-2.56
20
11.64
0
VERTEX
8
Sketch
10
-2.48
20
11.48
0
VERTEX
8
Sketch
10
-2.96
20
12.04
0
SEQEND
0
POLYLINE
66
1
8
Sketch
62
0
0
VERTEX
8
Sketch
10
-0.48
20
0.52
0
VERTEX
8
Sketch
10
-0.48
20
0.36
0
VERTEX
8
Sketch
10
-0.64
20
0.76
0
VERTEX
8
Sketch
10
-0.4
20
0.28
0
SEQEND
0
LINE
8
Shots
62
1
10
26.242
20
5.662
11
24.458
21
8.81
0
CIRCLE
8
Shots
62
1
10
24.458
20
8.81
40
0.1
0
LINE
8
Shots
62
1
10
22.474
20
11.796
11
26.242
21
5.662
0
CIRCLE
8
Shots
62
1
10
26.242
20
5.662
40
0.1
0
LINE
8
Shots
62
1
10
8.532
20
13.656
11
22.474
21
11.796
0
CIRCLE
8
Shots
62
1
10
22.474
20
11.796
40
0.1
0
LINE
8
Shots
62
1
10
5.266
20
19.798
11
8.532
21
13.656
0
CIRCLE
8
Shots
62
1
10
8.532
20
13.656
40
0.1
0
LINE
8
Shots
62
1
10
-1.216
20
12.124
11
5.266
21
19.798
0
CIRCLE
8
Shots
62
1
10
5.266
20
19.798
40
0.1
0
LINE
8
Shots
62
1
10
-1.706
20
10.756
11
-1.216
21
12.124
0
CIRCLE
8
Shots
62
1
10
-1.216
20
12.124
40
0.1
0
LINE
8
Shots
62
1
10
-0.482
20
7.958
11
-1.706
21
10.756
0
CIRCLE
8
Shots
62
1
10
-1.706
20
10.756
40
0.1
0
LINE
8
Shots
62
1
10
0
20
0
11
-0.482
21
7.958
0
CIRCLE
8
Shots
62
1
10
-0.482
20
7.958
40
0.1
0
ENDSEC
0
EOF
