<svg xmlns="http://www.w3.org/2000/svg" xmlns:inkscape="http://www.inkscape.org/namespaces/inkscape" version="1.1" width="736" height="566" viewBox="-7825 -10325 18400 14150" data-sketch-status="nonempty"><title>PocketTopo plan: measurements; sketch nonempty</title><metadata>{"axes": "x_right_y_down", "font": "jktz-grid-3x5-v1-paths-no-system-fonts", "mapping": {"origin": {"x": -100, "y": 200}, "scale": 500}, "mapping_applied_to_geometry": false, "overlay_notices": [], "palette_srgb": ["#000000", "#b0b0b0", "#a52a2a", "#0000ff", "#ff0000", "#00c000", "#ffa500"], "settings": {"background": "#ffffff", "label_height_mm": 200.0, "max_dimension": 4096, "max_pixels": 16000000, "padding_mm": 250.0, "pixels_per_metre": 40.0, "stroke_width_mm": 30.0}, "sketch_status": "nonempty", "sketch_vertices": 22, "source_units": "mm", "variant": "measurements", "view": "plan", "viewport": {"effective_pixels_per_metre": 40.0, "height_px": 566, "requested_pixels_per_metre": 40.0, "viewbox_mm": [-7825.0, -10325.0, 18400.0, 14150.0], "width_px": 736}, "xsections": [{"direction": -1, "element_index": 8, "position": {"x": -5000, "y": -6000}, "station": {"raw": -2147483646}}, {"direction": 16384, "element_index": 9, "position": {"x": 5000, "y": -6000}, "station": {"raw": -2147483645}}]}</metadata><rect id="background" x="-7825" y="-10325" width="18400" height="14150" fill="#ffffff" /><g id="survey" inkscape:groupmode="layer" inkscape:label="survey" fill="none" stroke-width="30" stroke-linecap="round" stroke-linejoin="round" stroke="#666666"><polyline points="0,0 0,-10000" stroke="#b000b0" data-source-indices="[0]" data-group-id="0" /><polyline points="0,-10000 10000,-10000" stroke="#b000b0" data-source-indices="[1]" data-group-id="1" /></g><g id="splays" inkscape:groupmode="layer" inkscape:label="splays" fill="none" stroke-width="30" stroke-linecap="round" stroke-linejoin="round" stroke="#666666" /><g id="xsections" inkscape:groupmode="layer" inkscape:label="xsections" fill="none" stroke-width="30" stroke-linecap="round" stroke-linejoin="round" stroke="#666666"><g data-element-index="8" data-station-raw="-2147483646" data-direction="-1" data-status="projected"><circle cx="-5000" cy="-6000" r="60" /><polyline points="-5000,-6000 0,-10000" stroke-dasharray="90 60" /></g><g data-element-index="9" data-station-raw="-2147483645" data-direction="16384" data-status="projected"><circle cx="5000" cy="-6000" r="60" /><polyline points="5000,-6000 10000,-10000" stroke-dasharray="90 60" /></g></g><g id="sketch" inkscape:groupmode="layer" inkscape:label="sketch" fill="none" stroke-width="30" stroke-linecap="round" stroke-linejoin="round" stroke="#666666"><polyline data-element-index="0" data-color-index="1" points="-6000,-2000 -5500,-1000 -4500,-1500" stroke="#000000" /><polyline data-element-index="1" data-color-index="2" points="-4000,-2000 -3500,-1000 -2500,-1500" stroke="#b0b0b0" /><polyline data-element-index="2" data-color-index="3" points="-2000,-2000 -1500,-1000 -500,-1500" stroke="#a52a2a" /><polyline data-element-index="3" data-color-index="4" points="0,-2000 500,-1000 1500,-1500" stroke="#0000ff" /><polyline data-element-index="4" data-color-index="5" points="2000,-2000 2500,-1000 3500,-1500" stroke="#ff0000" /><polyline data-element-index="5" data-color-index="6" points="4000,-2000 4500,-1000 5500,-1500" stroke="#00c000" /><polyline data-element-index="6" data-color-index="7" points="6000,-2000 6500,-1000 7500,-1500" stroke="#ffa500" /><circle data-element-index="7" data-color-index="1" cx="-7500" cy="3500" r="15" fill="#000000" stroke="none" /></g><g id="stations" inkscape:groupmode="layer" inkscape:label="stations" fill="none" stroke-width="30" stroke-linecap="round" stroke-linejoin="round" stroke="#666666"><g data-station-raw="-2147483647"><circle cx="0" cy="0" r="60" fill="#b000b0" stroke="none" /><g aria-label="0" data-font="jktz-grid-3x5-v1"><title>0</title><path d="M90,0h40v40h-40z M130,0h40v40h-40z M170,0h40v40h-40z M90,40h40v40h-40z M170,40h40v40h-40z M90,80h40v40h-40z M170,80h40v40h-40z M90,120h40v40h-40z M170,120h40v40h-40z M90,160h40v40h-40z M130,160h40v40h-40z M170,160h40v40h-40z" fill="#b000b0" stroke="none" /></g></g><g data-station-raw="-2147483646"><circle cx="0" cy="-10000" r="60" fill="#b000b0" stroke="none" /><g aria-label="1" data-font="jktz-grid-3x5-v1"><title>1</title><path d="M130,-10000h40v40h-40z M90,-9960h40v40h-40z M130,-9960h40v40h-40z M130,-9920h40v40h-40z M130,-9880h40v40h-40z M90,-9840h40v40h-40z M130,-9840h40v40h-40z M170,-9840h40v40h-40z" fill="#b000b0" stroke="none" /></g></g><g data-station-raw="-2147483645"><circle cx="10000" cy="-10000" r="60" fill="#b000b0" stroke="none" /><g aria-label="2" data-font="jktz-grid-3x5-v1"><title>2</title><path d="M10090,-10000h40v40h-40z M10130,-10000h40v40h-40z M10170,-10000h40v40h-40z M10170,-9960h40v40h-40z M10090,-9920h40v40h-40z M10130,-9920h40v40h-40z M10170,-9920h40v40h-40z M10090,-9880h40v40h-40z M10090,-9840h40v40h-40z M10130,-9840h40v40h-40z M10170,-9840h40v40h-40z" fill="#b000b0" stroke="none" /></g></g></g></svg>
