0
SECTION
2
HEADER
9
$ACADVER
1
AC1002
9
$INSUNITS
70
4
0
ENDSEC
0
SECTION
2
TABLES
0
TABLE
2
LTYPE
70
1
0
LTYPE
2
DASH
70
0
3
---
72
65
73
2
40
0.6
49
0.3
49
-0.3
0
ENDTAB
0
ENDSEC
0
SECTION
2
ENTITIES
0
LINE
8
Shots
62
1
10
-1.94
20
0.694
11
6.06
21
0.694
0
CIRCLE
8
Shots
62
1
10
6.06
20
0.694
40
0.1
0
LINE
8
Shots
62
1
10
2
20
0
11
-1.94
21
0.694
0
CIRCLE
8
Shots
62
1
10
-1.94
20
0.694
40
0.1
0
LINE
8
XSect
62
1
6
DASH
10
-1.94
20
0.694
11
-1.94
21
-0.348
0
LINE
8
Shots
62
1
10
0
20
0
11
2
21
0
0
CIRCLE
8
Shots
62
1
10
2
20
0
40
0.1
0
ENDSEC
0
EOF
