<svg xmlns="http://www.w3.org/2000/svg" xmlns:inkscape="http://www.inkscape.org/namespaces/inkscape" version="1.1" width="665" height="470" viewBox="-1805 -11055 16640 11760" data-sketch-status="nonempty"><title>PocketTopo plan: measurements; sketch nonempty</title><metadata>{"axes": "x_right_y_down", "font": "jktz-grid-3x5-v1-paths-no-system-fonts", "mapping": {"origin": {"x": 8460, "y": -6000}, "scale": 150}, "mapping_applied_to_geometry": false, "overlay_notices": ["unadjusted_closure", "held_source_shots_not_projected"], "palette_srgb": ["#000000", "#b0b0b0", "#a52a2a", "#0000ff", "#ff0000", "#00c000", "#ffa500"], "settings": {"background": "#ffffff", "label_height_mm": 200.0, "max_dimension": 4096, "max_pixels": 16000000, "padding_mm": 250.0, "pixels_per_metre": 40.0, "stroke_width_mm": 30.0}, "sketch_status": "nonempty", "sketch_vertices": 459, "source_units": "mm", "variant": "measurements", "view": "plan", "viewport": {"effective_pixels_per_metre": 39.96394230769231, "height_px": 470, "requested_pixels_per_metre": 40.0, "viewbox_mm": [-1805.0, -11055.0, 16640.0, 11760.0], "width_px": 665}, "xsections": []}</metadata><rect id="background" x="-1805" y="-11055" width="16640" height="11760" fill="#ffffff" /><g id="survey" inkscape:groupmode="layer" inkscape:label="survey" fill="none" stroke-width="30" stroke-linecap="round" stroke-linejoin="round" stroke="#666666"><polyline points="0,0 -209.545922071,-3992.027755409" stroke="#b000b0" data-source-indices="[1]" data-group-id="1" /><polyline points="0,0 -258.989458021,-3972.814474438" stroke="#b000b0" data-source-indices="[2]" data-group-id="2" /><polyline points="0,0 -255.942271602,-3973.011948293" stroke="#b000b0" data-source-indices="[3]" data-group-id="3" /><polyline points="-209.545922071,-3992.027755409 -822.036387502,-5390.763026297" stroke="#b000b0" data-source-indices="[4]" data-group-id="4" /><polyline points="-209.545922071,-3992.027755409 -821.804535375,-5392.425411725" stroke="#b000b0" data-source-indices="[5]" data-group-id="5" /><polyline points="-209.545922071,-3992.027755409 -822.457656667,-5390.265471852" stroke="#b000b0" data-source-indices="[6]" data-group-id="6" /><polyline points="-822.036387502,-5390.763026297 -577.56563664,-6077.539821568" stroke="#b000b0" data-source-indices="[7]" data-group-id="7" /><polyline points="-822.036387502,-5390.763026297 -576.586602266,-6075.300545904" stroke="#b000b0" data-source-indices="[8]" data-group-id="8" /><polyline points="-822.036387502,-5390.763026297 -573.527123294,-6072.293933839" stroke="#b000b0" data-source-indices="[9]" data-group-id="9" /><polyline points="-577.56563664,-6077.539821568 2660.763736607,-9908.97908892" stroke="#b000b0" data-source-indices="[10]" data-group-id="10" /><polyline points="-577.56563664,-6077.539821568 2664.994111346,-9918.463663104" stroke="#b000b0" data-source-indices="[11]" data-group-id="11" /><polyline points="-577.56563664,-6077.539821568 2664.854275468,-9918.298022684" stroke="#b000b0" data-source-indices="[12]" data-group-id="12" /><polyline points="2660.763736607,-9908.97908892 4284.532544108,-6846.446401684" stroke="#b000b0" data-source-indices="[13]" data-group-id="13" /><polyline points="2660.763736607,-9908.97908892 4309.369697669,-6828.20751156" stroke="#b000b0" data-source-indices="[14]" data-group-id="14" /><polyline points="2660.763736607,-9908.97908892 4288.558401649,-6837.430428537" stroke="#b000b0" data-source-indices="[15]" data-group-id="15" /><polyline points="4284.532544108,-6846.446401684 11249.187054303,-5888.969611459" stroke="#b000b0" data-source-indices="[16]" data-group-id="16" /><polyline points="4284.532544108,-6846.446401684 11252.888543158,-5940.143800996" stroke="#b000b0" data-source-indices="[17]" data-group-id="17" /><polyline points="4284.532544108,-6846.446401684 11265.120560703,-5918.127921717" stroke="#b000b0" data-source-indices="[18]" data-group-id="18" /><polyline points="11249.187054303,-5888.969611459 13148.392757979,-2799.46305376" stroke="#b000b0" data-source-indices="[19]" data-group-id="19" /><polyline points="11249.187054303,-5888.969611459 13121.178988249,-2834.550822376" stroke="#b000b0" data-source-indices="[20]" data-group-id="20" /><polyline points="11249.187054303,-5888.969611459 13132.68194737,-2830.281318543" stroke="#b000b0" data-source-indices="[21]" data-group-id="21" /><polyline points="13148.392757979,-2799.46305376 12256.274549616,-4375.328623979" stroke="#b000b0" data-source-indices="[22]" data-group-id="22" /><polyline points="13148.392757979,-2799.46305376 12259.902929325,-4377.377188772" stroke="#b000b0" data-source-indices="[23]" data-group-id="23" /><polyline points="13148.392757979,-2799.46305376 12252.136979127,-4369.968920205" stroke="#b000b0" data-source-indices="[24]" data-group-id="24" /></g><g id="splays" inkscape:groupmode="layer" inkscape:label="splays" fill="none" stroke-width="30" stroke-linecap="round" stroke-linejoin="round" stroke="#666666" /><g id="xsections" inkscape:groupmode="layer" inkscape:label="xsections" fill="none" stroke-width="30" stroke-linecap="round" stroke-linejoin="round" stroke="#666666" /><g id="sketch" inkscape:groupmode="layer" inkscape:label="sketch" fill="none" stroke-width="30" stroke-linecap="round" stroke-linejoin="round" stroke="#666666"><polyline data-element-index="0" data-color-index="1" points="4170,-7080 4200,-7020 4140,-7230 4230,-7230 4290,-7170 4470,-7260" stroke="#000000" /><polyline data-element-index="1" data-color-index="1" points="3930,-7530 4110,-7200 4200,-7350 4260,-7320 4290,-7380" stroke="#000000" /><polyline data-element-index="2" data-color-index="1" points="3570,-7590 3660,-7440 3720,-7440 3720,-7530 3840,-7650 4020,-7680" stroke="#000000" /><polyline data-element-index="3" data-color-index="1" points="3270,-8130 3450,-7740 3570,-7860 3750,-7860 3870,-7800" stroke="#000000" /><polyline data-element-index="4" data-color-index="1" points="3270,-8400 3330,-8220 3480,-8280 3600,-8250 3660,-8190" stroke="#000000" /><polyline data-element-index="5" data-color-index="1" points="3240,-8910 3420,-8580 3390,-8670 3630,-8400 3690,-8400 3720,-8340" stroke="#000000" /><polyline data-element-index="6" data-color-index="1" points="3750,-8640 3810,-8580 3690,-8730 3870,-8520 3960,-8340" stroke="#000000" /><polyline data-element-index="7" data-color-index="1" points="4110,-8820 4140,-8790 3960,-9000 4290,-8550" stroke="#000000" /><polyline data-element-index="8" data-color-index="1" points="4500,-8850 4560,-8820 4590,-8730 4470,-8850 4620,-8550" stroke="#000000" /><polyline data-element-index="9" data-color-index="1" points="3810,-7560 3870,-7380 3750,-7590 3840,-7410 3810,-7320 3690,-7440 3630,-7440 3450,-7650 3240,-7980 3210,-8220 3210,-8400 3330,-8580 3450,-8670 3510,-8640 3570,-8700 3750,-8700 3870,-8730 4020,-8700 4260,-8730 4320,-8730 4380,-8790 4560,-8790 4800,-8880 4860,-8820 5040,-8880 5160,-8850" stroke="#000000" /><polyline data-element-index="10" data-color-index="1" points="4350,-6900 4530,-6510 4380,-6750 4440,-6690 4440,-6690 4320,-6960 4140,-7110 4080,-7110 3960,-7260" stroke="#000000" /><polyline data-element-index="11" data-color-index="1" points="2760,-9300 2130,-10320" stroke="#000000" /><polyline data-element-index="12" data-color-index="1" points="6240,-5700 6240,-5550 6180,-5640 6210,-5880 5880,-6300" stroke="#000000" /><polyline data-element-index="13" data-color-index="4" points="11710,-2470 11750,-2390 11710,-2550 12150,-2310 12630,-2230 12830,-2230 13110,-2190 13230,-2230 13510,-2230 13950,-2430" stroke="#0000ff" /><polyline data-element-index="14" data-color-index="4" points="11350,-2270 11350,-2190 11350,-2470 11510,-2510 11790,-2470 11950,-2550 12190,-2470 12430,-2550 12790,-2510 13270,-2630 13510,-2670 13470,-3030" stroke="#0000ff" /><polyline data-element-index="15" data-color-index="4" points="11670,-2790 11590,-3110 11870,-3030 11990,-3070 12390,-3070 13110,-3150" stroke="#0000ff" /><polyline data-element-index="16" data-color-index="4" points="11750,-3070 11750,-3190 11670,-3350 12110,-3350 12190,-3310 12670,-3470 12910,-3470 13070,-3630" stroke="#0000ff" /><polyline data-element-index="17" data-color-index="4" points="11710,-3550 11510,-3910 11670,-3790 11750,-3830 12030,-3830 12270,-3710 12550,-3710 12950,-3830 13030,-3830" stroke="#0000ff" /><polyline data-element-index="18" data-color-index="4" points="11430,-4510 11470,-4390 11310,-4590 11710,-4310 11830,-4110 11870,-4310 12110,-4270 12430,-4150 12870,-4230" stroke="#0000ff" /><polyline data-element-index="19" data-color-index="4" points="11790,-4430 11790,-4350 11830,-4430 11990,-4470 12110,-4630 12350,-4670 12430,-4630" stroke="#0000ff" /><polyline data-element-index="20" data-color-index="4" points="12070,-4870 11950,-5070 12070,-4830 12230,-4670 12110,-4750 11990,-4950 11910,-4990 11910,-4790 12110,-4470 12070,-4310 11910,-4230 11910,-4110 11790,-3950 11790,-3670 11590,-3070 11590,-2990 11310,-2430 11270,-1990 11270,-1910" stroke="#0000ff" /><polyline data-element-index="21" data-color-index="1" points="10550,-8470 10510,-8390" stroke="#000000" /><polyline data-element-index="22" data-color-index="1" points="8670,-3670 8710,-3510 8750,-3430 8750,-3590 8870,-3350 9230,-3030 9990,-2590 10150,-2550 10550,-2310 10710,-2310 11030,-2070 11110,-2070 11230,-1990 11550,-1910 11750,-1870 11870,-1990 12110,-2070 12190,-2150 12270,-2150 12430,-2270 12510,-2270 12550,-2190 12710,-2230" stroke="#000000" /><polyline data-element-index="23" data-color-index="1" points="8590,-3590 8630,-3510 8430,-3950 8550,-3790 8790,-3310 9110,-3030 9230,-2910 9310,-2910 9350,-2830" stroke="#000000" /><polyline data-element-index="24" data-color-index="1" points="14430,-8590 14510,-8630 14390,-8790 14070,-8990 14350,-8750" stroke="#000000" /><polyline data-element-index="25" data-color-index="1" points="11030,-6270 11070,-6190 11710,-5590 11910,-5230 11990,-5190 12030,-5070 12550,-4550 12990,-3790 13190,-3350 13310,-3190 13310,-3030 13350,-2830 13070,-2430 12950,-2270" stroke="#000000" /><polyline data-element-index="26" data-color-index="1" points="4030,-7030 4110,-6710 4430,-6390 4670,-6310 4750,-6190 4830,-6190 5390,-5590 5510,-5390 5630,-5350 5750,-5150 5830,-5150 6150,-4950 6390,-4910 6550,-4790 6630,-4790 6950,-4510 7150,-4430 7390,-4190 7990,-3630 8150,-3510 8310,-3470 8590,-3350 8670,-3270 8750,-3270 8790,-3190" stroke="#000000" /><polyline data-element-index="27" data-color-index="1" points="4110,-7030 4150,-6750 4150,-6990 4190,-6910 4190,-7030 4270,-6790 4430,-6550 4510,-6550 4550,-6470" stroke="#000000" /><polyline data-element-index="28" data-color-index="1" points="2950,-9990 2950,-9830 3030,-9870 3270,-9670 3430,-9630 3670,-9510 3750,-9510 3830,-9430 3990,-9390 4230,-9230 4310,-9150 4470,-9110 4910,-8910 4990,-8910 5430,-8590 5510,-8590 5750,-8430 5830,-8430 5990,-8310 6150,-8310 6310,-8270 6390,-8190 6470,-8190 6790,-7990 6870,-7990 7030,-7870 7110,-7870 7150,-7790 7550,-7710 8070,-7470 8310,-7310 8390,-7310 8550,-7150 8630,-7150 8950,-6950 9030,-6950 9150,-6870 9230,-6870 9310,-6790 9550,-6790 9590,-6710 9670,-6750 10270,-6550 10350,-6550 10590,-6390 10750,-6350 11070,-6150 11150,-6150 11430,-5870" stroke="#000000" /><polyline data-element-index="29" data-color-index="1" points="-360,-5710 -330,-5560 -270,-5650 -180,-5500 -30,-5590 30,-5530 60,-5590 240,-5620 420,-5770 480,-5740 510,-5800 660,-5830 960,-6010 1470,-6160 1530,-6220 1680,-6220 1860,-6280 1920,-6280 2040,-6370 2400,-6460 2460,-6520 2520,-6490 2700,-6580 2820,-6610 2940,-6640 3000,-6610 3120,-6700 3210,-6700 3570,-6850 3750,-6850 3810,-6820 3870,-6850 4080,-6670 4140,-6670 4260,-6550" stroke="#000000" /><polyline data-element-index="30" data-color-index="1" points="-810,-7420 -810,-7360 -660,-6850 -630,-6730 -420,-6970" stroke="#000000" /><polyline data-element-index="31" data-color-index="1" points="-720,-7000 -690,-6790 -690,-6790 -630,-6550 -420,-6100 -420,-6040 -180,-5860 -120,-5890 0,-5860 60,-5770 180,-5740 270,-5650 390,-5620" stroke="#000000" /><polyline data-element-index="32" data-color-index="1" points="-720,-7060 -780,-7270" stroke="#000000" /><polyline data-element-index="33" data-color-index="1" points="-690,-7060 -660,-6820 -630,-6760 -780,-7180" stroke="#000000" /><polyline data-element-index="34" data-color-index="1" points="-840,-6190 -840,-6190" stroke="#000000" /><polyline data-element-index="35" data-color-index="1" points="-660,-6070 -630,-5890 -690,-5980 -690,-5920 -750,-5920 -810,-5980" stroke="#000000" /><polyline data-element-index="36" data-color-index="1" points="-990,-5440 -990,-5380 -870,-5650 -780,-6040 -690,-6400 -630,-6730 -600,-6970 -540,-7390 -420,-7720 -420,-7840 -180,-8710 -60,-8980 0,-9040 30,-9190 270,-9520 420,-9730 480,-9730 660,-9880 690,-9970 750,-9970 930,-10120 1080,-10210 1200,-10210 1440,-10270 1680,-10300 1770,-10300 1830,-10330 2070,-10270 2160,-10180 2280,-10150 2340,-10090 2460,-10060 2700,-9970 3000,-9730 3000,-9670" stroke="#000000" /><polyline data-element-index="37" data-color-index="1" points="-40,-740 80,-340 80,-220 160,60 200,-220 160,-420 200,-340 320,-580 320,-820 360,-1020 360,-1420 400,-1580 360,-1980 400,-2060 360,-2260 360,-2740 200,-3340 160,-3500 160,-3580 80,-3660 40,-3820 -160,-4460 -240,-4540 -280,-4740 -440,-5060 -440,-5220 -240,-5460" stroke="#000000" /><polyline data-element-index="38" data-color-index="1" points="-1120,-5380 -1000,-5220 -1000,-5020 -920,-4780 -880,-4580 -840,-4420 -640,-3580 -680,-3500 -640,-3220 -640,-3060 -600,-2780 -600,-2460 -640,-2260 -640,-1260 -600,-1100 -480,-420 -320,20 -320,380" stroke="#000000" /><polyline data-element-index="39" data-color-index="1" points="-1280,-5820 -1240,-5740 -1480,-6020" stroke="#000000" /><polyline data-element-index="40" data-color-index="1" points="-240,-260 -240,-180 -320,-380 -200,-140" stroke="#000000" /></g><g id="stations" inkscape:groupmode="layer" inkscape:label="stations" fill="none" stroke-width="30" stroke-linecap="round" stroke-linejoin="round" stroke="#666666"><g id="overlay-notice"><title>unadjusted_closure; held_source_shots_not_projected</title><g aria-label="CHECK OVERLAY" data-font="jktz-grid-3x5-v1"><title>CHECK OVERLAY</title><path d="M-1480,-10730h40v40h-40z M-1440,-10730h40v40h-40z M-1400,-10730h40v40h-40z M-1480,-10690h40v40h-40z M-1480,-10650h40v40h-40z M-1480,-10610h40v40h-40z M-1480,-10570h40v40h-40z M-1440,-10570h40v40h-40z M-1400,-10570h40v40h-40z M-1320,-10730h40v40h-40z M-1240,-10730h40v40h-40z M-1320,-10690h40v40h-40z M-1240,-10690h40v40h-40z M-1320,-10650h40v40h-40z M-1280,-10650h40v40h-40z M-1240,-10650h40v40h-40z M-1320,-10610h40v40h-40z M-1240,-10610h40v40h-40z M-1320,-10570h40v40h-40z M-1240,-10570h40v40h-40z M-1160,-10730h40v40h-40z M-1120,-10730h40v40h-40z M-1080,-10730h40v40h-40z M-1160,-10690h40v40h-40z M-1160,-10650h40v40h-40z M-1120,-10650h40v40h-40z M-1160,-10610h40v40h-40z M-1160,-10570h40v40h-40z M-1120,-10570h40v40h-40z M-1080,-10570h40v40h-40z M-1000,-10730h40v40h-40z M-960,-10730h40v40h-40z M-920,-10730h40v40h-40z M-1000,-10690h40v40h-40z M-1000,-10650h40v40h-40z M-1000,-10610h40v40h-40z M-1000,-10570h40v40h-40z M-960,-10570h40v40h-40z M-920,-10570h40v40h-40z M-840,-10730h40v40h-40z M-760,-10730h40v40h-40z M-840,-10690h40v40h-40z M-760,-10690h40v40h-40z M-840,-10650h40v40h-40z M-800,-10650h40v40h-40z M-840,-10610h40v40h-40z M-760,-10610h40v40h-40z M-840,-10570h40v40h-40z M-760,-10570h40v40h-40z M-520,-10730h40v40h-40z M-480,-10730h40v40h-40z M-440,-10730h40v40h-40z M-520,-10690h40v40h-40z M-440,-10690h40v40h-40z M-520,-10650h40v40h-40z M-440,-10650h40v40h-40z M-520,-10610h40v40h-40z M-440,-10610h40v40h-40z M-520,-10570h40v40h-40z M-480,-10570h40v40h-40z M-440,-10570h40v40h-40z M-360,-10730h40v40h-40z M-280,-10730h40v40h-40z M-360,-10690h40v40h-40z M-280,-10690h40v40h-40z M-360,-10650h40v40h-40z M-280,-10650h40v40h-40z M-360,-10610h40v40h-40z M-280,-10610h40v40h-40z M-320,-10570h40v40h-40z M-200,-10730h40v40h-40z M-160,-10730h40v40h-40z M-120,-10730h40v40h-40z M-200,-10690h40v40h-40z M-200,-10650h40v40h-40z M-160,-10650h40v40h-40z M-200,-10610h40v40h-40z M-200,-10570h40v40h-40z M-160,-10570h40v40h-40z M-120,-10570h40v40h-40z M-40,-10730h40v40h-40z M0,-10730h40v40h-40z M40,-10730h40v40h-40z M-40,-10690h40v40h-40z M40,-10690h40v40h-40z M-40,-10650h40v40h-40z M0,-10650h40v40h-40z M-40,-10610h40v40h-40z M40,-10610h40v40h-40z M-40,-10570h40v40h-40z M40,-10570h40v40h-40z M120,-10730h40v40h-40z M120,-10690h40v40h-40z M120,-10650h40v40h-40z M120,-10610h40v40h-40z M120,-10570h40v40h-40z M160,-10570h40v40h-40z M200,-10570h40v40h-40z M320,-10730h40v40h-40z M280,-10690h40v40h-40z M360,-10690h40v40h-40z M280,-10650h40v40h-40z M320,-10650h40v40h-40z M360,-10650h40v40h-40z M280,-10610h40v40h-40z M360,-10610h40v40h-40z M280,-10570h40v40h-40z M360,-10570h40v40h-40z M440,-10730h40v40h-40z M520,-10730h40v40h-40z M440,-10690h40v40h-40z M520,-10690h40v40h-40z M480,-10650h40v40h-40z M480,-10610h40v40h-40z M480,-10570h40v40h-40z" fill="#cc0000" stroke="none" /></g></g><g data-station-raw="65536"><circle cx="0" cy="0" r="60" fill="#b000b0" stroke="none" /><g aria-label="1.0" data-font="jktz-grid-3x5-v1"><title>1.0</title><path d="M130,0h40v40h-40z M90,40h40v40h-40z M130,40h40v40h-40z M130,80h40v40h-40z M130,120h40v40h-40z M90,160h40v40h-40z M130,160h40v40h-40z M170,160h40v40h-40z M290,160h40v40h-40z M410,0h40v40h-40z M450,0h40v40h-40z M490,0h40v40h-40z M410,40h40v40h-40z M490,40h40v40h-40z M410,80h40v40h-40z M490,80h40v40h-40z M410,120h40v40h-40z M490,120h40v40h-40z M410,160h40v40h-40z M450,160h40v40h-40z M490,160h40v40h-40z" fill="#b000b0" stroke="none" /></g></g><g data-station-raw="65537"><circle cx="-209.545922071" cy="-3992.027755409" r="60" fill="#b000b0" stroke="none" /><g aria-label="1.1" data-font="jktz-grid-3x5-v1"><title>1.1</title><path d="M-79.545922071,-3992.027755409h40v40h-40z M-119.545922071,-3952.027755409h40v40h-40z M-79.545922071,-3952.027755409h40v40h-40z M-79.545922071,-3912.027755409h40v40h-40z M-79.545922071,-3872.027755409h40v40h-40z M-119.545922071,-3832.027755409h40v40h-40z M-79.545922071,-3832.027755409h40v40h-40z M-39.545922071,-3832.027755409h40v40h-40z M80.454077929,-3832.027755409h40v40h-40z M240.454077929,-3992.027755409h40v40h-40z M200.454077929,-3952.027755409h40v40h-40z M240.454077929,-3952.027755409h40v40h-40z M240.454077929,-3912.027755409h40v40h-40z M240.454077929,-3872.027755409h40v40h-40z M200.454077929,-3832.027755409h40v40h-40z M240.454077929,-3832.027755409h40v40h-40z M280.454077929,-3832.027755409h40v40h-40z" fill="#b000b0" stroke="none" /></g></g><g data-station-raw="65538"><circle cx="-822.036387502" cy="-5390.763026297" r="60" fill="#b000b0" stroke="none" /><g aria-label="1.2" data-font="jktz-grid-3x5-v1"><title>1.2</title><path d="M-692.036387502,-5390.763026297h40v40h-40z M-732.036387502,-5350.763026297h40v40h-40z M-692.036387502,-5350.763026297h40v40h-40z M-692.036387502,-5310.763026297h40v40h-40z M-692.036387502,-5270.763026297h40v40h-40z M-732.036387502,-5230.763026297h40v40h-40z M-692.036387502,-5230.763026297h40v40h-40z M-652.036387502,-5230.763026297h40v40h-40z M-532.036387502,-5230.763026297h40v40h-40z M-412.036387502,-5390.763026297h40v40h-40z M-372.036387502,-5390.763026297h40v40h-40z M-332.036387502,-5390.763026297h40v40h-40z M-332.036387502,-5350.763026297h40v40h-40z M-412.036387502,-5310.763026297h40v40h-40z M-372.036387502,-5310.763026297h40v40h-40z M-332.036387502,-5310.763026297h40v40h-40z M-412.036387502,-5270.763026297h40v40h-40z M-412.036387502,-5230.763026297h40v40h-40z M-372.036387502,-5230.763026297h40v40h-40z M-332.036387502,-5230.763026297h40v40h-40z" fill="#b000b0" stroke="none" /></g></g><g data-station-raw="65539"><circle cx="-577.56563664" cy="-6077.539821568" r="60" fill="#b000b0" stroke="none" /><g aria-label="1.3" data-font="jktz-grid-3x5-v1"><title>1.3</title><path d="M-447.56563664,-6077.539821568h40v40h-40z M-487.56563664,-6037.539821568h40v40h-40z M-447.56563664,-6037.539821568h40v40h-40z M-447.56563664,-5997.539821568h40v40h-40z M-447.56563664,-5957.539821568h40v40h-40z M-487.56563664,-5917.539821568h40v40h-40z M-447.56563664,-5917.539821568h40v40h-40z M-407.56563664,-5917.539821568h40v40h-40z M-287.56563664,-5917.539821568h40v40h-40z M-167.56563664,-6077.539821568h40v40h-40z M-127.56563664,-6077.539821568h40v40h-40z M-87.56563664,-6077.539821568h40v40h-40z M-87.56563664,-6037.539821568h40v40h-40z M-167.56563664,-5997.539821568h40v40h-40z M-127.56563664,-5997.539821568h40v40h-40z M-87.56563664,-5997.539821568h40v40h-40z M-87.56563664,-5957.539821568h40v40h-40z M-167.56563664,-5917.539821568h40v40h-40z M-127.56563664,-5917.539821568h40v40h-40z M-87.56563664,-5917.539821568h40v40h-40z" fill="#b000b0" stroke="none" /></g></g><g data-station-raw="65540"><circle cx="2660.763736607" cy="-9908.97908892" r="60" fill="#b000b0" stroke="none" /><g aria-label="1.4" data-font="jktz-grid-3x5-v1"><title>1.4</title><path d="M2790.763736607,-9908.97908892h40v40h-40z M2750.763736607,-9868.97908892h40v40h-40z M2790.763736607,-9868.97908892h40v40h-40z M2790.763736607,-9828.97908892h40v40h-40z M2790.763736607,-9788.97908892h40v40h-40z M2750.763736607,-9748.97908892h40v40h-40z M2790.763736607,-9748.97908892h40v40h-40z M2830.763736607,-9748.97908892h40v40h-40z M2950.763736607,-9748.97908892h40v40h-40z M3070.763736607,-9908.97908892h40v40h-40z M3150.763736607,-9908.97908892h40v40h-40z M3070.763736607,-9868.97908892h40v40h-40z M3150.763736607,-9868.97908892h40v40h-40z M3070.763736607,-9828.97908892h40v40h-40z M3110.763736607,-9828.97908892h40v40h-40z M3150.763736607,-9828.97908892h40v40h-40z M3150.763736607,-9788.97908892h40v40h-40z M3150.763736607,-9748.97908892h40v40h-40z" fill="#b000b0" stroke="none" /></g></g><g data-station-raw="65541"><circle cx="4284.532544108" cy="-6846.446401684" r="60" fill="#b000b0" stroke="none" /><g aria-label="1.5" data-font="jktz-grid-3x5-v1"><title>1.5</title><path d="M4414.532544108,-6846.446401684h40v40h-40z M4374.532544108,-6806.446401684h40v40h-40z M4414.532544108,-6806.446401684h40v40h-40z M4414.532544108,-6766.446401684h40v40h-40z M4414.532544108,-6726.446401684h40v40h-40z M4374.532544108,-6686.446401684h40v40h-40z M4414.532544108,-6686.446401684h40v40h-40z M4454.532544108,-6686.446401684h40v40h-40z M4574.532544108,-6686.446401684h40v40h-40z M4694.532544108,-6846.446401684h40v40h-40z M4734.532544108,-6846.446401684h40v40h-40z M4774.532544108,-6846.446401684h40v40h-40z M4694.532544108,-6806.446401684h40v40h-40z M4694.532544108,-6766.446401684h40v40h-40z M4734.532544108,-6766.446401684h40v40h-40z M4774.532544108,-6766.446401684h40v40h-40z M4774.532544108,-6726.446401684h40v40h-40z M4694.532544108,-6686.446401684h40v40h-40z M4734.532544108,-6686.446401684h40v40h-40z M4774.532544108,-6686.446401684h40v40h-40z" fill="#b000b0" stroke="none" /></g></g><g data-station-raw="65542"><circle cx="11249.187054303" cy="-5888.969611459" r="60" fill="#b000b0" stroke="none" /><g aria-label="1.6" data-font="jktz-grid-3x5-v1"><title>1.6</title><path d="M11379.187054303,-5888.969611459h40v40h-40z M11339.187054303,-5848.969611459h40v40h-40z M11379.187054303,-5848.969611459h40v40h-40z M11379.187054303,-5808.969611459h40v40h-40z M11379.187054303,-5768.969611459h40v40h-40z M11339.187054303,-5728.969611459h40v40h-40z M11379.187054303,-5728.969611459h40v40h-40z M11419.187054303,-5728.969611459h40v40h-40z M11539.187054303,-5728.969611459h40v40h-40z M11659.187054303,-5888.969611459h40v40h-40z M11699.187054303,-5888.969611459h40v40h-40z M11739.187054303,-5888.969611459h40v40h-40z M11659.187054303,-5848.969611459h40v40h-40z M11659.187054303,-5808.969611459h40v40h-40z M11699.187054303,-5808.969611459h40v40h-40z M11739.187054303,-5808.969611459h40v40h-40z M11659.187054303,-5768.969611459h40v40h-40z M11739.187054303,-5768.969611459h40v40h-40z M11659.187054303,-5728.969611459h40v40h-40z M11699.187054303,-5728.969611459h40v40h-40z M11739.187054303,-5728.969611459h40v40h-40z" fill="#b000b0" stroke="none" /></g></g><g data-station-raw="65543"><circle cx="13148.392757979" cy="-2799.46305376" r="60" fill="#b000b0" stroke="none" /><g aria-label="1.7" data-font="jktz-grid-3x5-v1"><title>1.7</title><path d="M13278.392757979,-2799.46305376h40v40h-40z M13238.392757979,-2759.46305376h40v40h-40z M13278.392757979,-2759.46305376h40v40h-40z M13278.392757979,-2719.46305376h40v40h-40z M13278.392757979,-2679.46305376h40v40h-40z M13238.392757979,-2639.46305376h40v40h-40z M13278.392757979,-2639.46305376h40v40h-40z M13318.392757979,-2639.46305376h40v40h-40z M13438.392757979,-2639.46305376h40v40h-40z M13558.392757979,-2799.46305376h40v40h-40z M13598.392757979,-2799.46305376h40v40h-40z M13638.392757979,-2799.46305376h40v40h-40z M13638.392757979,-2759.46305376h40v40h-40z M13598.392757979,-2719.46305376h40v40h-40z M13598.392757979,-2679.46305376h40v40h-40z M13598.392757979,-2639.46305376h40v40h-40z" fill="#b000b0" stroke="none" /></g></g><g data-station-raw="65544"><circle cx="12256.274549616" cy="-4375.328623979" r="60" fill="#b000b0" stroke="none" /><g aria-label="1.8" data-font="jktz-grid-3x5-v1"><title>1.8</title><path d="M12386.274549616,-4375.328623979h40v40h-40z M12346.274549616,-4335.328623979h40v40h-40z M12386.274549616,-4335.328623979h40v40h-40z M12386.274549616,-4295.328623979h40v40h-40z M12386.274549616,-4255.328623979h40v40h-40z M12346.274549616,-4215.328623979h40v40h-40z M12386.274549616,-4215.328623979h40v40h-40z M12426.274549616,-4215.328623979h40v40h-40z M12546.274549616,-4215.328623979h40v40h-40z M12666.274549616,-4375.328623979h40v40h-40z M12706.274549616,-4375.328623979h40v40h-40z M12746.274549616,-4375.328623979h40v40h-40z M12666.274549616,-4335.328623979h40v40h-40z M12746.274549616,-4335.328623979h40v40h-40z M12666.274549616,-4295.328623979h40v40h-40z M12706.274549616,-4295.328623979h40v40h-40z M12746.274549616,-4295.328623979h40v40h-40z M12666.274549616,-4255.328623979h40v40h-40z M12746.274549616,-4255.328623979h40v40h-40z M12666.274549616,-4215.328623979h40v40h-40z M12706.274549616,-4215.328623979h40v40h-40z M12746.274549616,-4215.328623979h40v40h-40z" fill="#b000b0" stroke="none" /></g></g></g></svg>
